<svg width="309" height="130" viewBox="0 0 309 130" fill="none" xmlns="http://www.w3.org/2000/svg">
<rect x="22" width="265" height="46" fill="black"/>
<path d="M93.0606 35.44C94.0473 35.44 94.9073 35.3067 95.6406 35.04C96.374 34.7733 96.9806 34.4 97.4606 33.92C97.9406 33.4267 98.294 32.84 98.5206 32.16C98.7606 31.48 98.8806 30.72 98.8806 29.88C98.8806 28.72 98.5006 27.8 97.7406 27.12C96.994 26.44 95.814 26.1 94.2006 26.1H88.9606L87.8206 35.44H93.0606ZM90.4806 13.74L89.3606 22.94H93.5606C95.534 22.94 97.0273 22.4667 98.0406 21.52C99.054 20.5733 99.5606 19.2267 99.5606 17.48C99.5606 16.1867 99.1806 15.24 98.4206 14.64C97.6606 14.04 96.494 13.74 94.9206 13.74H90.4806ZM95.3206 10.2C96.8673 10.2 98.194 10.3533 99.3006 10.66C100.421 10.9667 101.334 11.4067 102.041 11.98C102.761 12.54 103.287 13.22 103.621 14.02C103.954 14.82 104.121 15.7133 104.121 16.7C104.121 17.54 104.001 18.34 103.761 19.1C103.534 19.86 103.181 20.5667 102.701 21.22C102.234 21.86 101.641 22.4333 100.921 22.94C100.201 23.4467 99.3473 23.86 98.3606 24.18C100.027 24.58 101.267 25.2533 102.081 26.2C102.907 27.1467 103.321 28.3467 103.321 29.8C103.321 31.1333 103.074 32.36 102.581 33.48C102.101 34.6 101.401 35.5733 100.481 36.4C99.574 37.2133 98.4606 37.8533 97.1406 38.32C95.834 38.7733 94.354 39 92.7006 39H82.8806L86.4206 10.2H95.3206ZM134.237 22.62C134.237 24.22 134.063 25.7467 133.717 27.2C133.37 28.6533 132.87 30 132.217 31.24C131.577 32.4667 130.797 33.58 129.877 34.58C128.957 35.5667 127.93 36.4133 126.797 37.12C125.663 37.8133 124.437 38.3533 123.117 38.74C121.797 39.1133 120.403 39.3 118.937 39.3C117.137 39.3 115.51 38.98 114.057 38.34C112.617 37.7 111.39 36.82 110.377 35.7C109.377 34.5667 108.603 33.2267 108.057 31.68C107.523 30.1333 107.257 28.4467 107.257 26.62C107.257 25.0067 107.43 23.4733 107.777 22.02C108.137 20.5667 108.637 19.22 109.277 17.98C109.917 16.74 110.697 15.62 111.617 14.62C112.537 13.62 113.563 12.7733 114.697 12.08C115.83 11.3733 117.057 10.8333 118.377 10.46C119.697 10.0733 121.09 9.88 122.557 9.88C124.357 9.88 125.977 10.2 127.417 10.84C128.857 11.48 130.083 12.3733 131.097 13.52C132.11 14.6533 132.883 16 133.417 17.56C133.963 19.1067 134.237 20.7933 134.237 22.62ZM129.597 22.72C129.597 21.3467 129.423 20.1067 129.077 19C128.73 17.88 128.23 16.9267 127.577 16.14C126.923 15.34 126.123 14.7267 125.177 14.3C124.243 13.8733 123.19 13.66 122.017 13.66C120.51 13.66 119.13 13.9667 117.877 14.58C116.637 15.18 115.57 16.04 114.677 17.16C113.797 18.28 113.11 19.6333 112.617 21.22C112.123 22.7933 111.877 24.5467 111.877 26.48C111.877 27.8533 112.05 29.1 112.397 30.22C112.743 31.3267 113.237 32.28 113.877 33.08C114.53 33.8667 115.323 34.4733 116.257 34.9C117.19 35.3267 118.25 35.54 119.437 35.54C120.957 35.54 122.337 35.24 123.577 34.64C124.83 34.0267 125.903 33.1667 126.797 32.06C127.69 30.94 128.377 29.5933 128.857 28.02C129.35 26.4333 129.597 24.6667 129.597 22.72ZM147.662 27.66L146.242 39H141.742L143.162 27.66L135.622 10.2H139.622C140.008 10.2 140.308 10.3 140.522 10.5C140.748 10.6867 140.915 10.9333 141.022 11.24L145.242 21.9C145.535 22.7533 145.762 23.5867 145.922 24.4C146.108 24 146.308 23.6 146.522 23.2C146.748 22.7867 146.995 22.3533 147.262 21.9L154.142 11.24C154.302 10.9733 154.508 10.7333 154.762 10.52C155.028 10.3067 155.355 10.2 155.742 10.2H159.482L147.662 27.66ZM157.606 38.98C157.219 38.98 156.866 38.9133 156.546 38.78C156.226 38.6333 155.952 38.44 155.726 38.2C155.499 37.9467 155.319 37.6533 155.186 37.32C155.066 36.9867 155.006 36.62 155.006 36.22C155.006 35.5133 155.246 34.92 155.726 34.44C156.206 33.96 156.846 33.72 157.646 33.72C158.099 33.72 158.499 33.8067 158.846 33.98C159.192 34.14 159.479 34.3667 159.706 34.66C159.946 34.94 160.119 35.2733 160.226 35.66C160.346 36.0333 160.406 36.4333 160.406 36.86C160.406 37.4733 160.312 38.12 160.126 38.8C159.952 39.48 159.686 40.1533 159.326 40.82C158.979 41.5 158.546 42.16 158.026 42.8C157.519 43.44 156.939 44.0267 156.286 44.56L155.526 43.86C155.326 43.6733 155.226 43.46 155.226 43.22C155.226 43.0467 155.332 42.8333 155.546 42.58C155.772 42.3267 156.026 42.02 156.306 41.66C156.586 41.3133 156.859 40.92 157.126 40.48C157.406 40.04 157.599 39.54 157.706 38.98H157.606ZM184.328 24.96C185.394 24.96 186.328 24.8 187.128 24.48C187.941 24.1467 188.614 23.6933 189.148 23.12C189.681 22.5333 190.081 21.84 190.348 21.04C190.614 20.2267 190.748 19.34 190.748 18.38C190.748 16.9667 190.334 15.84 189.508 15C188.681 14.16 187.408 13.74 185.688 13.74H181.828L180.448 24.96H184.328ZM186.128 10.2C187.701 10.2 189.061 10.3933 190.208 10.78C191.368 11.1533 192.321 11.6867 193.068 12.38C193.828 13.06 194.388 13.88 194.748 14.84C195.108 15.7867 195.288 16.8333 195.288 17.98C195.288 19.5133 195.041 20.9267 194.548 22.22C194.068 23.5 193.348 24.6067 192.388 25.54C191.428 26.4733 190.234 27.2067 188.808 27.74C187.394 28.26 185.754 28.52 183.888 28.52H180.008L178.728 39H174.248L177.768 10.2H186.128ZM201.658 39H197.138L200.658 10.2H205.178L201.658 39ZM215.735 13.86L214.655 22.72H224.275L223.815 26.24H214.215L213.095 35.34H225.195L224.735 39H208.115L211.655 10.2H228.255L227.795 13.86H215.735Z" fill="white"/>
<path d="M43.2626 72.67V76H30.5576V54.31H34.5926V72.67H43.2626ZM56.8432 60.61L48.4582 80.23C48.3482 80.49 48.2032 80.685 48.0232 80.815C47.8532 80.955 47.5882 81.025 47.2282 81.025H44.4682L47.3482 74.845L41.1232 60.61H44.3782C44.6682 60.61 44.8932 60.68 45.0532 60.82C45.2232 60.96 45.3482 61.12 45.4282 61.3L48.6982 69.28C48.8082 69.55 48.8982 69.82 48.9682 70.09C49.0482 70.36 49.1232 70.635 49.1932 70.915C49.2832 70.635 49.3732 70.36 49.4632 70.09C49.5532 69.81 49.6532 69.535 49.7632 69.265L52.8532 61.3C52.9332 61.1 53.0632 60.935 53.2432 60.805C53.4332 60.675 53.6432 60.61 53.8732 60.61H56.8432ZM62.1785 63.28C62.6585 62.36 63.2285 61.64 63.8885 61.12C64.5485 60.59 65.3285 60.325 66.2285 60.325C66.9385 60.325 67.5085 60.48 67.9385 60.79L67.6985 63.565C67.6485 63.745 67.5735 63.875 67.4735 63.955C67.3835 64.025 67.2585 64.06 67.0985 64.06C66.9485 64.06 66.7235 64.035 66.4235 63.985C66.1335 63.935 65.8485 63.91 65.5685 63.91C65.1585 63.91 64.7935 63.97 64.4735 64.09C64.1535 64.21 63.8635 64.385 63.6035 64.615C63.3535 64.835 63.1285 65.105 62.9285 65.425C62.7385 65.745 62.5585 66.11 62.3885 66.52V76H58.6835V60.61H60.8585C61.2385 60.61 61.5035 60.68 61.6535 60.82C61.8035 60.95 61.9035 61.19 61.9535 61.54L62.1785 63.28ZM73.7149 60.61V76H69.9949V60.61H73.7149ZM74.2249 56.125C74.2249 56.445 74.1599 56.745 74.0299 57.025C73.8999 57.305 73.7249 57.55 73.5049 57.76C73.2949 57.97 73.0449 58.14 72.7549 58.27C72.4649 58.39 72.1549 58.45 71.8249 58.45C71.5049 58.45 71.1999 58.39 70.9099 58.27C70.6299 58.14 70.3849 57.97 70.1749 57.76C69.9649 57.55 69.7949 57.305 69.6649 57.025C69.5449 56.745 69.4849 56.445 69.4849 56.125C69.4849 55.795 69.5449 55.485 69.6649 55.195C69.7949 54.905 69.9649 54.655 70.1749 54.445C70.3849 54.235 70.6299 54.07 70.9099 53.95C71.1999 53.82 71.5049 53.755 71.8249 53.755C72.1549 53.755 72.4649 53.82 72.7549 53.95C73.0449 54.07 73.2949 54.235 73.5049 54.445C73.7249 54.655 73.8999 54.905 74.0299 55.195C74.1599 55.485 74.2249 55.795 74.2249 56.125ZM88.5171 63.865C88.4071 64.005 88.2971 64.115 88.1871 64.195C88.0871 64.275 87.9371 64.315 87.7371 64.315C87.5471 64.315 87.3621 64.26 87.1821 64.15C87.0021 64.03 86.7871 63.9 86.5371 63.76C86.2871 63.61 85.9871 63.48 85.6371 63.37C85.2971 63.25 84.8721 63.19 84.3621 63.19C83.7121 63.19 83.1421 63.31 82.6521 63.55C82.1621 63.78 81.7521 64.115 81.4221 64.555C81.1021 64.995 80.8621 65.53 80.7021 66.16C80.5421 66.78 80.4621 67.485 80.4621 68.275C80.4621 69.095 80.5471 69.825 80.7171 70.465C80.8971 71.105 81.1521 71.645 81.4821 72.085C81.8121 72.515 82.2121 72.845 82.6821 73.075C83.1521 73.295 83.6821 73.405 84.2721 73.405C84.8621 73.405 85.3371 73.335 85.6971 73.195C86.0671 73.045 86.3771 72.885 86.6271 72.715C86.8771 72.535 87.0921 72.375 87.2721 72.235C87.4621 72.085 87.6721 72.01 87.9021 72.01C88.2021 72.01 88.4271 72.125 88.5771 72.355L89.6421 73.705C89.2321 74.185 88.7871 74.59 88.3071 74.92C87.8271 75.24 87.3271 75.5 86.8071 75.7C86.2971 75.89 85.7671 76.025 85.2171 76.105C84.6771 76.185 84.1371 76.225 83.5971 76.225C82.6471 76.225 81.7521 76.05 80.9121 75.7C80.0721 75.34 79.3371 74.82 78.7071 74.14C78.0771 73.46 77.5771 72.63 77.2071 71.65C76.8471 70.66 76.6671 69.535 76.6671 68.275C76.6671 67.145 76.8271 66.1 77.1471 65.14C77.4771 64.17 77.9571 63.335 78.5871 62.635C79.2171 61.925 79.9971 61.37 80.9271 60.97C81.8571 60.57 82.9271 60.37 84.1371 60.37C85.2871 60.37 86.2921 60.555 87.1521 60.925C88.0221 61.295 88.8021 61.825 89.4921 62.515L88.5171 63.865ZM100.095 69.43C99.0248 69.48 98.1248 69.575 97.3948 69.715C96.6648 69.845 96.0798 70.015 95.6398 70.225C95.1998 70.435 94.8848 70.68 94.6948 70.96C94.5048 71.24 94.4098 71.545 94.4098 71.875C94.4098 72.525 94.5998 72.99 94.9798 73.27C95.3698 73.55 95.8748 73.69 96.4948 73.69C97.2548 73.69 97.9098 73.555 98.4598 73.285C99.0198 73.005 99.5648 72.585 100.095 72.025V69.43ZM91.6048 62.755C93.3748 61.135 95.5048 60.325 97.9948 60.325C98.8948 60.325 99.6998 60.475 100.41 60.775C101.12 61.065 101.72 61.475 102.21 62.005C102.7 62.525 103.07 63.15 103.32 63.88C103.58 64.61 103.71 65.41 103.71 66.28V76H102.03C101.68 76 101.41 75.95 101.22 75.85C101.03 75.74 100.88 75.525 100.77 75.205L100.44 74.095C100.05 74.445 99.6698 74.755 99.2998 75.025C98.9298 75.285 98.5448 75.505 98.1448 75.685C97.7448 75.865 97.3148 76 96.8548 76.09C96.4048 76.19 95.9048 76.24 95.3548 76.24C94.7048 76.24 94.1048 76.155 93.5548 75.985C93.0048 75.805 92.5298 75.54 92.1298 75.19C91.7298 74.84 91.4198 74.405 91.1998 73.885C90.9798 73.365 90.8698 72.76 90.8698 72.07C90.8698 71.68 90.9348 71.295 91.0648 70.915C91.1948 70.525 91.4048 70.155 91.6948 69.805C91.9948 69.455 92.3798 69.125 92.8498 68.815C93.3198 68.505 93.8948 68.235 94.5748 68.005C95.2648 67.775 96.0648 67.59 96.9748 67.45C97.8848 67.3 98.9248 67.21 100.095 67.18V66.28C100.095 65.25 99.8748 64.49 99.4348 64C98.9948 63.5 98.3598 63.25 97.5298 63.25C96.9298 63.25 96.4298 63.32 96.0298 63.46C95.6398 63.6 95.2948 63.76 94.9948 63.94C94.6948 64.11 94.4198 64.265 94.1698 64.405C93.9298 64.545 93.6598 64.615 93.3598 64.615C93.0998 64.615 92.8798 64.55 92.6998 64.42C92.5198 64.28 92.3748 64.12 92.2648 63.94L91.6048 62.755ZM110.949 53.71V76H107.244V53.71H110.949ZM141.78 65.155C141.78 66.745 141.515 68.205 140.985 69.535C140.455 70.865 139.71 72.01 138.75 72.97C137.79 73.93 136.635 74.675 135.285 75.205C133.935 75.735 132.435 76 130.785 76H122.52V54.31H130.785C132.435 54.31 133.935 54.58 135.285 55.12C136.635 55.65 137.79 56.395 138.75 57.355C139.71 58.305 140.455 59.445 140.985 60.775C141.515 62.105 141.78 63.565 141.78 65.155ZM137.64 65.155C137.64 63.965 137.48 62.9 137.16 61.96C136.85 61.01 136.395 60.21 135.795 59.56C135.205 58.9 134.485 58.395 133.635 58.045C132.795 57.695 131.845 57.52 130.785 57.52H126.57V72.79H130.785C131.845 72.79 132.795 72.615 133.635 72.265C134.485 71.915 135.205 71.415 135.795 70.765C136.395 70.105 136.85 69.305 137.16 68.365C137.48 67.415 137.64 66.345 137.64 65.155ZM148.334 60.61V76H144.614V60.61H148.334ZM148.844 56.125C148.844 56.445 148.779 56.745 148.649 57.025C148.519 57.305 148.344 57.55 148.124 57.76C147.914 57.97 147.664 58.14 147.374 58.27C147.084 58.39 146.774 58.45 146.444 58.45C146.124 58.45 145.819 58.39 145.529 58.27C145.249 58.14 145.004 57.97 144.794 57.76C144.584 57.55 144.414 57.305 144.284 57.025C144.164 56.745 144.104 56.445 144.104 56.125C144.104 55.795 144.164 55.485 144.284 55.195C144.414 54.905 144.584 54.655 144.794 54.445C145.004 54.235 145.249 54.07 145.529 53.95C145.819 53.82 146.124 53.755 146.444 53.755C146.774 53.755 147.084 53.82 147.374 53.95C147.664 54.07 147.914 54.235 148.124 54.445C148.344 54.655 148.519 54.905 148.649 55.195C148.779 55.485 148.844 55.795 148.844 56.125ZM161.501 63.61C161.401 63.77 161.296 63.885 161.186 63.955C161.076 64.015 160.936 64.045 160.766 64.045C160.586 64.045 160.391 63.995 160.181 63.895C159.981 63.795 159.746 63.685 159.476 63.565C159.206 63.435 158.896 63.32 158.546 63.22C158.206 63.12 157.801 63.07 157.331 63.07C156.601 63.07 156.026 63.225 155.606 63.535C155.196 63.845 154.991 64.25 154.991 64.75C154.991 65.08 155.096 65.36 155.306 65.59C155.526 65.81 155.811 66.005 156.161 66.175C156.521 66.345 156.926 66.5 157.376 66.64C157.826 66.77 158.281 66.915 158.741 67.075C159.211 67.235 159.671 67.42 160.121 67.63C160.571 67.83 160.971 68.09 161.321 68.41C161.681 68.72 161.966 69.095 162.176 69.535C162.396 69.975 162.506 70.505 162.506 71.125C162.506 71.865 162.371 72.55 162.101 73.18C161.841 73.8 161.451 74.34 160.931 74.8C160.411 75.25 159.766 75.605 158.996 75.865C158.236 76.115 157.356 76.24 156.356 76.24C155.826 76.24 155.306 76.19 154.796 76.09C154.296 76 153.811 75.87 153.341 75.7C152.881 75.53 152.451 75.33 152.051 75.1C151.661 74.87 151.316 74.62 151.016 74.35L151.871 72.94C151.981 72.77 152.111 72.64 152.261 72.55C152.411 72.46 152.601 72.415 152.831 72.415C153.061 72.415 153.276 72.48 153.476 72.61C153.686 72.74 153.926 72.88 154.196 73.03C154.466 73.18 154.781 73.32 155.141 73.45C155.511 73.58 155.976 73.645 156.536 73.645C156.976 73.645 157.351 73.595 157.661 73.495C157.981 73.385 158.241 73.245 158.441 73.075C158.651 72.905 158.801 72.71 158.891 72.49C158.991 72.26 159.041 72.025 159.041 71.785C159.041 71.425 158.931 71.13 158.711 70.9C158.501 70.67 158.216 70.47 157.856 70.3C157.506 70.13 157.101 69.98 156.641 69.85C156.191 69.71 155.726 69.56 155.246 69.4C154.776 69.24 154.311 69.055 153.851 68.845C153.401 68.625 152.996 68.35 152.636 68.02C152.286 67.69 152.001 67.285 151.781 66.805C151.571 66.325 151.466 65.745 151.466 65.065C151.466 64.435 151.591 63.835 151.841 63.265C152.091 62.695 152.456 62.2 152.936 61.78C153.426 61.35 154.031 61.01 154.751 60.76C155.481 60.5 156.321 60.37 157.271 60.37C158.331 60.37 159.296 60.545 160.166 60.895C161.036 61.245 161.761 61.705 162.341 62.275L161.501 63.61ZM170.425 76.24C169.085 76.24 168.055 75.865 167.335 75.115C166.625 74.355 166.27 73.31 166.27 71.98V63.385H164.695C164.495 63.385 164.325 63.32 164.185 63.19C164.045 63.06 163.975 62.865 163.975 62.605V61.135L166.45 60.73L167.23 56.53C167.28 56.33 167.375 56.175 167.515 56.065C167.655 55.955 167.835 55.9 168.055 55.9H169.975V60.745H174.085V63.385H169.975V71.725C169.975 72.205 170.09 72.58 170.32 72.85C170.56 73.12 170.885 73.255 171.295 73.255C171.525 73.255 171.715 73.23 171.865 73.18C172.025 73.12 172.16 73.06 172.27 73C172.39 72.94 172.495 72.885 172.585 72.835C172.675 72.775 172.765 72.745 172.855 72.745C172.965 72.745 173.055 72.775 173.125 72.835C173.195 72.885 173.27 72.965 173.35 73.075L174.46 74.875C173.92 75.325 173.3 75.665 172.6 75.895C171.9 76.125 171.175 76.24 170.425 76.24ZM179.952 63.28C180.432 62.36 181.002 61.64 181.662 61.12C182.322 60.59 183.102 60.325 184.002 60.325C184.712 60.325 185.282 60.48 185.712 60.79L185.472 63.565C185.422 63.745 185.347 63.875 185.247 63.955C185.157 64.025 185.032 64.06 184.872 64.06C184.722 64.06 184.497 64.035 184.197 63.985C183.907 63.935 183.622 63.91 183.342 63.91C182.932 63.91 182.567 63.97 182.247 64.09C181.927 64.21 181.637 64.385 181.377 64.615C181.127 64.835 180.902 65.105 180.702 65.425C180.512 65.745 180.332 66.11 180.162 66.52V76H176.457V60.61H178.632C179.012 60.61 179.277 60.68 179.427 60.82C179.577 60.95 179.677 61.19 179.727 61.54L179.952 63.28ZM191.488 60.61V76H187.768V60.61H191.488ZM191.998 56.125C191.998 56.445 191.933 56.745 191.803 57.025C191.673 57.305 191.498 57.55 191.278 57.76C191.068 57.97 190.818 58.14 190.528 58.27C190.238 58.39 189.928 58.45 189.598 58.45C189.278 58.45 188.973 58.39 188.683 58.27C188.403 58.14 188.158 57.97 187.948 57.76C187.738 57.55 187.568 57.305 187.438 57.025C187.318 56.745 187.258 56.445 187.258 56.125C187.258 55.795 187.318 55.485 187.438 55.195C187.568 54.905 187.738 54.655 187.948 54.445C188.158 54.235 188.403 54.07 188.683 53.95C188.973 53.82 189.278 53.755 189.598 53.755C189.928 53.755 190.238 53.82 190.528 53.95C190.818 54.07 191.068 54.235 191.278 54.445C191.498 54.655 191.673 54.905 191.803 55.195C191.933 55.485 191.998 55.795 191.998 56.125ZM198.971 72.01C199.391 72.52 199.846 72.88 200.336 73.09C200.836 73.3 201.361 73.405 201.911 73.405C202.481 73.405 202.991 73.305 203.441 73.105C203.901 72.895 204.291 72.575 204.611 72.145C204.931 71.705 205.176 71.15 205.346 70.48C205.516 69.8 205.601 68.99 205.601 68.05C205.601 66.36 205.321 65.14 204.761 64.39C204.201 63.63 203.396 63.25 202.346 63.25C201.636 63.25 201.016 63.415 200.486 63.745C199.956 64.065 199.451 64.52 198.971 65.11V72.01ZM198.971 62.5C199.591 61.85 200.276 61.335 201.026 60.955C201.786 60.565 202.651 60.37 203.621 60.37C204.511 60.37 205.311 60.545 206.021 60.895C206.741 61.245 207.351 61.75 207.851 62.41C208.361 63.06 208.751 63.85 209.021 64.78C209.291 65.71 209.426 66.755 209.426 67.915C209.426 69.165 209.271 70.3 208.961 71.32C208.651 72.34 208.206 73.215 207.626 73.945C207.056 74.665 206.366 75.225 205.556 75.625C204.746 76.025 203.846 76.225 202.856 76.225C202.376 76.225 201.941 76.175 201.551 76.075C201.161 75.985 200.801 75.855 200.471 75.685C200.141 75.515 199.836 75.31 199.556 75.07C199.286 74.82 199.026 74.545 198.776 74.245L198.611 75.28C198.551 75.54 198.446 75.725 198.296 75.835C198.156 75.945 197.961 76 197.711 76H195.266V53.71H198.971V62.5ZM225.547 60.61V76H223.282C222.792 76 222.482 75.775 222.352 75.325L222.097 74.095C221.467 74.735 220.772 75.255 220.012 75.655C219.252 76.045 218.357 76.24 217.327 76.24C216.487 76.24 215.742 76.1 215.092 75.82C214.452 75.53 213.912 75.125 213.472 74.605C213.032 74.085 212.697 73.47 212.467 72.76C212.247 72.04 212.137 71.25 212.137 70.39V60.61H215.842V70.39C215.842 71.33 216.057 72.06 216.487 72.58C216.927 73.09 217.582 73.345 218.452 73.345C219.092 73.345 219.692 73.205 220.252 72.925C220.812 72.635 221.342 72.24 221.842 71.74V60.61H225.547ZM244.746 76H241.041V63.385H233.901V71.725C233.901 72.205 234.016 72.58 234.246 72.85C234.486 73.12 234.811 73.255 235.221 73.255C235.451 73.255 235.641 73.23 235.791 73.18C235.951 73.12 236.086 73.06 236.196 73C236.316 72.94 236.421 72.885 236.511 72.835C236.601 72.775 236.691 72.745 236.781 72.745C236.891 72.745 236.981 72.775 237.051 72.835C237.121 72.885 237.196 72.965 237.276 73.075L238.386 74.875C237.846 75.325 237.226 75.665 236.526 75.895C235.826 76.125 235.101 76.24 234.351 76.24C233.011 76.24 231.981 75.865 231.261 75.115C230.551 74.355 230.196 73.31 230.196 71.98V63.385H228.621C228.421 63.385 228.251 63.32 228.111 63.19C227.971 63.06 227.901 62.865 227.901 62.605V61.135L230.376 60.715L231.156 56.53C231.206 56.33 231.301 56.175 231.441 56.065C231.581 55.955 231.761 55.9 231.981 55.9H233.901V60.745H244.746V76ZM245.391 56.065C245.391 56.385 245.326 56.69 245.196 56.98C245.066 57.26 244.891 57.505 244.671 57.715C244.461 57.925 244.206 58.095 243.906 58.225C243.616 58.345 243.306 58.405 242.976 58.405C242.656 58.405 242.356 58.345 242.076 58.225C241.796 58.095 241.551 57.925 241.341 57.715C241.131 57.505 240.961 57.26 240.831 56.98C240.711 56.69 240.651 56.385 240.651 56.065C240.651 55.735 240.711 55.43 240.831 55.15C240.961 54.86 241.131 54.61 241.341 54.4C241.551 54.18 241.796 54.01 242.076 53.89C242.356 53.76 242.656 53.695 242.976 53.695C243.306 53.695 243.616 53.76 243.906 53.89C244.206 54.01 244.461 54.18 244.671 54.4C244.891 54.61 245.066 54.86 245.196 55.15C245.326 55.43 245.391 55.735 245.391 56.065ZM255.337 60.37C256.477 60.37 257.512 60.555 258.442 60.925C259.382 61.295 260.182 61.82 260.842 62.5C261.512 63.18 262.027 64.01 262.387 64.99C262.747 65.97 262.927 67.065 262.927 68.275C262.927 69.495 262.747 70.595 262.387 71.575C262.027 72.555 261.512 73.39 260.842 74.08C260.182 74.77 259.382 75.3 258.442 75.67C257.512 76.04 256.477 76.225 255.337 76.225C254.187 76.225 253.142 76.04 252.202 75.67C251.262 75.3 250.457 74.77 249.787 74.08C249.127 73.39 248.612 72.555 248.242 71.575C247.882 70.595 247.702 69.495 247.702 68.275C247.702 67.065 247.882 65.97 248.242 64.99C248.612 64.01 249.127 63.18 249.787 62.5C250.457 61.82 251.262 61.295 252.202 60.925C253.142 60.555 254.187 60.37 255.337 60.37ZM255.337 73.375C256.617 73.375 257.562 72.945 258.172 72.085C258.792 71.225 259.102 69.965 259.102 68.305C259.102 66.645 258.792 65.38 258.172 64.51C257.562 63.64 256.617 63.205 255.337 63.205C254.037 63.205 253.072 63.645 252.442 64.525C251.822 65.395 251.512 66.655 251.512 68.305C251.512 69.955 251.822 71.215 252.442 72.085C253.072 72.945 254.037 73.375 255.337 73.375ZM269.219 62.5C269.529 62.19 269.854 61.905 270.194 61.645C270.544 61.375 270.909 61.15 271.289 60.97C271.679 60.78 272.094 60.635 272.534 60.535C272.974 60.425 273.454 60.37 273.974 60.37C274.814 60.37 275.559 60.515 276.209 60.805C276.859 61.085 277.399 61.485 277.829 62.005C278.269 62.515 278.599 63.13 278.819 63.85C279.049 64.56 279.164 65.345 279.164 66.205V76H275.459V66.205C275.459 65.265 275.244 64.54 274.814 64.03C274.384 63.51 273.729 63.25 272.849 63.25C272.209 63.25 271.609 63.395 271.049 63.685C270.489 63.975 269.959 64.37 269.459 64.87V76H265.754V60.61H268.019C268.499 60.61 268.814 60.835 268.964 61.285L269.219 62.5ZM58.3213 103.81L55.6813 96.595C55.5513 96.275 55.4163 95.895 55.2763 95.455C55.1363 95.015 54.9963 94.54 54.8563 94.03C54.7263 94.54 54.5913 95.02 54.4513 95.47C54.3113 95.91 54.1763 96.295 54.0463 96.625L51.4213 103.81H58.3213ZM65.4463 112H62.3263C61.9763 112 61.6913 111.915 61.4713 111.745C61.2513 111.565 61.0863 111.345 60.9763 111.085L59.3563 106.66H50.3713L48.7513 111.085C48.6713 111.315 48.5163 111.525 48.2863 111.715C48.0563 111.905 47.7713 112 47.4313 112H44.2813L52.8163 90.31H56.9263L65.4463 112ZM67.0771 112V96.61H69.3421C69.8221 96.61 70.1371 96.835 70.2871 97.285L70.5271 98.425C70.7971 98.125 71.0771 97.85 71.3671 97.6C71.6671 97.35 71.9821 97.135 72.3121 96.955C72.6521 96.775 73.0121 96.635 73.3921 96.535C73.7821 96.425 74.2071 96.37 74.6671 96.37C75.6371 96.37 76.4321 96.635 77.0521 97.165C77.6821 97.685 78.1521 98.38 78.4621 99.25C78.7021 98.74 79.0021 98.305 79.3621 97.945C79.7221 97.575 80.1171 97.275 80.5471 97.045C80.9771 96.815 81.4321 96.645 81.9121 96.535C82.4021 96.425 82.8921 96.37 83.3821 96.37C84.2321 96.37 84.9871 96.5 85.6471 96.76C86.3071 97.02 86.8621 97.4 87.3121 97.9C87.7621 98.4 88.1021 99.01 88.3321 99.73C88.5721 100.45 88.6921 101.275 88.6921 102.205V112H84.9871V102.205C84.9871 101.225 84.7721 100.49 84.3421 100C83.9121 99.5 83.2821 99.25 82.4521 99.25C82.0721 99.25 81.7171 99.315 81.3871 99.445C81.0671 99.575 80.7821 99.765 80.5321 100.015C80.2921 100.255 80.1021 100.56 79.9621 100.93C79.8221 101.3 79.7521 101.725 79.7521 102.205V112H76.0321V102.205C76.0321 101.175 75.8221 100.425 75.4021 99.955C74.9921 99.485 74.3871 99.25 73.5871 99.25C73.0471 99.25 72.5421 99.385 72.0721 99.655C71.6121 99.915 71.1821 100.275 70.7821 100.735V112H67.0771ZM99.0238 96.37C100.164 96.37 101.199 96.555 102.129 96.925C103.069 97.295 103.869 97.82 104.529 98.5C105.199 99.18 105.714 100.01 106.074 100.99C106.434 101.97 106.614 103.065 106.614 104.275C106.614 105.495 106.434 106.595 106.074 107.575C105.714 108.555 105.199 109.39 104.529 110.08C103.869 110.77 103.069 111.3 102.129 111.67C101.199 112.04 100.164 112.225 99.0238 112.225C97.8738 112.225 96.8288 112.04 95.8888 111.67C94.9488 111.3 94.1438 110.77 93.4738 110.08C92.8138 109.39 92.2988 108.555 91.9288 107.575C91.5688 106.595 91.3888 105.495 91.3888 104.275C91.3888 103.065 91.5688 101.97 91.9288 100.99C92.2988 100.01 92.8138 99.18 93.4738 98.5C94.1438 97.82 94.9488 97.295 95.8888 96.925C96.8288 96.555 97.8738 96.37 99.0238 96.37ZM99.0238 109.375C100.304 109.375 101.249 108.945 101.859 108.085C102.479 107.225 102.789 105.965 102.789 104.305C102.789 102.645 102.479 101.38 101.859 100.51C101.249 99.64 100.304 99.205 99.0238 99.205C97.7238 99.205 96.7588 99.645 96.1288 100.525C95.5088 101.395 95.1988 102.655 95.1988 104.305C95.1988 105.955 95.5088 107.215 96.1288 108.085C96.7588 108.945 97.7238 109.375 99.0238 109.375ZM112.905 98.5C113.215 98.19 113.54 97.905 113.88 97.645C114.23 97.375 114.595 97.15 114.975 96.97C115.365 96.78 115.78 96.635 116.22 96.535C116.66 96.425 117.14 96.37 117.66 96.37C118.5 96.37 119.245 96.515 119.895 96.805C120.545 97.085 121.085 97.485 121.515 98.005C121.955 98.515 122.285 99.13 122.505 99.85C122.735 100.56 122.85 101.345 122.85 102.205V112H119.145V102.205C119.145 101.265 118.93 100.54 118.5 100.03C118.07 99.51 117.415 99.25 116.535 99.25C115.895 99.25 115.295 99.395 114.735 99.685C114.175 99.975 113.645 100.37 113.145 100.87V112H109.44V96.61H111.705C112.185 96.61 112.5 96.835 112.65 97.285L112.905 98.5ZM131.999 103.93C132.459 103.93 132.859 103.87 133.199 103.75C133.539 103.62 133.819 103.445 134.039 103.225C134.269 103.005 134.439 102.74 134.549 102.43C134.669 102.12 134.729 101.78 134.729 101.41C134.729 100.65 134.499 100.05 134.039 99.61C133.589 99.16 132.909 98.935 131.999 98.935C131.089 98.935 130.404 99.16 129.944 99.61C129.494 100.05 129.269 100.65 129.269 101.41C129.269 101.77 129.324 102.105 129.434 102.415C129.554 102.725 129.724 102.995 129.944 103.225C130.174 103.445 130.459 103.62 130.799 103.75C131.149 103.87 131.549 103.93 131.999 103.93ZM136.184 112.69C136.184 112.39 136.094 112.145 135.914 111.955C135.734 111.765 135.489 111.62 135.179 111.52C134.869 111.41 134.504 111.33 134.084 111.28C133.674 111.23 133.234 111.195 132.764 111.175C132.304 111.145 131.824 111.12 131.324 111.1C130.834 111.08 130.354 111.04 129.884 110.98C129.474 111.21 129.139 111.48 128.879 111.79C128.629 112.1 128.504 112.46 128.504 112.87C128.504 113.14 128.569 113.39 128.699 113.62C128.839 113.86 129.054 114.065 129.344 114.235C129.644 114.405 130.029 114.535 130.499 114.625C130.969 114.725 131.544 114.775 132.224 114.775C132.914 114.775 133.509 114.72 134.009 114.61C134.509 114.51 134.919 114.365 135.239 114.175C135.569 113.995 135.809 113.775 135.959 113.515C136.109 113.265 136.184 112.99 136.184 112.69ZM139.874 97.135V98.515C139.874 98.955 139.609 99.225 139.079 99.325L137.699 99.58C137.909 100.11 138.014 100.69 138.014 101.32C138.014 102.08 137.859 102.77 137.549 103.39C137.249 104 136.829 104.52 136.289 104.95C135.749 105.38 135.109 105.715 134.369 105.955C133.639 106.185 132.849 106.3 131.999 106.3C131.699 106.3 131.409 106.285 131.129 106.255C130.849 106.225 130.574 106.185 130.304 106.135C129.824 106.425 129.584 106.75 129.584 107.11C129.584 107.42 129.724 107.65 130.004 107.8C130.294 107.94 130.674 108.04 131.144 108.1C131.614 108.16 132.149 108.2 132.749 108.22C133.349 108.23 133.964 108.26 134.594 108.31C135.224 108.36 135.839 108.45 136.439 108.58C137.039 108.7 137.574 108.895 138.044 109.165C138.514 109.435 138.889 109.805 139.169 110.275C139.459 110.735 139.604 111.33 139.604 112.06C139.604 112.74 139.434 113.4 139.094 114.04C138.764 114.68 138.279 115.25 137.639 115.75C137.009 116.25 136.229 116.65 135.299 116.95C134.379 117.26 133.329 117.415 132.149 117.415C130.989 117.415 129.979 117.3 129.119 117.07C128.259 116.85 127.544 116.55 126.974 116.17C126.404 115.8 125.979 115.37 125.699 114.88C125.419 114.39 125.279 113.88 125.279 113.35C125.279 112.63 125.494 112.03 125.924 111.55C126.364 111.06 126.964 110.67 127.724 110.38C127.314 110.17 126.989 109.89 126.749 109.54C126.509 109.19 126.389 108.73 126.389 108.16C126.389 107.93 126.429 107.695 126.509 107.455C126.599 107.205 126.724 106.96 126.884 106.72C127.054 106.48 127.264 106.255 127.514 106.045C127.764 105.825 128.059 105.63 128.399 105.46C127.619 105.04 127.004 104.48 126.554 103.78C126.114 103.08 125.894 102.26 125.894 101.32C125.894 100.56 126.044 99.875 126.344 99.265C126.654 98.645 127.079 98.12 127.619 97.69C128.169 97.25 128.814 96.915 129.554 96.685C130.304 96.455 131.119 96.34 131.999 96.34C132.659 96.34 133.279 96.41 133.859 96.55C134.439 96.68 134.969 96.875 135.449 97.135H139.874ZM167.575 90.31L158.815 112H155.17L146.41 90.31H149.65C150 90.31 150.285 90.395 150.505 90.565C150.725 90.735 150.89 90.955 151 91.225L156.115 104.455C156.285 104.885 156.445 105.36 156.595 105.88C156.755 106.39 156.905 106.925 157.045 107.485C157.165 106.925 157.295 106.39 157.435 105.88C157.575 105.36 157.73 104.885 157.9 104.455L162.985 91.225C163.065 90.995 163.22 90.785 163.45 90.595C163.69 90.405 163.98 90.31 164.32 90.31H167.575ZM173.672 96.37C174.812 96.37 175.847 96.555 176.777 96.925C177.717 97.295 178.517 97.82 179.177 98.5C179.847 99.18 180.362 100.01 180.722 100.99C181.082 101.97 181.262 103.065 181.262 104.275C181.262 105.495 181.082 106.595 180.722 107.575C180.362 108.555 179.847 109.39 179.177 110.08C178.517 110.77 177.717 111.3 176.777 111.67C175.847 112.04 174.812 112.225 173.672 112.225C172.522 112.225 171.477 112.04 170.537 111.67C169.597 111.3 168.792 110.77 168.122 110.08C167.462 109.39 166.947 108.555 166.577 107.575C166.217 106.595 166.037 105.495 166.037 104.275C166.037 103.065 166.217 101.97 166.577 100.99C166.947 100.01 167.462 99.18 168.122 98.5C168.792 97.82 169.597 97.295 170.537 96.925C171.477 96.555 172.522 96.37 173.672 96.37ZM173.672 109.375C174.952 109.375 175.897 108.945 176.507 108.085C177.127 107.225 177.437 105.965 177.437 104.305C177.437 102.645 177.127 101.38 176.507 100.51C175.897 99.64 174.952 99.205 173.672 99.205C172.372 99.205 171.407 99.645 170.777 100.525C170.157 101.395 169.847 102.655 169.847 104.305C169.847 105.955 170.157 107.215 170.777 108.085C171.407 108.945 172.372 109.375 173.672 109.375ZM195.114 99.865C195.004 100.005 194.894 100.115 194.784 100.195C194.684 100.275 194.534 100.315 194.334 100.315C194.144 100.315 193.959 100.26 193.779 100.15C193.599 100.03 193.384 99.9 193.134 99.76C192.884 99.61 192.584 99.48 192.234 99.37C191.894 99.25 191.469 99.19 190.959 99.19C190.309 99.19 189.739 99.31 189.249 99.55C188.759 99.78 188.349 100.115 188.019 100.555C187.699 100.995 187.459 101.53 187.299 102.16C187.139 102.78 187.059 103.485 187.059 104.275C187.059 105.095 187.144 105.825 187.314 106.465C187.494 107.105 187.749 107.645 188.079 108.085C188.409 108.515 188.809 108.845 189.279 109.075C189.749 109.295 190.279 109.405 190.869 109.405C191.459 109.405 191.934 109.335 192.294 109.195C192.664 109.045 192.974 108.885 193.224 108.715C193.474 108.535 193.689 108.375 193.869 108.235C194.059 108.085 194.269 108.01 194.499 108.01C194.799 108.01 195.024 108.125 195.174 108.355L196.239 109.705C195.829 110.185 195.384 110.59 194.904 110.92C194.424 111.24 193.924 111.5 193.404 111.7C192.894 111.89 192.364 112.025 191.814 112.105C191.274 112.185 190.734 112.225 190.194 112.225C189.244 112.225 188.349 112.05 187.509 111.7C186.669 111.34 185.934 110.82 185.304 110.14C184.674 109.46 184.174 108.63 183.804 107.65C183.444 106.66 183.264 105.535 183.264 104.275C183.264 103.145 183.424 102.1 183.744 101.14C184.074 100.17 184.554 99.335 185.184 98.635C185.814 97.925 186.594 97.37 187.524 96.97C188.454 96.57 189.524 96.37 190.734 96.37C191.884 96.37 192.889 96.555 193.749 96.925C194.619 97.295 195.399 97.825 196.089 98.515L195.114 99.865ZM206.691 105.43C205.621 105.48 204.721 105.575 203.991 105.715C203.261 105.845 202.676 106.015 202.236 106.225C201.796 106.435 201.481 106.68 201.291 106.96C201.101 107.24 201.006 107.545 201.006 107.875C201.006 108.525 201.196 108.99 201.576 109.27C201.966 109.55 202.471 109.69 203.091 109.69C203.851 109.69 204.506 109.555 205.056 109.285C205.616 109.005 206.161 108.585 206.691 108.025V105.43ZM198.201 98.755C199.971 97.135 202.101 96.325 204.591 96.325C205.491 96.325 206.296 96.475 207.006 96.775C207.716 97.065 208.316 97.475 208.806 98.005C209.296 98.525 209.666 99.15 209.916 99.88C210.176 100.61 210.306 101.41 210.306 102.28V112H208.626C208.276 112 208.006 111.95 207.816 111.85C207.626 111.74 207.476 111.525 207.366 111.205L207.036 110.095C206.646 110.445 206.266 110.755 205.896 111.025C205.526 111.285 205.141 111.505 204.741 111.685C204.341 111.865 203.911 112 203.451 112.09C203.001 112.19 202.501 112.24 201.951 112.24C201.301 112.24 200.701 112.155 200.151 111.985C199.601 111.805 199.126 111.54 198.726 111.19C198.326 110.84 198.016 110.405 197.796 109.885C197.576 109.365 197.466 108.76 197.466 108.07C197.466 107.68 197.531 107.295 197.661 106.915C197.791 106.525 198.001 106.155 198.291 105.805C198.591 105.455 198.976 105.125 199.446 104.815C199.916 104.505 200.491 104.235 201.171 104.005C201.861 103.775 202.661 103.59 203.571 103.45C204.481 103.3 205.521 103.21 206.691 103.18V102.28C206.691 101.25 206.471 100.49 206.031 100C205.591 99.5 204.956 99.25 204.126 99.25C203.526 99.25 203.026 99.32 202.626 99.46C202.236 99.6 201.891 99.76 201.591 99.94C201.291 100.11 201.016 100.265 200.766 100.405C200.526 100.545 200.256 100.615 199.956 100.615C199.696 100.615 199.476 100.55 199.296 100.42C199.116 100.28 198.971 100.12 198.861 99.94L198.201 98.755ZM217.546 89.71V112H213.841V89.71H217.546ZM225.077 96.61V112H221.357V96.61H225.077ZM225.587 92.125C225.587 92.445 225.522 92.745 225.392 93.025C225.262 93.305 225.087 93.55 224.867 93.76C224.657 93.97 224.407 94.14 224.117 94.27C223.827 94.39 223.517 94.45 223.187 94.45C222.867 94.45 222.562 94.39 222.272 94.27C221.992 94.14 221.747 93.97 221.537 93.76C221.327 93.55 221.157 93.305 221.027 93.025C220.907 92.745 220.847 92.445 220.847 92.125C220.847 91.795 220.907 91.485 221.027 91.195C221.157 90.905 221.327 90.655 221.537 90.445C221.747 90.235 221.992 90.07 222.272 89.95C222.562 89.82 222.867 89.755 223.187 89.755C223.517 89.755 223.827 89.82 224.117 89.95C224.407 90.07 224.657 90.235 224.867 90.445C225.087 90.655 225.262 90.905 225.392 91.195C225.522 91.485 225.587 91.795 225.587 92.125ZM238.244 99.61C238.144 99.77 238.039 99.885 237.929 99.955C237.819 100.015 237.679 100.045 237.509 100.045C237.329 100.045 237.134 99.995 236.924 99.895C236.724 99.795 236.489 99.685 236.219 99.565C235.949 99.435 235.639 99.32 235.289 99.22C234.949 99.12 234.544 99.07 234.074 99.07C233.344 99.07 232.769 99.225 232.349 99.535C231.939 99.845 231.734 100.25 231.734 100.75C231.734 101.08 231.839 101.36 232.049 101.59C232.269 101.81 232.554 102.005 232.904 102.175C233.264 102.345 233.669 102.5 234.119 102.64C234.569 102.77 235.024 102.915 235.484 103.075C235.954 103.235 236.414 103.42 236.864 103.63C237.314 103.83 237.714 104.09 238.064 104.41C238.424 104.72 238.709 105.095 238.919 105.535C239.139 105.975 239.249 106.505 239.249 107.125C239.249 107.865 239.114 108.55 238.844 109.18C238.584 109.8 238.194 110.34 237.674 110.8C237.154 111.25 236.509 111.605 235.739 111.865C234.979 112.115 234.099 112.24 233.099 112.24C232.569 112.24 232.049 112.19 231.539 112.09C231.039 112 230.554 111.87 230.084 111.7C229.624 111.53 229.194 111.33 228.794 111.1C228.404 110.87 228.059 110.62 227.759 110.35L228.614 108.94C228.724 108.77 228.854 108.64 229.004 108.55C229.154 108.46 229.344 108.415 229.574 108.415C229.804 108.415 230.019 108.48 230.219 108.61C230.429 108.74 230.669 108.88 230.939 109.03C231.209 109.18 231.524 109.32 231.884 109.45C232.254 109.58 232.719 109.645 233.279 109.645C233.719 109.645 234.094 109.595 234.404 109.495C234.724 109.385 234.984 109.245 235.184 109.075C235.394 108.905 235.544 108.71 235.634 108.49C235.734 108.26 235.784 108.025 235.784 107.785C235.784 107.425 235.674 107.13 235.454 106.9C235.244 106.67 234.959 106.47 234.599 106.3C234.249 106.13 233.844 105.98 233.384 105.85C232.934 105.71 232.469 105.56 231.989 105.4C231.519 105.24 231.054 105.055 230.594 104.845C230.144 104.625 229.739 104.35 229.379 104.02C229.029 103.69 228.744 103.285 228.524 102.805C228.314 102.325 228.209 101.745 228.209 101.065C228.209 100.435 228.334 99.835 228.584 99.265C228.834 98.695 229.199 98.2 229.679 97.78C230.169 97.35 230.774 97.01 231.494 96.76C232.224 96.5 233.064 96.37 234.014 96.37C235.074 96.37 236.039 96.545 236.909 96.895C237.779 97.245 238.504 97.705 239.084 98.275L238.244 99.61ZM247.168 112.24C245.828 112.24 244.798 111.865 244.078 111.115C243.368 110.355 243.013 109.31 243.013 107.98V99.385H241.438C241.238 99.385 241.068 99.32 240.928 99.19C240.788 99.06 240.718 98.865 240.718 98.605V97.135L243.193 96.73L243.973 92.53C244.023 92.33 244.118 92.175 244.258 92.065C244.398 91.955 244.578 91.9 244.798 91.9H246.718V96.745H250.828V99.385H246.718V107.725C246.718 108.205 246.833 108.58 247.063 108.85C247.303 109.12 247.628 109.255 248.038 109.255C248.268 109.255 248.458 109.23 248.608 109.18C248.768 109.12 248.903 109.06 249.013 109C249.133 108.94 249.238 108.885 249.328 108.835C249.418 108.775 249.508 108.745 249.598 108.745C249.708 108.745 249.798 108.775 249.868 108.835C249.938 108.885 250.013 108.965 250.093 109.075L251.203 110.875C250.663 111.325 250.043 111.665 249.343 111.895C248.643 112.125 247.918 112.24 247.168 112.24ZM262.59 99.61C262.49 99.77 262.385 99.885 262.275 99.955C262.165 100.015 262.025 100.045 261.855 100.045C261.675 100.045 261.48 99.995 261.27 99.895C261.07 99.795 260.835 99.685 260.565 99.565C260.295 99.435 259.985 99.32 259.635 99.22C259.295 99.12 258.89 99.07 258.42 99.07C257.69 99.07 257.115 99.225 256.695 99.535C256.285 99.845 256.08 100.25 256.08 100.75C256.08 101.08 256.185 101.36 256.395 101.59C256.615 101.81 256.9 102.005 257.25 102.175C257.61 102.345 258.015 102.5 258.465 102.64C258.915 102.77 259.37 102.915 259.83 103.075C260.3 103.235 260.76 103.42 261.21 103.63C261.66 103.83 262.06 104.09 262.41 104.41C262.77 104.72 263.055 105.095 263.265 105.535C263.485 105.975 263.595 106.505 263.595 107.125C263.595 107.865 263.46 108.55 263.19 109.18C262.93 109.8 262.54 110.34 262.02 110.8C261.5 111.25 260.855 111.605 260.085 111.865C259.325 112.115 258.445 112.24 257.445 112.24C256.915 112.24 256.395 112.19 255.885 112.09C255.385 112 254.9 111.87 254.43 111.7C253.97 111.53 253.54 111.33 253.14 111.1C252.75 110.87 252.405 110.62 252.105 110.35L252.96 108.94C253.07 108.77 253.2 108.64 253.35 108.55C253.5 108.46 253.69 108.415 253.92 108.415C254.15 108.415 254.365 108.48 254.565 108.61C254.775 108.74 255.015 108.88 255.285 109.03C255.555 109.18 255.87 109.32 256.23 109.45C256.6 109.58 257.065 109.645 257.625 109.645C258.065 109.645 258.44 109.595 258.75 109.495C259.07 109.385 259.33 109.245 259.53 109.075C259.74 108.905 259.89 108.71 259.98 108.49C260.08 108.26 260.13 108.025 260.13 107.785C260.13 107.425 260.02 107.13 259.8 106.9C259.59 106.67 259.305 106.47 258.945 106.3C258.595 106.13 258.19 105.98 257.73 105.85C257.28 105.71 256.815 105.56 256.335 105.4C255.865 105.24 255.4 105.055 254.94 104.845C254.49 104.625 254.085 104.35 253.725 104.02C253.375 103.69 253.09 103.285 252.87 102.805C252.66 102.325 252.555 101.745 252.555 101.065C252.555 100.435 252.68 99.835 252.93 99.265C253.18 98.695 253.545 98.2 254.025 97.78C254.515 97.35 255.12 97.01 255.84 96.76C256.57 96.5 257.41 96.37 258.36 96.37C259.42 96.37 260.385 96.545 261.255 96.895C262.125 97.245 262.85 97.705 263.43 98.275L262.59 99.61Z" fill="black"/>
</svg>
