<svg width="249" height="18" viewBox="0 0 249 18" fill="none" xmlns="http://www.w3.org/2000/svg">
<path d="M2.30538 11.606C2.55738 11.912 2.83038 12.128 3.12438 12.254C3.42438 12.38 3.73938 12.443 4.06937 12.443C4.41138 12.443 4.71738 12.383 4.98738 12.263C5.26338 12.137 5.49738 11.945 5.68938 11.687C5.88138 11.423 6.02838 11.09 6.13038 10.688C6.23238 10.28 6.28338 9.794 6.28338 9.23C6.28338 8.216 6.11538 7.484 5.77938 7.034C5.44338 6.578 4.96038 6.35 4.33038 6.35C3.90438 6.35 3.53238 6.449 3.21438 6.647C2.89638 6.839 2.59338 7.112 2.30538 7.466V11.606ZM2.30538 5.9C2.67738 5.51 3.08838 5.201 3.53838 4.973C3.99438 4.739 4.51338 4.622 5.09538 4.622C5.62938 4.622 6.10938 4.727 6.53538 4.937C6.96738 5.147 7.33338 5.45 7.63338 5.846C7.93938 6.236 8.17338 6.71 8.33538 7.268C8.49738 7.826 8.57838 8.453 8.57838 9.149C8.57838 9.899 8.48538 10.58 8.29938 11.192C8.11338 11.804 7.84638 12.329 7.49838 12.767C7.15638 13.199 6.74238 13.535 6.25638 13.775C5.77038 14.015 5.23038 14.135 4.63638 14.135C4.34838 14.135 4.08738 14.105 3.85338 14.045C3.61938 13.991 3.40338 13.913 3.20538 13.811C3.00738 13.709 2.82438 13.586 2.65638 13.442C2.49438 13.292 2.33838 13.127 2.18838 12.947L2.08938 13.568C2.05338 13.724 1.99038 13.835 1.90038 13.901C1.81638 13.967 1.69938 14 1.54938 14H0.0823751V0.625999H2.30538V5.9ZM18.4196 4.766L13.3886 16.538C13.3226 16.694 13.2356 16.811 13.1276 16.889C13.0256 16.973 12.8666 17.015 12.6506 17.015H10.9946L12.7226 13.307L8.98759 4.766H10.9406C11.1146 4.766 11.2496 4.808 11.3456 4.892C11.4476 4.976 11.5226 5.072 11.5706 5.18L13.5326 9.968C13.5986 10.13 13.6526 10.292 13.6946 10.454C13.7426 10.616 13.7876 10.781 13.8296 10.949C13.8836 10.781 13.9376 10.616 13.9916 10.454C14.0456 10.286 14.1056 10.121 14.1716 9.959L16.0256 5.18C16.0736 5.06 16.1516 4.961 16.2596 4.883C16.3736 4.805 16.4996 4.766 16.6376 4.766H18.4196ZM30.073 9.086L28.489 4.757C28.411 4.565 28.33 4.337 28.246 4.073C28.162 3.809 28.078 3.524 27.994 3.218C27.916 3.524 27.835 3.812 27.751 4.082C27.667 4.346 27.586 4.577 27.508 4.775L25.933 9.086H30.073ZM34.348 14H32.476C32.266 14 32.095 13.949 31.963 13.847C31.831 13.739 31.732 13.607 31.666 13.451L30.694 10.796H25.303L24.331 13.451C24.283 13.589 24.19 13.715 24.052 13.829C23.914 13.943 23.743 14 23.539 14H21.649L26.77 0.985999H29.236L34.348 14ZM37.5765 0.625999V14H35.3535V0.625999H37.5765ZM45.7404 8.321C45.7404 8.033 45.6984 7.763 45.6144 7.511C45.5364 7.253 45.4164 7.028 45.2544 6.836C45.0924 6.644 44.8854 6.494 44.6334 6.386C44.3874 6.272 44.0994 6.215 43.7694 6.215C43.1274 6.215 42.6204 6.398 42.2484 6.764C41.8824 7.13 41.6484 7.649 41.5464 8.321H45.7404ZM41.5014 9.662C41.5374 10.136 41.6214 10.547 41.7534 10.895C41.8854 11.237 42.0594 11.522 42.2754 11.75C42.4914 11.972 42.7464 12.14 43.0404 12.254C43.3404 12.362 43.6704 12.416 44.0304 12.416C44.3904 12.416 44.6994 12.374 44.9574 12.29C45.2214 12.206 45.4494 12.113 45.6414 12.011C45.8394 11.909 46.0104 11.816 46.1544 11.732C46.3044 11.648 46.4484 11.606 46.5864 11.606C46.7724 11.606 46.9104 11.675 47.0004 11.813L47.6394 12.623C47.3934 12.911 47.1174 13.154 46.8114 13.352C46.5054 13.544 46.1844 13.7 45.8484 13.82C45.5184 13.934 45.1794 14.015 44.8314 14.063C44.4894 14.111 44.1564 14.135 43.8324 14.135C43.1904 14.135 42.5934 14.03 42.0414 13.82C41.4894 13.604 41.0094 13.289 40.6014 12.875C40.1934 12.455 39.8724 11.939 39.6384 11.327C39.4044 10.709 39.2874 9.995 39.2874 9.185C39.2874 8.555 39.3894 7.964 39.5934 7.412C39.7974 6.854 40.0884 6.371 40.4664 5.963C40.8504 5.549 41.3154 5.222 41.8614 4.982C42.4134 4.742 43.0344 4.622 43.7244 4.622C44.3064 4.622 44.8434 4.715 45.3354 4.901C45.8274 5.087 46.2504 5.36 46.6044 5.72C46.9584 6.074 47.2344 6.512 47.4324 7.034C47.6364 7.55 47.7384 8.141 47.7384 8.807C47.7384 9.143 47.7024 9.371 47.6304 9.491C47.5584 9.605 47.4204 9.662 47.2164 9.662H41.5014ZM57.51 14H55.368C55.206 14 55.074 13.958 54.972 13.874C54.876 13.79 54.795 13.694 54.729 13.586L52.776 10.373C52.746 10.475 52.71 10.571 52.668 10.661C52.632 10.751 52.59 10.835 52.542 10.913L50.814 13.586C50.748 13.688 50.667 13.784 50.571 13.874C50.475 13.958 50.355 14 50.211 14H48.222L51.39 9.239L48.348 4.766H50.49C50.652 4.766 50.772 4.79 50.85 4.838C50.928 4.88 50.997 4.952 51.057 5.054L52.992 8.132C53.058 7.928 53.151 7.727 53.271 7.529L54.828 5.099C54.96 4.877 55.131 4.766 55.341 4.766H57.384L54.351 9.14L57.51 14ZM71.0212 12.002V14H63.3982V0.985999H65.8192V12.002H71.0212ZM79.9681 4.766V14H78.6091C78.3151 14 78.1291 13.865 78.0511 13.595L77.8981 12.857C77.5201 13.241 77.1031 13.553 76.6471 13.793C76.1911 14.027 75.6541 14.144 75.0361 14.144C74.5321 14.144 74.0851 14.06 73.6951 13.892C73.3111 13.718 72.9871 13.475 72.7231 13.163C72.4591 12.851 72.2581 12.482 72.1201 12.056C71.9881 11.624 71.9221 11.15 71.9221 10.634V4.766H74.1451V10.634C74.1451 11.198 74.2741 11.636 74.5321 11.948C74.7961 12.254 75.1891 12.407 75.7111 12.407C76.0951 12.407 76.4551 12.323 76.7911 12.155C77.1271 11.981 77.4451 11.744 77.7451 11.444V4.766H79.9681ZM86.2582 4.622C86.9422 4.622 87.5632 4.733 88.1212 4.955C88.6852 5.177 89.1652 5.492 89.5612 5.9C89.9632 6.308 90.2722 6.806 90.4882 7.394C90.7042 7.982 90.8122 8.639 90.8122 9.365C90.8122 10.097 90.7042 10.757 90.4882 11.345C90.2722 11.933 89.9632 12.434 89.5612 12.848C89.1652 13.262 88.6852 13.58 88.1212 13.802C87.5632 14.024 86.9422 14.135 86.2582 14.135C85.5682 14.135 84.9412 14.024 84.3772 13.802C83.8132 13.58 83.3302 13.262 82.9282 12.848C82.5322 12.434 82.2232 11.933 82.0012 11.345C81.7852 10.757 81.6772 10.097 81.6772 9.365C81.6772 8.639 81.7852 7.982 82.0012 7.394C82.2232 6.806 82.5322 6.308 82.9282 5.9C83.3302 5.492 83.8132 5.177 84.3772 4.955C84.9412 4.733 85.5682 4.622 86.2582 4.622ZM86.2582 12.425C87.0262 12.425 87.5932 12.167 87.9592 11.651C88.3312 11.135 88.5172 10.379 88.5172 9.383C88.5172 8.387 88.3312 7.628 87.9592 7.106C87.5932 6.584 87.0262 6.323 86.2582 6.323C85.4782 6.323 84.8992 6.587 84.5212 7.115C84.1492 7.637 83.9632 8.393 83.9632 9.383C83.9632 10.373 84.1492 11.129 84.5212 11.651C84.8992 12.167 85.4782 12.425 86.2582 12.425ZM101.763 10.058C101.121 10.088 100.581 10.145 100.143 10.229C99.7051 10.307 99.3541 10.409 99.0901 10.535C98.8261 10.661 98.6371 10.808 98.5231 10.976C98.4091 11.144 98.3521 11.327 98.3521 11.525C98.3521 11.915 98.4661 12.194 98.6941 12.362C98.9281 12.53 99.2311 12.614 99.6031 12.614C100.059 12.614 100.452 12.533 100.782 12.371C101.118 12.203 101.445 11.951 101.763 11.615V10.058ZM96.6691 6.053C97.7311 5.081 99.0091 4.595 100.503 4.595C101.043 4.595 101.526 4.685 101.952 4.865C102.378 5.039 102.738 5.285 103.032 5.603C103.326 5.915 103.548 6.29 103.698 6.728C103.854 7.166 103.932 7.646 103.932 8.168V14H102.924C102.714 14 102.552 13.97 102.438 13.91C102.324 13.844 102.234 13.715 102.168 13.523L101.97 12.857C101.736 13.067 101.508 13.253 101.286 13.415C101.064 13.571 100.833 13.703 100.593 13.811C100.353 13.919 100.095 14 99.8191 14.054C99.5491 14.114 99.2491 14.144 98.9191 14.144C98.5291 14.144 98.1691 14.093 97.8391 13.991C97.5091 13.883 97.2241 13.724 96.9841 13.514C96.7441 13.304 96.5581 13.043 96.4261 12.731C96.2941 12.419 96.2281 12.056 96.2281 11.642C96.2281 11.408 96.2671 11.177 96.3451 10.949C96.4231 10.715 96.5491 10.493 96.7231 10.283C96.9031 10.073 97.1341 9.875 97.4161 9.689C97.6981 9.503 98.0431 9.341 98.4511 9.203C98.8651 9.065 99.3451 8.954 99.8911 8.87C100.437 8.78 101.061 8.726 101.763 8.708V8.168C101.763 7.55 101.631 7.094 101.367 6.8C101.103 6.5 100.722 6.35 100.224 6.35C99.8641 6.35 99.5641 6.392 99.3241 6.476C99.0901 6.56 98.8831 6.656 98.7031 6.764C98.5231 6.866 98.3581 6.959 98.2081 7.043C98.0641 7.127 97.9021 7.169 97.7221 7.169C97.5661 7.169 97.4341 7.13 97.3261 7.052C97.2181 6.968 97.1311 6.872 97.0651 6.764L96.6691 6.053ZM108.105 5.9C108.291 5.714 108.486 5.543 108.69 5.387C108.9 5.225 109.119 5.09 109.347 4.982C109.581 4.868 109.83 4.781 110.094 4.721C110.358 4.655 110.646 4.622 110.958 4.622C111.462 4.622 111.909 4.709 112.299 4.883C112.689 5.051 113.013 5.291 113.271 5.603C113.535 5.909 113.733 6.278 113.865 6.71C114.003 7.136 114.072 7.607 114.072 8.123V14H111.849V8.123C111.849 7.559 111.72 7.124 111.462 6.818C111.204 6.506 110.811 6.35 110.283 6.35C109.899 6.35 109.539 6.437 109.203 6.611C108.867 6.785 108.549 7.022 108.249 7.322V14H106.026V4.766H107.385C107.673 4.766 107.862 4.901 107.952 5.171L108.105 5.9ZM121.982 7.124C121.73 6.818 121.454 6.602 121.154 6.476C120.86 6.35 120.542 6.287 120.2 6.287C119.864 6.287 119.561 6.35 119.291 6.476C119.021 6.602 118.79 6.794 118.598 7.052C118.406 7.304 118.259 7.628 118.157 8.024C118.055 8.414 118.004 8.876 118.004 9.41C118.004 9.95 118.046 10.409 118.13 10.787C118.22 11.159 118.346 11.465 118.508 11.705C118.67 11.939 118.868 12.11 119.102 12.218C119.336 12.32 119.597 12.371 119.885 12.371C120.347 12.371 120.74 12.275 121.064 12.083C121.388 11.891 121.694 11.618 121.982 11.264V7.124ZM124.205 0.625999V14H122.846C122.552 14 122.366 13.865 122.288 13.595L122.099 12.704C121.727 13.13 121.298 13.475 120.812 13.739C120.332 14.003 119.771 14.135 119.129 14.135C118.625 14.135 118.163 14.03 117.743 13.82C117.323 13.61 116.96 13.307 116.654 12.911C116.354 12.509 116.12 12.014 115.952 11.426C115.79 10.838 115.709 10.166 115.709 9.41C115.709 8.726 115.802 8.09 115.988 7.502C116.174 6.914 116.441 6.404 116.789 5.972C117.137 5.54 117.554 5.204 118.04 4.964C118.526 4.718 119.072 4.595 119.678 4.595C120.194 4.595 120.635 4.676 121.001 4.838C121.367 5 121.694 5.219 121.982 5.495V0.625999H124.205ZM138.057 3.353C137.985 3.479 137.907 3.572 137.823 3.632C137.745 3.686 137.646 3.713 137.526 3.713C137.4 3.713 137.262 3.668 137.112 3.578C136.968 3.482 136.794 3.377 136.59 3.263C136.386 3.149 136.146 3.047 135.87 2.957C135.6 2.861 135.279 2.813 134.907 2.813C134.571 2.813 134.277 2.855 134.025 2.939C133.773 3.017 133.56 3.128 133.386 3.272C133.218 3.416 133.092 3.59 133.008 3.794C132.924 3.992 132.882 4.211 132.882 4.451C132.882 4.757 132.966 5.012 133.134 5.216C133.308 5.42 133.536 5.594 133.818 5.738C134.1 5.882 134.421 6.011 134.781 6.125C135.141 6.239 135.51 6.362 135.888 6.494C136.266 6.62 136.635 6.77 136.995 6.944C137.355 7.112 137.676 7.328 137.958 7.592C138.24 7.85 138.465 8.168 138.633 8.546C138.807 8.924 138.894 9.383 138.894 9.923C138.894 10.511 138.792 11.063 138.588 11.579C138.39 12.089 138.096 12.536 137.706 12.92C137.322 13.298 136.851 13.598 136.293 13.82C135.735 14.036 135.096 14.144 134.376 14.144C133.962 14.144 133.554 14.102 133.152 14.018C132.75 13.94 132.363 13.826 131.991 13.676C131.625 13.526 131.28 13.346 130.956 13.136C130.632 12.926 130.344 12.692 130.092 12.434L130.803 11.273C130.863 11.189 130.941 11.12 131.037 11.066C131.133 11.006 131.235 10.976 131.343 10.976C131.493 10.976 131.655 11.039 131.829 11.165C132.003 11.285 132.21 11.42 132.45 11.57C132.69 11.72 132.969 11.858 133.287 11.984C133.611 12.104 133.998 12.164 134.448 12.164C135.138 12.164 135.672 12.002 136.05 11.678C136.428 11.348 136.617 10.877 136.617 10.265C136.617 9.923 136.53 9.644 136.356 9.428C136.188 9.212 135.963 9.032 135.681 8.888C135.399 8.738 135.078 8.612 134.718 8.51C134.358 8.408 133.992 8.297 133.62 8.177C133.248 8.057 132.882 7.913 132.522 7.745C132.162 7.577 131.841 7.358 131.559 7.088C131.277 6.818 131.049 6.482 130.875 6.08C130.707 5.672 130.623 5.171 130.623 4.577C130.623 4.103 130.716 3.641 130.902 3.191C131.094 2.741 131.37 2.342 131.73 1.994C132.09 1.646 132.534 1.367 133.062 1.157C133.59 0.947 134.196 0.842 134.88 0.842C135.648 0.842 136.356 0.962 137.004 1.202C137.652 1.442 138.204 1.778 138.66 2.21L138.057 3.353ZM142.755 5.756C143.115 5.42 143.511 5.147 143.943 4.937C144.375 4.727 144.882 4.622 145.464 4.622C145.968 4.622 146.415 4.709 146.805 4.883C147.195 5.051 147.519 5.291 147.777 5.603C148.041 5.909 148.239 6.278 148.371 6.71C148.509 7.136 148.578 7.607 148.578 8.123V14H146.355V8.123C146.355 7.559 146.226 7.124 145.968 6.818C145.71 6.506 145.317 6.35 144.789 6.35C144.405 6.35 144.045 6.437 143.709 6.611C143.373 6.785 143.055 7.022 142.755 7.322V14H140.532V0.625999H142.755V5.756ZM155.57 10.058C154.928 10.088 154.388 10.145 153.95 10.229C153.512 10.307 153.161 10.409 152.897 10.535C152.633 10.661 152.444 10.808 152.33 10.976C152.216 11.144 152.159 11.327 152.159 11.525C152.159 11.915 152.273 12.194 152.501 12.362C152.735 12.53 153.038 12.614 153.41 12.614C153.866 12.614 154.259 12.533 154.589 12.371C154.925 12.203 155.252 11.951 155.57 11.615V10.058ZM150.476 6.053C151.538 5.081 152.816 4.595 154.31 4.595C154.85 4.595 155.333 4.685 155.759 4.865C156.185 5.039 156.545 5.285 156.839 5.603C157.133 5.915 157.355 6.29 157.505 6.728C157.661 7.166 157.739 7.646 157.739 8.168V14H156.731C156.521 14 156.359 13.97 156.245 13.91C156.131 13.844 156.041 13.715 155.975 13.523L155.777 12.857C155.543 13.067 155.315 13.253 155.093 13.415C154.871 13.571 154.64 13.703 154.4 13.811C154.16 13.919 153.902 14 153.626 14.054C153.356 14.114 153.056 14.144 152.726 14.144C152.336 14.144 151.976 14.093 151.646 13.991C151.316 13.883 151.031 13.724 150.791 13.514C150.551 13.304 150.365 13.043 150.233 12.731C150.101 12.419 150.035 12.056 150.035 11.642C150.035 11.408 150.074 11.177 150.152 10.949C150.23 10.715 150.356 10.493 150.53 10.283C150.71 10.073 150.941 9.875 151.223 9.689C151.505 9.503 151.85 9.341 152.258 9.203C152.672 9.065 153.152 8.954 153.698 8.87C154.244 8.78 154.868 8.726 155.57 8.708V8.168C155.57 7.55 155.438 7.094 155.174 6.8C154.91 6.5 154.529 6.35 154.031 6.35C153.671 6.35 153.371 6.392 153.131 6.476C152.897 6.56 152.69 6.656 152.51 6.764C152.33 6.866 152.165 6.959 152.015 7.043C151.871 7.127 151.709 7.169 151.529 7.169C151.373 7.169 151.241 7.13 151.133 7.052C151.025 6.968 150.938 6.872 150.872 6.764L150.476 6.053ZM161.929 6.368C162.217 5.816 162.559 5.384 162.955 5.072C163.351 4.754 163.819 4.595 164.359 4.595C164.785 4.595 165.127 4.688 165.385 4.874L165.241 6.539C165.211 6.647 165.166 6.725 165.106 6.773C165.052 6.815 164.977 6.836 164.881 6.836C164.791 6.836 164.656 6.821 164.476 6.791C164.302 6.761 164.131 6.746 163.963 6.746C163.717 6.746 163.498 6.782 163.306 6.854C163.114 6.926 162.94 7.031 162.784 7.169C162.634 7.301 162.499 7.463 162.379 7.655C162.265 7.847 162.157 8.066 162.055 8.312V14H159.832V4.766H161.137C161.365 4.766 161.524 4.808 161.614 4.892C161.704 4.97 161.764 5.114 161.794 5.324L161.929 6.368ZM166.547 14V4.766H167.906C168.194 4.766 168.383 4.901 168.473 5.171L168.617 5.855C168.779 5.675 168.947 5.51 169.121 5.36C169.301 5.21 169.49 5.081 169.688 4.973C169.892 4.865 170.108 4.781 170.336 4.721C170.57 4.655 170.825 4.622 171.101 4.622C171.683 4.622 172.16 4.781 172.532 5.099C172.91 5.411 173.192 5.828 173.378 6.35C173.522 6.044 173.702 5.783 173.918 5.567C174.134 5.345 174.371 5.165 174.629 5.027C174.887 4.889 175.16 4.787 175.448 4.721C175.742 4.655 176.036 4.622 176.33 4.622C176.84 4.622 177.293 4.7 177.689 4.856C178.085 5.012 178.418 5.24 178.688 5.54C178.958 5.84 179.162 6.206 179.3 6.638C179.444 7.07 179.516 7.565 179.516 8.123V14H177.293V8.123C177.293 7.535 177.164 7.094 176.906 6.8C176.648 6.5 176.27 6.35 175.772 6.35C175.544 6.35 175.331 6.389 175.133 6.467C174.941 6.545 174.77 6.659 174.62 6.809C174.476 6.953 174.362 7.136 174.278 7.358C174.194 7.58 174.152 7.835 174.152 8.123V14H171.92V8.123C171.92 7.505 171.794 7.055 171.542 6.773C171.296 6.491 170.933 6.35 170.453 6.35C170.129 6.35 169.826 6.431 169.544 6.593C169.268 6.749 169.01 6.965 168.77 7.241V14H166.547ZM183.933 4.766V14H181.701V4.766H183.933ZM184.239 2.075C184.239 2.267 184.2 2.447 184.122 2.615C184.044 2.783 183.939 2.93 183.807 3.056C183.681 3.182 183.531 3.284 183.357 3.362C183.183 3.434 182.997 3.47 182.799 3.47C182.607 3.47 182.424 3.434 182.25 3.362C182.082 3.284 181.935 3.182 181.809 3.056C181.683 2.93 181.581 2.783 181.503 2.615C181.431 2.447 181.395 2.267 181.395 2.075C181.395 1.877 181.431 1.691 181.503 1.517C181.581 1.343 181.683 1.193 181.809 1.067C181.935 0.941 182.082 0.842 182.25 0.77C182.424 0.692 182.607 0.653 182.799 0.653C182.997 0.653 183.183 0.692 183.357 0.77C183.531 0.842 183.681 0.941 183.807 1.067C183.939 1.193 184.044 1.343 184.122 1.517C184.2 1.691 184.239 1.877 184.239 2.075ZM205.04 0.985999V14H202.907V5.594C202.907 5.258 202.925 4.895 202.961 4.505L199.028 11.894C198.842 12.248 198.557 12.425 198.173 12.425H197.831C197.447 12.425 197.162 12.248 196.976 11.894L192.998 4.478C193.016 4.676 193.031 4.871 193.043 5.063C193.055 5.255 193.061 5.432 193.061 5.594V14H190.928V0.985999H192.755C192.863 0.985999 192.956 0.988999 193.034 0.995C193.112 1.001 193.181 1.016 193.241 1.04C193.307 1.064 193.364 1.103 193.412 1.157C193.466 1.211 193.517 1.283 193.565 1.373L197.462 8.6C197.564 8.792 197.657 8.99 197.741 9.194C197.831 9.398 197.918 9.608 198.002 9.824C198.086 9.602 198.173 9.389 198.263 9.185C198.353 8.975 198.449 8.774 198.551 8.582L202.394 1.373C202.442 1.283 202.493 1.211 202.547 1.157C202.601 1.103 202.658 1.064 202.718 1.04C202.784 1.016 202.856 1.001 202.934 0.995C203.012 0.988999 203.105 0.985999 203.213 0.985999H205.04ZM212.242 10.058C211.6 10.088 211.06 10.145 210.622 10.229C210.184 10.307 209.833 10.409 209.569 10.535C209.305 10.661 209.116 10.808 209.002 10.976C208.888 11.144 208.831 11.327 208.831 11.525C208.831 11.915 208.945 12.194 209.173 12.362C209.407 12.53 209.71 12.614 210.082 12.614C210.538 12.614 210.931 12.533 211.261 12.371C211.597 12.203 211.924 11.951 212.242 11.615V10.058ZM207.148 6.053C208.21 5.081 209.488 4.595 210.982 4.595C211.522 4.595 212.005 4.685 212.431 4.865C212.857 5.039 213.217 5.285 213.511 5.603C213.805 5.915 214.027 6.29 214.177 6.728C214.333 7.166 214.411 7.646 214.411 8.168V14H213.403C213.193 14 213.031 13.97 212.917 13.91C212.803 13.844 212.713 13.715 212.647 13.523L212.449 12.857C212.215 13.067 211.987 13.253 211.765 13.415C211.543 13.571 211.312 13.703 211.072 13.811C210.832 13.919 210.574 14 210.298 14.054C210.028 14.114 209.728 14.144 209.398 14.144C209.008 14.144 208.648 14.093 208.318 13.991C207.988 13.883 207.703 13.724 207.463 13.514C207.223 13.304 207.037 13.043 206.905 12.731C206.773 12.419 206.707 12.056 206.707 11.642C206.707 11.408 206.746 11.177 206.824 10.949C206.902 10.715 207.028 10.493 207.202 10.283C207.382 10.073 207.613 9.875 207.895 9.689C208.177 9.503 208.522 9.341 208.93 9.203C209.344 9.065 209.824 8.954 210.37 8.87C210.916 8.78 211.54 8.726 212.242 8.708V8.168C212.242 7.55 212.11 7.094 211.846 6.8C211.582 6.5 211.201 6.35 210.703 6.35C210.343 6.35 210.043 6.392 209.803 6.476C209.569 6.56 209.362 6.656 209.182 6.764C209.002 6.866 208.837 6.959 208.687 7.043C208.543 7.127 208.381 7.169 208.201 7.169C208.045 7.169 207.913 7.13 207.805 7.052C207.697 6.968 207.61 6.872 207.544 6.764L207.148 6.053ZM219.459 14.144C218.655 14.144 218.037 13.919 217.605 13.469C217.179 13.013 216.966 12.386 216.966 11.588V6.431H216.021C215.901 6.431 215.799 6.392 215.715 6.314C215.631 6.236 215.589 6.119 215.589 5.963V5.081L217.074 4.838L217.542 2.318C217.572 2.198 217.629 2.105 217.713 2.039C217.797 1.973 217.905 1.94 218.037 1.94H219.189V4.847H221.655V6.431H219.189V11.435C219.189 11.723 219.258 11.948 219.396 12.11C219.54 12.272 219.735 12.353 219.981 12.353C220.119 12.353 220.233 12.338 220.323 12.308C220.419 12.272 220.5 12.236 220.566 12.2C220.638 12.164 220.701 12.131 220.755 12.101C220.809 12.065 220.863 12.047 220.917 12.047C220.983 12.047 221.037 12.065 221.079 12.101C221.121 12.131 221.166 12.179 221.214 12.245L221.88 13.325C221.556 13.595 221.184 13.799 220.764 13.937C220.344 14.075 219.909 14.144 219.459 14.144ZM225.301 5.756C225.661 5.42 226.057 5.147 226.489 4.937C226.921 4.727 227.428 4.622 228.01 4.622C228.514 4.622 228.961 4.709 229.351 4.883C229.741 5.051 230.065 5.291 230.323 5.603C230.587 5.909 230.785 6.278 230.917 6.71C231.055 7.136 231.124 7.607 231.124 8.123V14H228.901V8.123C228.901 7.559 228.772 7.124 228.514 6.818C228.256 6.506 227.863 6.35 227.335 6.35C226.951 6.35 226.591 6.437 226.255 6.611C225.919 6.785 225.601 7.022 225.301 7.322V14H223.078V0.625999H225.301V5.756ZM241.195 4.766V14H239.836C239.542 14 239.356 13.865 239.278 13.595L239.125 12.857C238.747 13.241 238.33 13.553 237.874 13.793C237.418 14.027 236.881 14.144 236.263 14.144C235.759 14.144 235.312 14.06 234.922 13.892C234.538 13.718 234.214 13.475 233.95 13.163C233.686 12.851 233.485 12.482 233.347 12.056C233.215 11.624 233.149 11.15 233.149 10.634V4.766H235.372V10.634C235.372 11.198 235.501 11.636 235.759 11.948C236.023 12.254 236.416 12.407 236.938 12.407C237.322 12.407 237.682 12.323 238.018 12.155C238.354 11.981 238.672 11.744 238.972 11.444V4.766H241.195ZM245.496 6.368C245.784 5.816 246.126 5.384 246.522 5.072C246.918 4.754 247.386 4.595 247.926 4.595C248.352 4.595 248.694 4.688 248.952 4.874L248.808 6.539C248.778 6.647 248.733 6.725 248.673 6.773C248.619 6.815 248.544 6.836 248.448 6.836C248.358 6.836 248.223 6.821 248.043 6.791C247.869 6.761 247.698 6.746 247.53 6.746C247.284 6.746 247.065 6.782 246.873 6.854C246.681 6.926 246.507 7.031 246.351 7.169C246.201 7.301 246.066 7.463 245.946 7.655C245.832 7.847 245.724 8.066 245.622 8.312V14H243.399V4.766H244.704C244.932 4.766 245.091 4.808 245.181 4.892C245.271 4.97 245.331 5.114 245.361 5.324L245.496 6.368Z" fill="black"/>
</svg>
