<svg width="437" height="126" viewBox="0 0 437 126" fill="none" xmlns="http://www.w3.org/2000/svg">
<rect x="7" width="422" height="46" fill="black"/>
<path d="M33.7626 11.464L30.9926 34H27.9095L29.8188 18.4439C29.8501 18.2039 29.8919 17.9327 29.944 17.6301C30.0066 17.3275 30.0745 17.025 30.1475 16.7224L21.8999 30.197C21.5869 30.7187 21.1383 30.9796 20.554 30.9796H20.0689C19.7976 30.9796 19.5577 30.9169 19.349 30.7917C19.1403 30.6561 18.989 30.4579 18.8951 30.197L13.8871 16.7224C13.8767 17.025 13.8611 17.3171 13.8402 17.5988C13.8298 17.8805 13.8141 18.1413 13.7932 18.3813L11.8839 34H8.78524L11.5553 11.464H14.1845C14.341 11.464 14.4714 11.4744 14.5757 11.4953C14.6801 11.5057 14.774 11.5318 14.8574 11.5735C14.9409 11.6153 15.0192 11.6727 15.0922 11.7457C15.1652 11.8187 15.2435 11.9178 15.3269 12.043L20.3662 25.502C20.5227 25.9924 20.6584 26.4932 20.7731 27.0044C20.8879 26.7436 21.0079 26.488 21.1331 26.2376C21.2583 25.9872 21.3939 25.742 21.54 25.502L29.8501 12.043C30.0692 11.8031 30.257 11.6466 30.4135 11.5735C30.5805 11.5005 30.8152 11.464 31.1178 11.464H33.7626ZM42.0131 14.3279L41.168 21.2609H48.6957L48.3357 24.0153H40.8237L39.9473 31.136H49.4156L49.0556 34H36.0505L38.8205 11.464H51.81L51.4501 14.3279H42.0131ZM69.5136 14.4062H63.1284L60.7183 34H57.2127L59.6072 14.4062H53.1907L53.535 11.464H69.8892L69.5136 14.4062ZM76.0947 14.3279L75.2496 21.2609H82.7772L82.4173 24.0153H74.9053L74.0289 31.136H83.4971L83.1372 34H70.132L72.9021 11.464H85.8916L85.5316 14.3279H76.0947ZM107.628 21.1826C107.628 22.4346 107.493 23.6293 107.221 24.7665C106.95 25.9037 106.559 26.9575 106.048 27.9278C105.547 28.8877 104.936 29.7588 104.216 30.5413C103.497 31.3134 102.693 31.9759 101.806 32.5289C100.92 33.0714 99.9597 33.494 98.9268 33.7966C97.8939 34.0887 96.8036 34.2348 95.6559 34.2348C94.2474 34.2348 92.9746 33.9844 91.8373 33.4836C90.7105 32.9828 89.7507 32.2942 88.9577 31.4177C88.1752 30.5309 87.5701 29.4824 87.1423 28.2721C86.725 27.0618 86.5163 25.742 86.5163 24.3126C86.5163 23.0502 86.652 21.8504 86.9232 20.7131C87.2049 19.5759 87.5962 18.5221 88.097 17.5519C88.5978 16.5815 89.2081 15.7051 89.928 14.9226C90.6479 14.1401 91.4513 13.4776 92.3381 12.9351C93.225 12.3821 94.1848 11.9596 95.2177 11.6674C96.2506 11.3649 97.3409 11.2136 98.4886 11.2136C99.8971 11.2136 101.165 11.464 102.292 11.9648C103.418 12.4656 104.378 13.1646 105.171 14.0619C105.964 14.9487 106.569 16.0025 106.987 17.2232C107.414 18.4335 107.628 19.7533 107.628 21.1826ZM103.997 21.2609C103.997 20.1863 103.862 19.216 103.59 18.35C103.319 17.4736 102.928 16.7276 102.417 16.1121C101.906 15.486 101.28 15.0061 100.539 14.6723C99.8084 14.3384 98.9842 14.1714 98.066 14.1714C96.8871 14.1714 95.8072 14.4114 94.8265 14.8913C93.8562 15.3609 93.0215 16.0338 92.3225 16.9102C91.6339 17.7866 91.0966 18.8456 90.7105 20.0871C90.3245 21.3183 90.1315 22.6903 90.1315 24.2031C90.1315 25.2777 90.2671 26.2533 90.5384 27.1297C90.8097 27.9956 91.1957 28.7416 91.6965 29.3676C92.2077 29.9832 92.8285 30.4579 93.5588 30.7917C94.2892 31.1256 95.1186 31.2925 96.0472 31.2925C97.2366 31.2925 98.3164 31.0578 99.2867 30.5883C100.267 30.1084 101.107 29.4354 101.806 28.5695C102.505 27.693 103.043 26.6393 103.418 25.4081C103.804 24.1666 103.997 22.7842 103.997 21.2609ZM117.457 22.3094C118.302 22.3094 119.043 22.1895 119.679 21.9495C120.316 21.6991 120.843 21.36 121.26 20.9322C121.677 20.5045 121.99 19.9985 122.199 19.4142C122.408 18.8299 122.512 18.1987 122.512 17.5205C122.512 16.4668 122.183 15.6582 121.526 15.0948C120.869 14.521 119.872 14.2341 118.537 14.2341H115.861L114.875 22.3094H117.457ZM118.85 11.464C120.102 11.464 121.177 11.5996 122.074 11.8709C122.982 12.1317 123.728 12.5021 124.312 12.982C124.896 13.462 125.324 14.041 125.595 14.7192C125.877 15.3869 126.018 16.1329 126.018 16.9571C126.018 17.844 125.887 18.6786 125.626 19.4612C125.376 20.2332 125.011 20.9323 124.531 21.5583C124.051 22.1843 123.462 22.7268 122.762 23.1858C122.074 23.6345 121.297 23.9788 120.431 24.2188C120.838 24.4796 121.166 24.85 121.417 25.3299L125.83 34H122.684C122.058 34 121.641 33.7548 121.432 33.2644L117.692 25.596C117.556 25.3351 117.395 25.1473 117.207 25.0326C117.029 24.9178 116.753 24.8604 116.377 24.8604H114.562L113.435 34H109.929L112.684 11.464H118.85ZM131.99 34H128.453L131.207 11.464H134.744L131.99 34ZM146.338 31.2143C146.995 31.2143 147.574 31.1621 148.075 31.0578C148.586 30.9535 149.03 30.823 149.405 30.6665C149.781 30.4996 150.099 30.3222 150.36 30.1344C150.631 29.9466 150.866 29.7745 151.064 29.618C151.263 29.4511 151.435 29.3154 151.581 29.2111C151.727 29.1068 151.868 29.0546 152.003 29.0546C152.118 29.0546 152.212 29.0807 152.285 29.1328C152.358 29.1746 152.415 29.2215 152.457 29.2737L153.693 30.823C152.723 31.9081 151.581 32.7532 150.266 33.3583C148.952 33.9531 147.444 34.2504 145.743 34.2504C144.377 34.2504 143.156 34.0052 142.081 33.5148C141.007 33.0245 140.099 32.3463 139.358 31.4803C138.617 30.6144 138.049 29.5815 137.652 28.3816C137.266 27.1818 137.073 25.8724 137.073 24.4535C137.073 22.5025 137.381 20.7184 137.997 19.1012C138.612 17.4736 139.457 16.0755 140.532 14.907C141.606 13.7385 142.864 12.8308 144.303 12.1839C145.754 11.537 147.308 11.2136 148.967 11.2136C149.781 11.2136 150.517 11.2866 151.174 11.4327C151.842 11.5788 152.441 11.7874 152.974 12.0587C153.516 12.3195 154.006 12.6377 154.445 13.0133C154.883 13.3889 155.285 13.8063 155.65 14.2653L154.445 15.7364C154.351 15.8512 154.241 15.9503 154.116 16.0338C153.991 16.1173 153.834 16.159 153.647 16.159C153.511 16.159 153.375 16.112 153.24 16.0181C153.104 15.9242 152.953 15.8095 152.786 15.6739C152.619 15.5278 152.421 15.3765 152.191 15.22C151.972 15.0531 151.706 14.9018 151.393 14.7661C151.08 14.6201 150.71 14.5001 150.282 14.4062C149.864 14.3123 149.369 14.2653 148.795 14.2653C147.647 14.2653 146.578 14.5001 145.587 14.9696C144.596 15.4287 143.735 16.086 143.005 16.9415C142.285 17.797 141.716 18.8352 141.299 20.0558C140.881 21.2765 140.673 22.6433 140.673 24.1562C140.673 25.2516 140.814 26.2376 141.095 27.114C141.377 27.9904 141.768 28.7312 142.269 29.3363C142.77 29.9414 143.364 30.4057 144.053 30.7291C144.752 31.0526 145.514 31.2143 146.338 31.2143ZM171.101 22.3094C171.946 22.3094 172.687 22.1895 173.323 21.9495C173.96 21.6991 174.487 21.36 174.904 20.9322C175.321 20.5045 175.634 19.9985 175.843 19.4142C176.052 18.8299 176.156 18.1987 176.156 17.5205C176.156 16.4668 175.827 15.6582 175.17 15.0948C174.513 14.521 173.516 14.2341 172.181 14.2341H169.505L168.519 22.3094H171.101ZM172.494 11.464C173.746 11.464 174.821 11.5996 175.718 11.8709C176.626 12.1317 177.372 12.5021 177.956 12.982C178.54 13.462 178.968 14.041 179.239 14.7192C179.521 15.3869 179.662 16.1329 179.662 16.9571C179.662 17.844 179.531 18.6786 179.27 19.4612C179.02 20.2332 178.655 20.9323 178.175 21.5583C177.695 22.1843 177.106 22.7268 176.407 23.1858C175.718 23.6345 174.941 23.9788 174.075 24.2188C174.482 24.4796 174.81 24.85 175.061 25.3299L179.474 34H176.328C175.702 34 175.285 33.7548 175.076 33.2644L171.336 25.596C171.2 25.3351 171.039 25.1473 170.851 25.0326C170.673 24.9178 170.397 24.8604 170.021 24.8604H168.206L167.079 34H163.574L166.328 11.464H172.494ZM185.634 34H182.097L184.851 11.464H188.388L185.634 34ZM203.957 15.267C203.821 15.4443 203.691 15.5799 203.566 15.6739C203.441 15.7573 203.289 15.799 203.112 15.799C202.924 15.799 202.721 15.7156 202.502 15.5487C202.293 15.3713 202.037 15.1783 201.735 14.9696C201.432 14.7609 201.067 14.5731 200.639 14.4062C200.212 14.2288 199.69 14.1401 199.074 14.1401C198.459 14.1401 197.911 14.234 197.431 14.4218C196.951 14.6096 196.544 14.8653 196.21 15.1887C195.887 15.5017 195.642 15.8773 195.475 16.3155C195.308 16.7433 195.224 17.2075 195.224 17.7084C195.224 18.2196 195.344 18.6473 195.584 18.9916C195.835 19.3255 196.163 19.6176 196.57 19.868C196.977 20.1184 197.436 20.3428 197.948 20.541C198.459 20.7392 198.986 20.9427 199.528 21.1513C200.071 21.36 200.598 21.6 201.109 21.8712C201.62 22.1321 202.079 22.4607 202.486 22.8572C202.893 23.2432 203.216 23.7127 203.456 24.2657C203.707 24.8187 203.832 25.4864 203.832 26.2689C203.832 27.354 203.644 28.3816 203.269 29.3519C202.893 30.3222 202.356 31.1726 201.657 31.9029C200.968 32.6228 200.123 33.1966 199.121 33.6244C198.13 34.0417 197.014 34.2504 195.772 34.2504C195.115 34.2504 194.473 34.1774 193.847 34.0313C193.232 33.8957 192.653 33.7026 192.11 33.4523C191.568 33.1914 191.067 32.8784 190.608 32.5132C190.149 32.1481 189.747 31.7412 189.403 31.2925L190.639 29.6023C190.743 29.4771 190.869 29.3728 191.015 29.2893C191.171 29.1954 191.333 29.1485 191.5 29.1485C191.729 29.1485 191.964 29.2633 192.204 29.4928C192.444 29.7119 192.736 29.9623 193.08 30.244C193.435 30.5153 193.863 30.7657 194.364 30.9952C194.864 31.2143 195.485 31.3239 196.226 31.3239C196.873 31.3239 197.457 31.2247 197.979 31.0265C198.5 30.8283 198.939 30.5518 199.293 30.197C199.659 29.8319 199.935 29.3937 200.123 28.8824C200.321 28.3608 200.42 27.787 200.42 27.161C200.42 26.6184 200.295 26.1698 200.045 25.8151C199.805 25.4603 199.481 25.1577 199.074 24.9073C198.678 24.6569 198.224 24.4431 197.713 24.2657C197.202 24.0883 196.68 23.9005 196.148 23.7023C195.616 23.5041 195.094 23.2797 194.583 23.0293C194.072 22.7685 193.612 22.4451 193.206 22.0591C192.809 21.6626 192.486 21.1774 192.235 20.6036C191.995 20.0193 191.875 19.3099 191.875 18.4752C191.875 17.5258 192.047 16.6181 192.392 15.7521C192.736 14.8757 193.232 14.1036 193.879 13.4359C194.536 12.7682 195.329 12.2361 196.257 11.8396C197.186 11.4327 198.234 11.2292 199.403 11.2292C199.998 11.2292 200.566 11.2918 201.109 11.417C201.651 11.5318 202.163 11.704 202.643 11.9335C203.122 12.1526 203.555 12.4186 203.941 12.7316C204.338 13.0446 204.687 13.3889 204.99 13.7645L203.957 15.267ZM212.665 14.3279L211.82 21.2609H219.348L218.988 24.0153H211.476L210.6 31.136H220.068L219.708 34H206.703L209.473 11.464H222.462L222.102 14.3279H212.665ZM224.766 33.9843C224.464 33.9843 224.187 33.9322 223.937 33.8278C223.686 33.7131 223.473 33.5618 223.295 33.374C223.118 33.1758 222.977 32.9462 222.873 32.6854C222.779 32.4246 222.732 32.1376 222.732 31.8246C222.732 31.2717 222.92 30.8074 223.295 30.4318C223.671 30.0562 224.172 29.8684 224.798 29.8684C225.152 29.8684 225.465 29.9362 225.737 30.0718C226.008 30.197 226.232 30.3744 226.409 30.6039C226.597 30.823 226.733 31.0839 226.816 31.3864C226.91 31.6786 226.957 31.9916 226.957 32.3254C226.957 32.8054 226.884 33.3114 226.738 33.8435C226.603 34.3756 226.394 34.9025 226.112 35.4242C225.841 35.9563 225.502 36.4727 225.095 36.9735C224.698 37.4743 224.245 37.9334 223.733 38.3507L223.139 37.803C222.982 37.6569 222.904 37.49 222.904 37.3022C222.904 37.1665 222.987 36.9996 223.154 36.8014C223.332 36.6031 223.53 36.3632 223.749 36.0814C223.968 35.8102 224.182 35.5024 224.391 35.1581C224.61 34.8138 224.761 34.4226 224.844 33.9843H224.766ZM248.984 25.5803L247.2 17.145C247.148 16.8215 247.08 16.4511 246.997 16.0338C246.924 15.6165 246.851 15.1574 246.777 14.6566C246.6 15.1574 246.423 15.6217 246.245 16.0494C246.068 16.4668 245.906 16.8424 245.76 17.1762L241.91 25.5803H248.984ZM254.399 34H251.676C251.363 34 251.118 33.927 250.94 33.7809C250.773 33.6244 250.653 33.4209 250.58 33.1705L249.516 28.1156H240.737L238.42 33.1705C238.316 33.3896 238.149 33.5827 237.92 33.7496C237.7 33.9165 237.445 34 237.153 34H234.398L245.369 11.464H248.953L254.399 34ZM281.931 11.464L279.161 34H276.078L277.987 18.4439C278.019 18.2039 278.061 17.9327 278.113 17.6301C278.175 17.3275 278.243 17.025 278.316 16.7224L270.069 30.197C269.756 30.7187 269.307 30.9796 268.723 30.9796H268.238C267.966 30.9796 267.726 30.9169 267.518 30.7917C267.309 30.6561 267.158 30.4579 267.064 30.197L262.056 16.7224C262.045 17.025 262.03 17.3171 262.009 17.5988C261.998 17.8805 261.983 18.1413 261.962 18.3813L260.053 34H256.954L259.724 11.464H262.353C262.51 11.464 262.64 11.4744 262.744 11.4953C262.849 11.5057 262.943 11.5318 263.026 11.5735C263.11 11.6153 263.188 11.6727 263.261 11.7457C263.334 11.8187 263.412 11.9178 263.496 12.043L268.535 25.502C268.691 25.9924 268.827 26.4932 268.942 27.0044C269.057 26.7436 269.177 26.488 269.302 26.2376C269.427 25.9872 269.563 25.742 269.709 25.502L278.019 12.043C278.238 11.8031 278.426 11.6466 278.582 11.5735C278.749 11.5005 278.984 11.464 279.286 11.464H281.931ZM290.182 14.3279L289.337 21.2609H296.864L296.504 24.0153H288.992L288.116 31.136H297.584L297.224 34H284.219L286.989 11.464H299.979L299.619 14.3279H290.182ZM306.993 14.3279L306.148 21.2609H313.676L313.316 24.0153H305.804L304.927 31.136H314.396L314.036 34H301.031L303.801 11.464H316.79L316.43 14.3279H306.993ZM325.37 22.3094C326.215 22.3094 326.956 22.1895 327.592 21.9495C328.229 21.6991 328.755 21.36 329.173 20.9322C329.59 20.5045 329.903 19.9985 330.112 19.4142C330.32 18.8299 330.425 18.1987 330.425 17.5205C330.425 16.4668 330.096 15.6582 329.439 15.0948C328.781 14.521 327.785 14.2341 326.45 14.2341H323.773L322.788 22.3094H325.37ZM326.763 11.464C328.015 11.464 329.089 11.5996 329.987 11.8709C330.894 12.1317 331.64 12.5021 332.224 12.982C332.809 13.462 333.237 14.041 333.508 14.7192C333.789 15.3869 333.93 16.1329 333.93 16.9571C333.93 17.844 333.8 18.6786 333.539 19.4612C333.289 20.2332 332.924 20.9323 332.444 21.5583C331.964 22.1843 331.374 22.7268 330.675 23.1858C329.987 23.6345 329.209 23.9788 328.343 24.2188C328.75 24.4796 329.079 24.85 329.329 25.3299L333.743 34H330.597C329.971 34 329.554 33.7548 329.345 33.2644L325.605 25.596C325.469 25.3351 325.307 25.1473 325.119 25.0326C324.942 24.9178 324.666 24.8604 324.29 24.8604H322.475L321.348 34H317.842L320.597 11.464H326.763ZM341.076 10.2902C341.42 11.0519 341.603 11.8187 341.624 12.5908C341.655 13.3524 341.54 14.0984 341.279 14.8288C341.029 15.5591 340.643 16.2633 340.121 16.9415C339.61 17.6197 338.989 18.2509 338.259 18.8351L337.351 18.2404C337.216 18.1361 337.148 18.0005 337.148 17.8336C337.148 17.7396 337.174 17.651 337.226 17.5675C337.278 17.484 337.367 17.3693 337.492 17.2232C337.69 16.9937 337.904 16.7015 338.134 16.3468C338.363 15.9816 338.546 15.5747 338.682 15.1261C338.828 14.667 338.895 14.1767 338.885 13.655C338.885 13.1229 338.755 12.5647 338.494 11.9804C338.41 11.7926 338.416 11.6153 338.509 11.4483C338.614 11.2814 338.781 11.1562 339.01 11.0728L341.076 10.2902ZM356.178 15.267C356.042 15.4443 355.912 15.5799 355.787 15.6739C355.661 15.7573 355.51 15.799 355.333 15.799C355.145 15.799 354.941 15.7156 354.722 15.5487C354.514 15.3713 354.258 15.1783 353.955 14.9696C353.653 14.7609 353.288 14.5731 352.86 14.4062C352.432 14.2288 351.911 14.1401 351.295 14.1401C350.679 14.1401 350.132 14.234 349.652 14.4218C349.172 14.6096 348.765 14.8653 348.431 15.1887C348.108 15.5017 347.862 15.8773 347.695 16.3155C347.529 16.7433 347.445 17.2075 347.445 17.7084C347.445 18.2196 347.565 18.6473 347.805 18.9916C348.055 19.3255 348.384 19.6176 348.791 19.868C349.198 20.1184 349.657 20.3428 350.168 20.541C350.679 20.7392 351.206 20.9427 351.749 21.1513C352.291 21.36 352.818 21.6 353.329 21.8712C353.841 22.1321 354.3 22.4607 354.707 22.8572C355.114 23.2432 355.437 23.7127 355.677 24.2657C355.927 24.8187 356.053 25.4864 356.053 26.2689C356.053 27.354 355.865 28.3816 355.489 29.3519C355.114 30.3222 354.576 31.1726 353.877 31.9029C353.189 32.6228 352.344 33.1966 351.342 33.6244C350.351 34.0417 349.234 34.2504 347.993 34.2504C347.336 34.2504 346.694 34.1774 346.068 34.0313C345.452 33.8957 344.873 33.7026 344.331 33.4523C343.788 33.1914 343.287 32.8784 342.828 32.5132C342.369 32.1481 341.968 31.7412 341.623 31.2925L342.86 29.6023C342.964 29.4771 343.089 29.3728 343.235 29.2893C343.392 29.1954 343.553 29.1485 343.72 29.1485C343.95 29.1485 344.185 29.2633 344.425 29.4928C344.665 29.7119 344.957 29.9623 345.301 30.244C345.656 30.5153 346.084 30.7657 346.584 30.9952C347.085 31.2143 347.706 31.3239 348.447 31.3239C349.094 31.3239 349.678 31.2247 350.199 31.0265C350.721 30.8283 351.159 30.5518 351.514 30.197C351.879 29.8319 352.156 29.3937 352.344 28.8824C352.542 28.3608 352.641 27.787 352.641 27.161C352.641 26.6184 352.516 26.1698 352.265 25.8151C352.025 25.4603 351.702 25.1577 351.295 24.9073C350.899 24.6569 350.445 24.4431 349.933 24.2657C349.422 24.0883 348.901 23.9005 348.368 23.7023C347.836 23.5041 347.315 23.2797 346.803 23.0293C346.292 22.7685 345.833 22.4451 345.426 22.0591C345.03 21.6626 344.706 21.1774 344.456 20.6036C344.216 20.0193 344.096 19.3099 344.096 18.4752C344.096 17.5258 344.268 16.6181 344.612 15.7521C344.957 14.8757 345.452 14.1036 346.099 13.4359C346.756 12.7682 347.549 12.2361 348.478 11.8396C349.407 11.4327 350.455 11.2292 351.624 11.2292C352.218 11.2292 352.787 11.2918 353.329 11.417C353.872 11.5318 354.383 11.704 354.863 11.9335C355.343 12.1526 355.776 12.4186 356.162 12.7316C356.559 13.0446 356.908 13.3889 357.211 13.7645L356.178 15.267ZM371.947 14.3279L371.039 21.6991H379.068L378.692 24.5474H370.695L369.521 34H365.984L368.754 11.464H381.744L381.384 14.3279H371.947ZM392.952 25.5803L391.168 17.145C391.116 16.8215 391.048 16.4511 390.964 16.0338C390.891 15.6165 390.818 15.1574 390.745 14.6566C390.568 15.1574 390.391 15.6217 390.213 16.0494C390.036 16.4668 389.874 16.8424 389.728 17.1762L385.878 25.5803H392.952ZM398.367 34H395.644C395.331 34 395.086 33.927 394.908 33.7809C394.741 33.6244 394.621 33.4209 394.548 33.1705L393.484 28.1156H384.704L382.388 33.1705C382.284 33.3896 382.117 33.5827 381.887 33.7496C381.668 33.9165 381.413 34 381.12 34H378.366L389.337 11.464H392.921L398.367 34ZM413.332 31.0421L412.972 34H400.922L403.692 11.464H407.213L404.803 31.0421H413.332ZM428.34 31.0421L427.98 34H415.93L418.7 11.464H422.221L419.811 31.0421H428.34Z" fill="white"/>
<path d="M15.8191 58.6875H10.3691V74H7.00664V58.6875H1.55664V55.925H15.8191V58.6875ZM20.7748 61.175V74H17.6748V61.175H20.7748ZM21.1998 57.4375C21.1998 57.7042 21.1456 57.9542 21.0373 58.1875C20.929 58.4208 20.7831 58.625 20.5998 58.8C20.4248 58.975 20.2165 59.1167 19.9748 59.225C19.7331 59.325 19.4748 59.375 19.1998 59.375C18.9331 59.375 18.679 59.325 18.4373 59.225C18.204 59.1167 17.9998 58.975 17.8248 58.8C17.6498 58.625 17.5081 58.4208 17.3998 58.1875C17.2998 57.9542 17.2498 57.7042 17.2498 57.4375C17.2498 57.1625 17.2998 56.9042 17.3998 56.6625C17.5081 56.4208 17.6498 56.2125 17.8248 56.0375C17.9998 55.8625 18.204 55.725 18.4373 55.625C18.679 55.5167 18.9331 55.4625 19.1998 55.4625C19.4748 55.4625 19.7331 55.5167 19.9748 55.625C20.2165 55.725 20.4248 55.8625 20.5998 56.0375C20.7831 56.2125 20.929 56.4208 21.0373 56.6625C21.1456 56.9042 21.1998 57.1625 21.1998 57.4375ZM23.9225 74V61.175H25.81C26.21 61.175 26.4725 61.3625 26.5975 61.7375L26.7975 62.6875C27.0225 62.4375 27.2558 62.2083 27.4975 62C27.7475 61.7917 28.01 61.6125 28.285 61.4625C28.5683 61.3125 28.8683 61.1958 29.185 61.1125C29.51 61.0208 29.8641 60.975 30.2475 60.975C31.0558 60.975 31.7183 61.1958 32.235 61.6375C32.76 62.0708 33.1516 62.65 33.41 63.375C33.61 62.95 33.86 62.5875 34.16 62.2875C34.46 61.9792 34.7891 61.7292 35.1475 61.5375C35.5058 61.3458 35.885 61.2042 36.285 61.1125C36.6933 61.0208 37.1016 60.975 37.51 60.975C38.2183 60.975 38.8475 61.0833 39.3975 61.3C39.9475 61.5167 40.41 61.8333 40.785 62.25C41.16 62.6667 41.4433 63.175 41.635 63.775C41.835 64.375 41.935 65.0625 41.935 65.8375V74H38.8475V65.8375C38.8475 65.0208 38.6683 64.4083 38.31 64C37.9516 63.5833 37.4266 63.375 36.735 63.375C36.4183 63.375 36.1225 63.4292 35.8475 63.5375C35.5808 63.6458 35.3433 63.8042 35.135 64.0125C34.935 64.2125 34.7766 64.4667 34.66 64.775C34.5433 65.0833 34.485 65.4375 34.485 65.8375V74H31.385V65.8375C31.385 64.9792 31.21 64.3542 30.86 63.9625C30.5183 63.5708 30.0141 63.375 29.3475 63.375C28.8975 63.375 28.4766 63.4875 28.085 63.7125C27.7016 63.9292 27.3433 64.2292 27.01 64.6125V74H23.9225ZM53.1322 66.1125C53.1322 65.7125 53.0739 65.3375 52.9572 64.9875C52.8489 64.6292 52.6822 64.3167 52.4572 64.05C52.2322 63.7833 51.9447 63.575 51.5947 63.425C51.2531 63.2667 50.8531 63.1875 50.3947 63.1875C49.5031 63.1875 48.7989 63.4417 48.2822 63.95C47.7739 64.4583 47.4489 65.1792 47.3072 66.1125H53.1322ZM47.2447 67.975C47.2947 68.6333 47.4114 69.2042 47.5947 69.6875C47.7781 70.1625 48.0197 70.5583 48.3197 70.875C48.6197 71.1833 48.9739 71.4167 49.3822 71.575C49.7989 71.725 50.2572 71.8 50.7572 71.8C51.2572 71.8 51.6864 71.7417 52.0447 71.625C52.4114 71.5083 52.7281 71.3792 52.9947 71.2375C53.2697 71.0958 53.5072 70.9667 53.7072 70.85C53.9156 70.7333 54.1156 70.675 54.3072 70.675C54.5656 70.675 54.7572 70.7708 54.8822 70.9625L55.7697 72.0875C55.4281 72.4875 55.0447 72.825 54.6197 73.1C54.1947 73.3667 53.7489 73.5833 53.2822 73.75C52.8239 73.9083 52.3531 74.0208 51.8697 74.0875C51.3947 74.1542 50.9322 74.1875 50.4822 74.1875C49.5906 74.1875 48.7614 74.0417 47.9947 73.75C47.2281 73.45 46.5614 73.0125 45.9947 72.4375C45.4281 71.8542 44.9822 71.1375 44.6572 70.2875C44.3322 69.4292 44.1697 68.4375 44.1697 67.3125C44.1697 66.4375 44.3114 65.6167 44.5947 64.85C44.8781 64.075 45.2822 63.4042 45.8072 62.8375C46.3406 62.2625 46.9864 61.8083 47.7447 61.475C48.5114 61.1417 49.3739 60.975 50.3322 60.975C51.1406 60.975 51.8864 61.1042 52.5697 61.3625C53.2531 61.6208 53.8406 62 54.3322 62.5C54.8239 62.9917 55.2072 63.6 55.4822 64.325C55.7656 65.0417 55.9072 65.8625 55.9072 66.7875C55.9072 67.2542 55.8572 67.5708 55.7572 67.7375C55.6572 67.8958 55.4656 67.975 55.1822 67.975H47.2447ZM61.3492 55.425V74H58.2617V55.425H61.3492ZM67.6254 61.175V74H64.5254V61.175H67.6254ZM68.0504 57.4375C68.0504 57.7042 67.9962 57.9542 67.8879 58.1875C67.7796 58.4208 67.6337 58.625 67.4504 58.8C67.2754 58.975 67.0671 59.1167 66.8254 59.225C66.5837 59.325 66.3254 59.375 66.0504 59.375C65.7837 59.375 65.5296 59.325 65.2879 59.225C65.0546 59.1167 64.8504 58.975 64.6754 58.8C64.5004 58.625 64.3587 58.4208 64.2504 58.1875C64.1504 57.9542 64.1004 57.7042 64.1004 57.4375C64.1004 57.1625 64.1504 56.9042 64.2504 56.6625C64.3587 56.4208 64.5004 56.2125 64.6754 56.0375C64.8504 55.8625 65.0546 55.725 65.2879 55.625C65.5296 55.5167 65.7837 55.4625 66.0504 55.4625C66.3254 55.4625 66.5837 55.5167 66.8254 55.625C67.0671 55.725 67.2754 55.8625 67.4504 56.0375C67.6337 56.2125 67.7796 56.4208 67.8879 56.6625C67.9962 56.9042 68.0504 57.1625 68.0504 57.4375ZM73.6605 62.75C73.9189 62.4917 74.1897 62.2542 74.473 62.0375C74.7647 61.8125 75.0689 61.625 75.3855 61.475C75.7105 61.3167 76.0564 61.1958 76.423 61.1125C76.7897 61.0208 77.1897 60.975 77.623 60.975C78.323 60.975 78.9439 61.0958 79.4855 61.3375C80.0272 61.5708 80.4772 61.9042 80.8355 62.3375C81.2022 62.7625 81.4772 63.275 81.6605 63.875C81.8522 64.4667 81.948 65.1208 81.948 65.8375V74H78.8605V65.8375C78.8605 65.0542 78.6814 64.45 78.323 64.025C77.9647 63.5917 77.4189 63.375 76.6855 63.375C76.1522 63.375 75.6522 63.4958 75.1855 63.7375C74.7189 63.9792 74.2772 64.3083 73.8605 64.725V74H70.773V61.175H72.6605C73.0605 61.175 73.323 61.3625 73.448 61.7375L73.6605 62.75ZM93.1469 66.1125C93.1469 65.7125 93.0885 65.3375 92.9719 64.9875C92.8635 64.6292 92.6969 64.3167 92.4719 64.05C92.2469 63.7833 91.9594 63.575 91.6094 63.425C91.2677 63.2667 90.8677 63.1875 90.4094 63.1875C89.5177 63.1875 88.8135 63.4417 88.2969 63.95C87.7885 64.4583 87.4635 65.1792 87.3219 66.1125H93.1469ZM87.2594 67.975C87.3094 68.6333 87.426 69.2042 87.6094 69.6875C87.7927 70.1625 88.0344 70.5583 88.3344 70.875C88.6344 71.1833 88.9885 71.4167 89.3969 71.575C89.8135 71.725 90.2719 71.8 90.7719 71.8C91.2719 71.8 91.701 71.7417 92.0594 71.625C92.426 71.5083 92.7427 71.3792 93.0094 71.2375C93.2844 71.0958 93.5219 70.9667 93.7219 70.85C93.9302 70.7333 94.1302 70.675 94.3219 70.675C94.5802 70.675 94.7719 70.7708 94.8969 70.9625L95.7844 72.0875C95.4427 72.4875 95.0594 72.825 94.6344 73.1C94.2094 73.3667 93.7635 73.5833 93.2969 73.75C92.8385 73.9083 92.3677 74.0208 91.8844 74.0875C91.4094 74.1542 90.9469 74.1875 90.4969 74.1875C89.6052 74.1875 88.776 74.0417 88.0094 73.75C87.2427 73.45 86.576 73.0125 86.0094 72.4375C85.4427 71.8542 84.9969 71.1375 84.6719 70.2875C84.3469 69.4292 84.1844 68.4375 84.1844 67.3125C84.1844 66.4375 84.326 65.6167 84.6094 64.85C84.8927 64.075 85.2969 63.4042 85.8219 62.8375C86.3552 62.2625 87.001 61.8083 87.7594 61.475C88.526 61.1417 89.3885 60.975 90.3469 60.975C91.1552 60.975 91.901 61.1042 92.5844 61.3625C93.2677 61.6208 93.8552 62 94.3469 62.5C94.8385 62.9917 95.2219 63.6 95.4969 64.325C95.7802 65.0417 95.9219 65.8625 95.9219 66.7875C95.9219 67.2542 95.8719 67.5708 95.7719 67.7375C95.6719 67.8958 95.4802 67.975 95.1969 67.975H87.2594ZM109.993 60.975C110.943 60.975 111.805 61.1292 112.58 61.4375C113.364 61.7458 114.03 62.1833 114.58 62.75C115.139 63.3167 115.568 64.0083 115.868 64.825C116.168 65.6417 116.318 66.5542 116.318 67.5625C116.318 68.5792 116.168 69.4958 115.868 70.3125C115.568 71.1292 115.139 71.825 114.58 72.4C114.03 72.975 113.364 73.4167 112.58 73.725C111.805 74.0333 110.943 74.1875 109.993 74.1875C109.035 74.1875 108.164 74.0333 107.38 73.725C106.597 73.4167 105.926 72.975 105.368 72.4C104.818 71.825 104.389 71.1292 104.08 70.3125C103.78 69.4958 103.63 68.5792 103.63 67.5625C103.63 66.5542 103.78 65.6417 104.08 64.825C104.389 64.0083 104.818 63.3167 105.368 62.75C105.926 62.1833 106.597 61.7458 107.38 61.4375C108.164 61.1292 109.035 60.975 109.993 60.975ZM109.993 71.8125C111.06 71.8125 111.847 71.4542 112.355 70.7375C112.872 70.0208 113.13 68.9708 113.13 67.5875C113.13 66.2042 112.872 65.15 112.355 64.425C111.847 63.7 111.06 63.3375 109.993 63.3375C108.91 63.3375 108.105 63.7042 107.58 64.4375C107.064 65.1625 106.805 66.2125 106.805 67.5875C106.805 68.9625 107.064 70.0125 107.58 70.7375C108.105 71.4542 108.91 71.8125 109.993 71.8125ZM119.256 74V63.5L118.144 63.325C117.902 63.275 117.706 63.1917 117.556 63.075C117.414 62.95 117.344 62.775 117.344 62.55V61.2875H119.256V60.3375C119.256 59.6042 119.364 58.9458 119.581 58.3625C119.806 57.7792 120.123 57.2833 120.531 56.875C120.948 56.4667 121.452 56.1542 122.044 55.9375C122.635 55.7208 123.302 55.6125 124.044 55.6125C124.635 55.6125 125.185 55.6917 125.694 55.85L125.631 57.4C125.623 57.5167 125.589 57.6125 125.531 57.6875C125.473 57.7542 125.394 57.8083 125.294 57.85C125.202 57.8833 125.094 57.9083 124.969 57.925C124.844 57.9333 124.71 57.9375 124.569 57.9375C124.202 57.9375 123.873 57.9792 123.581 58.0625C123.298 58.1375 123.056 58.275 122.856 58.475C122.656 58.6667 122.502 58.925 122.394 59.25C122.294 59.5667 122.244 59.9625 122.244 60.4375V61.2875H125.581V63.4875H122.344V74H119.256ZM140.181 71.375C140.806 71.375 141.331 71.3 141.756 71.15C142.181 71 142.519 70.8 142.769 70.55C143.027 70.3 143.21 70.0083 143.319 69.675C143.435 69.3417 143.494 68.9875 143.494 68.6125C143.494 68.2208 143.431 67.8708 143.306 67.5625C143.181 67.2458 142.985 66.9792 142.719 66.7625C142.452 66.5375 142.106 66.3667 141.681 66.25C141.265 66.1333 140.76 66.075 140.169 66.075H136.781V71.375H140.181ZM136.781 58.525V63.75H139.456C140.606 63.75 141.473 63.5417 142.056 63.125C142.648 62.7083 142.944 62.0458 142.944 61.1375C142.944 60.1958 142.677 59.525 142.144 59.125C141.61 58.725 140.777 58.525 139.644 58.525H136.781ZM139.644 55.925C140.827 55.925 141.84 56.0375 142.681 56.2625C143.523 56.4875 144.21 56.8083 144.744 57.225C145.285 57.6417 145.681 58.1458 145.931 58.7375C146.181 59.3292 146.306 59.9958 146.306 60.7375C146.306 61.1625 146.244 61.5708 146.119 61.9625C145.994 62.3458 145.798 62.7083 145.531 63.05C145.273 63.3833 144.94 63.6875 144.531 63.9625C144.131 64.2375 143.652 64.4708 143.094 64.6625C145.577 65.2208 146.819 66.5625 146.819 68.6875C146.819 69.4542 146.673 70.1625 146.381 70.8125C146.09 71.4625 145.665 72.025 145.106 72.5C144.548 72.9667 143.86 73.3333 143.044 73.6C142.227 73.8667 141.294 74 140.244 74H133.419V55.925H139.644ZM152.055 63.4C152.455 62.6333 152.93 62.0333 153.48 61.6C154.03 61.1583 154.68 60.9375 155.43 60.9375C156.021 60.9375 156.496 61.0667 156.855 61.325L156.655 63.6375C156.613 63.7875 156.551 63.8958 156.467 63.9625C156.392 64.0208 156.288 64.05 156.155 64.05C156.03 64.05 155.842 64.0292 155.592 63.9875C155.351 63.9458 155.113 63.925 154.88 63.925C154.538 63.925 154.234 63.975 153.967 64.075C153.701 64.175 153.459 64.3208 153.242 64.5125C153.034 64.6958 152.846 64.9208 152.68 65.1875C152.521 65.4542 152.371 65.7583 152.23 66.1V74H149.142V61.175H150.955C151.271 61.175 151.492 61.2333 151.617 61.35C151.742 61.4583 151.826 61.6583 151.867 61.95L152.055 63.4ZM163.777 60.975C164.727 60.975 165.59 61.1292 166.365 61.4375C167.148 61.7458 167.815 62.1833 168.365 62.75C168.923 63.3167 169.352 64.0083 169.652 64.825C169.952 65.6417 170.102 66.5542 170.102 67.5625C170.102 68.5792 169.952 69.4958 169.652 70.3125C169.352 71.1292 168.923 71.825 168.365 72.4C167.815 72.975 167.148 73.4167 166.365 73.725C165.59 74.0333 164.727 74.1875 163.777 74.1875C162.819 74.1875 161.948 74.0333 161.165 73.725C160.381 73.4167 159.71 72.975 159.152 72.4C158.602 71.825 158.173 71.1292 157.865 70.3125C157.565 69.4958 157.415 68.5792 157.415 67.5625C157.415 66.5542 157.565 65.6417 157.865 64.825C158.173 64.0083 158.602 63.3167 159.152 62.75C159.71 62.1833 160.381 61.7458 161.165 61.4375C161.948 61.1292 162.819 60.975 163.777 60.975ZM163.777 71.8125C164.844 71.8125 165.631 71.4542 166.14 70.7375C166.656 70.0208 166.915 68.9708 166.915 67.5875C166.915 66.2042 166.656 65.15 166.14 64.425C165.631 63.7 164.844 63.3375 163.777 63.3375C162.694 63.3375 161.89 63.7042 161.365 64.4375C160.848 65.1625 160.59 66.2125 160.59 67.5875C160.59 68.9625 160.848 70.0125 161.365 70.7375C161.89 71.4542 162.694 71.8125 163.777 71.8125ZM181.645 63.8875C181.553 64.0042 181.462 64.0958 181.37 64.1625C181.287 64.2292 181.162 64.2625 180.995 64.2625C180.837 64.2625 180.683 64.2167 180.533 64.125C180.383 64.025 180.203 63.9167 179.995 63.8C179.787 63.675 179.537 63.5667 179.245 63.475C178.962 63.375 178.608 63.325 178.183 63.325C177.641 63.325 177.166 63.425 176.758 63.625C176.349 63.8167 176.008 64.0958 175.733 64.4625C175.466 64.8292 175.266 65.275 175.133 65.8C174.999 66.3167 174.933 66.9042 174.933 67.5625C174.933 68.2458 175.003 68.8542 175.145 69.3875C175.295 69.9208 175.508 70.3708 175.783 70.7375C176.058 71.0958 176.391 71.3708 176.783 71.5625C177.174 71.7458 177.616 71.8375 178.108 71.8375C178.599 71.8375 178.995 71.7792 179.295 71.6625C179.603 71.5375 179.862 71.4042 180.07 71.2625C180.278 71.1125 180.458 70.9792 180.608 70.8625C180.766 70.7375 180.941 70.675 181.133 70.675C181.383 70.675 181.57 70.7708 181.695 70.9625L182.583 72.0875C182.241 72.4875 181.87 72.825 181.47 73.1C181.07 73.3667 180.653 73.5833 180.22 73.75C179.795 73.9083 179.353 74.0208 178.895 74.0875C178.445 74.1542 177.995 74.1875 177.545 74.1875C176.753 74.1875 176.008 74.0417 175.308 73.75C174.608 73.45 173.995 73.0167 173.47 72.45C172.945 71.8833 172.528 71.1917 172.22 70.375C171.92 69.55 171.77 68.6125 171.77 67.5625C171.77 66.6208 171.903 65.75 172.17 64.95C172.445 64.1417 172.845 63.4458 173.37 62.8625C173.895 62.2708 174.545 61.8083 175.32 61.475C176.095 61.1417 176.987 60.975 177.995 60.975C178.953 60.975 179.791 61.1292 180.508 61.4375C181.233 61.7458 181.883 62.1875 182.458 62.7625L181.645 63.8875ZM187.606 55.425V66.0625H188.181C188.389 66.0625 188.551 66.0375 188.668 65.9875C188.793 65.9292 188.918 65.8167 189.043 65.65L192.231 61.7125C192.364 61.5375 192.51 61.4042 192.668 61.3125C192.835 61.2208 193.047 61.175 193.306 61.175H196.131L192.143 65.9375C191.86 66.3125 191.551 66.6 191.218 66.8C191.393 66.925 191.547 67.0708 191.681 67.2375C191.822 67.4042 191.956 67.5833 192.081 67.775L196.356 74H193.568C193.326 74 193.118 73.9625 192.943 73.8875C192.768 73.8042 192.622 73.6583 192.506 73.45L189.231 68.5875C189.114 68.3958 188.993 68.2708 188.868 68.2125C188.743 68.1542 188.556 68.125 188.306 68.125H187.606V74H184.518V55.425H187.606ZM200.96 62.55C201.46 62.0833 202.01 61.7042 202.61 61.4125C203.21 61.1208 203.914 60.975 204.723 60.975C205.423 60.975 206.043 61.0958 206.585 61.3375C207.127 61.5708 207.577 61.9042 207.935 62.3375C208.302 62.7625 208.577 63.275 208.76 63.875C208.952 64.4667 209.048 65.1208 209.048 65.8375V74H205.96V65.8375C205.96 65.0542 205.781 64.45 205.423 64.025C205.064 63.5917 204.518 63.375 203.785 63.375C203.252 63.375 202.752 63.4958 202.285 63.7375C201.818 63.9792 201.377 64.3083 200.96 64.725V74H197.873V55.425H200.96V62.55ZM218.759 68.525C217.867 68.5667 217.117 68.6458 216.509 68.7625C215.901 68.8708 215.413 69.0125 215.046 69.1875C214.68 69.3625 214.417 69.5667 214.259 69.8C214.101 70.0333 214.021 70.2875 214.021 70.5625C214.021 71.1042 214.18 71.4917 214.496 71.725C214.821 71.9583 215.242 72.075 215.759 72.075C216.392 72.075 216.938 71.9625 217.396 71.7375C217.863 71.5042 218.317 71.1542 218.759 70.6875V68.525ZM211.684 62.9625C213.159 61.6125 214.934 60.9375 217.009 60.9375C217.759 60.9375 218.43 61.0625 219.021 61.3125C219.613 61.5542 220.113 61.8958 220.521 62.3375C220.93 62.7708 221.238 63.2917 221.446 63.9C221.663 64.5083 221.771 65.175 221.771 65.9V74H220.371C220.08 74 219.855 73.9583 219.696 73.875C219.538 73.7833 219.413 73.6042 219.321 73.3375L219.046 72.4125C218.721 72.7042 218.405 72.9625 218.096 73.1875C217.788 73.4042 217.467 73.5875 217.134 73.7375C216.801 73.8875 216.442 74 216.059 74.075C215.684 74.1583 215.267 74.2 214.809 74.2C214.267 74.2 213.767 74.1292 213.309 73.9875C212.851 73.8375 212.455 73.6167 212.121 73.325C211.788 73.0333 211.53 72.6708 211.346 72.2375C211.163 71.8042 211.071 71.3 211.071 70.725C211.071 70.4 211.126 70.0792 211.234 69.7625C211.342 69.4375 211.517 69.1292 211.759 68.8375C212.009 68.5458 212.33 68.2708 212.721 68.0125C213.113 67.7542 213.592 67.5292 214.159 67.3375C214.734 67.1458 215.401 66.9917 216.159 66.875C216.917 66.75 217.784 66.675 218.759 66.65V65.9C218.759 65.0417 218.576 64.4083 218.209 64C217.842 63.5833 217.313 63.375 216.621 63.375C216.121 63.375 215.705 63.4333 215.371 63.55C215.046 63.6667 214.759 63.8 214.509 63.95C214.259 64.0917 214.03 64.2208 213.821 64.3375C213.621 64.4542 213.396 64.5125 213.146 64.5125C212.93 64.5125 212.746 64.4583 212.596 64.35C212.446 64.2333 212.326 64.1 212.234 63.95L211.684 62.9625ZM224.679 74V61.175H226.567C226.967 61.175 227.229 61.3625 227.354 61.7375L227.554 62.6875C227.779 62.4375 228.013 62.2083 228.254 62C228.504 61.7917 228.767 61.6125 229.042 61.4625C229.325 61.3125 229.625 61.1958 229.942 61.1125C230.267 61.0208 230.621 60.975 231.004 60.975C231.813 60.975 232.475 61.1958 232.992 61.6375C233.517 62.0708 233.908 62.65 234.167 63.375C234.367 62.95 234.617 62.5875 234.917 62.2875C235.217 61.9792 235.546 61.7292 235.904 61.5375C236.263 61.3458 236.642 61.2042 237.042 61.1125C237.45 61.0208 237.858 60.975 238.267 60.975C238.975 60.975 239.604 61.0833 240.154 61.3C240.704 61.5167 241.167 61.8333 241.542 62.25C241.917 62.6667 242.2 63.175 242.392 63.775C242.592 64.375 242.692 65.0625 242.692 65.8375V74H239.604V65.8375C239.604 65.0208 239.425 64.4083 239.067 64C238.708 63.5833 238.183 63.375 237.492 63.375C237.175 63.375 236.879 63.4292 236.604 63.5375C236.338 63.6458 236.1 63.8042 235.892 64.0125C235.692 64.2125 235.533 64.4667 235.417 64.775C235.3 65.0833 235.242 65.4375 235.242 65.8375V74H232.142V65.8375C232.142 64.9792 231.967 64.3542 231.617 63.9625C231.275 63.5708 230.771 63.375 230.104 63.375C229.654 63.375 229.233 63.4875 228.842 63.7125C228.458 63.9292 228.1 64.2292 227.767 64.6125V74H224.679ZM248.714 70.675C249.064 71.1 249.443 71.4 249.852 71.575C250.268 71.75 250.718 71.8375 251.202 71.8375C251.668 71.8375 252.089 71.75 252.464 71.575C252.839 71.4 253.156 71.1333 253.414 70.775C253.681 70.4167 253.885 69.9667 254.027 69.425C254.168 68.875 254.239 68.2292 254.239 67.4875C254.239 66.7375 254.177 66.1042 254.052 65.5875C253.935 65.0625 253.764 64.6375 253.539 64.3125C253.314 63.9875 253.039 63.75 252.714 63.6C252.397 63.45 252.035 63.375 251.627 63.375C250.985 63.375 250.439 63.5125 249.989 63.7875C249.539 64.0542 249.114 64.4333 248.714 64.925V70.675ZM248.552 62.925C249.077 62.3333 249.672 61.8542 250.339 61.4875C251.006 61.1208 251.789 60.9375 252.689 60.9375C253.389 60.9375 254.027 61.0833 254.602 61.375C255.185 61.6667 255.685 62.0917 256.102 62.65C256.527 63.2 256.852 63.8833 257.077 64.7C257.31 65.5083 257.427 66.4375 257.427 67.4875C257.427 68.4458 257.297 69.3333 257.039 70.15C256.781 70.9667 256.41 71.675 255.927 72.275C255.452 72.875 254.872 73.3458 254.189 73.6875C253.514 74.0208 252.756 74.1875 251.914 74.1875C251.197 74.1875 250.585 74.0792 250.077 73.8625C249.568 73.6375 249.114 73.3292 248.714 72.9375V78.1875H245.627V61.175H247.514C247.914 61.175 248.177 61.3625 248.302 61.7375L248.552 62.925ZM263.94 74.2C262.823 74.2 261.965 73.8875 261.365 73.2625C260.773 72.6292 260.477 71.7583 260.477 70.65V63.4875H259.165C258.998 63.4875 258.856 63.4333 258.74 63.325C258.623 63.2167 258.565 63.0542 258.565 62.8375V61.6125L260.627 61.275L261.277 57.775C261.319 57.6083 261.398 57.4792 261.515 57.3875C261.631 57.2958 261.781 57.25 261.965 57.25H263.565V61.2875H266.99V63.4875H263.565V70.4375C263.565 70.8375 263.66 71.15 263.852 71.375C264.052 71.6 264.323 71.7125 264.665 71.7125C264.856 71.7125 265.015 71.6917 265.14 71.65C265.273 71.6 265.385 71.55 265.477 71.5C265.577 71.45 265.665 71.4042 265.74 71.3625C265.815 71.3125 265.89 71.2875 265.965 71.2875C266.056 71.2875 266.131 71.3125 266.19 71.3625C266.248 71.4042 266.31 71.4708 266.377 71.5625L267.302 73.0625C266.852 73.4375 266.335 73.7208 265.752 73.9125C265.169 74.1042 264.565 74.2 263.94 74.2ZM274.544 60.975C275.494 60.975 276.356 61.1292 277.131 61.4375C277.915 61.7458 278.581 62.1833 279.131 62.75C279.69 63.3167 280.119 64.0083 280.419 64.825C280.719 65.6417 280.869 66.5542 280.869 67.5625C280.869 68.5792 280.719 69.4958 280.419 70.3125C280.119 71.1292 279.69 71.825 279.131 72.4C278.581 72.975 277.915 73.4167 277.131 73.725C276.356 74.0333 275.494 74.1875 274.544 74.1875C273.585 74.1875 272.715 74.0333 271.931 73.725C271.148 73.4167 270.477 72.975 269.919 72.4C269.369 71.825 268.94 71.1292 268.631 70.3125C268.331 69.4958 268.181 68.5792 268.181 67.5625C268.181 66.5542 268.331 65.6417 268.631 64.825C268.94 64.0083 269.369 63.3167 269.919 62.75C270.477 62.1833 271.148 61.7458 271.931 61.4375C272.715 61.1292 273.585 60.975 274.544 60.975ZM274.544 71.8125C275.61 71.8125 276.398 71.4542 276.906 70.7375C277.423 70.0208 277.681 68.9708 277.681 67.5875C277.681 66.2042 277.423 65.15 276.906 64.425C276.398 63.7 275.61 63.3375 274.544 63.3375C273.46 63.3375 272.656 63.7042 272.131 64.4375C271.615 65.1625 271.356 66.2125 271.356 67.5875C271.356 68.9625 271.615 70.0125 272.131 70.7375C272.656 71.4542 273.46 71.8125 274.544 71.8125ZM286.112 62.75C286.37 62.4917 286.641 62.2542 286.924 62.0375C287.216 61.8125 287.52 61.625 287.837 61.475C288.162 61.3167 288.508 61.1958 288.874 61.1125C289.241 61.0208 289.641 60.975 290.074 60.975C290.774 60.975 291.395 61.0958 291.937 61.3375C292.478 61.5708 292.928 61.9042 293.287 62.3375C293.653 62.7625 293.928 63.275 294.112 63.875C294.303 64.4667 294.399 65.1208 294.399 65.8375V74H291.312V65.8375C291.312 65.0542 291.133 64.45 290.774 64.025C290.416 63.5917 289.87 63.375 289.137 63.375C288.603 63.375 288.103 63.4958 287.637 63.7375C287.17 63.9792 286.728 64.3083 286.312 64.725V74H283.224V61.175H285.112C285.512 61.175 285.774 61.3625 285.899 61.7375L286.112 62.75ZM299.069 54.7125C299.469 55.3708 299.74 56.0583 299.882 56.775C300.024 57.4833 300.036 58.1875 299.919 58.8875C299.803 59.5792 299.557 60.2458 299.182 60.8875C298.815 61.5208 298.319 62.0917 297.694 62.6L296.719 62.0125C296.636 61.9625 296.578 61.9042 296.544 61.8375C296.511 61.7625 296.494 61.6917 296.494 61.625C296.503 61.55 296.519 61.4792 296.544 61.4125C296.578 61.3458 296.619 61.2875 296.669 61.2375C296.844 61.0292 297.011 60.7542 297.169 60.4125C297.328 60.0708 297.436 59.6875 297.494 59.2625C297.561 58.8375 297.553 58.3833 297.469 57.9C297.394 57.4167 297.207 56.9333 296.907 56.45C296.765 56.2083 296.724 56 296.782 55.825C296.849 55.6417 296.986 55.5125 297.194 55.4375L299.069 54.7125ZM309.726 63.675C309.643 63.8083 309.555 63.9042 309.463 63.9625C309.372 64.0125 309.255 64.0375 309.113 64.0375C308.963 64.0375 308.801 63.9958 308.626 63.9125C308.459 63.8292 308.263 63.7375 308.038 63.6375C307.813 63.5292 307.555 63.4333 307.263 63.35C306.98 63.2667 306.643 63.225 306.251 63.225C305.643 63.225 305.163 63.3542 304.813 63.6125C304.472 63.8708 304.301 64.2083 304.301 64.625C304.301 64.9 304.388 65.1333 304.563 65.325C304.747 65.5083 304.984 65.6708 305.276 65.8125C305.576 65.9542 305.913 66.0833 306.288 66.2C306.663 66.3083 307.043 66.4292 307.426 66.5625C307.818 66.6958 308.201 66.85 308.576 67.025C308.951 67.1917 309.284 67.4083 309.576 67.675C309.876 67.9333 310.113 68.2458 310.288 68.6125C310.472 68.9792 310.563 69.4208 310.563 69.9375C310.563 70.5542 310.451 71.125 310.226 71.65C310.009 72.1667 309.684 72.6167 309.251 73C308.818 73.375 308.28 73.6708 307.638 73.8875C307.005 74.0958 306.272 74.2 305.438 74.2C304.997 74.2 304.563 74.1583 304.138 74.075C303.722 74 303.318 73.8917 302.926 73.75C302.543 73.6083 302.184 73.4417 301.851 73.25C301.526 73.0583 301.238 72.85 300.988 72.625L301.701 71.45C301.793 71.3083 301.901 71.2 302.026 71.125C302.151 71.05 302.309 71.0125 302.501 71.0125C302.693 71.0125 302.872 71.0667 303.038 71.175C303.213 71.2833 303.413 71.4 303.638 71.525C303.863 71.65 304.126 71.7667 304.426 71.875C304.734 71.9833 305.122 72.0375 305.588 72.0375C305.955 72.0375 306.268 71.9958 306.526 71.9125C306.793 71.8208 307.009 71.7042 307.176 71.5625C307.351 71.4208 307.476 71.2583 307.551 71.075C307.634 70.8833 307.676 70.6875 307.676 70.4875C307.676 70.1875 307.584 69.9417 307.401 69.75C307.226 69.5583 306.988 69.3917 306.688 69.25C306.397 69.1083 306.059 68.9833 305.676 68.875C305.301 68.7583 304.913 68.6333 304.513 68.5C304.122 68.3667 303.734 68.2125 303.351 68.0375C302.976 67.8542 302.638 67.625 302.338 67.35C302.047 67.075 301.809 66.7375 301.626 66.3375C301.451 65.9375 301.363 65.4542 301.363 64.8875C301.363 64.3625 301.468 63.8625 301.676 63.3875C301.884 62.9125 302.188 62.5 302.588 62.15C302.997 61.7917 303.501 61.5083 304.101 61.3C304.709 61.0833 305.409 60.975 306.201 60.975C307.084 60.975 307.888 61.1208 308.613 61.4125C309.338 61.7042 309.943 62.0875 310.426 62.5625L309.726 63.675ZM339.054 55.925V74H336.091V62.325C336.091 61.8583 336.116 61.3542 336.166 60.8125L330.704 71.075C330.446 71.5667 330.05 71.8125 329.516 71.8125H329.041C328.508 71.8125 328.112 71.5667 327.854 71.075L322.329 60.775C322.354 61.05 322.375 61.3208 322.391 61.5875C322.408 61.8542 322.416 62.1 322.416 62.325V74H319.454V55.925H321.991C322.141 55.925 322.271 55.9292 322.379 55.9375C322.487 55.9458 322.583 55.9667 322.666 56C322.758 56.0333 322.837 56.0875 322.904 56.1625C322.979 56.2375 323.05 56.3375 323.116 56.4625L328.529 66.5C328.671 66.7667 328.8 67.0417 328.916 67.325C329.041 67.6083 329.162 67.9 329.279 68.2C329.396 67.8917 329.516 67.5958 329.641 67.3125C329.766 67.0208 329.9 66.7417 330.041 66.475L335.379 56.4625C335.446 56.3375 335.516 56.2375 335.591 56.1625C335.666 56.0875 335.746 56.0333 335.829 56C335.921 55.9667 336.021 55.9458 336.129 55.9375C336.237 55.9292 336.366 55.925 336.516 55.925H339.054ZM345.628 61.175V74H342.528V61.175H345.628ZM346.053 57.4375C346.053 57.7042 345.999 57.9542 345.891 58.1875C345.782 58.4208 345.637 58.625 345.453 58.8C345.278 58.975 345.07 59.1167 344.828 59.225C344.587 59.325 344.328 59.375 344.053 59.375C343.787 59.375 343.532 59.325 343.291 59.225C343.057 59.1167 342.853 58.975 342.678 58.8C342.503 58.625 342.362 58.4208 342.253 58.1875C342.153 57.9542 342.103 57.7042 342.103 57.4375C342.103 57.1625 342.153 56.9042 342.253 56.6625C342.362 56.4208 342.503 56.2125 342.678 56.0375C342.853 55.8625 343.057 55.725 343.291 55.625C343.532 55.5167 343.787 55.4625 344.053 55.4625C344.328 55.4625 344.587 55.5167 344.828 55.625C345.07 55.725 345.278 55.8625 345.453 56.0375C345.637 56.2125 345.782 56.4208 345.891 56.6625C345.999 56.9042 346.053 57.1625 346.053 57.4375ZM351.901 55.425V74H348.813V55.425H351.901ZM363.24 66.1125C363.24 65.7125 363.181 65.3375 363.065 64.9875C362.956 64.6292 362.79 64.3167 362.565 64.05C362.34 63.7833 362.052 63.575 361.702 63.425C361.36 63.2667 360.96 63.1875 360.502 63.1875C359.61 63.1875 358.906 63.4417 358.39 63.95C357.881 64.4583 357.556 65.1792 357.415 66.1125H363.24ZM357.352 67.975C357.402 68.6333 357.519 69.2042 357.702 69.6875C357.885 70.1625 358.127 70.5583 358.427 70.875C358.727 71.1833 359.081 71.4167 359.49 71.575C359.906 71.725 360.365 71.8 360.865 71.8C361.365 71.8 361.794 71.7417 362.152 71.625C362.519 71.5083 362.835 71.3792 363.102 71.2375C363.377 71.0958 363.615 70.9667 363.815 70.85C364.023 70.7333 364.223 70.675 364.415 70.675C364.673 70.675 364.865 70.7708 364.99 70.9625L365.877 72.0875C365.535 72.4875 365.152 72.825 364.727 73.1C364.302 73.3667 363.856 73.5833 363.39 73.75C362.931 73.9083 362.46 74.0208 361.977 74.0875C361.502 74.1542 361.04 74.1875 360.59 74.1875C359.698 74.1875 358.869 74.0417 358.102 73.75C357.335 73.45 356.669 73.0125 356.102 72.4375C355.535 71.8542 355.09 71.1375 354.765 70.2875C354.44 69.4292 354.277 68.4375 354.277 67.3125C354.277 66.4375 354.419 65.6167 354.702 64.85C354.985 64.075 355.39 63.4042 355.915 62.8375C356.448 62.2625 357.094 61.8083 357.852 61.475C358.619 61.1417 359.481 60.975 360.44 60.975C361.248 60.975 361.994 61.1042 362.677 61.3625C363.36 61.6208 363.948 62 364.44 62.5C364.931 62.9917 365.315 63.6 365.59 64.325C365.873 65.0417 366.015 65.8625 366.015 66.7875C366.015 67.2542 365.965 67.5708 365.865 67.7375C365.765 67.8958 365.573 67.975 365.29 67.975H357.352ZM376.157 63.675C376.073 63.8083 375.986 63.9042 375.894 63.9625C375.802 64.0125 375.686 64.0375 375.544 64.0375C375.394 64.0375 375.232 63.9958 375.057 63.9125C374.89 63.8292 374.694 63.7375 374.469 63.6375C374.244 63.5292 373.986 63.4333 373.694 63.35C373.411 63.2667 373.073 63.225 372.682 63.225C372.073 63.225 371.594 63.3542 371.244 63.6125C370.902 63.8708 370.732 64.2083 370.732 64.625C370.732 64.9 370.819 65.1333 370.994 65.325C371.177 65.5083 371.415 65.6708 371.707 65.8125C372.007 65.9542 372.344 66.0833 372.719 66.2C373.094 66.3083 373.473 66.4292 373.857 66.5625C374.248 66.6958 374.632 66.85 375.007 67.025C375.382 67.1917 375.715 67.4083 376.007 67.675C376.307 67.9333 376.544 68.2458 376.719 68.6125C376.902 68.9792 376.994 69.4208 376.994 69.9375C376.994 70.5542 376.882 71.125 376.657 71.65C376.44 72.1667 376.115 72.6167 375.682 73C375.248 73.375 374.711 73.6708 374.069 73.8875C373.436 74.0958 372.702 74.2 371.869 74.2C371.427 74.2 370.994 74.1583 370.569 74.075C370.152 74 369.748 73.8917 369.357 73.75C368.973 73.6083 368.615 73.4417 368.282 73.25C367.957 73.0583 367.669 72.85 367.419 72.625L368.132 71.45C368.223 71.3083 368.332 71.2 368.457 71.125C368.582 71.05 368.74 71.0125 368.932 71.0125C369.123 71.0125 369.302 71.0667 369.469 71.175C369.644 71.2833 369.844 71.4 370.069 71.525C370.294 71.65 370.557 71.7667 370.857 71.875C371.165 71.9833 371.552 72.0375 372.019 72.0375C372.386 72.0375 372.698 71.9958 372.957 71.9125C373.223 71.8208 373.44 71.7042 373.607 71.5625C373.782 71.4208 373.907 71.2583 373.982 71.075C374.065 70.8833 374.107 70.6875 374.107 70.4875C374.107 70.1875 374.015 69.9417 373.832 69.75C373.657 69.5583 373.419 69.3917 373.119 69.25C372.827 69.1083 372.49 68.9833 372.107 68.875C371.732 68.7583 371.344 68.6333 370.944 68.5C370.552 68.3667 370.165 68.2125 369.782 68.0375C369.407 67.8542 369.069 67.625 368.769 67.35C368.477 67.075 368.24 66.7375 368.057 66.3375C367.882 65.9375 367.794 65.4542 367.794 64.8875C367.794 64.3625 367.898 63.8625 368.107 63.3875C368.315 62.9125 368.619 62.5 369.019 62.15C369.427 61.7917 369.932 61.5083 370.532 61.3C371.14 61.0833 371.84 60.975 372.632 60.975C373.515 60.975 374.319 61.1208 375.044 61.4125C375.769 61.7042 376.373 62.0875 376.857 62.5625L376.157 63.675ZM383.593 74.2C382.476 74.2 381.618 73.8875 381.018 73.2625C380.426 72.6292 380.13 71.7583 380.13 70.65V63.4875H378.818C378.651 63.4875 378.51 63.4333 378.393 63.325C378.276 63.2167 378.218 63.0542 378.218 62.8375V61.6125L380.28 61.275L380.93 57.775C380.972 57.6083 381.051 57.4792 381.168 57.3875C381.285 57.2958 381.435 57.25 381.618 57.25H383.218V61.2875H386.643V63.4875H383.218V70.4375C383.218 70.8375 383.314 71.15 383.505 71.375C383.705 71.6 383.976 71.7125 384.318 71.7125C384.51 71.7125 384.668 71.6917 384.793 71.65C384.926 71.6 385.039 71.55 385.13 71.5C385.23 71.45 385.318 71.4042 385.393 71.3625C385.468 71.3125 385.543 71.2875 385.618 71.2875C385.71 71.2875 385.785 71.3125 385.843 71.3625C385.901 71.4042 385.964 71.4708 386.03 71.5625L386.955 73.0625C386.505 73.4375 385.989 73.7208 385.405 73.9125C384.822 74.1042 384.218 74.2 383.593 74.2ZM394.197 60.975C395.147 60.975 396.01 61.1292 396.785 61.4375C397.568 61.7458 398.235 62.1833 398.785 62.75C399.343 63.3167 399.772 64.0083 400.072 64.825C400.372 65.6417 400.522 66.5542 400.522 67.5625C400.522 68.5792 400.372 69.4958 400.072 70.3125C399.772 71.1292 399.343 71.825 398.785 72.4C398.235 72.975 397.568 73.4167 396.785 73.725C396.01 74.0333 395.147 74.1875 394.197 74.1875C393.239 74.1875 392.368 74.0333 391.585 73.725C390.801 73.4167 390.13 72.975 389.572 72.4C389.022 71.825 388.593 71.1292 388.285 70.3125C387.985 69.4958 387.835 68.5792 387.835 67.5625C387.835 66.5542 387.985 65.6417 388.285 64.825C388.593 64.0083 389.022 63.3167 389.572 62.75C390.13 62.1833 390.801 61.7458 391.585 61.4375C392.368 61.1292 393.239 60.975 394.197 60.975ZM394.197 71.8125C395.264 71.8125 396.051 71.4542 396.56 70.7375C397.076 70.0208 397.335 68.9708 397.335 67.5875C397.335 66.2042 397.076 65.15 396.56 64.425C396.051 63.7 395.264 63.3375 394.197 63.3375C393.114 63.3375 392.31 63.7042 391.785 64.4375C391.268 65.1625 391.01 66.2125 391.01 67.5875C391.01 68.9625 391.268 70.0125 391.785 70.7375C392.31 71.4542 393.114 71.8125 394.197 71.8125ZM405.765 62.75C406.023 62.4917 406.294 62.2542 406.578 62.0375C406.869 61.8125 407.173 61.625 407.49 61.475C407.815 61.3167 408.161 61.1958 408.528 61.1125C408.894 61.0208 409.294 60.975 409.728 60.975C410.428 60.975 411.048 61.0958 411.59 61.3375C412.132 61.5708 412.582 61.9042 412.94 62.3375C413.307 62.7625 413.582 63.275 413.765 63.875C413.957 64.4667 414.053 65.1208 414.053 65.8375V74H410.965V65.8375C410.965 65.0542 410.786 64.45 410.428 64.025C410.069 63.5917 409.523 63.375 408.79 63.375C408.257 63.375 407.757 63.4958 407.29 63.7375C406.823 63.9792 406.382 64.3083 405.965 64.725V74H402.878V61.175H404.765C405.165 61.175 405.428 61.3625 405.553 61.7375L405.765 62.75ZM425.251 66.1125C425.251 65.7125 425.193 65.3375 425.076 64.9875C424.968 64.6292 424.801 64.3167 424.576 64.05C424.351 63.7833 424.064 63.575 423.714 63.425C423.372 63.2667 422.972 63.1875 422.514 63.1875C421.622 63.1875 420.918 63.4417 420.401 63.95C419.893 64.4583 419.568 65.1792 419.426 66.1125H425.251ZM419.364 67.975C419.414 68.6333 419.531 69.2042 419.714 69.6875C419.897 70.1625 420.139 70.5583 420.439 70.875C420.739 71.1833 421.093 71.4167 421.501 71.575C421.918 71.725 422.376 71.8 422.876 71.8C423.376 71.8 423.806 71.7417 424.164 71.625C424.531 71.5083 424.847 71.3792 425.114 71.2375C425.389 71.0958 425.626 70.9667 425.826 70.85C426.035 70.7333 426.235 70.675 426.426 70.675C426.685 70.675 426.876 70.7708 427.001 70.9625L427.889 72.0875C427.547 72.4875 427.164 72.825 426.739 73.1C426.314 73.3667 425.868 73.5833 425.401 73.75C424.943 73.9083 424.472 74.0208 423.989 74.0875C423.514 74.1542 423.051 74.1875 422.601 74.1875C421.71 74.1875 420.881 74.0417 420.114 73.75C419.347 73.45 418.681 73.0125 418.114 72.4375C417.547 71.8542 417.101 71.1375 416.776 70.2875C416.451 69.4292 416.289 68.4375 416.289 67.3125C416.289 66.4375 416.431 65.6167 416.714 64.85C416.997 64.075 417.401 63.4042 417.926 62.8375C418.46 62.2625 419.106 61.8083 419.864 61.475C420.631 61.1417 421.493 60.975 422.451 60.975C423.26 60.975 424.006 61.1042 424.689 61.3625C425.372 61.6208 425.96 62 426.451 62.5C426.943 62.9917 427.326 63.6 427.601 64.325C427.885 65.0417 428.026 65.8625 428.026 66.7875C428.026 67.2542 427.976 67.5708 427.876 67.7375C427.776 67.8958 427.585 67.975 427.301 67.975H419.364ZM35.5139 85.925V104H32.5514V92.325C32.5514 91.8583 32.5764 91.3542 32.6264 90.8125L27.1639 101.075C26.9055 101.567 26.5097 101.812 25.9764 101.812H25.5014C24.968 101.812 24.5722 101.567 24.3139 101.075L18.7889 90.775C18.8139 91.05 18.8347 91.3208 18.8514 91.5875C18.868 91.8542 18.8764 92.1 18.8764 92.325V104H15.9139V85.925H18.4514C18.6014 85.925 18.7305 85.9292 18.8389 85.9375C18.9472 85.9458 19.043 85.9667 19.1264 86C19.218 86.0333 19.2972 86.0875 19.3639 86.1625C19.4389 86.2375 19.5097 86.3375 19.5764 86.4625L24.9889 96.5C25.1305 96.7667 25.2597 97.0417 25.3764 97.325C25.5014 97.6083 25.6222 97.9 25.7389 98.2C25.8555 97.8917 25.9764 97.5958 26.1014 97.3125C26.2264 97.0208 26.3597 96.7417 26.5014 96.475L31.8389 86.4625C31.9055 86.3375 31.9764 86.2375 32.0514 86.1625C32.1264 86.0875 32.2055 86.0333 32.2889 86C32.3805 85.9667 32.4805 85.9458 32.5889 85.9375C32.6972 85.9292 32.8264 85.925 32.9764 85.925H35.5139ZM44.3436 90.975C45.2936 90.975 46.1561 91.1292 46.9311 91.4375C47.7144 91.7458 48.3811 92.1833 48.9311 92.75C49.4894 93.3167 49.9186 94.0083 50.2186 94.825C50.5186 95.6417 50.6686 96.5542 50.6686 97.5625C50.6686 98.5792 50.5186 99.4958 50.2186 100.312C49.9186 101.129 49.4894 101.825 48.9311 102.4C48.3811 102.975 47.7144 103.417 46.9311 103.725C46.1561 104.033 45.2936 104.188 44.3436 104.188C43.3852 104.188 42.5144 104.033 41.7311 103.725C40.9477 103.417 40.2769 102.975 39.7186 102.4C39.1686 101.825 38.7394 101.129 38.4311 100.312C38.1311 99.4958 37.9811 98.5792 37.9811 97.5625C37.9811 96.5542 38.1311 95.6417 38.4311 94.825C38.7394 94.0083 39.1686 93.3167 39.7186 92.75C40.2769 92.1833 40.9477 91.7458 41.7311 91.4375C42.5144 91.1292 43.3852 90.975 44.3436 90.975ZM44.3436 101.812C45.4102 101.812 46.1977 101.454 46.7061 100.737C47.2227 100.021 47.4811 98.9708 47.4811 97.5875C47.4811 96.2042 47.2227 95.15 46.7061 94.425C46.1977 93.7 45.4102 93.3375 44.3436 93.3375C43.2602 93.3375 42.4561 93.7042 41.9311 94.4375C41.4144 95.1625 41.1561 96.2125 41.1561 97.5875C41.1561 98.9625 41.4144 100.012 41.9311 100.737C42.4561 101.454 43.2602 101.812 44.3436 101.812ZM53.024 104V91.175H54.9115C55.3115 91.175 55.574 91.3625 55.699 91.7375L55.899 92.6875C56.124 92.4375 56.3574 92.2083 56.599 92C56.849 91.7917 57.1115 91.6125 57.3865 91.4625C57.6699 91.3125 57.9699 91.1958 58.2865 91.1125C58.6115 91.0208 58.9657 90.975 59.349 90.975C60.1574 90.975 60.8199 91.1958 61.3365 91.6375C61.8615 92.0708 62.2532 92.65 62.5115 93.375C62.7115 92.95 62.9615 92.5875 63.2615 92.2875C63.5615 91.9792 63.8907 91.7292 64.249 91.5375C64.6074 91.3458 64.9865 91.2042 65.3865 91.1125C65.7949 91.0208 66.2032 90.975 66.6115 90.975C67.3199 90.975 67.949 91.0833 68.499 91.3C69.049 91.5167 69.5115 91.8333 69.8865 92.25C70.2615 92.6667 70.5449 93.175 70.7365 93.775C70.9365 94.375 71.0365 95.0625 71.0365 95.8375V104H67.949V95.8375C67.949 95.0208 67.7699 94.4083 67.4115 94C67.0532 93.5833 66.5282 93.375 65.8365 93.375C65.5199 93.375 65.224 93.4292 64.949 93.5375C64.6824 93.6458 64.4449 93.8042 64.2365 94.0125C64.0365 94.2125 63.8782 94.4667 63.7615 94.775C63.6449 95.0833 63.5865 95.4375 63.5865 95.8375V104H60.4865V95.8375C60.4865 94.9792 60.3115 94.3542 59.9615 93.9625C59.6199 93.5708 59.1157 93.375 58.449 93.375C57.999 93.375 57.5782 93.4875 57.1865 93.7125C56.8032 93.9292 56.4449 94.2292 56.1115 94.6125V104H53.024ZM82.2338 96.1125C82.2338 95.7125 82.1755 95.3375 82.0588 94.9875C81.9505 94.6292 81.7838 94.3167 81.5588 94.05C81.3338 93.7833 81.0463 93.575 80.6963 93.425C80.3546 93.2667 79.9546 93.1875 79.4963 93.1875C78.6046 93.1875 77.9005 93.4417 77.3838 93.95C76.8755 94.4583 76.5505 95.1792 76.4088 96.1125H82.2338ZM76.3463 97.975C76.3963 98.6333 76.513 99.2042 76.6963 99.6875C76.8796 100.162 77.1213 100.558 77.4213 100.875C77.7213 101.183 78.0755 101.417 78.4838 101.575C78.9005 101.725 79.3588 101.8 79.8588 101.8C80.3588 101.8 80.788 101.742 81.1463 101.625C81.513 101.508 81.8296 101.379 82.0963 101.237C82.3713 101.096 82.6088 100.967 82.8088 100.85C83.0171 100.733 83.2171 100.675 83.4088 100.675C83.6671 100.675 83.8588 100.771 83.9838 100.962L84.8713 102.087C84.5296 102.487 84.1463 102.825 83.7213 103.1C83.2963 103.367 82.8505 103.583 82.3838 103.75C81.9255 103.908 81.4546 104.021 80.9713 104.088C80.4963 104.154 80.0338 104.188 79.5838 104.188C78.6921 104.188 77.863 104.042 77.0963 103.75C76.3296 103.45 75.663 103.012 75.0963 102.438C74.5296 101.854 74.0838 101.137 73.7588 100.287C73.4338 99.4292 73.2713 98.4375 73.2713 97.3125C73.2713 96.4375 73.413 95.6167 73.6963 94.85C73.9796 94.075 74.3838 93.4042 74.9088 92.8375C75.4421 92.2625 76.088 91.8083 76.8463 91.475C77.613 91.1417 78.4755 90.975 79.4338 90.975C80.2421 90.975 80.988 91.1042 81.6713 91.3625C82.3546 91.6208 82.9421 92 83.4338 92.5C83.9255 92.9917 84.3088 93.6 84.5838 94.325C84.8671 95.0417 85.0088 95.8625 85.0088 96.7875C85.0088 97.2542 84.9588 97.5708 84.8588 97.7375C84.7588 97.8958 84.5671 97.975 84.2838 97.975H76.3463ZM90.2133 92.75C90.4716 92.4917 90.7424 92.2542 91.0258 92.0375C91.3174 91.8125 91.6216 91.625 91.9383 91.475C92.2633 91.3167 92.6091 91.1958 92.9758 91.1125C93.3424 91.0208 93.7424 90.975 94.1758 90.975C94.8758 90.975 95.4966 91.0958 96.0383 91.3375C96.5799 91.5708 97.0299 91.9042 97.3883 92.3375C97.7549 92.7625 98.0299 93.275 98.2133 93.875C98.4049 94.4667 98.5008 95.1208 98.5008 95.8375V104H95.4133V95.8375C95.4133 95.0542 95.2341 94.45 94.8758 94.025C94.5174 93.5917 93.9716 93.375 93.2383 93.375C92.7049 93.375 92.2049 93.4958 91.7383 93.7375C91.2716 93.9792 90.8299 94.3083 90.4133 94.725V104H87.3258V91.175H89.2133C89.6133 91.175 89.8758 91.3625 90.0008 91.7375L90.2133 92.75ZM105.541 104.2C104.425 104.2 103.566 103.887 102.966 103.262C102.375 102.629 102.079 101.758 102.079 100.65V93.4875H100.766C100.6 93.4875 100.458 93.4333 100.341 93.325C100.225 93.2167 100.166 93.0542 100.166 92.8375V91.6125L102.229 91.275L102.879 87.775C102.92 87.6083 103 87.4792 103.116 87.3875C103.233 87.2958 103.383 87.25 103.566 87.25H105.166V91.2875H108.591V93.4875H105.166V100.437C105.166 100.837 105.262 101.15 105.454 101.375C105.654 101.6 105.925 101.712 106.266 101.712C106.458 101.712 106.616 101.692 106.741 101.65C106.875 101.6 106.987 101.55 107.079 101.5C107.179 101.45 107.266 101.404 107.341 101.362C107.416 101.312 107.491 101.287 107.566 101.287C107.658 101.287 107.733 101.312 107.791 101.362C107.85 101.404 107.912 101.471 107.979 101.562L108.904 103.062C108.454 103.437 107.937 103.721 107.354 103.912C106.77 104.104 106.166 104.2 105.541 104.2ZM118.393 93.675C118.31 93.8083 118.222 93.9042 118.13 93.9625C118.039 94.0125 117.922 94.0375 117.78 94.0375C117.63 94.0375 117.468 93.9958 117.293 93.9125C117.126 93.8292 116.93 93.7375 116.705 93.6375C116.48 93.5292 116.222 93.4333 115.93 93.35C115.647 93.2667 115.31 93.225 114.918 93.225C114.31 93.225 113.83 93.3542 113.48 93.6125C113.139 93.8708 112.968 94.2083 112.968 94.625C112.968 94.9 113.055 95.1333 113.23 95.325C113.414 95.5083 113.651 95.6708 113.943 95.8125C114.243 95.9542 114.58 96.0833 114.955 96.2C115.33 96.3083 115.71 96.4292 116.093 96.5625C116.485 96.6958 116.868 96.85 117.243 97.025C117.618 97.1917 117.951 97.4083 118.243 97.675C118.543 97.9333 118.78 98.2458 118.955 98.6125C119.139 98.9792 119.23 99.4208 119.23 99.9375C119.23 100.554 119.118 101.125 118.893 101.65C118.676 102.167 118.351 102.617 117.918 103C117.485 103.375 116.947 103.671 116.305 103.887C115.672 104.096 114.939 104.2 114.105 104.2C113.664 104.2 113.23 104.158 112.805 104.075C112.389 104 111.985 103.892 111.593 103.75C111.21 103.608 110.851 103.442 110.518 103.25C110.193 103.058 109.905 102.85 109.655 102.625L110.368 101.45C110.46 101.308 110.568 101.2 110.693 101.125C110.818 101.05 110.976 101.012 111.168 101.012C111.36 101.012 111.539 101.067 111.705 101.175C111.88 101.283 112.08 101.4 112.305 101.525C112.53 101.65 112.793 101.767 113.093 101.875C113.401 101.983 113.789 102.037 114.255 102.037C114.622 102.037 114.935 101.996 115.193 101.912C115.46 101.821 115.676 101.704 115.843 101.562C116.018 101.421 116.143 101.258 116.218 101.075C116.301 100.883 116.343 100.687 116.343 100.487C116.343 100.187 116.251 99.9417 116.068 99.75C115.893 99.5583 115.655 99.3917 115.355 99.25C115.064 99.1083 114.726 98.9833 114.343 98.875C113.968 98.7583 113.58 98.6333 113.18 98.5C112.789 98.3667 112.401 98.2125 112.018 98.0375C111.643 97.8542 111.305 97.625 111.005 97.35C110.714 97.075 110.476 96.7375 110.293 96.3375C110.118 95.9375 110.03 95.4542 110.03 94.8875C110.03 94.3625 110.135 93.8625 110.343 93.3875C110.551 92.9125 110.855 92.5 111.255 92.15C111.664 91.7917 112.168 91.5083 112.768 91.3C113.376 91.0833 114.076 90.975 114.868 90.975C115.751 90.975 116.555 91.1208 117.28 91.4125C118.005 91.7042 118.61 92.0875 119.093 92.5625L118.393 93.675ZM130.721 100.675C131.071 101.1 131.45 101.4 131.858 101.575C132.275 101.75 132.725 101.837 133.208 101.837C133.675 101.837 134.096 101.75 134.471 101.575C134.846 101.4 135.163 101.133 135.421 100.775C135.688 100.417 135.892 99.9667 136.033 99.425C136.175 98.875 136.246 98.2292 136.246 97.4875C136.246 96.7375 136.183 96.1042 136.058 95.5875C135.942 95.0625 135.771 94.6375 135.546 94.3125C135.321 93.9875 135.046 93.75 134.721 93.6C134.404 93.45 134.042 93.375 133.633 93.375C132.992 93.375 132.446 93.5125 131.996 93.7875C131.546 94.0542 131.121 94.4333 130.721 94.925V100.675ZM130.558 92.925C131.083 92.3333 131.679 91.8542 132.346 91.4875C133.013 91.1208 133.796 90.9375 134.696 90.9375C135.396 90.9375 136.033 91.0833 136.608 91.375C137.192 91.6667 137.692 92.0917 138.108 92.65C138.533 93.2 138.858 93.8833 139.083 94.7C139.317 95.5083 139.433 96.4375 139.433 97.4875C139.433 98.4458 139.304 99.3333 139.046 100.15C138.788 100.967 138.417 101.675 137.933 102.275C137.458 102.875 136.879 103.346 136.196 103.687C135.521 104.021 134.763 104.188 133.921 104.188C133.204 104.188 132.592 104.079 132.083 103.862C131.575 103.637 131.121 103.329 130.721 102.937V108.188H127.633V91.175H129.521C129.921 91.175 130.183 91.3625 130.308 91.7375L130.558 92.925ZM148.617 98.525C147.726 98.5667 146.976 98.6458 146.367 98.7625C145.759 98.8708 145.272 99.0125 144.905 99.1875C144.538 99.3625 144.276 99.5667 144.117 99.8C143.959 100.033 143.88 100.287 143.88 100.562C143.88 101.104 144.038 101.492 144.355 101.725C144.68 101.958 145.101 102.075 145.617 102.075C146.251 102.075 146.797 101.962 147.255 101.737C147.722 101.504 148.176 101.154 148.617 100.687V98.525ZM141.542 92.9625C143.017 91.6125 144.792 90.9375 146.867 90.9375C147.617 90.9375 148.288 91.0625 148.88 91.3125C149.472 91.5542 149.972 91.8958 150.38 92.3375C150.788 92.7708 151.097 93.2917 151.305 93.9C151.522 94.5083 151.63 95.175 151.63 95.9V104H150.23C149.938 104 149.713 103.958 149.555 103.875C149.397 103.783 149.272 103.604 149.18 103.337L148.905 102.412C148.58 102.704 148.263 102.962 147.955 103.187C147.647 103.404 147.326 103.587 146.992 103.737C146.659 103.887 146.301 104 145.917 104.075C145.542 104.158 145.126 104.2 144.667 104.2C144.126 104.2 143.626 104.129 143.167 103.987C142.709 103.837 142.313 103.617 141.98 103.325C141.647 103.033 141.388 102.671 141.205 102.237C141.022 101.804 140.93 101.3 140.93 100.725C140.93 100.4 140.984 100.079 141.092 99.7625C141.201 99.4375 141.376 99.1292 141.617 98.8375C141.867 98.5458 142.188 98.2708 142.58 98.0125C142.972 97.7542 143.451 97.5292 144.017 97.3375C144.592 97.1458 145.259 96.9917 146.017 96.875C146.776 96.75 147.642 96.675 148.617 96.65V95.9C148.617 95.0417 148.434 94.4083 148.067 94C147.701 93.5833 147.172 93.375 146.48 93.375C145.98 93.375 145.563 93.4333 145.23 93.55C144.905 93.6667 144.617 93.8 144.367 93.95C144.117 94.0917 143.888 94.2208 143.68 94.3375C143.48 94.4542 143.255 94.5125 143.005 94.5125C142.788 94.5125 142.605 94.4583 142.455 94.35C142.305 94.2333 142.184 94.1 142.092 93.95L141.542 92.9625ZM157.738 91.175V104H154.638V91.175H157.738ZM158.163 87.4375C158.163 87.7042 158.109 87.9542 158 88.1875C157.892 88.4208 157.746 88.625 157.563 88.8C157.388 88.975 157.179 89.1167 156.938 89.225C156.696 89.325 156.438 89.375 156.163 89.375C155.896 89.375 155.642 89.325 155.4 89.225C155.167 89.1167 154.963 88.975 154.788 88.8C154.613 88.625 154.471 88.4208 154.363 88.1875C154.263 87.9542 154.213 87.7042 154.213 87.4375C154.213 87.1625 154.263 86.9042 154.363 86.6625C154.471 86.4208 154.613 86.2125 154.788 86.0375C154.963 85.8625 155.167 85.725 155.4 85.625C155.642 85.5167 155.896 85.4625 156.163 85.4625C156.438 85.4625 156.696 85.5167 156.938 85.625C157.179 85.725 157.388 85.8625 157.563 86.0375C157.746 86.2125 157.892 86.4208 158 86.6625C158.109 86.9042 158.163 87.1625 158.163 87.4375ZM163.798 93.4C164.198 92.6333 164.673 92.0333 165.223 91.6C165.773 91.1583 166.423 90.9375 167.173 90.9375C167.765 90.9375 168.24 91.0667 168.598 91.325L168.398 93.6375C168.356 93.7875 168.294 93.8958 168.21 93.9625C168.135 94.0208 168.031 94.05 167.898 94.05C167.773 94.05 167.585 94.0292 167.335 93.9875C167.094 93.9458 166.856 93.925 166.623 93.925C166.281 93.925 165.977 93.975 165.71 94.075C165.444 94.175 165.202 94.3208 164.985 94.5125C164.777 94.6958 164.59 94.9208 164.423 95.1875C164.265 95.4542 164.115 95.7583 163.973 96.1V104H160.885V91.175H162.698C163.015 91.175 163.235 91.2333 163.36 91.35C163.485 91.4583 163.569 91.6583 163.61 91.95L163.798 93.4ZM178.108 96.1125C178.108 95.7125 178.049 95.3375 177.933 94.9875C177.824 94.6292 177.658 94.3167 177.433 94.05C177.208 93.7833 176.92 93.575 176.57 93.425C176.229 93.2667 175.829 93.1875 175.37 93.1875C174.479 93.1875 173.774 93.4417 173.258 93.95C172.749 94.4583 172.424 95.1792 172.283 96.1125H178.108ZM172.22 97.975C172.27 98.6333 172.387 99.2042 172.57 99.6875C172.754 100.162 172.995 100.558 173.295 100.875C173.595 101.183 173.949 101.417 174.358 101.575C174.774 101.725 175.233 101.8 175.733 101.8C176.233 101.8 176.662 101.742 177.02 101.625C177.387 101.508 177.704 101.379 177.97 101.237C178.245 101.096 178.483 100.967 178.683 100.85C178.891 100.733 179.091 100.675 179.283 100.675C179.541 100.675 179.733 100.771 179.858 100.962L180.745 102.087C180.404 102.487 180.02 102.825 179.595 103.1C179.17 103.367 178.724 103.583 178.258 103.75C177.799 103.908 177.329 104.021 176.845 104.088C176.37 104.154 175.908 104.188 175.458 104.188C174.566 104.188 173.737 104.042 172.97 103.75C172.204 103.45 171.537 103.012 170.97 102.438C170.404 101.854 169.958 101.137 169.633 100.287C169.308 99.4292 169.145 98.4375 169.145 97.3125C169.145 96.4375 169.287 95.6167 169.57 94.85C169.854 94.075 170.258 93.4042 170.783 92.8375C171.316 92.2625 171.962 91.8083 172.72 91.475C173.487 91.1417 174.349 90.975 175.308 90.975C176.116 90.975 176.862 91.1042 177.545 91.3625C178.229 91.6208 178.816 92 179.308 92.5C179.799 92.9917 180.183 93.6 180.458 94.325C180.741 95.0417 180.883 95.8625 180.883 96.7875C180.883 97.2542 180.833 97.5708 180.733 97.7375C180.633 97.8958 180.441 97.975 180.158 97.975H172.22ZM191.25 94.45C190.9 94.025 190.516 93.725 190.1 93.55C189.691 93.375 189.25 93.2875 188.775 93.2875C188.308 93.2875 187.887 93.375 187.512 93.55C187.137 93.725 186.816 93.9917 186.55 94.35C186.283 94.7 186.079 95.15 185.937 95.7C185.796 96.2417 185.725 96.8833 185.725 97.625C185.725 98.375 185.783 99.0125 185.9 99.5375C186.025 100.054 186.2 100.479 186.425 100.812C186.65 101.137 186.925 101.375 187.25 101.525C187.575 101.667 187.937 101.737 188.337 101.737C188.979 101.737 189.525 101.604 189.975 101.337C190.425 101.071 190.85 100.692 191.25 100.2V94.45ZM194.337 85.425V104H192.45C192.041 104 191.783 103.812 191.675 103.437L191.412 102.2C190.896 102.792 190.3 103.271 189.625 103.637C188.958 104.004 188.179 104.188 187.287 104.188C186.587 104.188 185.946 104.042 185.362 103.75C184.779 103.458 184.275 103.037 183.85 102.487C183.433 101.929 183.108 101.242 182.875 100.425C182.65 99.6083 182.537 98.675 182.537 97.625C182.537 96.675 182.666 95.7917 182.925 94.975C183.183 94.1583 183.554 93.45 184.037 92.85C184.521 92.25 185.1 91.7833 185.775 91.45C186.45 91.1083 187.208 90.9375 188.05 90.9375C188.766 90.9375 189.379 91.05 189.887 91.275C190.396 91.5 190.85 91.8042 191.25 92.1875V85.425H194.337ZM221.263 91.175L217.188 104H214.713C214.43 104 214.234 103.817 214.126 103.45L211.826 96.0375C211.751 95.7875 211.68 95.5417 211.613 95.3C211.555 95.05 211.505 94.8 211.463 94.55C211.413 94.8 211.355 95.0542 211.288 95.3125C211.23 95.5625 211.163 95.8125 211.088 96.0625L208.751 103.45C208.651 103.817 208.43 104 208.088 104H205.713L201.651 91.175H204.113C204.338 91.175 204.53 91.2292 204.688 91.3375C204.847 91.4458 204.951 91.5833 205.001 91.75L206.838 98.6C206.93 98.975 207.009 99.3417 207.076 99.7C207.151 100.058 207.213 100.417 207.263 100.775C207.355 100.417 207.451 100.058 207.551 99.7C207.659 99.3417 207.772 98.975 207.888 98.6L210.013 91.725C210.063 91.5583 210.159 91.4208 210.301 91.3125C210.451 91.2042 210.63 91.15 210.838 91.15H212.201C212.417 91.15 212.601 91.2042 212.751 91.3125C212.909 91.4208 213.013 91.5583 213.063 91.725L215.126 98.6C215.234 98.975 215.334 99.3458 215.426 99.7125C215.526 100.071 215.622 100.429 215.713 100.788C215.822 100.079 215.976 99.35 216.176 98.6L218.063 91.75C218.122 91.5833 218.226 91.4458 218.376 91.3375C218.526 91.2292 218.705 91.175 218.913 91.175H221.263ZM226.219 91.175V104H223.119V91.175H226.219ZM226.644 87.4375C226.644 87.7042 226.59 87.9542 226.482 88.1875C226.373 88.4208 226.227 88.625 226.044 88.8C225.869 88.975 225.661 89.1167 225.419 89.225C225.177 89.325 224.919 89.375 224.644 89.375C224.377 89.375 224.123 89.325 223.882 89.225C223.648 89.1167 223.444 88.975 223.269 88.8C223.094 88.625 222.952 88.4208 222.844 88.1875C222.744 87.9542 222.694 87.7042 222.694 87.4375C222.694 87.1625 222.744 86.9042 222.844 86.6625C222.952 86.4208 223.094 86.2125 223.269 86.0375C223.444 85.8625 223.648 85.725 223.882 85.625C224.123 85.5167 224.377 85.4625 224.644 85.4625C224.919 85.4625 225.177 85.5167 225.419 85.625C225.661 85.725 225.869 85.8625 226.044 86.0375C226.227 86.2125 226.373 86.4208 226.482 86.6625C226.59 86.9042 226.644 87.1625 226.644 87.4375ZM233.642 104.2C232.525 104.2 231.667 103.887 231.067 103.262C230.475 102.629 230.179 101.758 230.179 100.65V93.4875H228.867C228.7 93.4875 228.558 93.4333 228.442 93.325C228.325 93.2167 228.267 93.0542 228.267 92.8375V91.6125L230.329 91.275L230.979 87.775C231.021 87.6083 231.1 87.4792 231.217 87.3875C231.333 87.2958 231.483 87.25 231.667 87.25H233.267V91.2875H236.692V93.4875H233.267V100.437C233.267 100.837 233.363 101.15 233.554 101.375C233.754 101.6 234.025 101.712 234.367 101.712C234.558 101.712 234.717 101.692 234.842 101.65C234.975 101.6 235.088 101.55 235.179 101.5C235.279 101.45 235.367 101.404 235.442 101.362C235.517 101.312 235.592 101.287 235.667 101.287C235.758 101.287 235.833 101.312 235.892 101.362C235.95 101.404 236.013 101.471 236.079 101.562L237.004 103.062C236.554 103.437 236.038 103.721 235.454 103.912C234.871 104.104 234.267 104.2 233.642 104.2ZM241.756 92.55C242.256 92.0833 242.806 91.7042 243.406 91.4125C244.006 91.1208 244.71 90.975 245.519 90.975C246.219 90.975 246.839 91.0958 247.381 91.3375C247.923 91.5708 248.373 91.9042 248.731 92.3375C249.098 92.7625 249.373 93.275 249.556 93.875C249.748 94.4667 249.844 95.1208 249.844 95.8375V104H246.756V95.8375C246.756 95.0542 246.577 94.45 246.219 94.025C245.86 93.5917 245.314 93.375 244.581 93.375C244.048 93.375 243.548 93.4958 243.081 93.7375C242.614 93.9792 242.173 94.3083 241.756 94.725V104H238.669V85.425H241.756V92.55ZM274.246 94.9375V102.25C273.33 102.925 272.351 103.421 271.309 103.737C270.276 104.046 269.167 104.2 267.984 104.2C266.509 104.2 265.171 103.971 263.971 103.512C262.78 103.054 261.759 102.417 260.909 101.6C260.067 100.783 259.417 99.8083 258.959 98.675C258.501 97.5417 258.271 96.3042 258.271 94.9625C258.271 93.6042 258.492 92.3583 258.934 91.225C259.376 90.0917 260.001 89.1167 260.809 88.3C261.626 87.4833 262.613 86.85 263.771 86.4C264.93 85.95 266.23 85.725 267.671 85.725C268.405 85.725 269.088 85.7833 269.721 85.9C270.363 86.0167 270.955 86.1792 271.496 86.3875C272.046 86.5875 272.546 86.8333 272.996 87.125C273.446 87.4167 273.859 87.7375 274.234 88.0875L273.271 89.6125C273.121 89.8542 272.926 90.0042 272.684 90.0625C272.442 90.1125 272.18 90.05 271.896 89.875C271.621 89.7167 271.346 89.5583 271.071 89.4C270.796 89.2417 270.488 89.1042 270.146 88.9875C269.813 88.8708 269.434 88.775 269.009 88.7C268.592 88.625 268.109 88.5875 267.559 88.5875C266.667 88.5875 265.859 88.7375 265.134 89.0375C264.417 89.3375 263.805 89.7667 263.296 90.325C262.788 90.8833 262.396 91.5542 262.121 92.3375C261.846 93.1208 261.709 93.9958 261.709 94.9625C261.709 95.9958 261.855 96.9208 262.146 97.7375C262.446 98.5458 262.863 99.2333 263.396 99.8C263.938 100.358 264.588 100.787 265.346 101.087C266.105 101.379 266.951 101.525 267.884 101.525C268.551 101.525 269.146 101.454 269.671 101.312C270.196 101.171 270.709 100.979 271.209 100.737V97.4625H268.934C268.717 97.4625 268.546 97.4042 268.421 97.2875C268.305 97.1625 268.246 97.0125 268.246 96.8375V94.9375H274.246ZM282.527 90.975C283.477 90.975 284.34 91.1292 285.115 91.4375C285.898 91.7458 286.565 92.1833 287.115 92.75C287.673 93.3167 288.102 94.0083 288.402 94.825C288.702 95.6417 288.852 96.5542 288.852 97.5625C288.852 98.5792 288.702 99.4958 288.402 100.312C288.102 101.129 287.673 101.825 287.115 102.4C286.565 102.975 285.898 103.417 285.115 103.725C284.34 104.033 283.477 104.188 282.527 104.188C281.569 104.188 280.698 104.033 279.915 103.725C279.131 103.417 278.46 102.975 277.902 102.4C277.352 101.825 276.923 101.129 276.615 100.312C276.315 99.4958 276.165 98.5792 276.165 97.5625C276.165 96.5542 276.315 95.6417 276.615 94.825C276.923 94.0083 277.352 93.3167 277.902 92.75C278.46 92.1833 279.131 91.7458 279.915 91.4375C280.698 91.1292 281.569 90.975 282.527 90.975ZM282.527 101.812C283.594 101.812 284.381 101.454 284.89 100.737C285.406 100.021 285.665 98.9708 285.665 97.5875C285.665 96.2042 285.406 95.15 284.89 94.425C284.381 93.7 283.594 93.3375 282.527 93.3375C281.444 93.3375 280.64 93.7042 280.115 94.4375C279.598 95.1625 279.34 96.2125 279.34 97.5875C279.34 98.9625 279.598 100.012 280.115 100.737C280.64 101.454 281.444 101.812 282.527 101.812ZM296.883 90.975C297.833 90.975 298.695 91.1292 299.47 91.4375C300.253 91.7458 300.92 92.1833 301.47 92.75C302.028 93.3167 302.458 94.0083 302.758 94.825C303.058 95.6417 303.208 96.5542 303.208 97.5625C303.208 98.5792 303.058 99.4958 302.758 100.312C302.458 101.129 302.028 101.825 301.47 102.4C300.92 102.975 300.253 103.417 299.47 103.725C298.695 104.033 297.833 104.188 296.883 104.188C295.924 104.188 295.053 104.033 294.27 103.725C293.487 103.417 292.816 102.975 292.258 102.4C291.708 101.825 291.278 101.129 290.97 100.312C290.67 99.4958 290.52 98.5792 290.52 97.5625C290.52 96.5542 290.67 95.6417 290.97 94.825C291.278 94.0083 291.708 93.3167 292.258 92.75C292.816 92.1833 293.487 91.7458 294.27 91.4375C295.053 91.1292 295.924 90.975 296.883 90.975ZM296.883 101.812C297.949 101.812 298.737 101.454 299.245 100.737C299.762 100.021 300.02 98.9708 300.02 97.5875C300.02 96.2042 299.762 95.15 299.245 94.425C298.737 93.7 297.949 93.3375 296.883 93.3375C295.799 93.3375 294.995 93.7042 294.47 94.4375C293.953 95.1625 293.695 96.2125 293.695 97.5875C293.695 98.9625 293.953 100.012 294.47 100.737C294.995 101.454 295.799 101.812 296.883 101.812ZM310.153 97.275C310.536 97.275 310.87 97.225 311.153 97.125C311.436 97.0167 311.67 96.8708 311.853 96.6875C312.045 96.5042 312.186 96.2833 312.278 96.025C312.378 95.7667 312.428 95.4833 312.428 95.175C312.428 94.5417 312.236 94.0417 311.853 93.675C311.478 93.3 310.911 93.1125 310.153 93.1125C309.395 93.1125 308.824 93.3 308.44 93.675C308.065 94.0417 307.878 94.5417 307.878 95.175C307.878 95.475 307.924 95.7542 308.015 96.0125C308.115 96.2708 308.257 96.4958 308.44 96.6875C308.632 96.8708 308.87 97.0167 309.153 97.125C309.445 97.225 309.778 97.275 310.153 97.275ZM313.64 104.575C313.64 104.325 313.565 104.121 313.415 103.962C313.265 103.804 313.061 103.683 312.803 103.6C312.545 103.508 312.24 103.442 311.89 103.4C311.549 103.358 311.182 103.329 310.79 103.312C310.407 103.287 310.007 103.267 309.59 103.25C309.182 103.233 308.782 103.2 308.39 103.15C308.049 103.342 307.77 103.567 307.553 103.825C307.345 104.083 307.24 104.383 307.24 104.725C307.24 104.95 307.295 105.158 307.403 105.35C307.52 105.55 307.699 105.721 307.94 105.863C308.19 106.004 308.511 106.113 308.903 106.188C309.295 106.271 309.774 106.313 310.34 106.313C310.915 106.313 311.411 106.267 311.828 106.175C312.245 106.092 312.586 105.971 312.853 105.813C313.128 105.663 313.328 105.479 313.453 105.263C313.578 105.054 313.64 104.825 313.64 104.575ZM316.715 91.6125V92.7625C316.715 93.1292 316.495 93.3542 316.053 93.4375L314.903 93.65C315.078 94.0917 315.165 94.575 315.165 95.1C315.165 95.7333 315.036 96.3083 314.778 96.825C314.528 97.3333 314.178 97.7667 313.728 98.125C313.278 98.4833 312.745 98.7625 312.128 98.9625C311.52 99.1542 310.861 99.25 310.153 99.25C309.903 99.25 309.661 99.2375 309.428 99.2125C309.195 99.1875 308.965 99.1542 308.74 99.1125C308.34 99.3542 308.14 99.625 308.14 99.925C308.14 100.183 308.257 100.375 308.49 100.5C308.732 100.617 309.049 100.7 309.44 100.75C309.832 100.8 310.278 100.833 310.778 100.85C311.278 100.858 311.79 100.883 312.315 100.925C312.84 100.967 313.353 101.042 313.853 101.15C314.353 101.25 314.799 101.412 315.19 101.637C315.582 101.862 315.895 102.171 316.128 102.562C316.37 102.946 316.49 103.442 316.49 104.05C316.49 104.617 316.349 105.167 316.065 105.7C315.79 106.233 315.386 106.708 314.853 107.125C314.328 107.542 313.678 107.875 312.903 108.125C312.136 108.383 311.261 108.513 310.278 108.513C309.311 108.513 308.47 108.417 307.753 108.225C307.036 108.042 306.44 107.792 305.965 107.475C305.49 107.167 305.136 106.808 304.903 106.4C304.67 105.992 304.553 105.567 304.553 105.125C304.553 104.525 304.732 104.025 305.09 103.625C305.457 103.217 305.957 102.892 306.59 102.65C306.249 102.475 305.978 102.242 305.778 101.95C305.578 101.658 305.478 101.275 305.478 100.8C305.478 100.608 305.511 100.412 305.578 100.212C305.653 100.004 305.757 99.8 305.89 99.6C306.032 99.4 306.207 99.2125 306.415 99.0375C306.624 98.8542 306.87 98.6917 307.153 98.55C306.503 98.2 305.99 97.7333 305.615 97.15C305.249 96.5667 305.065 95.8833 305.065 95.1C305.065 94.4667 305.19 93.8958 305.44 93.3875C305.699 92.8708 306.053 92.4333 306.503 92.075C306.961 91.7083 307.499 91.4292 308.115 91.2375C308.74 91.0458 309.42 90.95 310.153 90.95C310.703 90.95 311.22 91.0083 311.703 91.125C312.186 91.2333 312.628 91.3958 313.028 91.6125H316.715ZM321.798 85.425V104H318.711V85.425H321.798ZM333.137 96.1125C333.137 95.7125 333.079 95.3375 332.962 94.9875C332.854 94.6292 332.687 94.3167 332.462 94.05C332.237 93.7833 331.95 93.575 331.6 93.425C331.258 93.2667 330.858 93.1875 330.4 93.1875C329.508 93.1875 328.804 93.4417 328.287 93.95C327.779 94.4583 327.454 95.1792 327.312 96.1125H333.137ZM327.25 97.975C327.3 98.6333 327.416 99.2042 327.6 99.6875C327.783 100.162 328.025 100.558 328.325 100.875C328.625 101.183 328.979 101.417 329.387 101.575C329.804 101.725 330.262 101.8 330.762 101.8C331.262 101.8 331.691 101.742 332.05 101.625C332.416 101.508 332.733 101.379 333 101.237C333.275 101.096 333.512 100.967 333.712 100.85C333.92 100.733 334.12 100.675 334.312 100.675C334.57 100.675 334.762 100.771 334.887 100.962L335.775 102.087C335.433 102.487 335.05 102.825 334.625 103.1C334.2 103.367 333.754 103.583 333.287 103.75C332.829 103.908 332.358 104.021 331.875 104.088C331.4 104.154 330.937 104.188 330.487 104.188C329.595 104.188 328.766 104.042 328 103.75C327.233 103.45 326.566 103.012 326 102.438C325.433 101.854 324.987 101.137 324.662 100.287C324.337 99.4292 324.175 98.4375 324.175 97.3125C324.175 96.4375 324.316 95.6167 324.6 94.85C324.883 94.075 325.287 93.4042 325.812 92.8375C326.345 92.2625 326.991 91.8083 327.75 91.475C328.516 91.1417 329.379 90.975 330.337 90.975C331.145 90.975 331.891 91.1042 332.575 91.3625C333.258 91.6208 333.845 92 334.337 92.5C334.829 92.9917 335.212 93.6 335.487 94.325C335.77 95.0417 335.912 95.8625 335.912 96.7875C335.912 97.2542 335.862 97.5708 335.762 97.7375C335.662 97.8958 335.47 97.975 335.187 97.975H327.25ZM356.664 88.6875H351.214V104H347.851V88.6875H342.401V85.925H356.664V88.6875ZM358.939 93.4C359.339 92.6333 359.814 92.0333 360.364 91.6C360.914 91.1583 361.564 90.9375 362.314 90.9375C362.906 90.9375 363.381 91.0667 363.739 91.325L363.539 93.6375C363.498 93.7875 363.435 93.8958 363.352 93.9625C363.277 94.0208 363.173 94.05 363.039 94.05C362.914 94.05 362.727 94.0292 362.477 93.9875C362.235 93.9458 361.998 93.925 361.764 93.925C361.423 93.925 361.119 93.975 360.852 94.075C360.585 94.175 360.344 94.3208 360.127 94.5125C359.919 94.6958 359.731 94.9208 359.564 95.1875C359.406 95.4542 359.256 95.7583 359.114 96.1V104H356.027V91.175H357.839C358.156 91.175 358.377 91.2333 358.502 91.35C358.627 91.4583 358.71 91.6583 358.752 91.95L358.939 93.4ZM373.249 96.1125C373.249 95.7125 373.191 95.3375 373.074 94.9875C372.966 94.6292 372.799 94.3167 372.574 94.05C372.349 93.7833 372.062 93.575 371.712 93.425C371.37 93.2667 370.97 93.1875 370.512 93.1875C369.62 93.1875 368.916 93.4417 368.399 93.95C367.891 94.4583 367.566 95.1792 367.424 96.1125H373.249ZM367.362 97.975C367.412 98.6333 367.529 99.2042 367.712 99.6875C367.895 100.162 368.137 100.558 368.437 100.875C368.737 101.183 369.091 101.417 369.499 101.575C369.916 101.725 370.374 101.8 370.874 101.8C371.374 101.8 371.804 101.742 372.162 101.625C372.529 101.508 372.845 101.379 373.112 101.237C373.387 101.096 373.624 100.967 373.824 100.85C374.033 100.733 374.233 100.675 374.424 100.675C374.683 100.675 374.874 100.771 374.999 100.962L375.887 102.087C375.545 102.487 375.162 102.825 374.737 103.1C374.312 103.367 373.866 103.583 373.399 103.75C372.941 103.908 372.47 104.021 371.987 104.088C371.512 104.154 371.049 104.188 370.599 104.188C369.708 104.188 368.879 104.042 368.112 103.75C367.345 103.45 366.679 103.012 366.112 102.438C365.545 101.854 365.099 101.137 364.774 100.287C364.449 99.4292 364.287 98.4375 364.287 97.3125C364.287 96.4375 364.429 95.6167 364.712 94.85C364.995 94.075 365.399 93.4042 365.924 92.8375C366.458 92.2625 367.104 91.8083 367.862 91.475C368.629 91.1417 369.491 90.975 370.449 90.975C371.258 90.975 372.004 91.1042 372.687 91.3625C373.37 91.6208 373.958 92 374.449 92.5C374.941 92.9917 375.324 93.6 375.599 94.325C375.883 95.0417 376.024 95.8625 376.024 96.7875C376.024 97.2542 375.974 97.5708 375.874 97.7375C375.774 97.8958 375.583 97.975 375.299 97.975H367.362ZM381.229 92.75C381.487 92.4917 381.758 92.2542 382.041 92.0375C382.333 91.8125 382.637 91.625 382.954 91.475C383.279 91.3167 383.625 91.1958 383.991 91.1125C384.358 91.0208 384.758 90.975 385.191 90.975C385.891 90.975 386.512 91.0958 387.054 91.3375C387.596 91.5708 388.046 91.9042 388.404 92.3375C388.771 92.7625 389.046 93.275 389.229 93.875C389.421 94.4667 389.516 95.1208 389.516 95.8375V104H386.429V95.8375C386.429 95.0542 386.25 94.45 385.891 94.025C385.533 93.5917 384.987 93.375 384.254 93.375C383.721 93.375 383.221 93.4958 382.754 93.7375C382.287 93.9792 381.846 94.3083 381.429 94.725V104H378.341V91.175H380.229C380.629 91.175 380.891 91.3625 381.016 91.7375L381.229 92.75ZM400.503 94.45C400.153 94.025 399.769 93.725 399.353 93.55C398.944 93.375 398.503 93.2875 398.028 93.2875C397.561 93.2875 397.14 93.375 396.765 93.55C396.39 93.725 396.069 93.9917 395.803 94.35C395.536 94.7 395.332 95.15 395.19 95.7C395.049 96.2417 394.978 96.8833 394.978 97.625C394.978 98.375 395.036 99.0125 395.153 99.5375C395.278 100.054 395.453 100.479 395.678 100.812C395.903 101.137 396.178 101.375 396.503 101.525C396.828 101.667 397.19 101.737 397.59 101.737C398.232 101.737 398.778 101.604 399.228 101.337C399.678 101.071 400.103 100.692 400.503 100.2V94.45ZM403.59 85.425V104H401.703C401.294 104 401.036 103.812 400.928 103.437L400.665 102.2C400.149 102.792 399.553 103.271 398.878 103.637C398.211 104.004 397.432 104.188 396.54 104.188C395.84 104.188 395.199 104.042 394.615 103.75C394.032 103.458 393.528 103.037 393.103 102.487C392.686 101.929 392.361 101.242 392.128 100.425C391.903 99.6083 391.79 98.675 391.79 97.625C391.79 96.675 391.919 95.7917 392.178 94.975C392.436 94.1583 392.807 93.45 393.29 92.85C393.774 92.25 394.353 91.7833 395.028 91.45C395.703 91.1083 396.461 90.9375 397.303 90.9375C398.019 90.9375 398.632 91.05 399.14 91.275C399.649 91.5 400.103 91.8042 400.503 92.1875V85.425H403.59ZM414.462 93.675C414.379 93.8083 414.291 93.9042 414.2 93.9625C414.108 94.0125 413.991 94.0375 413.85 94.0375C413.7 94.0375 413.537 93.9958 413.362 93.9125C413.196 93.8292 413 93.7375 412.775 93.6375C412.55 93.5292 412.291 93.4333 412 93.35C411.716 93.2667 411.379 93.225 410.987 93.225C410.379 93.225 409.9 93.3542 409.55 93.6125C409.208 93.8708 409.037 94.2083 409.037 94.625C409.037 94.9 409.125 95.1333 409.3 95.325C409.483 95.5083 409.721 95.6708 410.012 95.8125C410.312 95.9542 410.65 96.0833 411.025 96.2C411.4 96.3083 411.779 96.4292 412.162 96.5625C412.554 96.6958 412.937 96.85 413.312 97.025C413.687 97.1917 414.021 97.4083 414.312 97.675C414.612 97.9333 414.85 98.2458 415.025 98.6125C415.208 98.9792 415.3 99.4208 415.3 99.9375C415.3 100.554 415.187 101.125 414.962 101.65C414.746 102.167 414.421 102.617 413.987 103C413.554 103.375 413.016 103.671 412.375 103.887C411.741 104.096 411.008 104.2 410.175 104.2C409.733 104.2 409.3 104.158 408.875 104.075C408.458 104 408.054 103.892 407.662 103.75C407.279 103.608 406.921 103.442 406.587 103.25C406.262 103.058 405.975 102.85 405.725 102.625L406.437 101.45C406.529 101.308 406.637 101.2 406.762 101.125C406.887 101.05 407.046 101.012 407.237 101.012C407.429 101.012 407.608 101.067 407.775 101.175C407.95 101.283 408.15 101.4 408.375 101.525C408.6 101.65 408.862 101.767 409.162 101.875C409.471 101.983 409.858 102.037 410.325 102.037C410.691 102.037 411.004 101.996 411.262 101.912C411.529 101.821 411.746 101.704 411.912 101.562C412.087 101.421 412.212 101.258 412.287 101.075C412.371 100.883 412.412 100.687 412.412 100.487C412.412 100.187 412.321 99.9417 412.137 99.75C411.962 99.5583 411.725 99.3917 411.425 99.25C411.133 99.1083 410.796 98.9833 410.412 98.875C410.037 98.7583 409.65 98.6333 409.25 98.5C408.858 98.3667 408.471 98.2125 408.087 98.0375C407.712 97.8542 407.375 97.625 407.075 97.35C406.783 97.075 406.546 96.7375 406.362 96.3375C406.187 95.9375 406.1 95.4542 406.1 94.8875C406.1 94.3625 406.204 93.8625 406.412 93.3875C406.621 92.9125 406.925 92.5 407.325 92.15C407.733 91.7917 408.237 91.5083 408.837 91.3C409.446 91.0833 410.146 90.975 410.937 90.975C411.821 90.975 412.625 91.1208 413.35 91.4125C414.075 91.7042 414.679 92.0875 415.162 92.5625L414.462 93.675Z" fill="black"/>
</svg>
