<svg width="434" height="109" viewBox="0 0 434 109" fill="none" xmlns="http://www.w3.org/2000/svg">
<path d="M57.1726 58.972L49.0906 85H44.7166L39.0286 67.216C38.8726 66.784 38.7286 66.256 38.5966 65.632C38.5246 65.932 38.4526 66.214 38.3806 66.478C38.3086 66.742 38.2306 66.988 38.1466 67.216L32.4046 85H28.0126L19.9486 58.972H23.9986C24.4186 58.972 24.7666 59.074 25.0426 59.278C25.3306 59.47 25.5226 59.734 25.6186 60.07L30.0466 75.64C30.1426 76.024 30.2326 76.444 30.3166 76.9C30.4126 77.344 30.5086 77.812 30.6046 78.304C30.7006 77.8 30.8026 77.326 30.9106 76.882C31.0306 76.438 31.1566 76.024 31.2886 75.64L36.4006 60.07C36.4966 59.794 36.6826 59.542 36.9586 59.314C37.2466 59.086 37.5946 58.972 38.0026 58.972H39.4246C39.8446 58.972 40.1866 59.074 40.4506 59.278C40.7146 59.482 40.9126 59.746 41.0446 60.07L46.1386 75.64C46.3906 76.384 46.6186 77.242 46.8226 78.214C46.9786 77.266 47.1526 76.408 47.3446 75.64L51.7726 60.07C51.8446 59.77 52.0246 59.512 52.3126 59.296C52.6126 59.08 52.9666 58.972 53.3746 58.972H57.1726ZM65.659 66.244C67.027 66.244 68.269 66.466 69.385 66.91C70.513 67.354 71.473 67.984 72.265 68.8C73.069 69.616 73.687 70.612 74.119 71.788C74.551 72.964 74.767 74.278 74.767 75.73C74.767 77.194 74.551 78.514 74.119 79.69C73.687 80.866 73.069 81.868 72.265 82.696C71.473 83.524 70.513 84.16 69.385 84.604C68.269 85.048 67.027 85.27 65.659 85.27C64.279 85.27 63.025 85.048 61.897 84.604C60.769 84.16 59.803 83.524 58.999 82.696C58.207 81.868 57.589 80.866 57.145 79.69C56.713 78.514 56.497 77.194 56.497 75.73C56.497 74.278 56.713 72.964 57.145 71.788C57.589 70.612 58.207 69.616 58.999 68.8C59.803 67.984 60.769 67.354 61.897 66.91C63.025 66.466 64.279 66.244 65.659 66.244ZM65.659 81.85C67.195 81.85 68.329 81.334 69.061 80.302C69.805 79.27 70.177 77.758 70.177 75.766C70.177 73.774 69.805 72.256 69.061 71.212C68.329 70.168 67.195 69.646 65.659 69.646C64.099 69.646 62.941 70.174 62.185 71.23C61.441 72.274 61.069 73.786 61.069 75.766C61.069 77.746 61.441 79.258 62.185 80.302C62.941 81.334 64.099 81.85 65.659 81.85ZM82.3529 69.736C82.9289 68.632 83.6129 67.768 84.4049 67.144C85.1969 66.508 86.1329 66.19 87.2129 66.19C88.0649 66.19 88.7489 66.376 89.2649 66.748L88.9769 70.078C88.9169 70.294 88.8269 70.45 88.7069 70.546C88.5989 70.63 88.4489 70.672 88.2569 70.672C88.0769 70.672 87.8069 70.642 87.4469 70.582C87.0989 70.522 86.7569 70.492 86.4209 70.492C85.9289 70.492 85.4909 70.564 85.1069 70.708C84.7229 70.852 84.3749 71.062 84.0629 71.338C83.7629 71.602 83.4929 71.926 83.2529 72.31C83.0249 72.694 82.8089 73.132 82.6049 73.624V85H78.1589V66.532H80.7689C81.2249 66.532 81.5429 66.616 81.7229 66.784C81.9029 66.94 82.0229 67.228 82.0829 67.648L82.3529 69.736ZM102.688 71.248C102.184 70.636 101.632 70.204 101.032 69.952C100.444 69.7 99.8084 69.574 99.1244 69.574C98.4524 69.574 97.8464 69.7 97.3064 69.952C96.7664 70.204 96.3044 70.588 95.9204 71.104C95.5364 71.608 95.2424 72.256 95.0384 73.048C94.8344 73.828 94.7324 74.752 94.7324 75.82C94.7324 76.9 94.8164 77.818 94.9844 78.574C95.1644 79.318 95.4164 79.93 95.7404 80.41C96.0644 80.878 96.4604 81.22 96.9284 81.436C97.3964 81.64 97.9184 81.742 98.4944 81.742C99.4184 81.742 100.204 81.55 100.852 81.166C101.5 80.782 102.112 80.236 102.688 79.528V71.248ZM107.134 58.252V85H104.416C103.828 85 103.456 84.73 103.3 84.19L102.922 82.408C102.178 83.26 101.32 83.95 100.348 84.478C99.3884 85.006 98.2664 85.27 96.9824 85.27C95.9744 85.27 95.0504 85.06 94.2104 84.64C93.3704 84.22 92.6444 83.614 92.0324 82.822C91.4324 82.018 90.9644 81.028 90.6284 79.852C90.3044 78.676 90.1424 77.332 90.1424 75.82C90.1424 74.452 90.3284 73.18 90.7004 72.004C91.0724 70.828 91.6064 69.808 92.3024 68.944C92.9984 68.08 93.8324 67.408 94.8044 66.928C95.7764 66.436 96.8684 66.19 98.0804 66.19C99.1124 66.19 99.9944 66.352 100.726 66.676C101.458 67 102.112 67.438 102.688 67.99V58.252H107.134ZM138.852 78.862C139.116 78.862 139.35 78.964 139.554 79.168L141.462 81.238C140.406 82.546 139.104 83.548 137.556 84.244C136.02 84.94 134.172 85.288 132.012 85.288C130.08 85.288 128.34 84.958 126.792 84.298C125.256 83.638 123.942 82.72 122.85 81.544C121.758 80.368 120.918 78.964 120.33 77.332C119.754 75.7 119.466 73.918 119.466 71.986C119.466 70.03 119.778 68.242 120.402 66.622C121.026 64.99 121.902 63.586 123.03 62.41C124.17 61.234 125.526 60.322 127.098 59.674C128.67 59.014 130.41 58.684 132.318 58.684C134.214 58.684 135.894 58.996 137.358 59.62C138.834 60.244 140.088 61.06 141.12 62.068L139.5 64.318C139.404 64.462 139.278 64.588 139.122 64.696C138.978 64.804 138.774 64.858 138.51 64.858C138.33 64.858 138.144 64.81 137.952 64.714C137.76 64.606 137.55 64.48 137.322 64.336C137.094 64.18 136.83 64.012 136.53 63.832C136.23 63.652 135.882 63.49 135.486 63.346C135.09 63.19 134.628 63.064 134.1 62.968C133.584 62.86 132.984 62.806 132.3 62.806C131.136 62.806 130.068 63.016 129.096 63.436C128.136 63.844 127.308 64.444 126.612 65.236C125.916 66.016 125.376 66.976 124.992 68.116C124.608 69.244 124.416 70.534 124.416 71.986C124.416 73.45 124.62 74.752 125.028 75.892C125.448 77.032 126.012 77.992 126.72 78.772C127.428 79.552 128.262 80.152 129.222 80.572C130.182 80.98 131.214 81.184 132.318 81.184C132.978 81.184 133.572 81.148 134.1 81.076C134.64 81.004 135.132 80.89 135.576 80.734C136.032 80.578 136.458 80.38 136.854 80.14C137.262 79.888 137.664 79.582 138.06 79.222C138.18 79.114 138.306 79.03 138.438 78.97C138.57 78.898 138.708 78.862 138.852 78.862ZM148.577 58.252V85H144.131V58.252H148.577ZM161.179 66.244C162.547 66.244 163.789 66.466 164.905 66.91C166.033 67.354 166.993 67.984 167.785 68.8C168.589 69.616 169.207 70.612 169.639 71.788C170.071 72.964 170.287 74.278 170.287 75.73C170.287 77.194 170.071 78.514 169.639 79.69C169.207 80.866 168.589 81.868 167.785 82.696C166.993 83.524 166.033 84.16 164.905 84.604C163.789 85.048 162.547 85.27 161.179 85.27C159.799 85.27 158.545 85.048 157.417 84.604C156.289 84.16 155.323 83.524 154.519 82.696C153.727 81.868 153.109 80.866 152.665 79.69C152.233 78.514 152.017 77.194 152.017 75.73C152.017 74.278 152.233 72.964 152.665 71.788C153.109 70.612 153.727 69.616 154.519 68.8C155.323 67.984 156.289 67.354 157.417 66.91C158.545 66.466 159.799 66.244 161.179 66.244ZM161.179 81.85C162.715 81.85 163.849 81.334 164.581 80.302C165.325 79.27 165.697 77.758 165.697 75.766C165.697 73.774 165.325 72.256 164.581 71.212C163.849 70.168 162.715 69.646 161.179 69.646C159.619 69.646 158.461 70.174 157.705 71.23C156.961 72.274 156.589 73.786 156.589 75.766C156.589 77.746 156.961 79.258 157.705 80.302C158.461 81.334 159.619 81.85 161.179 81.85ZM189.59 66.532V85H186.872C186.284 85 185.912 84.73 185.756 84.19L185.45 82.714C184.694 83.482 183.86 84.106 182.948 84.586C182.036 85.054 180.962 85.288 179.726 85.288C178.718 85.288 177.824 85.12 177.044 84.784C176.276 84.436 175.628 83.95 175.1 83.326C174.572 82.702 174.17 81.964 173.894 81.112C173.63 80.248 173.498 79.3 173.498 78.268V66.532H177.944V78.268C177.944 79.396 178.202 80.272 178.718 80.896C179.246 81.508 180.032 81.814 181.076 81.814C181.844 81.814 182.564 81.646 183.236 81.31C183.908 80.962 184.544 80.488 185.144 79.888V66.532H189.59ZM205.591 71.248C205.087 70.636 204.535 70.204 203.935 69.952C203.347 69.7 202.711 69.574 202.027 69.574C201.355 69.574 200.749 69.7 200.209 69.952C199.669 70.204 199.207 70.588 198.823 71.104C198.439 71.608 198.145 72.256 197.941 73.048C197.737 73.828 197.635 74.752 197.635 75.82C197.635 76.9 197.719 77.818 197.887 78.574C198.067 79.318 198.319 79.93 198.643 80.41C198.967 80.878 199.363 81.22 199.831 81.436C200.299 81.64 200.821 81.742 201.397 81.742C202.321 81.742 203.107 81.55 203.755 81.166C204.403 80.782 205.015 80.236 205.591 79.528V71.248ZM210.037 58.252V85H207.319C206.731 85 206.359 84.73 206.203 84.19L205.825 82.408C205.081 83.26 204.223 83.95 203.251 84.478C202.291 85.006 201.169 85.27 199.885 85.27C198.877 85.27 197.953 85.06 197.113 84.64C196.273 84.22 195.547 83.614 194.935 82.822C194.335 82.018 193.867 81.028 193.531 79.852C193.207 78.676 193.045 77.332 193.045 75.82C193.045 74.452 193.231 73.18 193.603 72.004C193.975 70.828 194.509 69.808 195.205 68.944C195.901 68.08 196.735 67.408 197.707 66.928C198.679 66.436 199.771 66.19 200.983 66.19C202.015 66.19 202.897 66.352 203.629 66.676C204.361 67 205.015 67.438 205.591 67.99V58.252H210.037ZM241.754 78.862C242.018 78.862 242.252 78.964 242.456 79.168L244.364 81.238C243.308 82.546 242.006 83.548 240.458 84.244C238.922 84.94 237.074 85.288 234.914 85.288C232.982 85.288 231.242 84.958 229.694 84.298C228.158 83.638 226.844 82.72 225.752 81.544C224.66 80.368 223.82 78.964 223.232 77.332C222.656 75.7 222.368 73.918 222.368 71.986C222.368 70.03 222.68 68.242 223.304 66.622C223.928 64.99 224.804 63.586 225.932 62.41C227.072 61.234 228.428 60.322 230 59.674C231.572 59.014 233.312 58.684 235.22 58.684C237.116 58.684 238.796 58.996 240.26 59.62C241.736 60.244 242.99 61.06 244.022 62.068L242.402 64.318C242.306 64.462 242.18 64.588 242.024 64.696C241.88 64.804 241.676 64.858 241.412 64.858C241.232 64.858 241.046 64.81 240.854 64.714C240.662 64.606 240.452 64.48 240.224 64.336C239.996 64.18 239.732 64.012 239.432 63.832C239.132 63.652 238.784 63.49 238.388 63.346C237.992 63.19 237.53 63.064 237.002 62.968C236.486 62.86 235.886 62.806 235.202 62.806C234.038 62.806 232.97 63.016 231.998 63.436C231.038 63.844 230.21 64.444 229.514 65.236C228.818 66.016 228.278 66.976 227.894 68.116C227.51 69.244 227.318 70.534 227.318 71.986C227.318 73.45 227.522 74.752 227.93 75.892C228.35 77.032 228.914 77.992 229.622 78.772C230.33 79.552 231.164 80.152 232.124 80.572C233.084 80.98 234.116 81.184 235.22 81.184C235.88 81.184 236.474 81.148 237.002 81.076C237.542 81.004 238.034 80.89 238.478 80.734C238.934 80.578 239.36 80.38 239.756 80.14C240.164 79.888 240.566 79.582 240.962 79.222C241.082 79.114 241.208 79.03 241.34 78.97C241.472 78.898 241.61 78.862 241.754 78.862ZM254.764 66.244C256.132 66.244 257.374 66.466 258.49 66.91C259.618 67.354 260.578 67.984 261.37 68.8C262.174 69.616 262.792 70.612 263.224 71.788C263.656 72.964 263.872 74.278 263.872 75.73C263.872 77.194 263.656 78.514 263.224 79.69C262.792 80.866 262.174 81.868 261.37 82.696C260.578 83.524 259.618 84.16 258.49 84.604C257.374 85.048 256.132 85.27 254.764 85.27C253.384 85.27 252.13 85.048 251.002 84.604C249.874 84.16 248.908 83.524 248.104 82.696C247.312 81.868 246.694 80.866 246.25 79.69C245.818 78.514 245.602 77.194 245.602 75.73C245.602 74.278 245.818 72.964 246.25 71.788C246.694 70.612 247.312 69.616 248.104 68.8C248.908 67.984 249.874 67.354 251.002 66.91C252.13 66.466 253.384 66.244 254.764 66.244ZM254.764 81.85C256.3 81.85 257.434 81.334 258.166 80.302C258.91 79.27 259.282 77.758 259.282 75.766C259.282 73.774 258.91 72.256 258.166 71.212C257.434 70.168 256.3 69.646 254.764 69.646C253.204 69.646 252.046 70.174 251.29 71.23C250.546 72.274 250.174 73.786 250.174 75.766C250.174 77.746 250.546 79.258 251.29 80.302C252.046 81.334 253.204 81.85 254.764 81.85ZM267.264 85V66.532H269.982C270.558 66.532 270.936 66.802 271.116 67.342L271.404 68.71C271.728 68.35 272.064 68.02 272.412 67.72C272.772 67.42 273.15 67.162 273.546 66.946C273.954 66.73 274.386 66.562 274.842 66.442C275.31 66.31 275.82 66.244 276.372 66.244C277.536 66.244 278.49 66.562 279.234 67.198C279.99 67.822 280.554 68.656 280.926 69.7C281.214 69.088 281.574 68.566 282.006 68.134C282.438 67.69 282.912 67.33 283.428 67.054C283.944 66.778 284.49 66.574 285.066 66.442C285.654 66.31 286.242 66.244 286.83 66.244C287.85 66.244 288.756 66.4 289.548 66.712C290.34 67.024 291.006 67.48 291.546 68.08C292.086 68.68 292.494 69.412 292.77 70.276C293.058 71.14 293.202 72.13 293.202 73.246V85H288.756V73.246C288.756 72.07 288.498 71.188 287.982 70.6C287.466 70 286.71 69.7 285.714 69.7C285.258 69.7 284.832 69.778 284.436 69.934C284.052 70.09 283.71 70.318 283.41 70.618C283.122 70.906 282.894 71.272 282.726 71.716C282.558 72.16 282.474 72.67 282.474 73.246V85H278.01V73.246C278.01 72.01 277.758 71.11 277.254 70.546C276.762 69.982 276.036 69.7 275.076 69.7C274.428 69.7 273.822 69.862 273.258 70.186C272.706 70.498 272.19 70.93 271.71 71.482V85H267.264ZM301.874 80.212C302.378 80.824 302.924 81.256 303.512 81.508C304.112 81.76 304.76 81.886 305.456 81.886C306.128 81.886 306.734 81.76 307.274 81.508C307.814 81.256 308.27 80.872 308.642 80.356C309.026 79.84 309.32 79.192 309.524 78.412C309.728 77.62 309.83 76.69 309.83 75.622C309.83 74.542 309.74 73.63 309.56 72.886C309.392 72.13 309.146 71.518 308.822 71.05C308.498 70.582 308.102 70.24 307.634 70.024C307.178 69.808 306.656 69.7 306.068 69.7C305.144 69.7 304.358 69.898 303.71 70.294C303.062 70.678 302.45 71.224 301.874 71.932V80.212ZM301.64 69.052C302.396 68.2 303.254 67.51 304.214 66.982C305.174 66.454 306.302 66.19 307.598 66.19C308.606 66.19 309.524 66.4 310.352 66.82C311.192 67.24 311.912 67.852 312.512 68.656C313.124 69.448 313.592 70.432 313.916 71.608C314.252 72.772 314.42 74.11 314.42 75.622C314.42 77.002 314.234 78.28 313.862 79.456C313.49 80.632 312.956 81.652 312.26 82.516C311.576 83.38 310.742 84.058 309.758 84.55C308.786 85.03 307.694 85.27 306.482 85.27C305.45 85.27 304.568 85.114 303.836 84.802C303.104 84.478 302.45 84.034 301.874 83.47V91.03H297.428V66.532H300.146C300.722 66.532 301.1 66.802 301.28 67.342L301.64 69.052ZM327.645 77.116C326.361 77.176 325.281 77.29 324.405 77.458C323.529 77.614 322.827 77.818 322.299 78.07C321.771 78.322 321.393 78.616 321.165 78.952C320.937 79.288 320.823 79.654 320.823 80.05C320.823 80.83 321.051 81.388 321.507 81.724C321.975 82.06 322.581 82.228 323.325 82.228C324.237 82.228 325.023 82.066 325.683 81.742C326.355 81.406 327.009 80.902 327.645 80.23V77.116ZM317.457 69.106C319.581 67.162 322.137 66.19 325.125 66.19C326.205 66.19 327.171 66.37 328.023 66.73C328.875 67.078 329.595 67.57 330.183 68.206C330.771 68.83 331.215 69.58 331.515 70.456C331.827 71.332 331.983 72.292 331.983 73.336V85H329.967C329.547 85 329.223 84.94 328.995 84.82C328.767 84.688 328.587 84.43 328.455 84.046L328.059 82.714C327.591 83.134 327.135 83.506 326.691 83.83C326.247 84.142 325.785 84.406 325.305 84.622C324.825 84.838 324.309 85 323.757 85.108C323.217 85.228 322.617 85.288 321.957 85.288C321.177 85.288 320.457 85.186 319.797 84.982C319.137 84.766 318.567 84.448 318.087 84.028C317.607 83.608 317.235 83.086 316.971 82.462C316.707 81.838 316.575 81.112 316.575 80.284C316.575 79.816 316.653 79.354 316.809 78.898C316.965 78.43 317.217 77.986 317.565 77.566C317.925 77.146 318.387 76.75 318.951 76.378C319.515 76.006 320.205 75.682 321.021 75.406C321.849 75.13 322.809 74.908 323.901 74.74C324.993 74.56 326.241 74.452 327.645 74.416V73.336C327.645 72.1 327.381 71.188 326.853 70.6C326.325 70 325.563 69.7 324.567 69.7C323.847 69.7 323.247 69.784 322.767 69.952C322.299 70.12 321.885 70.312 321.525 70.528C321.165 70.732 320.835 70.918 320.535 71.086C320.247 71.254 319.923 71.338 319.563 71.338C319.251 71.338 318.987 71.26 318.771 71.104C318.555 70.936 318.381 70.744 318.249 70.528L317.457 69.106ZM340.365 69.736C340.941 68.632 341.625 67.768 342.417 67.144C343.209 66.508 344.145 66.19 345.225 66.19C346.077 66.19 346.761 66.376 347.277 66.748L346.989 70.078C346.929 70.294 346.839 70.45 346.719 70.546C346.611 70.63 346.461 70.672 346.269 70.672C346.089 70.672 345.819 70.642 345.459 70.582C345.111 70.522 344.769 70.492 344.433 70.492C343.941 70.492 343.503 70.564 343.119 70.708C342.735 70.852 342.387 71.062 342.075 71.338C341.775 71.602 341.505 71.926 341.265 72.31C341.037 72.694 340.821 73.132 340.617 73.624V85H336.171V66.532H338.781C339.237 66.532 339.555 66.616 339.735 66.784C339.915 66.94 340.035 67.228 340.095 67.648L340.365 69.736ZM354.208 66.532V85H349.744V66.532H354.208ZM354.82 61.15C354.82 61.534 354.742 61.894 354.586 62.23C354.43 62.566 354.22 62.86 353.956 63.112C353.704 63.364 353.404 63.568 353.056 63.724C352.708 63.868 352.336 63.94 351.94 63.94C351.556 63.94 351.19 63.868 350.842 63.724C350.506 63.568 350.212 63.364 349.96 63.112C349.708 62.86 349.504 62.566 349.348 62.23C349.204 61.894 349.132 61.534 349.132 61.15C349.132 60.754 349.204 60.382 349.348 60.034C349.504 59.686 349.708 59.386 349.96 59.134C350.212 58.882 350.506 58.684 350.842 58.54C351.19 58.384 351.556 58.306 351.94 58.306C352.336 58.306 352.708 58.384 353.056 58.54C353.404 58.684 353.704 58.882 353.956 59.134C354.22 59.386 354.43 59.686 354.586 60.034C354.742 60.382 354.82 60.754 354.82 61.15ZM370.009 70.132C369.889 70.324 369.763 70.462 369.631 70.546C369.499 70.618 369.331 70.654 369.127 70.654C368.911 70.654 368.677 70.594 368.425 70.474C368.185 70.354 367.903 70.222 367.579 70.078C367.255 69.922 366.883 69.784 366.463 69.664C366.055 69.544 365.569 69.484 365.005 69.484C364.129 69.484 363.439 69.67 362.935 70.042C362.443 70.414 362.197 70.9 362.197 71.5C362.197 71.896 362.323 72.232 362.575 72.508C362.839 72.772 363.181 73.006 363.601 73.21C364.033 73.414 364.519 73.6 365.059 73.768C365.599 73.924 366.145 74.098 366.697 74.29C367.261 74.482 367.813 74.704 368.353 74.956C368.893 75.196 369.373 75.508 369.793 75.892C370.225 76.264 370.567 76.714 370.819 77.242C371.083 77.77 371.215 78.406 371.215 79.15C371.215 80.038 371.053 80.86 370.729 81.616C370.417 82.36 369.949 83.008 369.325 83.56C368.701 84.1 367.927 84.526 367.003 84.838C366.091 85.138 365.035 85.288 363.835 85.288C363.199 85.288 362.575 85.228 361.963 85.108C361.363 85 360.781 84.844 360.217 84.64C359.665 84.436 359.149 84.196 358.669 83.92C358.201 83.644 357.787 83.344 357.427 83.02L358.453 81.328C358.585 81.124 358.741 80.968 358.921 80.86C359.101 80.752 359.329 80.698 359.605 80.698C359.881 80.698 360.139 80.776 360.379 80.932C360.631 81.088 360.919 81.256 361.243 81.436C361.567 81.616 361.945 81.784 362.377 81.94C362.821 82.096 363.379 82.174 364.051 82.174C364.579 82.174 365.029 82.114 365.401 81.994C365.785 81.862 366.097 81.694 366.337 81.49C366.589 81.286 366.769 81.052 366.877 80.788C366.997 80.512 367.057 80.23 367.057 79.942C367.057 79.51 366.925 79.156 366.661 78.88C366.409 78.604 366.067 78.364 365.635 78.16C365.215 77.956 364.729 77.776 364.177 77.62C363.637 77.452 363.079 77.272 362.503 77.08C361.939 76.888 361.381 76.666 360.829 76.414C360.289 76.15 359.803 75.82 359.371 75.424C358.951 75.028 358.609 74.542 358.345 73.966C358.093 73.39 357.967 72.694 357.967 71.878C357.967 71.122 358.117 70.402 358.417 69.718C358.717 69.034 359.155 68.44 359.731 67.936C360.319 67.42 361.045 67.012 361.909 66.712C362.785 66.4 363.793 66.244 364.933 66.244C366.205 66.244 367.363 66.454 368.407 66.874C369.451 67.294 370.321 67.846 371.017 68.53L370.009 70.132ZM382.733 66.244C384.101 66.244 385.343 66.466 386.459 66.91C387.587 67.354 388.547 67.984 389.339 68.8C390.143 69.616 390.761 70.612 391.193 71.788C391.625 72.964 391.841 74.278 391.841 75.73C391.841 77.194 391.625 78.514 391.193 79.69C390.761 80.866 390.143 81.868 389.339 82.696C388.547 83.524 387.587 84.16 386.459 84.604C385.343 85.048 384.101 85.27 382.733 85.27C381.353 85.27 380.099 85.048 378.971 84.604C377.843 84.16 376.877 83.524 376.073 82.696C375.281 81.868 374.663 80.866 374.219 79.69C373.787 78.514 373.571 77.194 373.571 75.73C373.571 74.278 373.787 72.964 374.219 71.788C374.663 70.612 375.281 69.616 376.073 68.8C376.877 67.984 377.843 67.354 378.971 66.91C380.099 66.466 381.353 66.244 382.733 66.244ZM382.733 81.85C384.269 81.85 385.403 81.334 386.135 80.302C386.879 79.27 387.251 77.758 387.251 75.766C387.251 73.774 386.879 72.256 386.135 71.212C385.403 70.168 384.269 69.646 382.733 69.646C381.173 69.646 380.015 70.174 379.259 71.23C378.515 72.274 378.143 73.786 378.143 75.766C378.143 77.746 378.515 79.258 379.259 80.302C380.015 81.334 381.173 81.85 382.733 81.85ZM399.391 68.8C399.763 68.428 400.153 68.086 400.561 67.774C400.981 67.45 401.419 67.18 401.875 66.964C402.343 66.736 402.841 66.562 403.369 66.442C403.897 66.31 404.473 66.244 405.097 66.244C406.105 66.244 406.999 66.418 407.779 66.766C408.559 67.102 409.207 67.582 409.723 68.206C410.251 68.818 410.647 69.556 410.911 70.42C411.187 71.272 411.325 72.214 411.325 73.246V85H406.879V73.246C406.879 72.118 406.621 71.248 406.105 70.636C405.589 70.012 404.803 69.7 403.747 69.7C402.979 69.7 402.259 69.874 401.587 70.222C400.915 70.57 400.279 71.044 399.679 71.644V85H395.233V66.532H397.951C398.527 66.532 398.905 66.802 399.085 67.342L399.391 68.8Z" fill="black"/>
<rect x="9" width="415" height="46" fill="black"/>
<path d="M49.1847 10.2L45.6247 39H41.1047L42.6847 26.12H29.6647L28.0647 39H23.5447L27.0847 10.2H31.6247L30.0647 22.88H43.0847L44.6447 10.2H49.1847ZM59.7194 13.86L58.6394 22.72H68.2594L67.7994 26.24H58.1994L57.0794 35.34H69.1794L68.7194 39H52.0994L55.6394 10.2H72.2394L71.7794 13.86H59.7194ZM89.0238 28.24L86.7438 17.46C86.6771 17.0467 86.5904 16.5733 86.4838 16.04C86.3904 15.5067 86.2971 14.92 86.2038 14.28C85.9771 14.92 85.7504 15.5133 85.5238 16.06C85.2971 16.5933 85.0904 17.0733 84.9038 17.5L79.9838 28.24H89.0238ZM95.9438 39H92.4638C92.0638 39 91.7504 38.9067 91.5238 38.72C91.3104 38.52 91.1571 38.26 91.0638 37.94L89.7038 31.48H78.4838L75.5238 37.94C75.3904 38.22 75.1771 38.4667 74.8838 38.68C74.6038 38.8933 74.2771 39 73.9038 39H70.3837L84.4038 10.2H88.9838L95.9438 39ZM124.509 22.62C124.509 24.2333 124.335 25.76 123.989 27.2C123.642 28.6267 123.149 29.9467 122.509 31.16C121.869 32.3733 121.089 33.4667 120.169 34.44C119.262 35.4133 118.242 36.24 117.109 36.92C115.989 37.5867 114.762 38.1 113.429 38.46C112.109 38.82 110.715 39 109.249 39H99.2088L102.749 10.2H112.809C114.609 10.2 116.229 10.5067 117.669 11.12C119.122 11.7333 120.349 12.5933 121.349 13.7C122.362 14.7933 123.142 16.1 123.689 17.62C124.235 19.14 124.509 20.8067 124.509 22.62ZM119.889 22.74C119.889 21.38 119.715 20.1533 119.369 19.06C119.035 17.9533 118.542 17.0133 117.889 16.24C117.249 15.4667 116.462 14.8733 115.529 14.46C114.595 14.0467 113.542 13.84 112.369 13.84H106.849L104.169 35.36H109.689C111.209 35.36 112.595 35.0733 113.849 34.5C115.102 33.9133 116.175 33.08 117.069 32C117.962 30.9067 118.655 29.58 119.149 28.02C119.642 26.46 119.889 24.7 119.889 22.74ZM141.073 39H136.553L140.073 10.2H144.593L141.073 39ZM173.169 10.2L169.609 39H167.329C166.969 39 166.676 38.94 166.449 38.82C166.222 38.6867 166.009 38.4733 165.809 38.18L154.069 17.46C154.042 17.7667 154.016 18.06 153.989 18.34C153.976 18.6067 153.956 18.86 153.929 19.1L151.489 39H147.529L151.069 10.2H153.409C153.809 10.2 154.096 10.24 154.269 10.32C154.456 10.4 154.642 10.6067 154.829 10.94L166.609 31.66C166.649 30.9267 166.709 30.2733 166.789 29.7L169.189 10.2H173.169ZM205.215 13.96H197.055L193.975 39H189.495L192.555 13.96H184.355L184.795 10.2H205.695L205.215 13.96ZM231.646 10.2L228.086 39H223.566L225.146 26.12H212.126L210.526 39H206.006L209.546 10.2H214.086L212.526 22.88H225.546L227.106 10.2H231.646ZM242.18 13.86L241.1 22.72H250.72L250.26 26.24H240.66L239.54 35.34H251.64L251.18 39H234.56L238.1 10.2H254.7L254.24 13.86H242.18ZM276.948 35.44C277.788 35.44 278.528 35.3733 279.168 35.24C279.821 35.1067 280.388 34.94 280.868 34.74C281.348 34.5267 281.755 34.3 282.088 34.06C282.435 33.82 282.735 33.6 282.988 33.4C283.241 33.1867 283.461 33.0133 283.648 32.88C283.835 32.7467 284.015 32.68 284.188 32.68C284.335 32.68 284.455 32.7133 284.548 32.78C284.641 32.8333 284.715 32.8933 284.768 32.96L286.348 34.94C285.108 36.3267 283.648 37.4067 281.968 38.18C280.288 38.94 278.361 39.32 276.188 39.32C274.441 39.32 272.881 39.0067 271.508 38.38C270.135 37.7533 268.975 36.8867 268.028 35.78C267.081 34.6733 266.355 33.3533 265.848 31.82C265.355 30.2867 265.108 28.6133 265.108 26.8C265.108 24.3067 265.501 22.0267 266.288 19.96C267.075 17.88 268.155 16.0933 269.528 14.6C270.901 13.1067 272.508 11.9467 274.348 11.12C276.201 10.2933 278.188 9.88 280.308 9.88C281.348 9.88 282.288 9.97333 283.128 10.16C283.981 10.3467 284.748 10.6133 285.428 10.96C286.121 11.2933 286.748 11.7 287.308 12.18C287.868 12.66 288.381 13.1933 288.848 13.78L287.308 15.66C287.188 15.8067 287.048 15.9333 286.888 16.04C286.728 16.1467 286.528 16.2 286.288 16.2C286.115 16.2 285.941 16.14 285.768 16.02C285.595 15.9 285.401 15.7533 285.188 15.58C284.975 15.3933 284.721 15.2 284.428 15C284.148 14.7867 283.808 14.5933 283.408 14.42C283.008 14.2333 282.535 14.08 281.988 13.96C281.455 13.84 280.821 13.78 280.088 13.78C278.621 13.78 277.255 14.08 275.988 14.68C274.721 15.2667 273.621 16.1067 272.688 17.2C271.768 18.2933 271.041 19.62 270.508 21.18C269.975 22.74 269.708 24.4867 269.708 26.42C269.708 27.82 269.888 29.08 270.248 30.2C270.608 31.32 271.108 32.2667 271.748 33.04C272.388 33.8133 273.148 34.4067 274.028 34.82C274.921 35.2333 275.895 35.44 276.948 35.44ZM305.811 35.22L305.351 39H289.951L293.491 10.2H297.991L294.911 35.22H305.811ZM334.823 22.62C334.823 24.22 334.649 25.7467 334.303 27.2C333.956 28.6533 333.456 30 332.803 31.24C332.163 32.4667 331.383 33.58 330.463 34.58C329.543 35.5667 328.516 36.4133 327.383 37.12C326.249 37.8133 325.023 38.3533 323.703 38.74C322.383 39.1133 320.989 39.3 319.523 39.3C317.723 39.3 316.096 38.98 314.643 38.34C313.203 37.7 311.976 36.82 310.963 35.7C309.963 34.5667 309.189 33.2267 308.643 31.68C308.109 30.1333 307.843 28.4467 307.843 26.62C307.843 25.0067 308.016 23.4733 308.363 22.02C308.723 20.5667 309.223 19.22 309.863 17.98C310.503 16.74 311.283 15.62 312.203 14.62C313.123 13.62 314.149 12.7733 315.283 12.08C316.416 11.3733 317.643 10.8333 318.963 10.46C320.283 10.0733 321.676 9.88 323.143 9.88C324.943 9.88 326.563 10.2 328.003 10.84C329.443 11.48 330.669 12.3733 331.683 13.52C332.696 14.6533 333.469 16 334.003 17.56C334.549 19.1067 334.823 20.7933 334.823 22.62ZM330.183 22.72C330.183 21.3467 330.009 20.1067 329.663 19C329.316 17.88 328.816 16.9267 328.163 16.14C327.509 15.34 326.709 14.7267 325.763 14.3C324.829 13.8733 323.776 13.66 322.603 13.66C321.096 13.66 319.716 13.9667 318.463 14.58C317.223 15.18 316.156 16.04 315.263 17.16C314.383 18.28 313.696 19.6333 313.203 21.22C312.709 22.7933 312.463 24.5467 312.463 26.48C312.463 27.8533 312.636 29.1 312.983 30.22C313.329 31.3267 313.823 32.28 314.463 33.08C315.116 33.8667 315.909 34.4733 316.843 34.9C317.776 35.3267 318.836 35.54 320.023 35.54C321.543 35.54 322.923 35.24 324.163 34.64C325.416 34.0267 326.489 33.1667 327.383 32.06C328.276 30.94 328.963 29.5933 329.443 28.02C329.936 26.4333 330.183 24.6667 330.183 22.72ZM348.723 35.38C349.723 35.38 350.637 35.1933 351.463 34.82C352.303 34.4333 353.037 33.9 353.663 33.22C354.303 32.5267 354.823 31.7067 355.223 30.76C355.623 29.8 355.897 28.7467 356.043 27.6L358.183 10.2H362.683L360.563 27.6C360.35 29.28 359.903 30.84 359.223 32.28C358.543 33.7067 357.67 34.9467 356.603 36C355.537 37.04 354.297 37.86 352.883 38.46C351.47 39.0467 349.923 39.34 348.243 39.34C346.563 39.34 345.09 39.0467 343.823 38.46C342.557 37.86 341.517 37.04 340.703 36C339.903 34.9467 339.337 33.7067 339.003 32.28C338.683 30.84 338.63 29.28 338.843 27.6L340.943 10.2H345.443L343.323 27.6C343.177 28.7467 343.19 29.8 343.363 30.76C343.537 31.7067 343.85 32.5267 344.303 33.22C344.77 33.9 345.37 34.4333 346.103 34.82C346.85 35.1933 347.723 35.38 348.723 35.38ZM390.603 22.62C390.603 24.2333 390.429 25.76 390.083 27.2C389.736 28.6267 389.243 29.9467 388.603 31.16C387.963 32.3733 387.183 33.4667 386.263 34.44C385.356 35.4133 384.336 36.24 383.203 36.92C382.083 37.5867 380.856 38.1 379.523 38.46C378.203 38.82 376.809 39 375.343 39H365.303L368.842 10.2H378.903C380.703 10.2 382.323 10.5067 383.762 11.12C385.216 11.7333 386.443 12.5933 387.443 13.7C388.456 14.7933 389.236 16.1 389.783 17.62C390.329 19.14 390.603 20.8067 390.603 22.62ZM385.983 22.74C385.983 21.38 385.809 20.1533 385.463 19.06C385.129 17.9533 384.636 17.0133 383.983 16.24C383.343 15.4667 382.556 14.8733 381.623 14.46C380.689 14.0467 379.636 13.84 378.463 13.84H372.943L370.263 35.36H375.783C377.303 35.36 378.689 35.0733 379.943 34.5C381.196 33.9133 382.269 33.08 383.163 32C384.056 30.9067 384.749 29.58 385.243 28.02C385.736 26.46 385.983 24.7 385.983 22.74ZM410.427 15.06C410.253 15.2867 410.087 15.46 409.927 15.58C409.767 15.6867 409.573 15.74 409.347 15.74C409.107 15.74 408.847 15.6333 408.567 15.42C408.3 15.1933 407.973 14.9467 407.587 14.68C407.2 14.4133 406.733 14.1733 406.187 13.96C405.64 13.7333 404.973 13.62 404.187 13.62C403.4 13.62 402.7 13.74 402.087 13.98C401.473 14.22 400.953 14.5467 400.527 14.96C400.113 15.36 399.8 15.84 399.587 16.4C399.373 16.9467 399.267 17.54 399.267 18.18C399.267 18.8333 399.42 19.38 399.727 19.82C400.047 20.2467 400.467 20.62 400.987 20.94C401.507 21.26 402.093 21.5467 402.747 21.8C403.4 22.0533 404.073 22.3133 404.767 22.58C405.46 22.8467 406.133 23.1533 406.787 23.5C407.44 23.8333 408.027 24.2533 408.547 24.76C409.067 25.2533 409.48 25.8533 409.787 26.56C410.107 27.2667 410.267 28.12 410.267 29.12C410.267 30.5067 410.027 31.82 409.547 33.06C409.067 34.3 408.38 35.3867 407.487 36.32C406.607 37.24 405.527 37.9733 404.247 38.52C402.98 39.0533 401.553 39.32 399.967 39.32C399.127 39.32 398.307 39.2267 397.507 39.04C396.72 38.8667 395.98 38.62 395.287 38.3C394.593 37.9667 393.953 37.5667 393.367 37.1C392.78 36.6333 392.267 36.1133 391.827 35.54L393.407 33.38C393.54 33.22 393.7 33.0867 393.887 32.98C394.087 32.86 394.293 32.8 394.507 32.8C394.8 32.8 395.1 32.9467 395.407 33.24C395.713 33.52 396.087 33.84 396.527 34.2C396.98 34.5467 397.527 34.8667 398.167 35.16C398.807 35.44 399.6 35.58 400.547 35.58C401.373 35.58 402.12 35.4533 402.787 35.2C403.453 34.9467 404.013 34.5933 404.467 34.14C404.933 33.6733 405.287 33.1133 405.527 32.46C405.78 31.7933 405.907 31.06 405.907 30.26C405.907 29.5667 405.747 28.9933 405.427 28.54C405.12 28.0867 404.707 27.7 404.187 27.38C403.68 27.06 403.1 26.7867 402.447 26.56C401.793 26.3333 401.127 26.0933 400.447 25.84C399.767 25.5867 399.1 25.3 398.447 24.98C397.793 24.6467 397.207 24.2333 396.687 23.74C396.18 23.2333 395.767 22.6133 395.447 21.88C395.14 21.1333 394.987 20.2267 394.987 19.16C394.987 17.9467 395.207 16.7867 395.647 15.68C396.087 14.56 396.72 13.5733 397.547 12.72C398.387 11.8667 399.4 11.1867 400.587 10.68C401.773 10.16 403.113 9.9 404.607 9.9C405.367 9.9 406.093 9.98 406.787 10.14C407.48 10.2867 408.133 10.5067 408.747 10.8C409.36 11.08 409.913 11.42 410.407 11.82C410.913 12.22 411.36 12.66 411.747 13.14L410.427 15.06Z" fill="white"/>
</svg>
