<svg width="619" height="82" viewBox="0 0 619 82" fill="none" xmlns="http://www.w3.org/2000/svg">
<g clip-path="url(#clip0)">
<rect x="2" y="2" width="250" height="84" fill="#238BDE"/>
<path d="M31.5394 35.8463C31.3644 36.1263 31.1777 36.3363 30.9794 36.4763C30.7927 36.6163 30.5477 36.6863 30.2444 36.6863C29.976 36.6863 29.6844 36.6047 29.3694 36.4413C29.066 36.2663 28.716 36.0738 28.3194 35.8638C27.9344 35.6538 27.491 35.4672 26.9894 35.3038C26.4877 35.1288 25.916 35.0413 25.2744 35.0413C24.166 35.0413 23.3377 35.2805 22.7894 35.7588C22.2527 36.2255 21.9844 36.8613 21.9844 37.6663C21.9844 38.1797 22.1477 38.6055 22.4744 38.9438C22.801 39.2822 23.2269 39.5738 23.7519 39.8188C24.2885 40.0638 24.8952 40.2913 25.5719 40.5013C26.2602 40.6997 26.9602 40.9272 27.6719 41.1838C28.3835 41.4288 29.0777 41.7205 29.7544 42.0588C30.4427 42.3972 31.0494 42.8288 31.5744 43.3538C32.111 43.8788 32.5427 44.5205 32.8694 45.2788C33.196 46.0255 33.3594 46.9297 33.3594 47.9913C33.3594 49.1697 33.1552 50.2722 32.7469 51.2988C32.3385 52.3255 31.7435 53.2238 30.9619 53.9938C30.1919 54.7522 29.2352 55.353 28.0919 55.7963C26.9602 56.228 25.671 56.4438 24.2244 56.4438C23.431 56.4438 22.6202 56.3622 21.7919 56.1988C20.9752 56.0355 20.1819 55.808 19.4119 55.5163C18.6419 55.213 17.9185 54.8572 17.2419 54.4488C16.5652 54.0405 15.976 53.5855 15.4744 53.0838L17.2244 50.3188C17.3644 50.1205 17.5452 49.9572 17.7669 49.8288C18.0002 49.6888 18.251 49.6188 18.5194 49.6188C18.8694 49.6188 19.2194 49.7297 19.5694 49.9513C19.931 50.173 20.3335 50.418 20.7769 50.6863C21.2319 50.9547 21.751 51.1997 22.3344 51.4213C22.9177 51.643 23.606 51.7538 24.3994 51.7538C25.4727 51.7538 26.3069 51.5205 26.9019 51.0538C27.4969 50.5755 27.7944 49.823 27.7944 48.7963C27.7944 48.2013 27.631 47.7172 27.3044 47.3438C26.9777 46.9705 26.546 46.6613 26.0094 46.4163C25.4844 46.1713 24.8835 45.9555 24.2069 45.7688C23.5302 45.5822 22.836 45.378 22.1244 45.1563C21.4127 44.923 20.7185 44.643 20.0419 44.3163C19.3652 43.978 18.7585 43.5405 18.2219 43.0038C17.6969 42.4555 17.271 41.7788 16.9444 40.9738C16.6177 40.1572 16.4544 39.1538 16.4544 37.9638C16.4544 37.0072 16.6469 36.0738 17.0319 35.1638C17.4169 34.2538 17.9827 33.443 18.7294 32.7313C19.476 32.0196 20.3919 31.4538 21.4769 31.0338C22.5619 30.6022 23.8044 30.3863 25.2044 30.3863C25.986 30.3863 26.7444 30.4505 27.4794 30.5788C28.226 30.6955 28.9319 30.8763 29.5969 31.1213C30.2619 31.3547 30.8802 31.6405 31.4519 31.9788C32.0352 32.3055 32.5544 32.6788 33.0094 33.0988L31.5394 35.8463ZM49.7257 46.4163L47.3632 39.4338C47.1882 38.9905 47.0015 38.4713 46.8032 37.8763C46.6049 37.2697 46.4065 36.6163 46.2082 35.9163C46.0332 36.628 45.8465 37.2872 45.6482 37.8938C45.4499 38.5005 45.2632 39.0255 45.0882 39.4688L42.7432 46.4163H49.7257ZM59.1232 56.1638H54.5382C54.0249 56.1638 53.6107 56.0472 53.2957 55.8138C52.9807 55.5688 52.7415 55.2597 52.5782 54.8863L51.0732 50.4413H41.3782L39.8732 54.8863C39.7449 55.213 39.5115 55.5105 39.1732 55.7788C38.8465 56.0355 38.4382 56.1638 37.9482 56.1638H33.3282L43.1982 30.6663H49.2532L59.1232 56.1638ZM76.9609 35.3563H69.7859V56.1638H63.8709V35.3563H56.6959V30.6663H76.9609V35.3563ZM90.6065 51.4913C91.3999 51.4913 92.1057 51.363 92.724 51.1063C93.354 50.838 93.8849 50.4588 94.3165 49.9688C94.7482 49.4788 95.0749 48.8838 95.2965 48.1838C95.5299 47.4722 95.6465 46.6672 95.6465 45.7688V30.6663H101.562V45.7688C101.562 47.3322 101.305 48.7672 100.792 50.0738C100.29 51.3805 99.5665 52.5063 98.6215 53.4513C97.6765 54.3963 96.5274 55.1313 95.174 55.6563C93.8207 56.1813 92.2982 56.4438 90.6065 56.4438C88.9032 56.4438 87.3749 56.1813 86.0215 55.6563C84.6682 55.1313 83.519 54.3963 82.574 53.4513C81.629 52.5063 80.9057 51.3805 80.404 50.0738C79.9024 48.7672 79.6515 47.3322 79.6515 45.7688V30.6663H85.5665V45.7513C85.5665 46.6497 85.6774 47.4547 85.899 48.1663C86.1324 48.8663 86.4649 49.4672 86.8965 49.9688C87.3282 50.4588 87.8532 50.838 88.4715 51.1063C89.1015 51.363 89.8132 51.4913 90.6065 51.4913ZM114.477 42.6538C115.282 42.6538 115.965 42.5547 116.525 42.3563C117.097 42.1463 117.563 41.8605 117.925 41.4988C118.287 41.1372 118.549 40.7172 118.712 40.2388C118.876 39.7488 118.957 39.2238 118.957 38.6638C118.957 37.5438 118.59 36.6688 117.855 36.0388C117.132 35.4088 116.006 35.0938 114.477 35.0938H112.097V42.6538H114.477ZM127.042 56.1638H121.687C120.696 56.1638 119.984 55.7905 119.552 55.0438L115.317 47.6413C115.119 47.3263 114.897 47.0988 114.652 46.9588C114.407 46.8072 114.057 46.7313 113.602 46.7313H112.097V56.1638H106.182V30.6663H114.477C116.321 30.6663 117.89 30.8588 119.185 31.2438C120.492 31.6172 121.553 32.1422 122.37 32.8188C123.198 33.4955 123.799 34.2947 124.172 35.2163C124.546 36.138 124.732 37.1413 124.732 38.2263C124.732 39.0547 124.622 39.8363 124.4 40.5713C124.178 41.3063 123.852 41.9888 123.42 42.6188C122.988 43.2372 122.452 43.7913 121.81 44.2813C121.18 44.7713 120.451 45.1738 119.622 45.4888C120.007 45.6872 120.369 45.938 120.707 46.2413C121.046 46.533 121.349 46.883 121.617 47.2913L127.042 56.1638ZM142.66 46.4163L140.298 39.4338C140.123 38.9905 139.936 38.4713 139.738 37.8763C139.539 37.2697 139.341 36.6163 139.143 35.9163C138.968 36.628 138.781 37.2872 138.583 37.8938C138.384 38.5005 138.198 39.0255 138.023 39.4688L135.678 46.4163H142.66ZM152.058 56.1638H147.473C146.959 56.1638 146.545 56.0472 146.23 55.8138C145.915 55.5688 145.676 55.2597 145.513 54.8863L144.008 50.4413H134.313L132.808 54.8863C132.679 55.213 132.446 55.5105 132.108 55.7788C131.781 56.0355 131.373 56.1638 130.883 56.1638H126.263L136.133 30.6663H142.188L152.058 56.1638ZM169.895 35.3563H162.72V56.1638H156.805V35.3563H149.63V30.6663H169.895V35.3563ZM178.851 56.1638H172.901V30.6663H178.851V56.1638ZM208.795 43.4063C208.795 45.2497 208.474 46.9647 207.833 48.5513C207.203 50.138 206.31 51.5205 205.155 52.6988C204 53.8655 202.606 54.7813 200.973 55.4463C199.351 56.1113 197.549 56.4438 195.565 56.4438C193.582 56.4438 191.774 56.1113 190.14 55.4463C188.507 54.7813 187.107 53.8655 185.94 52.6988C184.785 51.5205 183.887 50.138 183.245 48.5513C182.615 46.9647 182.3 45.2497 182.3 43.4063C182.3 41.563 182.615 39.848 183.245 38.2613C183.887 36.6747 184.785 35.298 185.94 34.1313C187.107 32.9647 188.507 32.0488 190.14 31.3838C191.774 30.7188 193.582 30.3863 195.565 30.3863C197.549 30.3863 199.351 30.7247 200.973 31.4013C202.606 32.0663 204 32.9822 205.155 34.1488C206.31 35.3155 207.203 36.6921 207.833 38.2788C208.474 39.8655 208.795 41.5747 208.795 43.4063ZM202.74 43.4063C202.74 42.1463 202.577 41.0147 202.25 40.0113C201.924 38.9963 201.451 38.1388 200.833 37.4388C200.226 36.7388 199.479 36.2022 198.593 35.8288C197.706 35.4555 196.697 35.2688 195.565 35.2688C194.422 35.2688 193.401 35.4555 192.503 35.8288C191.616 36.2022 190.864 36.7388 190.245 37.4388C189.639 38.1388 189.172 38.9963 188.845 40.0113C188.519 41.0147 188.355 42.1463 188.355 43.4063C188.355 44.678 188.519 45.8213 188.845 46.8363C189.172 47.8397 189.639 48.6913 190.245 49.3913C190.864 50.0913 191.616 50.628 192.503 51.0013C193.401 51.363 194.422 51.5438 195.565 51.5438C196.697 51.5438 197.706 51.363 198.593 51.0013C199.479 50.628 200.226 50.0913 200.833 49.3913C201.451 48.6913 201.924 47.8397 202.25 46.8363C202.577 45.8213 202.74 44.678 202.74 43.4063ZM234.536 30.6663V56.1638H231.456C231.001 56.1638 230.616 56.0938 230.301 55.9538C229.998 55.8022 229.694 55.5455 229.391 55.1838L217.369 39.9763C217.415 40.4313 217.444 40.8747 217.456 41.3063C217.479 41.7263 217.491 42.123 217.491 42.4963V56.1638H212.276V30.6663H215.391C215.648 30.6663 215.864 30.678 216.039 30.7013C216.214 30.7247 216.371 30.7713 216.511 30.8413C216.651 30.8997 216.785 30.9872 216.914 31.1038C217.042 31.2205 217.188 31.378 217.351 31.5763L229.479 46.8888C229.42 46.3988 229.379 45.9263 229.356 45.4713C229.333 45.0047 229.321 44.5672 229.321 44.1588V30.6663H234.536Z" fill="#F2D775"/>
<path d="M32.7159 33.6825C32.5409 33.9625 32.3542 34.1725 32.1559 34.3125C31.9692 34.4525 31.7242 34.5225 31.4209 34.5225C31.1526 34.5225 30.8609 34.4408 30.5459 34.2775C30.2426 34.1025 29.8926 33.91 29.4959 33.7C29.1109 33.49 28.6676 33.3033 28.1659 33.14C27.6642 32.965 27.0926 32.8775 26.4509 32.8775C25.3426 32.8775 24.5142 33.1167 23.9659 33.595C23.4292 34.0617 23.1609 34.6975 23.1609 35.5025C23.1609 36.0158 23.3242 36.4417 23.6509 36.78C23.9776 37.1183 24.4034 37.41 24.9284 37.655C25.4651 37.9 26.0717 38.1275 26.7484 38.3375C27.4367 38.5358 28.1367 38.7633 28.8484 39.02C29.5601 39.265 30.2542 39.5567 30.9309 39.895C31.6192 40.2333 32.2259 40.665 32.7509 41.19C33.2876 41.715 33.7192 42.3567 34.0459 43.115C34.3726 43.8617 34.5359 44.7658 34.5359 45.8275C34.5359 47.0058 34.3317 48.1083 33.9234 49.135C33.5151 50.1617 32.9201 51.06 32.1384 51.83C31.3684 52.5883 30.4117 53.1892 29.2684 53.6325C28.1367 54.0642 26.8476 54.28 25.4009 54.28C24.6076 54.28 23.7967 54.1983 22.9684 54.035C22.1517 53.8717 21.3584 53.6442 20.5884 53.3525C19.8184 53.0492 19.0951 52.6933 18.4184 52.285C17.7417 51.8767 17.1526 51.4217 16.6509 50.92L18.4009 48.155C18.5409 47.9567 18.7217 47.7933 18.9434 47.665C19.1767 47.525 19.4276 47.455 19.6959 47.455C20.0459 47.455 20.3959 47.5658 20.7459 47.7875C21.1076 48.0092 21.5101 48.2542 21.9534 48.5225C22.4084 48.7908 22.9276 49.0358 23.5109 49.2575C24.0942 49.4792 24.7826 49.59 25.5759 49.59C26.6492 49.59 27.4834 49.3567 28.0784 48.89C28.6734 48.4117 28.9709 47.6592 28.9709 46.6325C28.9709 46.0375 28.8076 45.5533 28.4809 45.18C28.1542 44.8067 27.7226 44.4975 27.1859 44.2525C26.6609 44.0075 26.0601 43.7917 25.3834 43.605C24.7067 43.4183 24.0126 43.2142 23.3009 42.9925C22.5892 42.7592 21.8951 42.4792 21.2184 42.1525C20.5417 41.8142 19.9351 41.3767 19.3984 40.84C18.8734 40.2917 18.4476 39.615 18.1209 38.81C17.7942 37.9933 17.6309 36.99 17.6309 35.8C17.6309 34.8433 17.8234 33.91 18.2084 33C18.5934 32.09 19.1592 31.2792 19.9059 30.5675C20.6526 29.8558 21.5684 29.29 22.6534 28.87C23.7384 28.4383 24.9809 28.2225 26.3809 28.2225C27.1626 28.2225 27.9209 28.2867 28.6559 28.415C29.4026 28.5317 30.1084 28.7125 30.7734 28.9575C31.4384 29.1908 32.0567 29.4767 32.6284 29.815C33.2117 30.1417 33.7309 30.515 34.1859 30.935L32.7159 33.6825ZM50.9022 44.2525L48.5397 37.27C48.3647 36.8267 48.1781 36.3075 47.9797 35.7125C47.7814 35.1058 47.5831 34.4525 47.3847 33.7525C47.2097 34.4642 47.0231 35.1233 46.8247 35.73C46.6264 36.3367 46.4397 36.8617 46.2647 37.305L43.9197 44.2525H50.9022ZM60.2997 54H55.7147C55.2014 54 54.7872 53.8833 54.4722 53.65C54.1572 53.405 53.9181 53.0958 53.7547 52.7225L52.2497 48.2775H42.5547L41.0497 52.7225C40.9214 53.0492 40.6881 53.3467 40.3497 53.615C40.0231 53.8717 39.6147 54 39.1247 54H34.5047L44.3747 28.5025H50.4297L60.2997 54ZM78.1374 33.1925H70.9624V54H65.0474V33.1925H57.8724V28.5025H78.1374V33.1925ZM91.783 49.3275C92.5764 49.3275 93.2822 49.1992 93.9005 48.9425C94.5305 48.6742 95.0614 48.295 95.493 47.805C95.9247 47.315 96.2514 46.72 96.473 46.02C96.7064 45.3083 96.823 44.5033 96.823 43.605V28.5025H102.738V43.605C102.738 45.1683 102.481 46.6033 101.968 47.91C101.466 49.2167 100.743 50.3425 99.798 51.2875C98.853 52.2325 97.7039 52.9675 96.3505 53.4925C94.9972 54.0175 93.4747 54.28 91.783 54.28C90.0797 54.28 88.5514 54.0175 87.198 53.4925C85.8447 52.9675 84.6955 52.2325 83.7505 51.2875C82.8055 50.3425 82.0822 49.2167 81.5805 47.91C81.0789 46.6033 80.828 45.1683 80.828 43.605V28.5025H86.743V43.5875C86.743 44.4858 86.8539 45.2908 87.0755 46.0025C87.3089 46.7025 87.6414 47.3033 88.073 47.805C88.5047 48.295 89.0297 48.6742 89.648 48.9425C90.278 49.1992 90.9897 49.3275 91.783 49.3275ZM115.654 40.49C116.459 40.49 117.141 40.3908 117.701 40.1925C118.273 39.9825 118.74 39.6967 119.101 39.335C119.463 38.9733 119.726 38.5533 119.889 38.075C120.052 37.585 120.134 37.06 120.134 36.5C120.134 35.38 119.766 34.505 119.031 33.875C118.308 33.245 117.182 32.93 115.654 32.93H113.274V40.49H115.654ZM128.219 54H122.864C121.872 54 121.161 53.6267 120.729 52.88L116.494 45.4775C116.296 45.1625 116.074 44.935 115.829 44.795C115.584 44.6433 115.234 44.5675 114.779 44.5675H113.274V54H107.359V28.5025H115.654C117.497 28.5025 119.066 28.695 120.361 29.08C121.668 29.4533 122.73 29.9783 123.546 30.655C124.375 31.3317 124.976 32.1308 125.349 33.0525C125.722 33.9742 125.909 34.9775 125.909 36.0625C125.909 36.8908 125.798 37.6725 125.576 38.4075C125.355 39.1425 125.028 39.825 124.596 40.455C124.165 41.0733 123.628 41.6275 122.986 42.1175C122.356 42.6075 121.627 43.01 120.799 43.325C121.184 43.5233 121.546 43.7742 121.884 44.0775C122.222 44.3692 122.526 44.7192 122.794 45.1275L128.219 54ZM143.837 44.2525L141.474 37.27C141.299 36.8267 141.113 36.3075 140.914 35.7125C140.716 35.1058 140.518 34.4525 140.319 33.7525C140.144 34.4642 139.958 35.1233 139.759 35.73C139.561 36.3367 139.374 36.8617 139.199 37.305L136.854 44.2525H143.837ZM153.234 54H148.649C148.136 54 147.722 53.8833 147.407 53.65C147.092 53.405 146.853 53.0958 146.689 52.7225L145.184 48.2775H135.489L133.984 52.7225C133.856 53.0492 133.623 53.3467 133.284 53.615C132.958 53.8717 132.549 54 132.059 54H127.439L137.309 28.5025H143.364L153.234 54ZM171.072 33.1925H163.897V54H157.982V33.1925H150.807V28.5025H171.072V33.1925ZM180.028 54H174.078V28.5025H180.028V54ZM209.972 41.2425C209.972 43.0858 209.651 44.8008 209.009 46.3875C208.379 47.9742 207.487 49.3567 206.332 50.535C205.177 51.7017 203.783 52.6175 202.149 53.2825C200.528 53.9475 198.725 54.28 196.742 54.28C194.758 54.28 192.95 53.9475 191.317 53.2825C189.683 52.6175 188.283 51.7017 187.117 50.535C185.962 49.3567 185.063 47.9742 184.422 46.3875C183.792 44.8008 183.477 43.0858 183.477 41.2425C183.477 39.3992 183.792 37.6842 184.422 36.0975C185.063 34.5108 185.962 33.1342 187.117 31.9675C188.283 30.8008 189.683 29.885 191.317 29.22C192.95 28.555 194.758 28.2225 196.742 28.2225C198.725 28.2225 200.528 28.5608 202.149 29.2375C203.783 29.9025 205.177 30.8183 206.332 31.985C207.487 33.1517 208.379 34.5283 209.009 36.115C209.651 37.7017 209.972 39.4108 209.972 41.2425ZM203.917 41.2425C203.917 39.9825 203.753 38.8508 203.427 37.8475C203.1 36.8325 202.628 35.975 202.009 35.275C201.403 34.575 200.656 34.0383 199.769 33.665C198.883 33.2917 197.873 33.105 196.742 33.105C195.598 33.105 194.578 33.2917 193.679 33.665C192.793 34.0383 192.04 34.575 191.422 35.275C190.815 35.975 190.348 36.8325 190.022 37.8475C189.695 38.8508 189.532 39.9825 189.532 41.2425C189.532 42.5142 189.695 43.6575 190.022 44.6725C190.348 45.6758 190.815 46.5275 191.422 47.2275C192.04 47.9275 192.793 48.4642 193.679 48.8375C194.578 49.1992 195.598 49.38 196.742 49.38C197.873 49.38 198.883 49.1992 199.769 48.8375C200.656 48.4642 201.403 47.9275 202.009 47.2275C202.628 46.5275 203.1 45.6758 203.427 44.6725C203.753 43.6575 203.917 42.5142 203.917 41.2425ZM235.713 28.5025V54H232.633C232.178 54 231.793 53.93 231.478 53.79C231.174 53.6383 230.871 53.3817 230.568 53.02L218.545 37.8125C218.592 38.2675 218.621 38.7108 218.633 39.1425C218.656 39.5625 218.668 39.9592 218.668 40.3325V54H213.453V28.5025H216.568C216.824 28.5025 217.04 28.5142 217.215 28.5375C217.39 28.5608 217.548 28.6075 217.688 28.6775C217.828 28.7358 217.962 28.8233 218.09 28.94C218.218 29.0567 218.364 29.2142 218.528 29.4125L230.655 44.725C230.597 44.235 230.556 43.7625 230.533 43.3075C230.509 42.8408 230.498 42.4033 230.498 41.995V28.5025H235.713Z" fill="black"/>
<rect x="252" y="2" width="371" height="84" fill="#84A3B1"/>
<path d="M317.23 43.49C318.035 43.49 318.717 43.3908 319.277 43.1925C319.849 42.9825 320.316 42.6967 320.677 42.335C321.039 41.9733 321.301 41.5533 321.465 41.075C321.628 40.585 321.71 40.06 321.71 39.5C321.71 38.38 321.342 37.505 320.607 36.875C319.884 36.245 318.758 35.93 317.23 35.93H314.85V43.49H317.23ZM329.795 57H324.44C323.448 57 322.736 56.6267 322.305 55.88L318.07 48.4775C317.871 48.1625 317.65 47.935 317.405 47.795C317.16 47.6433 316.81 47.5675 316.355 47.5675H314.85V57H308.935V31.5025H317.23C319.073 31.5025 320.642 31.695 321.937 32.08C323.244 32.4533 324.306 32.9783 325.122 33.655C325.951 34.3317 326.551 35.1308 326.925 36.0525C327.298 36.9742 327.485 37.9775 327.485 39.0625C327.485 39.8908 327.374 40.6725 327.152 41.4075C326.931 42.1425 326.604 42.825 326.172 43.455C325.741 44.0733 325.204 44.6275 324.562 45.1175C323.932 45.6075 323.203 46.01 322.375 46.325C322.76 46.5233 323.121 46.7742 323.46 47.0775C323.798 47.3692 324.101 47.7192 324.37 48.1275L329.795 57ZM337.888 36.0525V42.0025H345.903V46.3775H337.888V52.45H348.353V57H331.938V31.5025H348.353V36.0525H337.888ZM368.673 50.4025C368.813 50.4025 368.953 50.4317 369.093 50.49C369.233 50.5367 369.368 50.6242 369.496 50.7525L371.841 53.22C370.814 54.5617 369.525 55.5767 367.973 56.265C366.433 56.9417 364.608 57.28 362.496 57.28C360.559 57.28 358.821 56.9533 357.281 56.3C355.753 55.635 354.452 54.725 353.378 53.57C352.317 52.4033 351.5 51.0267 350.928 49.44C350.357 47.8417 350.071 46.1092 350.071 44.2425C350.071 42.3408 350.38 40.5967 350.998 39.01C351.617 37.4117 352.486 36.035 353.606 34.88C354.726 33.725 356.068 32.8267 357.631 32.185C359.194 31.5433 360.915 31.2225 362.793 31.2225C363.75 31.2225 364.648 31.31 365.488 31.485C366.34 31.6483 367.133 31.8817 367.868 32.185C368.603 32.4767 369.28 32.8325 369.898 33.2525C370.517 33.6725 371.065 34.1275 371.543 34.6175L369.548 37.295C369.42 37.4583 369.268 37.61 369.093 37.75C368.918 37.8783 368.673 37.9425 368.358 37.9425C368.148 37.9425 367.95 37.8958 367.763 37.8025C367.577 37.7092 367.378 37.5983 367.168 37.47C366.958 37.33 366.725 37.1842 366.468 37.0325C366.223 36.8692 365.926 36.7233 365.576 36.595C365.238 36.455 364.835 36.3383 364.368 36.245C363.913 36.1517 363.377 36.105 362.758 36.105C361.778 36.105 360.88 36.2858 360.063 36.6475C359.258 37.0092 358.558 37.54 357.963 38.24C357.38 38.9283 356.925 39.78 356.598 40.795C356.283 41.7983 356.126 42.9475 356.126 44.2425C356.126 45.5492 356.301 46.71 356.651 47.725C357.013 48.74 357.497 49.5975 358.103 50.2975C358.722 50.9858 359.439 51.5108 360.256 51.8725C361.073 52.2342 361.948 52.415 362.881 52.415C363.418 52.415 363.908 52.3917 364.351 52.345C364.794 52.2867 365.208 52.1992 365.593 52.0825C365.978 51.9542 366.34 51.7908 366.678 51.5925C367.017 51.3825 367.361 51.12 367.711 50.805C367.851 50.6883 368.003 50.595 368.166 50.525C368.329 50.4433 368.498 50.4025 368.673 50.4025ZM398.867 44.2425C398.867 46.0858 398.546 47.8008 397.905 49.3875C397.275 50.9742 396.382 52.3567 395.227 53.535C394.072 54.7017 392.678 55.6175 391.045 56.2825C389.423 56.9475 387.62 57.28 385.637 57.28C383.654 57.28 381.845 56.9475 380.212 56.2825C378.579 55.6175 377.179 54.7017 376.012 53.535C374.857 52.3567 373.959 50.9742 373.317 49.3875C372.687 47.8008 372.372 46.0858 372.372 44.2425C372.372 42.3992 372.687 40.6842 373.317 39.0975C373.959 37.5108 374.857 36.1342 376.012 34.9675C377.179 33.8008 378.579 32.885 380.212 32.22C381.845 31.555 383.654 31.2225 385.637 31.2225C387.62 31.2225 389.423 31.5608 391.045 32.2375C392.678 32.9025 394.072 33.8183 395.227 34.985C396.382 36.1517 397.275 37.5283 397.905 39.115C398.546 40.7017 398.867 42.4108 398.867 44.2425ZM392.812 44.2425C392.812 42.9825 392.649 41.8508 392.322 40.8475C391.995 39.8325 391.523 38.975 390.905 38.275C390.298 37.575 389.551 37.0383 388.665 36.665C387.778 36.2917 386.769 36.105 385.637 36.105C384.494 36.105 383.473 36.2917 382.575 36.665C381.688 37.0383 380.935 37.575 380.317 38.275C379.71 38.975 379.244 39.8325 378.917 40.8475C378.59 41.8508 378.427 42.9825 378.427 44.2425C378.427 45.5142 378.59 46.6575 378.917 47.6725C379.244 48.6758 379.71 49.5275 380.317 50.2275C380.935 50.9275 381.688 51.4642 382.575 51.8375C383.473 52.1992 384.494 52.38 385.637 52.38C386.769 52.38 387.778 52.1992 388.665 51.8375C389.551 51.4642 390.298 50.9275 390.905 50.2275C391.523 49.5275 391.995 48.6758 392.322 47.6725C392.649 46.6575 392.812 45.5142 392.812 44.2425ZM424.298 31.5025L414.078 57H408.723L398.503 31.5025H403.263C403.776 31.5025 404.19 31.625 404.505 31.87C404.82 32.1033 405.059 32.4067 405.223 32.78L410.158 46.43C410.391 47.025 410.618 47.6783 410.84 48.39C411.062 49.09 411.272 49.825 411.47 50.595C411.633 49.825 411.814 49.09 412.013 48.39C412.223 47.6783 412.444 47.025 412.678 46.43L417.578 32.78C417.706 32.4533 417.933 32.1617 418.26 31.905C418.598 31.6367 419.013 31.5025 419.503 31.5025H424.298ZM432.258 36.0525V42.0025H440.273V46.3775H432.258V52.45H442.723V57H426.308V31.5025H442.723V36.0525H432.258ZM454.666 43.49C455.471 43.49 456.154 43.3908 456.714 43.1925C457.285 42.9825 457.752 42.6967 458.114 42.335C458.475 41.9733 458.738 41.5533 458.901 41.075C459.065 40.585 459.146 40.06 459.146 39.5C459.146 38.38 458.779 37.505 458.044 36.875C457.32 36.245 456.195 35.93 454.666 35.93H452.286V43.49H454.666ZM467.231 57H461.876C460.885 57 460.173 56.6267 459.741 55.88L455.506 48.4775C455.308 48.1625 455.086 47.935 454.841 47.795C454.596 47.6433 454.246 47.5675 453.791 47.5675H452.286V57H446.371V31.5025H454.666C456.51 31.5025 458.079 31.695 459.374 32.08C460.68 32.4533 461.742 32.9783 462.559 33.655C463.387 34.3317 463.988 35.1308 464.361 36.0525C464.735 36.9742 464.921 37.9775 464.921 39.0625C464.921 39.8908 464.81 40.6725 464.589 41.4075C464.367 42.1425 464.04 42.825 463.609 43.455C463.177 44.0733 462.64 44.6275 461.999 45.1175C461.369 45.6075 460.64 46.01 459.811 46.325C460.196 46.5233 460.558 46.7742 460.896 47.0775C461.235 47.3692 461.538 47.7192 461.806 48.1275L467.231 57ZM480.222 47.305V57H474.307V47.305L465.067 31.5025H470.282C470.795 31.5025 471.198 31.625 471.49 31.87C471.793 32.1033 472.044 32.4067 472.242 32.78L475.847 40.2C476.15 40.7833 476.425 41.3317 476.67 41.845C476.915 42.3467 477.13 42.8425 477.317 43.3325C477.492 42.8308 477.69 42.3292 477.912 41.8275C478.145 41.3142 478.414 40.7717 478.717 40.2L482.287 32.78C482.369 32.6283 482.468 32.4767 482.585 32.325C482.701 32.1733 482.835 32.0392 482.987 31.9225C483.15 31.7942 483.331 31.695 483.53 31.625C483.74 31.5433 483.967 31.5025 484.212 31.5025H489.462L480.222 47.305ZM504.001 36.0525V42.0025H512.016V46.3775H504.001V52.45H514.466V57H498.051V31.5025H514.466V36.0525H504.001ZM526.409 43.49C527.214 43.49 527.897 43.3908 528.457 43.1925C529.029 42.9825 529.495 42.6967 529.857 42.335C530.219 41.9733 530.481 41.5533 530.644 41.075C530.808 40.585 530.889 40.06 530.889 39.5C530.889 38.38 530.522 37.505 529.787 36.875C529.064 36.245 527.938 35.93 526.409 35.93H524.029V43.49H526.409ZM538.974 57H533.619C532.628 57 531.916 56.6267 531.484 55.88L527.249 48.4775C527.051 48.1625 526.829 47.935 526.584 47.795C526.339 47.6433 525.989 47.5675 525.534 47.5675H524.029V57H518.114V31.5025H526.409C528.253 31.5025 529.822 31.695 531.117 32.08C532.424 32.4533 533.485 32.9783 534.302 33.655C535.13 34.3317 535.731 35.1308 536.104 36.0525C536.478 36.9742 536.664 37.9775 536.664 39.0625C536.664 39.8908 536.554 40.6725 536.332 41.4075C536.11 42.1425 535.784 42.825 535.352 43.455C534.92 44.0733 534.384 44.6275 533.742 45.1175C533.112 45.6075 532.383 46.01 531.554 46.325C531.939 46.5233 532.301 46.7742 532.639 47.0775C532.978 47.3692 533.281 47.7192 533.549 48.1275L538.974 57ZM554.592 47.2525L552.23 40.27C552.055 39.8267 551.868 39.3075 551.67 38.7125C551.472 38.1058 551.273 37.4525 551.075 36.7525C550.9 37.4642 550.713 38.1233 550.515 38.73C550.317 39.3367 550.13 39.8617 549.955 40.305L547.61 47.2525H554.592ZM563.99 57H559.405C558.892 57 558.477 56.8833 558.162 56.65C557.847 56.405 557.608 56.0958 557.445 55.7225L555.94 51.2775H546.245L544.74 55.7225C544.612 56.0492 544.378 56.3467 544.04 56.615C543.713 56.8717 543.305 57 542.815 57H538.195L548.065 31.5025H554.12L563.99 57Z" fill="#19CA1A"/>
<path d="M319.23 40.49C320.035 40.49 320.717 40.3908 321.277 40.1925C321.849 39.9825 322.316 39.6967 322.677 39.335C323.039 38.9733 323.301 38.5533 323.465 38.075C323.628 37.585 323.71 37.06 323.71 36.5C323.71 35.38 323.342 34.505 322.607 33.875C321.884 33.245 320.758 32.93 319.23 32.93H316.85V40.49H319.23ZM331.795 54H326.44C325.448 54 324.736 53.6267 324.305 52.88L320.07 45.4775C319.871 45.1625 319.65 44.935 319.405 44.795C319.16 44.6433 318.81 44.5675 318.355 44.5675H316.85V54H310.935V28.5025H319.23C321.073 28.5025 322.642 28.695 323.937 29.08C325.244 29.4533 326.306 29.9783 327.122 30.655C327.951 31.3317 328.551 32.1308 328.925 33.0525C329.298 33.9742 329.485 34.9775 329.485 36.0625C329.485 36.8908 329.374 37.6725 329.152 38.4075C328.931 39.1425 328.604 39.825 328.172 40.455C327.741 41.0733 327.204 41.6275 326.562 42.1175C325.932 42.6075 325.203 43.01 324.375 43.325C324.76 43.5233 325.121 43.7742 325.46 44.0775C325.798 44.3692 326.101 44.7192 326.37 45.1275L331.795 54ZM339.888 33.0525V39.0025H347.903V43.3775H339.888V49.45H350.353V54H333.938V28.5025H350.353V33.0525H339.888ZM370.673 47.4025C370.813 47.4025 370.953 47.4317 371.093 47.49C371.233 47.5367 371.368 47.6242 371.496 47.7525L373.841 50.22C372.814 51.5617 371.525 52.5767 369.973 53.265C368.433 53.9417 366.608 54.28 364.496 54.28C362.559 54.28 360.821 53.9533 359.281 53.3C357.753 52.635 356.452 51.725 355.378 50.57C354.317 49.4033 353.5 48.0267 352.928 46.44C352.357 44.8417 352.071 43.1092 352.071 41.2425C352.071 39.3408 352.38 37.5967 352.998 36.01C353.617 34.4117 354.486 33.035 355.606 31.88C356.726 30.725 358.068 29.8267 359.631 29.185C361.194 28.5433 362.915 28.2225 364.793 28.2225C365.75 28.2225 366.648 28.31 367.488 28.485C368.34 28.6483 369.133 28.8817 369.868 29.185C370.603 29.4767 371.28 29.8325 371.898 30.2525C372.517 30.6725 373.065 31.1275 373.543 31.6175L371.548 34.295C371.42 34.4583 371.268 34.61 371.093 34.75C370.918 34.8783 370.673 34.9425 370.358 34.9425C370.148 34.9425 369.95 34.8958 369.763 34.8025C369.577 34.7092 369.378 34.5983 369.168 34.47C368.958 34.33 368.725 34.1842 368.468 34.0325C368.223 33.8692 367.926 33.7233 367.576 33.595C367.238 33.455 366.835 33.3383 366.368 33.245C365.913 33.1517 365.377 33.105 364.758 33.105C363.778 33.105 362.88 33.2858 362.063 33.6475C361.258 34.0092 360.558 34.54 359.963 35.24C359.38 35.9283 358.925 36.78 358.598 37.795C358.283 38.7983 358.126 39.9475 358.126 41.2425C358.126 42.5492 358.301 43.71 358.651 44.725C359.013 45.74 359.497 46.5975 360.103 47.2975C360.722 47.9858 361.439 48.5108 362.256 48.8725C363.073 49.2342 363.948 49.415 364.881 49.415C365.418 49.415 365.908 49.3917 366.351 49.345C366.794 49.2867 367.208 49.1992 367.593 49.0825C367.978 48.9542 368.34 48.7908 368.678 48.5925C369.017 48.3825 369.361 48.12 369.711 47.805C369.851 47.6883 370.003 47.595 370.166 47.525C370.329 47.4433 370.498 47.4025 370.673 47.4025ZM400.867 41.2425C400.867 43.0858 400.546 44.8008 399.905 46.3875C399.275 47.9742 398.382 49.3567 397.227 50.535C396.072 51.7017 394.678 52.6175 393.045 53.2825C391.423 53.9475 389.62 54.28 387.637 54.28C385.654 54.28 383.845 53.9475 382.212 53.2825C380.579 52.6175 379.179 51.7017 378.012 50.535C376.857 49.3567 375.959 47.9742 375.317 46.3875C374.687 44.8008 374.372 43.0858 374.372 41.2425C374.372 39.3992 374.687 37.6842 375.317 36.0975C375.959 34.5108 376.857 33.1342 378.012 31.9675C379.179 30.8008 380.579 29.885 382.212 29.22C383.845 28.555 385.654 28.2225 387.637 28.2225C389.62 28.2225 391.423 28.5608 393.045 29.2375C394.678 29.9025 396.072 30.8183 397.227 31.985C398.382 33.1517 399.275 34.5283 399.905 36.115C400.546 37.7017 400.867 39.4108 400.867 41.2425ZM394.812 41.2425C394.812 39.9825 394.649 38.8508 394.322 37.8475C393.995 36.8325 393.523 35.975 392.905 35.275C392.298 34.575 391.551 34.0383 390.665 33.665C389.778 33.2917 388.769 33.105 387.637 33.105C386.494 33.105 385.473 33.2917 384.575 33.665C383.688 34.0383 382.935 34.575 382.317 35.275C381.71 35.975 381.244 36.8325 380.917 37.8475C380.59 38.8508 380.427 39.9825 380.427 41.2425C380.427 42.5142 380.59 43.6575 380.917 44.6725C381.244 45.6758 381.71 46.5275 382.317 47.2275C382.935 47.9275 383.688 48.4642 384.575 48.8375C385.473 49.1992 386.494 49.38 387.637 49.38C388.769 49.38 389.778 49.1992 390.665 48.8375C391.551 48.4642 392.298 47.9275 392.905 47.2275C393.523 46.5275 393.995 45.6758 394.322 44.6725C394.649 43.6575 394.812 42.5142 394.812 41.2425ZM426.298 28.5025L416.078 54H410.723L400.503 28.5025H405.263C405.776 28.5025 406.19 28.625 406.505 28.87C406.82 29.1033 407.059 29.4067 407.223 29.78L412.158 43.43C412.391 44.025 412.618 44.6783 412.84 45.39C413.062 46.09 413.272 46.825 413.47 47.595C413.633 46.825 413.814 46.09 414.013 45.39C414.223 44.6783 414.444 44.025 414.678 43.43L419.578 29.78C419.706 29.4533 419.933 29.1617 420.26 28.905C420.598 28.6367 421.013 28.5025 421.503 28.5025H426.298ZM434.258 33.0525V39.0025H442.273V43.3775H434.258V49.45H444.723V54H428.308V28.5025H444.723V33.0525H434.258ZM456.666 40.49C457.471 40.49 458.154 40.3908 458.714 40.1925C459.285 39.9825 459.752 39.6967 460.114 39.335C460.475 38.9733 460.738 38.5533 460.901 38.075C461.065 37.585 461.146 37.06 461.146 36.5C461.146 35.38 460.779 34.505 460.044 33.875C459.32 33.245 458.195 32.93 456.666 32.93H454.286V40.49H456.666ZM469.231 54H463.876C462.885 54 462.173 53.6267 461.741 52.88L457.506 45.4775C457.308 45.1625 457.086 44.935 456.841 44.795C456.596 44.6433 456.246 44.5675 455.791 44.5675H454.286V54H448.371V28.5025H456.666C458.51 28.5025 460.079 28.695 461.374 29.08C462.68 29.4533 463.742 29.9783 464.559 30.655C465.387 31.3317 465.988 32.1308 466.361 33.0525C466.735 33.9742 466.921 34.9775 466.921 36.0625C466.921 36.8908 466.81 37.6725 466.589 38.4075C466.367 39.1425 466.04 39.825 465.609 40.455C465.177 41.0733 464.64 41.6275 463.999 42.1175C463.369 42.6075 462.64 43.01 461.811 43.325C462.196 43.5233 462.558 43.7742 462.896 44.0775C463.235 44.3692 463.538 44.7192 463.806 45.1275L469.231 54ZM482.222 44.305V54H476.307V44.305L467.067 28.5025H472.282C472.795 28.5025 473.198 28.625 473.49 28.87C473.793 29.1033 474.044 29.4067 474.242 29.78L477.847 37.2C478.15 37.7833 478.425 38.3317 478.67 38.845C478.915 39.3467 479.13 39.8425 479.317 40.3325C479.492 39.8308 479.69 39.3292 479.912 38.8275C480.145 38.3142 480.414 37.7717 480.717 37.2L484.287 29.78C484.369 29.6283 484.468 29.4767 484.585 29.325C484.701 29.1733 484.835 29.0392 484.987 28.9225C485.15 28.7942 485.331 28.695 485.53 28.625C485.74 28.5433 485.967 28.5025 486.212 28.5025H491.462L482.222 44.305ZM506.001 33.0525V39.0025H514.016V43.3775H506.001V49.45H516.466V54H500.051V28.5025H516.466V33.0525H506.001ZM528.409 40.49C529.214 40.49 529.897 40.3908 530.457 40.1925C531.029 39.9825 531.495 39.6967 531.857 39.335C532.219 38.9733 532.481 38.5533 532.644 38.075C532.808 37.585 532.889 37.06 532.889 36.5C532.889 35.38 532.522 34.505 531.787 33.875C531.064 33.245 529.938 32.93 528.409 32.93H526.029V40.49H528.409ZM540.974 54H535.619C534.628 54 533.916 53.6267 533.484 52.88L529.249 45.4775C529.051 45.1625 528.829 44.935 528.584 44.795C528.339 44.6433 527.989 44.5675 527.534 44.5675H526.029V54H520.114V28.5025H528.409C530.253 28.5025 531.822 28.695 533.117 29.08C534.424 29.4533 535.485 29.9783 536.302 30.655C537.13 31.3317 537.731 32.1308 538.104 33.0525C538.478 33.9742 538.664 34.9775 538.664 36.0625C538.664 36.8908 538.554 37.6725 538.332 38.4075C538.11 39.1425 537.784 39.825 537.352 40.455C536.92 41.0733 536.384 41.6275 535.742 42.1175C535.112 42.6075 534.383 43.01 533.554 43.325C533.939 43.5233 534.301 43.7742 534.639 44.0775C534.978 44.3692 535.281 44.7192 535.549 45.1275L540.974 54ZM556.592 44.2525L554.23 37.27C554.055 36.8267 553.868 36.3075 553.67 35.7125C553.472 35.1058 553.273 34.4525 553.075 33.7525C552.9 34.4642 552.713 35.1233 552.515 35.73C552.317 36.3367 552.13 36.8617 551.955 37.305L549.61 44.2525H556.592ZM565.99 54H561.405C560.892 54 560.477 53.8833 560.162 53.65C559.847 53.405 559.608 53.0958 559.445 52.7225L557.94 48.2775H548.245L546.74 52.7225C546.612 53.0492 546.378 53.3467 546.04 53.615C545.713 53.8717 545.305 54 544.815 54H540.195L550.065 28.5025H556.12L565.99 54Z" fill="#E12D7B"/>
</g>
<defs>
<clipPath id="clip0">
</clipPath>
</defs>
</svg>
