<svg width="586" height="186" viewBox="0 0 586 186" fill="none" xmlns="http://www.w3.org/2000/svg">
<path d="M24.2969 47.0275C25.7855 47.0275 26.9964 46.8387 27.9295 46.4611C28.8849 46.0836 29.6292 45.595 30.1624 44.9954C30.6957 44.3957 31.0623 43.7183 31.2622 42.9632C31.4622 42.2081 31.5622 41.4419 31.5622 40.6646C31.5622 39.7762 31.44 38.9767 31.1956 38.266C30.9734 37.5554 30.5735 36.9557 29.9958 36.4671C29.4403 35.9785 28.696 35.601 27.7629 35.3345C26.8297 35.0679 25.6522 34.9347 24.2302 34.9347H16.365V47.0275H24.2969ZM16.365 15.413V27.4059H22.2306C23.4748 27.4059 24.5968 27.317 25.5966 27.1393C26.5964 26.9617 27.4407 26.6508 28.1295 26.2066C28.8405 25.7624 29.3737 25.1516 29.7292 24.3743C30.1069 23.597 30.2957 22.6198 30.2957 21.4428C30.2957 20.2879 30.1513 19.3329 29.8625 18.5778C29.5737 17.8005 29.1293 17.1786 28.5294 16.7122C27.9295 16.2459 27.163 15.9127 26.2298 15.7128C25.3189 15.513 24.2302 15.413 22.9638 15.413H16.365ZM22.9638 6.98472C26.3187 6.98472 29.1737 7.29565 31.5288 7.9175C33.8839 8.53935 35.8058 9.4166 37.2944 10.5493C38.783 11.6819 39.8606 13.0589 40.5271 14.6801C41.2159 16.3014 41.5603 18.1114 41.5603 20.1102C41.5603 21.1985 41.4047 22.2534 41.0937 23.275C40.7826 24.2744 40.2938 25.2183 39.6273 26.1066C38.9608 26.9728 38.1054 27.7723 37.0611 28.5052C36.0169 29.2381 34.7616 29.8711 33.2952 30.4041C36.4946 31.1814 38.8608 32.4362 40.3938 34.1685C41.9269 35.9008 42.6934 38.1439 42.6934 40.8978C42.6934 42.9632 42.2935 44.8843 41.4936 46.661C40.6938 48.4377 39.5162 49.9924 37.961 51.3249C36.4279 52.6352 34.5283 53.6679 32.262 54.4231C29.9958 55.1559 27.4074 55.5224 24.4968 55.5224H5.10046V6.98472H22.9638ZM65.5504 29.8044C67.0835 29.8044 68.3832 29.6156 69.4497 29.2381C70.5384 28.8383 71.4271 28.2942 72.1159 27.6057C72.8046 26.9173 73.3045 26.1177 73.6156 25.2072C73.9266 24.2744 74.0822 23.275 74.0822 22.209C74.0822 20.0769 73.3823 18.4112 71.9826 17.2119C70.605 16.0127 68.461 15.413 65.5504 15.413H61.018V29.8044H65.5504ZM89.4792 55.5224H79.2812C77.3926 55.5224 76.0373 54.8117 75.2153 53.3903L67.1501 39.2988C66.7724 38.6991 66.3503 38.266 65.8837 37.9995C65.4171 37.7108 64.7506 37.5665 63.8841 37.5665H61.018V55.5224H49.7534V6.98472H65.5504C69.0609 6.98472 72.0492 7.35117 74.5154 8.08406C77.0038 8.79475 79.0257 9.79415 80.5809 11.0823C82.1584 12.3704 83.3026 13.8917 84.0136 15.6462C84.7246 17.4007 85.0801 19.3107 85.0801 21.3761C85.0801 22.953 84.869 24.441 84.4469 25.8401C84.0247 27.2393 83.4026 28.5385 82.5805 29.7378C81.7585 30.9149 80.7364 31.9698 79.5145 32.9026C78.3147 33.8353 76.9261 34.6016 75.3486 35.2012C76.0818 35.5788 76.7705 36.0562 77.4149 36.6337C78.0592 37.1889 78.6368 37.8552 79.1479 38.6325L89.4792 55.5224ZM140.372 31.2369C140.372 34.7459 139.761 38.0106 138.539 41.031C137.339 44.0515 135.639 46.6832 133.44 48.9263C131.24 51.1472 128.585 52.8906 125.475 54.1565C122.386 55.4225 118.954 56.0554 115.176 56.0554C111.399 56.0554 107.956 55.4225 104.845 54.1565C101.735 52.8906 99.0684 51.1472 96.8466 48.9263C94.647 46.6832 92.9362 44.0515 91.7142 41.031C90.5145 38.0106 89.9146 34.7459 89.9146 31.2369C89.9146 27.7279 90.5145 24.4632 91.7142 21.4428C92.9362 18.4223 94.647 15.8017 96.8466 13.5808C99.0684 11.3599 101.735 9.61648 104.845 8.35057C107.956 7.08466 111.399 6.45171 115.176 6.45171C118.954 6.45171 122.386 7.09577 125.475 8.38389C128.585 9.6498 131.24 11.3932 133.44 13.6141C135.639 15.835 137.339 18.4556 138.539 21.4761C139.761 24.4965 140.372 27.7501 140.372 31.2369ZM128.841 31.2369C128.841 28.8383 128.529 26.6841 127.907 24.7741C127.285 22.8419 126.385 21.2096 125.208 19.877C124.053 18.5445 122.631 17.5229 120.942 16.8122C119.253 16.1015 117.332 15.7462 115.176 15.7462C112.999 15.7462 111.055 16.1015 109.344 16.8122C107.656 17.5229 106.223 18.5445 105.045 19.877C103.89 21.2096 103.001 22.8419 102.379 24.7741C101.757 26.6841 101.446 28.8383 101.446 31.2369C101.446 33.6577 101.757 35.8342 102.379 37.7663C103.001 39.6763 103.89 41.2976 105.045 42.6301C106.223 43.9626 107.656 44.9842 109.344 45.6949C111.055 46.3834 112.999 46.7277 115.176 46.7277C117.332 46.7277 119.253 46.3834 120.942 45.6949C122.631 44.9842 124.053 43.9626 125.208 42.6301C126.385 41.2976 127.285 39.6763 127.907 37.7663C128.529 35.8342 128.841 33.6577 128.841 31.2369ZM179.728 42.9632C179.995 42.9632 180.262 43.0188 180.528 43.1298C180.795 43.2186 181.05 43.3852 181.295 43.6295L185.761 48.3267C183.805 50.8807 181.35 52.8129 178.395 54.1232C175.463 55.4114 171.985 56.0554 167.964 56.0554C164.276 56.0554 160.965 55.4336 158.032 54.1899C155.122 52.9239 152.645 51.1917 150.601 48.993C148.579 46.7721 147.023 44.1514 145.935 41.131C144.846 38.0884 144.302 34.7903 144.302 31.2369C144.302 27.6168 144.891 24.2966 146.068 21.2762C147.246 18.2336 148.901 15.6129 151.034 13.4142C153.167 11.2155 155.722 9.50544 158.699 8.28395C161.676 7.06245 164.953 6.45171 168.53 6.45171C170.352 6.45171 172.063 6.61827 173.663 6.95141C175.285 7.26233 176.796 7.70651 178.195 8.28395C179.595 8.83917 180.884 9.51654 182.061 10.3161C183.239 11.1156 184.283 11.9817 185.194 12.9145L181.395 18.0115C181.15 18.3224 180.861 18.6111 180.528 18.8776C180.195 19.1219 179.728 19.2441 179.128 19.2441C178.729 19.2441 178.351 19.1552 177.995 18.9776C177.64 18.7999 177.262 18.5889 176.862 18.3446C176.462 18.0781 176.018 17.8005 175.529 17.5118C175.063 17.2008 174.496 16.9232 173.829 16.6789C173.185 16.4124 172.419 16.1903 171.53 16.0127C170.663 15.835 169.641 15.7462 168.464 15.7462C166.598 15.7462 164.887 16.0904 163.331 16.7789C161.798 17.4673 160.465 18.4779 159.332 19.8104C158.221 21.1207 157.355 22.742 156.733 24.6742C156.133 26.5841 155.833 28.7717 155.833 31.2369C155.833 33.7243 156.166 35.9341 156.833 37.8663C157.521 39.7985 158.444 41.4308 159.599 42.7633C160.776 44.0737 162.143 45.0731 163.698 45.7616C165.253 46.45 166.92 46.7943 168.697 46.7943C169.719 46.7943 170.652 46.7499 171.497 46.661C172.341 46.55 173.13 46.3834 173.863 46.1613C174.596 45.917 175.285 45.6061 175.929 45.2285C176.573 44.8288 177.229 44.3291 177.895 43.7294C178.162 43.5073 178.451 43.3297 178.762 43.1964C179.073 43.041 179.395 42.9632 179.728 42.9632ZM201.942 26.6396H203.742C205.408 26.6396 206.608 26.1177 207.341 25.0739L218.272 9.21672C218.917 8.37278 219.606 7.79535 220.339 7.48442C221.094 7.15129 222.027 6.98472 223.138 6.98472H232.936L218.539 26.6063C217.517 27.9611 216.417 28.9383 215.24 29.5379C216.084 29.8488 216.85 30.2819 217.539 30.8371C218.228 31.3924 218.872 32.1142 219.472 33.0025L234.136 55.5224H224.071C223.427 55.5224 222.872 55.478 222.405 55.3891C221.961 55.3003 221.572 55.1671 221.239 54.9894C220.905 54.8117 220.616 54.6007 220.372 54.3564C220.128 54.0899 219.894 53.7901 219.672 53.457L208.674 36.567C208.274 35.9452 207.763 35.5121 207.141 35.2678C206.541 35.0013 205.719 34.8681 204.675 34.8681H201.942V55.5224H190.678V6.98472H201.942V26.6396Z" fill="#238BDE"/>
<path d="M280.13 6.98472V55.5224H268.799V35.0013H249.069V55.5224H237.738V6.98472H249.069V27.2726H268.799V6.98472H280.13ZM315.214 36.9668L310.715 23.6748C310.381 22.8308 310.026 21.8425 309.648 20.7099C309.271 19.555 308.893 18.3113 308.515 16.9788C308.182 18.3335 307.826 19.5883 307.449 20.7432C307.071 21.898 306.715 22.8974 306.382 23.7414L301.916 36.9668H315.214ZM333.11 55.5224H324.379C323.401 55.5224 322.612 55.3003 322.013 54.8561C321.413 54.3897 320.957 53.8012 320.646 53.0905L317.78 44.6289H299.317L296.451 53.0905C296.206 53.7124 295.762 54.2787 295.118 54.7895C294.496 55.2781 293.718 55.5224 292.785 55.5224H283.986L302.783 6.98472H314.314L333.11 55.5224ZM391.529 6.98472V55.5224H381.597V27.6057C381.597 26.9617 381.608 26.2621 381.63 25.507C381.675 24.7519 381.742 23.9857 381.83 23.2084L368.933 48.1601C368.533 48.9374 367.989 49.526 367.3 49.9257C366.633 50.3255 365.867 50.5254 365 50.5254H363.467C362.601 50.5254 361.823 50.3255 361.134 49.9257C360.468 49.526 359.935 48.9374 359.535 48.1601L346.637 23.1417C346.704 23.9413 346.759 24.7297 346.804 25.507C346.848 26.2621 346.87 26.9617 346.87 27.6057V55.5224H336.939V6.98472H345.537C346.026 6.98472 346.448 6.99583 346.804 7.01803C347.181 7.04024 347.515 7.10687 347.804 7.21791C348.092 7.32896 348.348 7.50663 348.57 7.75093C348.814 7.97302 349.048 8.29505 349.27 8.71702L361.768 33.3356C362.212 34.1796 362.634 35.0568 363.034 35.9674C363.456 36.878 363.856 37.8107 364.234 38.7657C364.611 37.7885 365 36.8336 365.4 35.9008C365.822 34.968 366.267 34.0796 366.733 33.2357L379.198 8.71702C379.42 8.29505 379.642 7.97302 379.864 7.75093C380.109 7.50663 380.375 7.32896 380.664 7.21791C380.953 7.10687 381.275 7.04024 381.63 7.01803C382.008 6.99583 382.441 6.98472 382.93 6.98472H391.529ZM418.054 30.8038C420.987 30.8038 423.098 30.1042 424.386 28.7051C425.675 27.3059 426.319 25.3515 426.319 22.8419C426.319 21.7315 426.153 20.721 425.819 19.8104C425.486 18.8998 424.975 18.1225 424.286 17.4785C423.62 16.8122 422.764 16.3014 421.72 15.946C420.698 15.5907 419.476 15.413 418.054 15.413H412.189V30.8038H418.054ZM418.054 6.98472C421.476 6.98472 424.408 7.39559 426.852 8.21732C429.319 9.01684 431.341 10.1273 432.918 11.5487C434.518 12.97 435.695 14.6468 436.451 16.579C437.206 18.5112 437.584 20.5988 437.584 22.8419C437.584 25.2627 437.195 27.4836 436.417 29.5046C435.64 31.5256 434.451 33.2579 432.851 34.7015C431.252 36.1451 429.219 37.2777 426.752 38.0995C424.309 38.899 421.409 39.2988 418.054 39.2988H412.189V55.5224H400.924V6.98472H418.054ZM478.193 15.9127H464.529V55.5224H453.264V15.9127H439.6V6.98472H478.193V15.9127ZM530.468 31.2369C530.468 34.7459 529.857 38.0106 528.635 41.031C527.435 44.0515 525.735 46.6832 523.536 48.9263C521.336 51.1472 518.681 52.8906 515.57 54.1565C512.482 55.4225 509.049 56.0554 505.272 56.0554C501.495 56.0554 498.051 55.4225 494.941 54.1565C491.83 52.8906 489.164 51.1472 486.942 48.9263C484.743 46.6832 483.032 44.0515 481.81 41.031C480.61 38.0106 480.01 34.7459 480.01 31.2369C480.01 27.7279 480.61 24.4632 481.81 21.4428C483.032 18.4223 484.743 15.8017 486.942 13.5808C489.164 11.3599 491.83 9.61648 494.941 8.35057C498.051 7.08466 501.495 6.45171 505.272 6.45171C509.049 6.45171 512.482 7.09577 515.57 8.38389C518.681 9.6498 521.336 11.3932 523.536 13.6141C525.735 15.835 527.435 18.4556 528.635 21.4761C529.857 24.4965 530.468 27.7501 530.468 31.2369ZM518.936 31.2369C518.936 28.8383 518.625 26.6841 518.003 24.7741C517.381 22.8419 516.481 21.2096 515.304 19.877C514.148 18.5445 512.726 17.5229 511.038 16.8122C509.349 16.1015 507.427 15.7462 505.272 15.7462C503.095 15.7462 501.151 16.1015 499.44 16.8122C497.752 17.5229 496.318 18.5445 495.141 19.877C493.986 21.2096 493.097 22.8419 492.475 24.7741C491.853 26.6841 491.542 28.8383 491.542 31.2369C491.542 33.6577 491.853 35.8342 492.475 37.7663C493.097 39.6763 493.986 41.2976 495.141 42.6301C496.318 43.9626 497.752 44.9842 499.44 45.6949C501.151 46.3834 503.095 46.7277 505.272 46.7277C507.427 46.7277 509.349 46.3834 511.038 45.6949C512.726 44.9842 514.148 43.9626 515.304 42.6301C516.481 41.2976 517.381 39.6763 518.003 37.7663C518.625 35.8342 518.936 33.6577 518.936 31.2369ZM579.487 6.98472V55.5224H573.622C572.755 55.5224 572.022 55.3891 571.422 55.1226C570.845 54.8339 570.267 54.3453 569.689 53.6568L546.794 24.7075C546.882 25.5736 546.938 26.4176 546.96 27.2393C547.005 28.0388 547.027 28.7939 547.027 29.5046V55.5224H537.095V6.98472H543.028C543.516 6.98472 543.927 7.00693 544.261 7.05135C544.594 7.09577 544.894 7.1846 545.161 7.31786C545.427 7.4289 545.683 7.59547 545.927 7.81756C546.172 8.03965 546.449 8.33947 546.76 8.71702L569.856 37.8663C569.745 36.9335 569.667 36.034 569.623 35.1679C569.578 34.2795 569.556 33.4467 569.556 32.6694V6.98472H579.487Z" fill="#19CA1A"/>
<path d="M29.8514 41.4752C31.3401 41.4752 32.5509 41.2864 33.4841 40.9089C34.4395 40.5313 35.1838 40.0427 35.717 39.4431C36.2502 38.8435 36.6168 38.1661 36.8168 37.411C37.0168 36.6559 37.1167 35.8897 37.1167 35.1124C37.1167 34.224 36.9945 33.4245 36.7501 32.7138C36.528 32.0031 36.128 31.4035 35.5504 30.9149C34.9949 30.4263 34.2506 30.0487 33.3175 29.7822C32.3843 29.5157 31.2067 29.3824 29.7848 29.3824H21.9196V41.4752H29.8514ZM21.9196 9.86077V21.8536H27.7852C29.0294 21.8536 30.1514 21.7648 31.1512 21.5871C32.151 21.4094 32.9953 21.0985 33.684 20.6543C34.395 20.2101 34.9283 19.5994 35.2837 18.8221C35.6615 18.0448 35.8503 17.0676 35.8503 15.8905C35.8503 14.7356 35.7059 13.7807 35.4171 13.0256C35.1282 12.2482 34.6839 11.6264 34.084 11.16C33.4841 10.6936 32.7176 10.3605 31.7844 10.1606C30.8735 9.96071 29.7848 9.86077 28.5184 9.86077H21.9196ZM28.5184 1.43248C31.8733 1.43248 34.7283 1.7434 37.0834 2.36525C39.4385 2.9871 41.3604 3.86436 42.849 4.99701C44.3376 6.12967 45.4152 7.50663 46.0817 9.12788C46.7705 10.7491 47.1148 12.5592 47.1148 14.558C47.1148 15.6462 46.9593 16.7011 46.6483 17.7227C46.3372 18.7221 45.8484 19.666 45.1819 20.5544C44.5153 21.4205 43.6599 22.2201 42.6157 22.953C41.5714 23.6858 40.3161 24.3188 38.8497 24.8518C42.0491 25.6291 44.4153 26.8839 45.9484 28.6162C47.4814 30.3485 48.248 32.5916 48.248 35.3455C48.248 37.411 47.848 39.3321 47.0482 41.1088C46.2483 42.8855 45.0708 44.4401 43.5155 45.7727C41.9825 47.083 40.0828 48.1157 37.8166 48.8708C35.5504 49.6037 32.962 49.9701 30.0514 49.9701H10.655V1.43248H28.5184ZM71.105 24.2522C72.638 24.2522 73.9378 24.0634 75.0043 23.6858C76.093 23.2861 76.9817 22.742 77.6704 22.0535C78.3592 21.365 78.8591 20.5655 79.1701 19.6549C79.4812 18.7221 79.6367 17.7227 79.6367 16.6567C79.6367 14.5247 78.9369 12.859 77.5371 11.6597C76.1596 10.4604 74.0156 9.86077 71.105 9.86077H66.5725V24.2522H71.105ZM95.0338 49.9701H84.8357C82.9472 49.9701 81.5919 49.2595 80.7698 47.8381L72.7047 33.7465C72.327 33.1469 71.9049 32.7138 71.4383 32.4473C70.9717 32.1586 70.3052 32.0142 69.4387 32.0142H66.5725V49.9701H55.308V1.43248H71.105C74.6155 1.43248 77.6038 1.79892 80.07 2.53182C82.5584 3.24251 84.5802 4.24191 86.1355 5.53003C87.713 6.81815 88.8572 8.33946 89.5682 10.094C90.2791 11.8485 90.6346 13.7584 90.6346 15.8239C90.6346 17.4007 90.4236 18.8887 90.0014 20.2879C89.5793 21.687 88.9572 22.9863 88.1351 24.1855C87.313 25.3626 86.291 26.4176 85.069 27.3503C83.8693 28.2831 82.4806 29.0493 80.9031 29.649C81.6363 30.0265 82.3251 30.504 82.9694 31.0814C83.6137 31.6367 84.1914 32.3029 84.7024 33.0802L95.0338 49.9701ZM145.927 25.6847C145.927 29.1937 145.316 32.4584 144.094 35.4788C142.894 38.4992 141.194 41.131 138.994 43.3741C136.795 45.595 134.14 47.3384 131.029 48.6043C127.941 49.8702 124.508 50.5032 120.731 50.5032C116.954 50.5032 113.51 49.8702 110.4 48.6043C107.289 47.3384 104.623 45.595 102.401 43.3741C100.202 41.131 98.4908 38.4992 97.2688 35.4788C96.069 32.4584 95.4691 29.1937 95.4691 25.6847C95.4691 22.1756 96.069 18.9109 97.2688 15.8905C98.4908 12.8701 100.202 10.2494 102.401 8.02854C104.623 5.80764 107.289 4.06424 110.4 2.79833C113.51 1.53242 116.954 0.89946 120.731 0.89946C124.508 0.89946 127.941 1.54352 131.029 2.83164C134.14 4.09755 136.795 5.84095 138.994 8.06185C141.194 10.2827 142.894 12.9034 144.094 15.9238C145.316 18.9442 145.927 22.1978 145.927 25.6847ZM134.395 25.6847C134.395 23.2861 134.084 21.1318 133.462 19.2218C132.84 17.2897 131.94 15.6573 130.762 14.3248C129.607 12.9922 128.185 11.9706 126.497 11.2599C124.808 10.5493 122.886 10.1939 120.731 10.1939C118.554 10.1939 116.61 10.5493 114.899 11.2599C113.21 11.9706 111.777 12.9922 110.6 14.3248C109.444 15.6573 108.556 17.2897 107.933 19.2218C107.311 21.1318 107 23.2861 107 25.6847C107 28.1054 107.311 30.2819 107.933 32.2141C108.556 34.1241 109.444 35.7453 110.6 37.0778C111.777 38.4104 113.21 39.432 114.899 40.1427C116.61 40.8312 118.554 41.1754 120.731 41.1754C122.886 41.1754 124.808 40.8312 126.497 40.1427C128.185 39.432 129.607 38.4104 130.762 37.0778C131.94 35.7453 132.84 34.1241 133.462 32.2141C134.084 30.2819 134.395 28.1054 134.395 25.6847ZM185.283 37.411C185.55 37.411 185.816 37.4665 186.083 37.5775C186.349 37.6664 186.605 37.833 186.849 38.0772L191.315 42.7744C189.36 45.3285 186.905 47.2607 183.95 48.571C181.017 49.8591 177.54 50.5032 173.519 50.5032C169.83 50.5032 166.52 49.8813 163.587 48.6376C160.676 47.3717 158.199 45.6394 156.155 43.4407C154.133 41.2198 152.578 38.5992 151.489 35.5787C150.401 32.5361 149.856 29.2381 149.856 25.6847C149.856 22.0646 150.445 18.7444 151.623 15.7239C152.8 12.6813 154.455 10.0607 156.588 7.86197C158.721 5.66328 161.276 3.95319 164.254 2.7317C167.231 1.51021 170.508 0.89946 174.085 0.89946C175.907 0.89946 177.618 1.06603 179.217 1.39916C180.839 1.71009 182.35 2.15427 183.75 2.7317C185.15 3.28692 186.438 3.9643 187.616 4.76382C188.793 5.56334 189.838 6.42949 190.749 7.36227L186.949 12.4592C186.705 12.7701 186.416 13.0589 186.083 13.3254C185.75 13.5697 185.283 13.6918 184.683 13.6918C184.283 13.6918 183.905 13.603 183.55 13.4253C183.194 13.2476 182.817 13.0367 182.417 12.7924C182.017 12.5258 181.573 12.2482 181.084 11.9595C180.617 11.6486 180.051 11.371 179.384 11.1267C178.74 10.8602 177.973 10.6381 177.084 10.4604C176.218 10.2827 175.196 10.1939 174.018 10.1939C172.152 10.1939 170.441 10.5381 168.886 11.2266C167.353 11.9151 166.02 12.9256 164.887 14.2581C163.776 15.5685 162.909 17.1897 162.287 19.1219C161.687 21.0319 161.387 23.2195 161.387 25.6847C161.387 28.1721 161.721 30.3818 162.387 32.314C163.076 34.2462 163.998 35.8786 165.153 37.2111C166.331 38.5214 167.697 39.5208 169.253 40.2093C170.808 40.8978 172.474 41.242 174.252 41.242C175.274 41.242 176.207 41.1976 177.051 41.1088C177.895 40.9977 178.684 40.8312 179.417 40.6091C180.151 40.3648 180.839 40.0538 181.484 39.6763C182.128 39.2765 182.783 38.7768 183.45 38.1772C183.717 37.9551 184.005 37.7774 184.316 37.6442C184.628 37.4887 184.95 37.411 185.283 37.411ZM207.497 21.0874H209.296C210.963 21.0874 212.163 20.5655 212.896 19.5217L223.827 3.66448C224.471 2.82054 225.16 2.2431 225.893 1.93218C226.649 1.59904 227.582 1.43248 228.693 1.43248H238.491L224.094 21.0541C223.072 22.4088 221.972 23.386 220.794 23.9857C221.639 24.2966 222.405 24.7297 223.094 25.2849C223.783 25.8401 224.427 26.5619 225.027 27.4503L239.691 49.9701H229.626C228.982 49.9701 228.426 49.9257 227.96 49.8369C227.515 49.7481 227.126 49.6148 226.793 49.4371C226.46 49.2595 226.171 49.0485 225.927 48.8042C225.682 48.5377 225.449 48.2378 225.227 47.9047L214.229 31.0148C213.829 30.393 213.318 29.9599 212.696 29.7156C212.096 29.4491 211.274 29.3158 210.23 29.3158H207.497V49.9701H196.232V1.43248H207.497V21.0874Z" fill="#F2D775"/>
<path d="M285.685 1.43248V49.9701H274.354V29.4491H254.624V49.9701H243.293V1.43248H254.624V21.7204H274.354V1.43248H285.685ZM320.768 31.4146L316.269 18.1225C315.936 17.2786 315.58 16.2903 315.203 15.1576C314.825 14.0027 314.447 12.759 314.07 11.4265C313.736 12.7813 313.381 14.0361 313.003 15.1909C312.625 16.3458 312.27 17.3452 311.937 18.1891L307.471 31.4146H320.768ZM338.665 49.9701H329.933C328.956 49.9701 328.167 49.7481 327.567 49.3039C326.967 48.8375 326.512 48.249 326.201 47.5383L323.334 39.0767H304.871L302.005 47.5383C301.761 48.1601 301.316 48.7264 300.672 49.2372C300.05 49.7258 299.272 49.9701 298.339 49.9701H289.541L308.337 1.43248H319.868L338.665 49.9701ZM397.083 1.43248V49.9701H387.152V22.0535C387.152 21.4094 387.163 20.7098 387.185 19.9547C387.229 19.1996 387.296 18.4334 387.385 17.6561L374.487 42.6079C374.087 43.3852 373.543 43.9737 372.854 44.3735C372.188 44.7733 371.421 44.9731 370.555 44.9731H369.022C368.155 44.9731 367.378 44.7733 366.689 44.3735C366.022 43.9737 365.489 43.3852 365.089 42.6079L352.192 17.5895C352.258 18.389 352.314 19.1774 352.358 19.9547C352.403 20.7098 352.425 21.4094 352.425 22.0535V49.9701H342.493V1.43248H351.092C351.581 1.43248 352.003 1.44358 352.358 1.46579C352.736 1.488 353.069 1.55463 353.358 1.66567C353.647 1.77671 353.902 1.95439 354.124 2.19869C354.369 2.42077 354.602 2.7428 354.824 3.16477L367.322 27.7834C367.766 28.6273 368.188 29.5046 368.588 30.4152C369.011 31.3257 369.41 32.2585 369.788 33.2135C370.166 32.2363 370.555 31.2813 370.955 30.3485C371.377 29.4158 371.821 28.5274 372.288 27.6835L384.752 3.16477C384.974 2.7428 385.196 2.42077 385.419 2.19869C385.663 1.95439 385.93 1.77671 386.218 1.66567C386.507 1.55463 386.829 1.488 387.185 1.46579C387.563 1.44358 387.996 1.43248 388.485 1.43248H397.083ZM423.609 25.2516C426.541 25.2516 428.652 24.552 429.941 23.1528C431.229 21.7537 431.874 19.7993 431.874 17.2897C431.874 16.1792 431.707 15.1687 431.374 14.2581C431.04 13.3476 430.529 12.5703 429.841 11.9262C429.174 11.2599 428.319 10.7491 427.275 10.3938C426.252 10.0384 425.03 9.86077 423.609 9.86077H417.743V25.2516H423.609ZM423.609 1.43248C427.03 1.43248 429.963 1.84334 432.407 2.66507C434.873 3.4646 436.895 4.57504 438.472 5.99642C440.072 7.41779 441.25 9.09457 442.005 11.0267C442.76 12.9589 443.138 15.0466 443.138 17.2897C443.138 19.7104 442.749 21.9313 441.972 23.9524C441.194 25.9734 440.005 27.7057 438.406 29.1493C436.806 30.5928 434.773 31.7255 432.307 32.5472C429.863 33.3467 426.963 33.7465 423.609 33.7465H417.743V49.9701H406.478V1.43248H423.609ZM483.747 10.3605H470.083V49.9701H458.819V10.3605H445.154V1.43248H483.747V10.3605ZM536.022 25.6847C536.022 29.1937 535.411 32.4584 534.189 35.4788C532.989 38.4992 531.289 41.131 529.09 43.3741C526.89 45.595 524.235 47.3384 521.125 48.6043C518.036 49.8702 514.604 50.5032 510.827 50.5032C507.05 50.5032 503.606 49.8702 500.495 48.6043C497.385 47.3384 494.719 45.595 492.497 43.3741C490.297 41.131 488.586 38.4992 487.364 35.4788C486.165 32.4584 485.565 29.1937 485.565 25.6847C485.565 22.1756 486.165 18.9109 487.364 15.8905C488.586 12.8701 490.297 10.2494 492.497 8.02854C494.719 5.80764 497.385 4.06424 500.495 2.79833C503.606 1.53242 507.05 0.89946 510.827 0.89946C514.604 0.89946 518.036 1.54352 521.125 2.83164C524.235 4.09755 526.89 5.84095 529.09 8.06185C531.289 10.2827 532.989 12.9034 534.189 15.9238C535.411 18.9442 536.022 22.1978 536.022 25.6847ZM524.491 25.6847C524.491 23.2861 524.18 21.1318 523.558 19.2218C522.936 17.2897 522.036 15.6573 520.858 14.3248C519.703 12.9922 518.281 11.9706 516.592 11.2599C514.904 10.5493 512.982 10.1939 510.827 10.1939C508.649 10.1939 506.705 10.5493 504.994 11.2599C503.306 11.9706 501.873 12.9922 500.695 14.3248C499.54 15.6573 498.651 17.2897 498.029 19.2218C497.407 21.1318 497.096 23.2861 497.096 25.6847C497.096 28.1054 497.407 30.2819 498.029 32.2141C498.651 34.1241 499.54 35.7453 500.695 37.0778C501.873 38.4104 503.306 39.432 504.994 40.1427C506.705 40.8312 508.649 41.1754 510.827 41.1754C512.982 41.1754 514.904 40.8312 516.592 40.1427C518.281 39.432 519.703 38.4104 520.858 37.0778C522.036 35.7453 522.936 34.1241 523.558 32.2141C524.18 30.2819 524.491 28.1054 524.491 25.6847ZM585.042 1.43248V49.9701H579.176C578.31 49.9701 577.577 49.8369 576.977 49.5704C576.399 49.2817 575.821 48.7931 575.244 48.1046L552.348 19.1552C552.437 20.0214 552.492 20.8653 552.515 21.687C552.559 22.4866 552.581 23.2417 552.581 23.9524V49.9701H542.65V1.43248H548.582C549.071 1.43248 549.482 1.45469 549.815 1.4991C550.148 1.54352 550.448 1.63236 550.715 1.76561C550.982 1.87666 551.237 2.04322 551.481 2.26531C551.726 2.4874 552.004 2.78722 552.315 3.16477L575.41 32.314C575.299 31.3813 575.221 30.4818 575.177 29.6156C575.133 28.7273 575.11 27.8944 575.11 27.1171V1.43248H585.042Z" fill="#E12D7B"/>
<path d="M14.8615 177.488C15.5662 177.488 16.1582 177.405 16.6374 177.236C17.1166 177.066 17.4971 176.842 17.779 176.56C18.0704 176.278 18.277 175.949 18.3992 175.573C18.5307 175.197 18.5965 174.798 18.5965 174.375C18.5965 173.934 18.5261 173.539 18.3852 173.192C18.2442 172.836 18.0233 172.534 17.7226 172.29C17.422 172.036 17.0321 171.845 16.5529 171.713C16.083 171.581 15.5145 171.516 14.8474 171.516H11.0278V177.488H14.8615ZM11.0278 163.005V168.895H14.044C15.3407 168.895 16.3179 168.66 16.9757 168.19C17.6428 167.721 17.9763 166.974 17.9763 165.951C17.9763 164.889 17.6757 164.133 17.0743 163.681C16.4729 163.232 15.5333 163.005 14.2554 163.005H11.0278ZM14.2554 160.075C15.5897 160.075 16.7313 160.202 17.6804 160.456C18.6294 160.71 19.4045 161.07 20.006 161.541C20.6167 162.01 21.0631 162.578 21.345 163.246C21.6269 163.912 21.7679 164.664 21.7679 165.5C21.7679 165.979 21.6973 166.439 21.5564 166.881C21.4154 167.313 21.1946 167.721 20.894 168.107C20.6027 168.481 20.2268 168.824 19.7664 169.135C19.3154 169.445 18.7751 169.707 18.1455 169.923C20.9456 170.552 22.3457 172.065 22.3457 174.46C22.3457 175.324 22.1812 176.123 21.8524 176.855C21.5235 177.588 21.0442 178.221 20.4148 178.757C19.7852 179.283 19.0099 179.697 18.0891 179.997C17.1683 180.298 16.1159 180.448 14.9319 180.448H7.23633V160.075H14.2554ZM34.3646 171.557C34.3646 171.108 34.2988 170.684 34.1673 170.29C34.0451 169.886 33.8572 169.533 33.6035 169.234C33.3498 168.932 33.0256 168.698 32.6309 168.528C32.2457 168.351 31.7947 168.261 31.2779 168.261C30.2725 168.261 29.4785 168.548 28.8959 169.12C28.3227 169.693 27.9563 170.505 27.7966 171.557H34.3646ZM27.726 173.657C27.7824 174.399 27.914 175.043 28.1207 175.587C28.3274 176.123 28.5999 176.568 28.9382 176.926C29.2764 177.273 29.6758 177.536 30.1363 177.715C30.606 177.884 31.1229 177.969 31.6867 177.969C32.2504 177.969 32.7344 177.902 33.1383 177.77C33.5519 177.64 33.9089 177.494 34.2095 177.334C34.5196 177.175 34.7875 177.029 35.013 176.897C35.2478 176.765 35.4733 176.7 35.6895 176.7C35.9807 176.7 36.1969 176.808 36.3379 177.025L37.3385 178.292C36.9533 178.743 36.521 179.124 36.0418 179.433C35.5626 179.734 35.0599 179.979 34.5338 180.166C34.0169 180.345 33.486 180.471 32.941 180.546C32.4054 180.621 31.884 180.659 31.3766 180.659C30.3711 180.659 29.4363 180.495 28.5717 180.166C27.7073 179.827 26.9556 179.335 26.3166 178.686C25.6777 178.03 25.175 177.222 24.8085 176.263C24.4421 175.295 24.2588 174.178 24.2588 172.911C24.2588 171.924 24.4186 170.999 24.738 170.134C25.0575 169.261 25.5133 168.505 26.1052 167.866C26.7065 167.218 27.4348 166.706 28.2898 166.331C29.1544 165.955 30.1268 165.768 31.2074 165.768C32.1188 165.768 32.9599 165.913 33.7303 166.203C34.5009 166.495 35.1632 166.923 35.7177 167.486C36.272 168.04 36.7043 168.726 37.0144 169.543C37.3338 170.351 37.4936 171.275 37.4936 172.318C37.4936 172.844 37.4372 173.202 37.3245 173.389C37.2117 173.567 36.9955 173.657 36.6761 173.657H27.726ZM40.9007 180.448V168.613L39.6463 168.416C39.3738 168.359 39.153 168.266 38.9839 168.134C38.8241 167.993 38.7442 167.796 38.7442 167.543V166.119H40.9007V165.049C40.9007 164.223 41.0228 163.48 41.2672 162.822C41.5209 162.166 41.8779 161.606 42.3384 161.145C42.8082 160.686 43.3767 160.333 44.0438 160.089C44.711 159.845 45.4627 159.723 46.2989 159.723C46.9661 159.723 47.5863 159.813 48.1594 159.991L48.089 161.738C48.0795 161.87 48.0419 161.977 47.9762 162.062C47.9104 162.136 47.8211 162.198 47.7083 162.245C47.605 162.282 47.4828 162.311 47.3419 162.329C47.2009 162.339 47.0507 162.343 46.8909 162.343C46.4775 162.343 46.1063 162.39 45.7775 162.485C45.4579 162.57 45.1855 162.724 44.96 162.95C44.7345 163.165 44.5606 163.457 44.4384 163.823C44.3257 164.18 44.2693 164.627 44.2693 165.161V166.119H48.0326V168.599H44.382V180.448H40.9007ZM56.0023 165.768C57.0735 165.768 58.0461 165.941 58.92 166.288C59.8031 166.637 60.5549 167.129 61.1751 167.768C61.8046 168.406 62.2885 169.186 62.6268 170.107C62.965 171.027 63.1342 172.056 63.1342 173.192C63.1342 174.338 62.965 175.372 62.6268 176.292C62.2885 177.212 61.8046 177.996 61.1751 178.645C60.5549 179.293 59.8031 179.79 58.92 180.138C58.0461 180.485 57.0735 180.659 56.0023 180.659C54.9218 180.659 53.9398 180.485 53.0566 180.138C52.1733 179.79 51.4169 179.293 50.7873 178.645C50.1672 177.996 49.6833 177.212 49.3357 176.292C48.9974 175.372 48.8283 174.338 48.8283 173.192C48.8283 172.056 48.9974 171.027 49.3357 170.107C49.6833 169.186 50.1672 168.406 50.7873 167.768C51.4169 167.129 52.1733 166.637 53.0566 166.288C53.9398 165.941 54.9218 165.768 56.0023 165.768ZM56.0023 177.983C57.2052 177.983 58.093 177.579 58.6663 176.771C59.2488 175.963 59.5401 174.779 59.5401 173.22C59.5401 171.661 59.2488 170.473 58.6663 169.656C58.093 168.838 57.2052 168.43 56.0023 168.43C54.7809 168.43 53.8741 168.844 53.2822 169.669C52.6995 170.487 52.4083 171.671 52.4083 173.22C52.4083 174.771 52.6995 175.953 53.2822 176.771C53.8741 177.579 54.7809 177.983 56.0023 177.983ZM69.0742 168.501C69.5252 167.636 70.0608 166.96 70.6809 166.471C71.3011 165.974 72.034 165.725 72.8797 165.725C73.5468 165.725 74.0824 165.87 74.4865 166.162L74.261 168.769C74.214 168.937 74.1435 169.059 74.0496 169.135C73.965 169.2 73.8476 169.234 73.6972 169.234C73.5562 169.234 73.3449 169.21 73.063 169.163C72.7904 169.116 72.5227 169.092 72.2595 169.092C71.8743 169.092 71.5313 169.149 71.2307 169.261C70.9299 169.374 70.6575 169.539 70.4132 169.754C70.1783 169.961 69.9668 170.215 69.7789 170.515C69.6003 170.816 69.4312 171.159 69.2715 171.543V180.448H65.7902V165.993H67.8338C68.1909 165.993 68.44 166.058 68.5809 166.19C68.7219 166.312 68.8157 166.538 68.8628 166.866L69.0742 168.501ZM85.2096 171.557C85.2096 171.108 85.1438 170.684 85.0123 170.29C84.8901 169.886 84.7022 169.533 84.4485 169.234C84.1948 168.932 83.8707 168.698 83.476 168.528C83.0907 168.351 82.6396 168.261 82.1229 168.261C81.1174 168.261 80.3234 168.548 79.7409 169.12C79.1677 169.693 78.8012 170.505 78.6415 171.557H85.2096ZM78.5711 173.657C78.6275 174.399 78.759 175.043 78.9658 175.587C79.1724 176.123 79.445 176.568 79.7832 176.926C80.1215 177.273 80.5207 177.536 80.9812 177.715C81.451 177.884 81.9678 177.969 82.5316 177.969C83.0954 177.969 83.5793 177.902 83.9834 177.77C84.3968 177.64 84.7538 177.494 85.0546 177.334C85.3647 177.175 85.6324 177.029 85.8579 176.897C86.0929 176.765 86.3184 176.7 86.5345 176.7C86.8258 176.7 87.0419 176.808 87.1828 177.025L88.1836 178.292C87.7982 178.743 87.3661 179.124 86.8869 179.433C86.4077 179.734 85.9049 179.979 85.3787 180.166C84.8619 180.345 84.331 180.471 83.7861 180.546C83.2505 180.621 82.7289 180.659 82.2215 180.659C81.2162 180.659 80.2812 180.495 79.4168 180.166C78.5522 179.827 77.8006 179.335 77.1617 178.686C76.5226 178.03 76.0199 177.222 75.6535 176.263C75.287 175.295 75.1038 174.178 75.1038 172.911C75.1038 171.924 75.2635 170.999 75.5831 170.134C75.9024 169.261 76.3582 168.505 76.9502 167.866C77.5516 167.218 78.2798 166.706 79.1349 166.331C79.9993 165.955 80.9718 165.768 82.0524 165.768C82.9639 165.768 83.8048 165.913 84.5754 166.203C85.3458 166.495 86.0083 166.923 86.5626 167.486C87.117 168.04 87.5493 168.726 87.8593 169.543C88.1789 170.351 88.3386 171.275 88.3386 172.318C88.3386 172.844 88.2822 173.202 88.1694 173.389C88.0567 173.567 87.8406 173.657 87.5211 173.657H78.5711ZM105.445 174.276C104.44 174.324 103.594 174.412 102.908 174.544C102.222 174.666 101.672 174.826 101.259 175.023C100.845 175.22 100.549 175.451 100.371 175.714C100.192 175.977 100.103 176.263 100.103 176.574C100.103 177.184 100.282 177.62 100.639 177.884C101.005 178.146 101.48 178.278 102.062 178.278C102.776 178.278 103.392 178.152 103.909 177.898C104.435 177.634 104.947 177.24 105.445 176.714V174.276ZM97.4674 168.008C99.1305 166.485 101.132 165.725 103.472 165.725C104.317 165.725 105.074 165.866 105.741 166.148C106.408 166.42 106.972 166.805 107.432 167.303C107.893 167.791 108.24 168.379 108.475 169.064C108.72 169.75 108.842 170.501 108.842 171.318V180.448H107.263C106.934 180.448 106.681 180.401 106.502 180.306C106.323 180.203 106.183 180.002 106.079 179.701L105.769 178.659C105.403 178.988 105.046 179.279 104.698 179.532C104.35 179.776 103.989 179.983 103.613 180.152C103.237 180.321 102.833 180.448 102.4 180.532C101.978 180.627 101.508 180.673 100.991 180.673C100.38 180.673 99.8165 180.594 99.2997 180.434C98.783 180.265 98.3365 180.016 97.9608 179.687C97.5849 179.358 97.2935 178.95 97.0869 178.461C96.8801 177.973 96.7768 177.405 96.7768 176.757C96.7768 176.39 96.8379 176.028 96.96 175.671C97.0822 175.305 97.2795 174.958 97.552 174.629C97.8338 174.3 98.1956 173.991 98.6373 173.699C99.0789 173.408 99.6192 173.155 100.258 172.938C100.906 172.722 101.658 172.548 102.513 172.416C103.368 172.276 104.346 172.192 105.445 172.164V171.318C105.445 170.351 105.238 169.638 104.825 169.177C104.411 168.708 103.815 168.473 103.035 168.473C102.471 168.473 102.001 168.538 101.625 168.67C101.259 168.801 100.935 168.952 100.653 169.12C100.371 169.279 100.112 169.425 99.8776 169.557C99.6521 169.689 99.3984 169.754 99.1165 169.754C98.8721 169.754 98.6655 169.693 98.4964 169.571C98.3272 169.439 98.191 169.289 98.0875 169.12L97.4674 168.008ZM115.376 167.768C115.668 167.476 115.973 167.208 116.292 166.964C116.621 166.712 116.964 166.499 117.321 166.331C117.688 166.152 118.078 166.016 118.491 165.922C118.905 165.819 119.356 165.768 119.844 165.768C120.634 165.768 121.334 165.904 121.944 166.176C122.555 166.439 123.063 166.814 123.467 167.303C123.88 167.782 124.19 168.359 124.397 169.035C124.613 169.703 124.721 170.44 124.721 171.248V180.448H121.24V171.248C121.24 170.365 121.038 169.683 120.634 169.204C120.23 168.716 119.614 168.473 118.787 168.473C118.186 168.473 117.622 168.609 117.096 168.881C116.57 169.153 116.072 169.524 115.602 169.994V180.448H112.12V165.993H114.249C114.7 165.993 114.996 166.203 115.137 166.627L115.376 167.768ZM137.109 169.683C136.714 169.204 136.282 168.867 135.812 168.67C135.352 168.472 134.854 168.373 134.318 168.373C133.792 168.373 133.317 168.472 132.895 168.67C132.472 168.867 132.11 169.167 131.809 169.571C131.509 169.965 131.278 170.473 131.119 171.092C130.959 171.703 130.879 172.426 130.879 173.262C130.879 174.107 130.945 174.826 131.076 175.417C131.217 176 131.415 176.479 131.668 176.855C131.922 177.222 132.232 177.488 132.599 177.658C132.965 177.817 133.374 177.898 133.825 177.898C134.548 177.898 135.164 177.748 135.671 177.447C136.179 177.147 136.658 176.719 137.109 176.164V169.683ZM140.59 159.512V180.448H138.462C138.002 180.448 137.71 180.237 137.588 179.813L137.292 178.418C136.709 179.086 136.038 179.626 135.276 180.04C134.525 180.452 133.646 180.659 132.641 180.659C131.852 180.659 131.128 180.495 130.47 180.166C129.813 179.837 129.244 179.362 128.765 178.743C128.295 178.113 127.929 177.339 127.665 176.418C127.412 175.498 127.285 174.446 127.285 173.262C127.285 172.192 127.431 171.196 127.722 170.276C128.013 169.356 128.431 168.556 128.976 167.88C129.521 167.204 130.174 166.678 130.935 166.302C131.696 165.918 132.552 165.725 133.501 165.725C134.309 165.725 134.999 165.852 135.573 166.105C136.146 166.359 136.658 166.702 137.109 167.133V159.512H140.59ZM161.263 172.755L158.782 165.979C158.66 165.677 158.532 165.321 158.401 164.908C158.27 164.495 158.138 164.048 158.006 163.569C157.884 164.048 157.758 164.499 157.626 164.922C157.495 165.335 157.367 165.697 157.245 166.006L154.779 172.755H161.263ZM167.957 180.448H165.026C164.697 180.448 164.429 180.367 164.222 180.208C164.016 180.04 163.861 179.833 163.756 179.589L162.235 175.433H153.792L152.27 179.589C152.195 179.804 152.049 180.002 151.834 180.18C151.617 180.359 151.349 180.448 151.03 180.448H148.071L156.09 160.075H159.952L167.957 180.448ZM182.739 168.599V176.432C182.739 176.883 182.851 177.236 183.078 177.488C183.303 177.742 183.604 177.87 183.979 177.87C184.196 177.87 184.373 177.847 184.515 177.799C184.665 177.742 184.793 177.687 184.896 177.63C185.008 177.573 185.107 177.522 185.191 177.475C185.276 177.419 185.361 177.39 185.445 177.39C185.548 177.39 185.633 177.419 185.7 177.475C185.765 177.522 185.836 177.597 185.911 177.701L186.953 179.391C186.445 179.813 185.863 180.133 185.205 180.349C184.557 180.566 183.88 180.673 183.176 180.673C181.917 180.673 180.949 180.321 180.273 179.616C179.597 178.903 179.258 177.921 179.258 176.672V168.599H173.38V180.448H169.898V168.613L168.644 168.416C168.372 168.359 168.151 168.266 167.982 168.134C167.822 167.993 167.742 167.796 167.742 167.543V166.119H169.898V165.049C169.898 164.223 170.021 163.48 170.265 162.822C170.519 162.166 170.876 161.606 171.337 161.145C171.806 160.686 172.374 160.333 173.042 160.089C173.709 159.845 174.461 159.723 175.297 159.723C175.964 159.723 176.585 159.813 177.158 159.991L177.087 161.738C177.078 161.87 177.04 161.977 176.975 162.062C176.908 162.136 176.819 162.198 176.707 162.245C176.603 162.282 176.48 162.311 176.34 162.329C176.199 162.339 176.049 162.343 175.889 162.343C175.475 162.343 175.104 162.39 174.775 162.485C174.456 162.57 174.184 162.724 173.959 162.95C173.732 163.165 173.559 163.457 173.437 163.823C173.324 164.18 173.267 164.627 173.267 165.161V166.119H179.413L180.16 162.16C180.206 161.973 180.296 161.827 180.427 161.724C180.559 161.62 180.728 161.569 180.935 161.569H182.739V166.119H186.601V168.599H182.739ZM198.021 171.557C198.021 171.108 197.956 170.684 197.824 170.29C197.701 169.886 197.514 169.533 197.26 169.234C197.006 168.932 196.682 168.698 196.288 168.528C195.902 168.351 195.45 168.261 194.934 168.261C193.929 168.261 193.134 168.548 192.552 169.12C191.979 169.693 191.612 170.505 191.453 171.557H198.021ZM191.382 173.657C191.439 174.399 191.571 175.043 191.778 175.587C191.984 176.123 192.257 176.568 192.594 176.926C192.933 177.273 193.333 177.536 193.792 177.715C194.262 177.884 194.78 177.969 195.344 177.969C195.907 177.969 196.391 177.902 196.795 177.77C197.208 177.64 197.565 177.494 197.865 177.334C198.176 177.175 198.444 177.029 198.669 176.897C198.904 176.765 199.13 176.7 199.346 176.7C199.637 176.7 199.854 176.808 199.994 177.025L200.995 178.292C200.609 178.743 200.177 179.124 199.698 179.433C199.219 179.734 198.717 179.979 198.19 180.166C197.674 180.345 197.142 180.471 196.597 180.546C196.061 180.621 195.541 180.659 195.032 180.659C194.027 180.659 193.093 180.495 192.227 180.166C191.364 179.827 190.613 179.335 189.972 178.686C189.334 178.03 188.831 177.222 188.464 176.263C188.099 175.295 187.916 174.178 187.916 172.911C187.916 171.924 188.075 170.999 188.395 170.134C188.714 169.261 189.17 168.505 189.761 167.866C190.363 167.218 191.092 166.706 191.946 166.331C192.811 165.955 193.783 165.768 194.864 165.768C195.775 165.768 196.617 165.913 197.386 166.203C198.157 166.495 198.819 166.923 199.375 167.486C199.929 168.04 200.361 168.726 200.67 169.543C200.99 170.351 201.149 171.275 201.149 172.318C201.149 172.844 201.094 173.202 200.981 173.389C200.867 173.567 200.652 173.657 200.333 173.657H191.382ZM207.047 168.501C207.498 167.636 208.033 166.96 208.654 166.471C209.273 165.974 210.006 165.725 210.852 165.725C211.52 165.725 212.054 165.87 212.458 166.162L212.233 168.769C212.186 168.937 212.115 169.059 212.022 169.135C211.938 169.2 211.82 169.234 211.67 169.234C211.528 169.234 211.317 169.21 211.035 169.163C210.763 169.116 210.495 169.092 210.232 169.092C209.846 169.092 209.503 169.149 209.203 169.261C208.902 169.374 208.63 169.539 208.386 169.754C208.151 169.961 207.94 170.215 207.751 170.515C207.573 170.816 207.404 171.159 207.244 171.543V180.448H203.763V165.993H205.807C206.164 165.993 206.412 166.058 206.554 166.19C206.694 166.312 206.789 166.538 206.836 166.866L207.047 168.501ZM225.348 180.673C224.088 180.673 223.12 180.321 222.444 179.616C221.777 178.903 221.444 177.921 221.444 176.672V168.599H219.964C219.775 168.599 219.615 168.538 219.485 168.416C219.353 168.294 219.288 168.111 219.288 167.866V166.485L221.612 166.105L222.345 162.16C222.393 161.973 222.481 161.827 222.613 161.724C222.745 161.62 222.915 161.569 223.12 161.569H224.925V166.119H228.787V168.599H224.925V176.432C224.925 176.883 225.032 177.236 225.249 177.488C225.474 177.742 225.779 177.87 226.165 177.87C226.381 177.87 226.56 177.847 226.7 177.799C226.851 177.742 226.978 177.687 227.082 177.63C227.194 177.573 227.293 177.522 227.378 177.475C227.462 177.419 227.546 177.39 227.63 177.39C227.735 177.39 227.819 177.419 227.885 177.475C227.95 177.522 228.021 177.597 228.096 177.701L229.139 179.391C228.632 179.813 228.05 180.133 227.392 180.349C226.733 180.566 226.053 180.673 225.348 180.673ZM234.497 167.543C235.061 167.017 235.68 166.589 236.358 166.26C237.034 165.931 237.829 165.768 238.739 165.768C239.528 165.768 240.229 165.904 240.839 166.176C241.45 166.439 241.958 166.814 242.362 167.303C242.775 167.782 243.086 168.359 243.291 169.035C243.508 169.703 243.616 170.44 243.616 171.248V180.448H240.135V171.248C240.135 170.365 239.932 169.683 239.528 169.204C239.124 168.716 238.509 168.473 237.683 168.473C237.081 168.473 236.518 168.609 235.991 168.881C235.465 169.153 234.967 169.524 234.497 169.994V180.448H231.016V159.512H234.497V167.543ZM256.243 171.557C256.243 171.108 256.178 170.684 256.046 170.29C255.924 169.886 255.736 169.533 255.482 169.234C255.229 168.932 254.904 168.698 254.51 168.528C254.124 168.351 253.674 168.261 253.158 168.261C252.151 168.261 251.358 168.548 250.775 169.12C250.201 169.693 249.835 170.505 249.675 171.557H256.243ZM249.605 173.657C249.661 174.399 249.793 175.043 250 175.587C250.207 176.123 250.479 176.568 250.818 176.926C251.155 177.273 251.555 177.536 252.015 177.715C252.485 177.884 253.002 177.969 253.566 177.969C254.13 177.969 254.613 177.902 255.017 177.77C255.431 177.64 255.788 177.494 256.089 177.334C256.399 177.175 256.667 177.029 256.892 176.897C257.126 176.765 257.353 176.7 257.568 176.7C257.859 176.7 258.076 176.808 258.216 177.025L259.218 178.292C258.833 178.743 258.4 179.124 257.921 179.433C257.442 179.734 256.939 179.979 256.413 180.166C255.896 180.345 255.366 180.471 254.82 180.546C254.285 180.621 253.763 180.659 253.256 180.659C252.251 180.659 251.315 180.495 250.451 180.166C249.586 179.827 248.835 179.335 248.196 178.686C247.557 178.03 247.055 177.222 246.688 176.263C246.321 175.295 246.138 174.178 246.138 172.911C246.138 171.924 246.298 170.999 246.617 170.134C246.937 169.261 247.392 168.505 247.984 167.866C248.586 167.218 249.314 166.706 250.169 166.331C251.033 165.955 252.006 165.768 253.087 165.768C253.998 165.768 254.839 165.913 255.61 166.203C256.379 166.495 257.043 166.923 257.597 167.486C258.151 168.04 258.583 168.726 258.894 169.543C259.213 170.351 259.373 171.275 259.373 172.318C259.373 172.844 259.316 173.202 259.204 173.389C259.091 173.567 258.875 173.657 258.555 173.657H249.605ZM287.487 170.262C287.487 171.754 287.237 173.126 286.74 174.375C286.242 175.624 285.542 176.7 284.639 177.602C283.738 178.503 282.652 179.203 281.384 179.701C280.115 180.199 278.706 180.448 277.156 180.448H269.389V160.075H277.156C278.706 160.075 280.115 160.329 281.384 160.836C282.652 161.334 283.738 162.034 284.639 162.936C285.542 163.827 286.242 164.899 286.74 166.148C287.237 167.397 287.487 168.769 287.487 170.262ZM283.596 170.262C283.596 169.143 283.446 168.144 283.146 167.261C282.855 166.369 282.427 165.616 281.863 165.007C281.309 164.387 280.632 163.912 279.833 163.583C279.044 163.255 278.151 163.09 277.156 163.09H273.195V177.433H277.156C278.151 177.433 279.044 177.268 279.833 176.94C280.632 176.611 281.309 176.141 281.863 175.531C282.427 174.911 282.855 174.16 283.146 173.277C283.446 172.385 283.596 171.38 283.596 170.262ZM299.409 171.557C299.409 171.108 299.342 170.684 299.211 170.29C299.089 169.886 298.9 169.533 298.648 169.234C298.393 168.932 298.069 168.698 297.674 168.528C297.289 168.351 296.838 168.261 296.322 168.261C295.316 168.261 294.522 168.548 293.94 169.12C293.367 169.693 293 170.505 292.84 171.557H299.409ZM292.77 173.657C292.826 174.399 292.957 175.043 293.164 175.587C293.371 176.123 293.643 176.568 293.982 176.926C294.321 177.273 294.719 177.536 295.18 177.715C295.65 177.884 296.166 177.969 296.73 177.969C297.294 177.969 297.778 177.902 298.182 177.77C298.595 177.64 298.953 177.494 299.253 177.334C299.563 177.175 299.831 177.029 300.057 176.897C300.292 176.765 300.517 176.7 300.733 176.7C301.025 176.7 301.24 176.808 301.382 177.025L302.382 178.292C301.997 178.743 301.565 179.124 301.086 179.433C300.606 179.734 300.103 179.979 299.578 180.166C299.06 180.345 298.53 180.471 297.985 180.546C297.449 180.621 296.927 180.659 296.42 180.659C295.415 180.659 294.48 180.495 293.615 180.166C292.751 179.827 291.999 179.335 291.36 178.686C290.721 178.03 290.219 177.222 289.852 176.263C289.485 175.295 289.302 174.178 289.302 172.911C289.302 171.924 289.462 170.999 289.781 170.134C290.101 169.261 290.557 168.505 291.149 167.866C291.75 167.218 292.478 166.706 293.333 166.331C294.198 165.955 295.17 165.768 296.251 165.768C297.162 165.768 298.003 165.913 298.774 166.203C299.545 166.495 300.207 166.923 300.761 167.486C301.315 168.04 301.748 168.726 302.058 169.543C302.377 170.351 302.537 171.275 302.537 172.318C302.537 172.844 302.48 173.202 302.368 173.389C302.255 173.567 302.039 173.657 301.719 173.657H292.77ZM308.63 176.7C309.026 177.179 309.454 177.518 309.913 177.715C310.383 177.912 310.891 178.01 311.435 178.01C311.962 178.01 312.437 177.912 312.859 177.715C313.282 177.518 313.639 177.216 313.931 176.812C314.231 176.409 314.461 175.902 314.621 175.291C314.781 174.671 314.861 173.943 314.861 173.108C314.861 172.262 314.79 171.549 314.65 170.966C314.518 170.375 314.325 169.896 314.071 169.529C313.818 169.163 313.507 168.895 313.141 168.726C312.784 168.556 312.376 168.473 311.915 168.473C311.191 168.473 310.576 168.627 310.069 168.937C309.561 169.238 309.082 169.665 308.63 170.219V176.7ZM308.448 167.965C309.04 167.299 309.712 166.759 310.463 166.345C311.215 165.931 312.098 165.725 313.113 165.725C313.903 165.725 314.621 165.89 315.269 166.219C315.928 166.546 316.491 167.025 316.961 167.655C317.44 168.274 317.806 169.045 318.061 169.965C318.323 170.877 318.455 171.924 318.455 173.108C318.455 174.188 318.309 175.188 318.018 176.109C317.727 177.029 317.309 177.827 316.764 178.503C316.228 179.179 315.575 179.711 314.804 180.095C314.043 180.471 313.188 180.659 312.239 180.659C311.431 180.659 310.741 180.537 310.168 180.292C309.594 180.04 309.082 179.691 308.63 179.25V185.167H305.149V165.993H307.278C307.729 165.993 308.025 166.203 308.167 166.627L308.448 167.965ZM328.81 174.276C327.805 174.324 326.959 174.412 326.273 174.544C325.587 174.666 325.038 174.826 324.625 175.023C324.211 175.22 323.915 175.451 323.736 175.714C323.558 175.977 323.469 176.263 323.469 176.574C323.469 177.184 323.647 177.62 324.004 177.884C324.37 178.146 324.845 178.278 325.427 178.278C326.142 178.278 326.758 178.152 327.274 177.898C327.8 177.634 328.313 177.24 328.81 176.714V174.276ZM320.834 168.008C322.496 166.485 324.498 165.725 326.837 165.725C327.682 165.725 328.439 165.866 329.107 166.148C329.774 166.42 330.337 166.805 330.798 167.303C331.258 167.791 331.607 168.379 331.841 169.064C332.086 169.75 332.208 170.501 332.208 171.318V180.448H330.629C330.3 180.448 330.046 180.401 329.868 180.306C329.689 180.203 329.549 180.002 329.445 179.701L329.135 178.659C328.768 178.988 328.411 179.279 328.063 179.532C327.716 179.776 327.355 179.983 326.978 180.152C326.602 180.321 326.198 180.448 325.766 180.532C325.344 180.627 324.873 180.673 324.357 180.673C323.746 180.673 323.182 180.594 322.665 180.434C322.149 180.265 321.702 180.016 321.327 179.687C320.95 179.358 320.659 178.95 320.452 178.461C320.246 177.973 320.142 177.405 320.142 176.757C320.142 176.39 320.203 176.028 320.325 175.671C320.448 175.305 320.645 174.958 320.917 174.629C321.199 174.3 321.561 173.991 322.003 173.699C322.444 173.408 322.985 173.155 323.623 172.938C324.272 172.722 325.023 172.548 325.879 172.416C326.734 172.276 327.712 172.192 328.81 172.164V171.318C328.81 170.351 328.604 169.638 328.191 169.177C327.777 168.708 327.18 168.473 326.401 168.473C325.837 168.473 325.366 168.538 324.991 168.67C324.625 168.801 324.3 168.952 324.018 169.12C323.736 169.279 323.478 169.425 323.243 169.557C323.018 169.689 322.764 169.754 322.482 169.754C322.238 169.754 322.031 169.693 321.861 169.571C321.693 169.439 321.557 169.289 321.453 169.12L320.834 168.008ZM338.771 168.501C339.22 167.636 339.756 166.96 340.377 166.471C340.996 165.974 341.73 165.725 342.575 165.725C343.243 165.725 343.778 165.87 344.182 166.162L343.957 168.769C343.91 168.937 343.839 169.059 343.746 169.135C343.661 169.2 343.543 169.234 343.393 169.234C343.252 169.234 343.041 169.21 342.759 169.163C342.486 169.116 342.218 169.092 341.956 169.092C341.57 169.092 341.227 169.149 340.927 169.261C340.626 169.374 340.354 169.539 340.109 169.754C339.874 169.961 339.663 170.215 339.475 170.515C339.297 170.816 339.127 171.159 338.968 171.543V180.448H335.486V165.993H337.529C337.887 165.993 338.136 166.058 338.276 166.19C338.418 166.312 338.512 166.538 338.558 166.866L338.771 168.501ZM350.822 180.673C349.563 180.673 348.595 180.321 347.919 179.616C347.252 178.903 346.918 177.921 346.918 176.672V168.599H345.439C345.25 168.599 345.09 168.538 344.958 168.416C344.828 168.294 344.761 168.111 344.761 167.866V166.485L347.087 166.105L347.82 162.16C347.867 161.973 347.956 161.827 348.088 161.724C348.22 161.62 348.388 161.569 348.595 161.569H350.399V166.119H354.261V168.599H350.399V176.432C350.399 176.883 350.507 177.236 350.724 177.488C350.949 177.742 351.254 177.87 351.64 177.87C351.856 177.87 352.035 177.847 352.175 177.799C352.326 177.742 352.453 177.687 352.555 177.63C352.669 177.573 352.768 177.522 352.851 177.475C352.936 177.419 353.021 177.39 353.105 177.39C353.209 177.39 353.294 177.419 353.359 177.475C353.425 177.522 353.496 177.597 353.571 177.701L354.613 179.391C354.107 179.813 353.523 180.133 352.866 180.349C352.208 180.566 351.526 180.673 350.822 180.673ZM368.95 165.993V180.448H366.822C366.361 180.448 366.07 180.237 365.947 179.813L365.708 178.659C365.116 179.26 364.463 179.748 363.749 180.124C363.035 180.489 362.194 180.673 361.226 180.673C360.437 180.673 359.736 180.542 359.126 180.278C358.525 180.006 358.017 179.626 357.603 179.137C357.191 178.649 356.875 178.071 356.659 177.405C356.453 176.728 356.349 175.987 356.349 175.179V165.993H359.83V175.179C359.83 176.061 360.033 176.747 360.437 177.236C360.85 177.715 361.466 177.953 362.283 177.953C362.884 177.953 363.448 177.823 363.974 177.559C364.5 177.287 364.999 176.917 365.468 176.446V165.993H368.95ZM375.686 168.501C376.137 167.636 376.672 166.96 377.292 166.471C377.913 165.974 378.645 165.725 379.491 165.725C380.159 165.725 380.695 165.87 381.099 166.162L380.872 168.769C380.825 168.937 380.756 169.059 380.661 169.135C380.576 169.2 380.458 169.234 380.308 169.234C380.168 169.234 379.956 169.21 379.674 169.163C379.402 169.116 379.134 169.092 378.871 169.092C378.485 169.092 378.142 169.149 377.842 169.261C377.541 169.374 377.269 169.539 377.024 169.754C376.79 169.961 376.579 170.215 376.39 170.515C376.212 170.816 376.043 171.159 375.883 171.543V180.448H372.402V165.993H374.446C374.803 165.993 375.051 166.058 375.193 166.19C375.333 166.312 375.427 166.538 375.475 166.866L375.686 168.501ZM391.822 171.557C391.822 171.108 391.755 170.684 391.624 170.29C391.502 169.886 391.313 169.533 391.061 169.234C390.807 168.932 390.482 168.698 390.087 168.528C389.703 168.351 389.251 168.261 388.735 168.261C387.729 168.261 386.935 168.548 386.352 169.12C385.78 169.693 385.413 170.505 385.253 171.557H391.822ZM385.183 173.657C385.239 174.399 385.37 175.043 385.577 175.587C385.784 176.123 386.056 176.568 386.395 176.926C386.732 177.273 387.132 177.536 387.593 177.715C388.063 177.884 388.579 177.969 389.143 177.969C389.707 177.969 390.191 177.902 390.595 177.77C391.008 177.64 391.365 177.494 391.666 177.334C391.976 177.175 392.244 177.029 392.47 176.897C392.705 176.765 392.93 176.7 393.146 176.7C393.438 176.7 393.653 176.808 393.795 177.025L394.795 178.292C394.41 178.743 393.978 179.124 393.498 179.433C393.019 179.734 392.516 179.979 391.99 180.166C391.473 180.345 390.943 180.471 390.397 180.546C389.862 180.621 389.34 180.659 388.833 180.659C387.828 180.659 386.893 180.495 386.028 180.166C385.163 179.827 384.412 179.335 383.773 178.686C383.134 178.03 382.632 177.222 382.265 176.263C381.898 175.295 381.715 174.178 381.715 172.911C381.715 171.924 381.875 170.999 382.194 170.134C382.514 169.261 382.969 168.505 383.562 167.866C384.163 167.218 384.891 166.706 385.746 166.331C386.611 165.955 387.583 165.768 388.664 165.768C389.575 165.768 390.416 165.913 391.187 166.203C391.958 166.495 392.62 166.923 393.174 167.486C393.728 168.04 394.161 168.726 394.471 169.543C394.79 170.351 394.95 171.275 394.95 172.318C394.95 172.844 394.893 173.202 394.781 173.389C394.668 173.567 394.452 173.657 394.132 173.657H385.183ZM410.817 165.768C411.887 165.768 412.859 165.941 413.734 166.288C414.617 166.637 415.369 167.129 415.989 167.768C416.618 168.406 417.103 169.186 417.44 170.107C417.779 171.027 417.949 172.056 417.949 173.192C417.949 174.338 417.779 175.372 417.44 176.292C417.103 177.212 416.618 177.996 415.989 178.645C415.369 179.293 414.617 179.79 413.734 180.138C412.859 180.485 411.887 180.659 410.817 180.659C409.735 180.659 408.753 180.485 407.87 180.138C406.987 179.79 406.231 179.293 405.601 178.645C404.982 177.996 404.497 177.212 404.15 176.292C403.811 175.372 403.642 174.338 403.642 173.192C403.642 172.056 403.811 171.027 404.15 170.107C404.497 169.186 404.982 168.406 405.601 167.768C406.231 167.129 406.987 166.637 407.87 166.288C408.753 165.941 409.735 165.768 410.817 165.768ZM410.817 177.983C412.019 177.983 412.906 177.579 413.48 176.771C414.063 175.963 414.353 174.779 414.353 173.22C414.353 171.661 414.063 170.473 413.48 169.656C412.906 168.838 412.019 168.43 410.817 168.43C409.595 168.43 408.688 168.844 408.096 169.669C407.513 170.487 407.221 171.671 407.221 173.22C407.221 174.771 407.513 175.953 408.096 176.771C408.688 177.579 409.595 177.983 410.817 177.983ZM421.26 180.448V168.613L420.007 168.416C419.734 168.359 419.514 168.266 419.344 168.134C419.184 167.993 419.104 167.796 419.104 167.543V166.119H421.26V165.049C421.26 164.223 421.383 163.48 421.627 162.822C421.881 162.166 422.238 161.606 422.699 161.145C423.168 160.686 423.736 160.333 424.404 160.089C425.071 159.845 425.822 159.723 426.659 159.723C427.326 159.723 427.947 159.813 428.52 159.991L428.449 161.738C428.44 161.87 428.402 161.977 428.337 162.062C428.27 162.136 428.181 162.198 428.069 162.245C427.965 162.282 427.843 162.311 427.702 162.329C427.561 162.339 427.411 162.343 427.251 162.343C426.837 162.343 426.466 162.39 426.137 162.485C425.818 162.57 425.546 162.724 425.319 162.95C425.094 163.165 424.921 163.457 424.799 163.823C424.686 164.18 424.629 164.627 424.629 165.161V166.119H428.392V168.599H424.742V180.448H421.26ZM447.063 172.755L444.582 165.979C444.46 165.677 444.332 165.321 444.202 164.908C444.07 164.495 443.938 164.048 443.806 163.569C443.684 164.048 443.558 164.499 443.426 164.922C443.295 165.335 443.167 165.697 443.045 166.006L440.579 172.755H447.063ZM453.757 180.448H450.826C450.497 180.448 450.229 180.367 450.022 180.208C449.816 180.04 449.661 179.833 449.558 179.589L448.035 175.433H439.592L438.07 179.589C437.995 179.804 437.849 180.002 437.634 180.18C437.417 180.359 437.149 180.448 436.83 180.448H433.871L441.89 160.075H445.752L453.757 180.448ZM455.29 180.448V165.993H457.417C457.869 165.993 458.165 166.203 458.306 166.627L458.531 167.697C458.785 167.415 459.048 167.157 459.321 166.923C459.603 166.688 459.899 166.485 460.209 166.317C460.528 166.148 460.867 166.016 461.224 165.922C461.59 165.819 461.989 165.768 462.422 165.768C463.333 165.768 464.08 166.016 464.662 166.514C465.255 167.003 465.696 167.655 465.988 168.473C466.213 167.993 466.495 167.585 466.834 167.246C467.171 166.899 467.542 166.617 467.946 166.401C468.35 166.185 468.778 166.026 469.229 165.922C469.69 165.819 470.15 165.768 470.611 165.768C471.409 165.768 472.119 165.89 472.738 166.134C473.359 166.378 473.881 166.735 474.303 167.204C474.727 167.673 475.046 168.247 475.261 168.923C475.488 169.599 475.6 170.375 475.6 171.248V180.448H472.119V171.248C472.119 170.327 471.916 169.638 471.512 169.177C471.108 168.708 470.516 168.473 469.736 168.473C469.379 168.473 469.046 168.533 468.736 168.655C468.435 168.777 468.167 168.956 467.932 169.191C467.707 169.417 467.528 169.703 467.398 170.05C467.266 170.398 467.199 170.797 467.199 171.248V180.448H463.704V171.248C463.704 170.28 463.507 169.576 463.112 169.135C462.728 168.694 462.158 168.473 461.407 168.473C460.899 168.473 460.425 168.599 459.984 168.853C459.55 169.096 459.146 169.435 458.771 169.867V180.448H455.29ZM488.226 171.557C488.226 171.108 488.16 170.684 488.028 170.29C487.906 169.886 487.719 169.533 487.465 169.234C487.21 168.932 486.887 168.698 486.493 168.528C486.106 168.351 485.655 168.261 485.139 168.261C484.133 168.261 483.339 168.548 482.757 169.12C482.184 169.693 481.817 170.505 481.657 171.557H488.226ZM481.587 173.657C481.643 174.399 481.775 175.043 481.982 175.587C482.188 176.123 482.461 176.568 482.799 176.926C483.138 177.273 483.536 177.536 483.997 177.715C484.467 177.884 484.984 177.969 485.548 177.969C486.112 177.969 486.595 177.902 486.999 177.77C487.413 177.64 487.77 177.494 488.07 177.334C488.381 177.175 488.649 177.029 488.874 176.897C489.109 176.765 489.335 176.7 489.55 176.7C489.842 176.7 490.059 176.808 490.199 177.025L491.2 178.292C490.814 178.743 490.382 179.124 489.903 179.433C489.424 179.734 488.921 179.979 488.395 180.166C487.878 180.345 487.347 180.471 486.802 180.546C486.266 180.621 485.745 180.659 485.237 180.659C484.232 180.659 483.297 180.495 482.432 180.166C481.568 179.827 480.817 179.335 480.177 178.686C479.538 178.03 479.036 177.222 478.669 176.263C478.302 175.295 478.121 174.178 478.121 172.911C478.121 171.924 478.28 170.999 478.6 170.134C478.919 169.261 479.374 168.505 479.966 167.866C480.567 167.218 481.296 166.706 482.15 166.331C483.015 165.955 483.987 165.768 485.068 165.768C485.98 165.768 486.82 165.913 487.591 166.203C488.362 166.495 489.024 166.923 489.578 167.486C490.133 168.04 490.565 168.726 490.875 169.543C491.194 170.351 491.354 171.275 491.354 172.318C491.354 172.844 491.299 173.202 491.186 173.389C491.072 173.567 490.857 173.657 490.538 173.657H481.587ZM503.284 171.557C503.284 171.108 503.218 170.684 503.087 170.29C502.964 169.886 502.776 169.533 502.523 169.234C502.269 168.932 501.945 168.698 501.549 168.528C501.165 168.351 500.713 168.261 500.197 168.261C499.191 168.261 498.397 168.548 497.815 169.12C497.242 169.693 496.875 170.505 496.716 171.557H503.284ZM496.645 173.657C496.702 174.399 496.834 175.043 497.039 175.587C497.246 176.123 497.52 176.568 497.857 176.926C498.196 177.273 498.594 177.536 499.055 177.715C499.525 177.884 500.041 177.969 500.605 177.969C501.169 177.969 501.654 177.902 502.058 177.77C502.471 177.64 502.828 177.494 503.128 177.334C503.439 177.175 503.706 177.029 503.932 176.897C504.167 176.765 504.392 176.7 504.609 176.7C504.9 176.7 505.115 176.808 505.257 177.025L506.258 178.292C505.872 178.743 505.44 179.124 504.961 179.433C504.482 179.734 503.979 179.979 503.453 180.166C502.937 180.345 502.405 180.471 501.86 180.546C501.324 180.621 500.802 180.659 500.295 180.659C499.29 180.659 498.356 180.495 497.49 180.166C496.627 179.827 495.874 179.335 495.235 178.686C494.597 178.03 494.094 177.222 493.727 176.263C493.361 175.295 493.177 174.178 493.177 172.911C493.177 171.924 493.337 170.999 493.656 170.134C493.977 169.261 494.433 168.505 495.024 167.866C495.625 167.218 496.353 166.706 497.209 166.331C498.074 165.955 499.046 165.768 500.126 165.768C501.038 165.768 501.879 165.913 502.649 166.203C503.42 166.495 504.082 166.923 504.636 167.486C505.192 168.04 505.624 168.726 505.933 169.543C506.253 170.351 506.412 171.275 506.412 172.318C506.412 172.844 506.357 173.202 506.243 173.389C506.13 173.567 505.915 173.657 505.594 173.657H496.645ZM512.31 168.501C512.76 167.636 513.296 166.96 513.916 166.471C514.536 165.974 515.269 165.725 516.115 165.725C516.781 165.725 517.317 165.87 517.721 166.162L517.496 168.769C517.449 168.937 517.378 169.059 517.284 169.135C517.201 169.2 517.083 169.234 516.933 169.234C516.791 169.234 516.58 169.21 516.298 169.163C516.026 169.116 515.758 169.092 515.494 169.092C515.109 169.092 514.766 169.149 514.465 169.261C514.165 169.374 513.893 169.539 513.648 169.754C513.414 169.961 513.201 170.215 513.014 170.515C512.835 170.816 512.667 171.159 512.507 171.543V180.448H509.026V165.993H511.068C511.425 165.993 511.675 166.058 511.815 166.19C511.957 166.312 512.05 166.538 512.097 166.866L512.31 168.501ZM542.757 160.075L534.525 180.448H531.101L522.869 160.075H525.914C526.243 160.075 526.51 160.156 526.717 160.315C526.924 160.475 527.079 160.682 527.182 160.934L531.988 173.362C532.148 173.766 532.299 174.211 532.439 174.7C532.589 175.179 532.731 175.681 532.863 176.207C532.975 175.681 533.098 175.179 533.229 174.7C533.36 174.211 533.506 173.766 533.666 173.362L538.444 160.934C538.519 160.719 538.665 160.522 538.881 160.343C539.106 160.164 539.378 160.075 539.698 160.075H542.757ZM549.808 174.276C548.803 174.324 547.957 174.412 547.271 174.544C546.585 174.666 546.035 174.826 545.623 175.023C545.209 175.22 544.913 175.451 544.734 175.714C544.556 175.977 544.466 176.263 544.466 176.574C544.466 177.184 544.645 177.62 545.002 177.884C545.369 178.146 545.844 178.278 546.426 178.278C547.141 178.278 547.756 178.152 548.272 177.898C548.799 177.634 549.311 177.24 549.808 176.714V174.276ZM541.831 168.008C543.494 166.485 545.495 165.725 547.835 165.725C548.681 165.725 549.438 165.866 550.104 166.148C550.772 166.42 551.336 166.805 551.795 167.303C552.256 167.791 552.604 168.379 552.84 169.064C553.083 169.75 553.205 170.501 553.205 171.318V180.448H551.627C551.298 180.448 551.044 180.401 550.866 180.306C550.687 180.203 550.546 180.002 550.443 179.701L550.133 178.659C549.767 178.988 549.41 179.279 549.061 179.532C548.714 179.776 548.352 179.983 547.977 180.152C547.6 180.321 547.196 180.448 546.764 180.532C546.341 180.627 545.872 180.673 545.355 180.673C544.744 180.673 544.18 180.594 543.664 180.434C543.147 180.265 542.7 180.016 542.325 179.687C541.949 179.358 541.657 178.95 541.45 178.461C541.243 177.973 541.141 177.405 541.141 176.757C541.141 176.39 541.202 176.028 541.324 175.671C541.446 175.305 541.643 174.958 541.915 174.629C542.197 174.3 542.56 173.991 543.001 173.699C543.443 173.408 543.983 173.155 544.622 172.938C545.27 172.722 546.021 172.548 546.877 172.416C547.732 172.276 548.71 172.192 549.808 172.164V171.318C549.808 170.351 549.601 169.638 549.189 169.177C548.775 168.708 548.178 168.473 547.399 168.473C546.835 168.473 546.365 168.538 545.99 168.67C545.623 168.801 545.298 168.952 545.016 169.12C544.734 169.279 544.476 169.425 544.241 169.557C544.016 169.689 543.762 169.754 543.48 169.754C543.236 169.754 543.029 169.693 542.86 169.571C542.692 169.439 542.554 169.289 542.451 169.12L541.831 168.008ZM559.74 167.768C560.031 167.476 560.337 167.208 560.656 166.964C560.985 166.712 561.328 166.499 561.685 166.331C562.052 166.152 562.442 166.016 562.854 165.922C563.268 165.819 563.72 165.768 564.208 165.768C564.997 165.768 565.697 165.904 566.308 166.176C566.919 166.439 567.426 166.814 567.83 167.303C568.244 167.782 568.553 168.359 568.76 169.035C568.977 169.703 569.085 170.44 569.085 171.248V180.448H565.604V171.248C565.604 170.365 565.401 169.683 564.997 169.204C564.593 168.716 563.978 168.473 563.152 168.473C562.549 168.473 561.985 168.609 561.46 168.881C560.934 169.153 560.435 169.524 559.966 169.994V180.448H556.485V165.993H558.612C559.063 165.993 559.359 166.203 559.501 166.627L559.74 167.768ZM575.652 167.768C575.942 167.476 576.248 167.208 576.567 166.964C576.896 166.712 577.239 166.499 577.596 166.331C577.963 166.152 578.353 166.016 578.767 165.922C579.179 165.819 579.63 165.768 580.119 165.768C580.909 165.768 581.609 165.904 582.219 166.176C582.83 166.439 583.338 166.814 583.742 167.303C584.155 167.782 584.466 168.359 584.673 169.035C584.888 169.703 584.996 170.44 584.996 171.248V180.448H581.515V171.248C581.515 170.365 581.312 169.683 580.909 169.204C580.505 168.716 579.889 168.473 579.062 168.473C578.461 168.473 577.897 168.609 577.371 168.881C576.845 169.153 576.346 169.524 575.877 169.994V180.448H572.396V165.993H574.524C574.974 165.993 575.272 166.203 575.412 166.627L575.652 167.768Z" fill="black"/>
<path d="M586 76.3433H0V140.194H586V76.3433Z" fill="black"/>
<path d="M33.3106 92.256L29.4423 123.537H24.5309L26.2477 109.548H12.1002L10.3616 123.537H5.4502L9.29676 92.256H14.2299L12.5348 106.028H26.6823L28.3774 92.256H33.3106ZM41.3891 123.537H36.4777L40.3025 92.256H45.2139L41.3891 123.537ZM59.3578 108.288C60.5169 108.288 61.531 108.114 62.4002 107.766C63.284 107.404 64.0156 106.912 64.5951 106.289C65.1747 105.652 65.6094 104.899 65.899 104.03C66.1888 103.147 66.3337 102.183 66.3337 101.141C66.3337 99.6056 65.8846 98.3819 64.9863 97.4695C64.0881 96.5572 62.7045 96.1011 60.8355 96.1011H56.6412L55.1418 108.288H59.3578ZM61.3136 92.256C63.0232 92.256 64.501 92.466 65.747 92.886C67.0074 93.2915 68.0433 93.8707 68.8546 94.6237C69.6804 95.3623 70.2889 96.253 70.6801 97.2958C71.0712 98.324 71.2669 99.4609 71.2669 100.706C71.2669 102.372 70.9989 103.907 70.4627 105.312C69.9412 106.702 69.1588 107.904 68.1157 108.918C67.0726 109.931 65.776 110.728 64.2257 111.307C62.6901 111.872 60.908 112.154 58.8797 112.154H54.6637L53.2728 123.537H48.4048L52.2297 92.256H61.3136ZM109.839 92.256L105.971 123.537H101.06L102.777 109.548H88.629L86.8905 123.537H81.979L85.8257 92.256H90.7588L89.0637 106.028H103.211L104.906 92.256H109.839ZM142.366 105.746C142.366 107.484 142.179 109.142 141.801 110.721C141.425 112.299 140.882 113.762 140.172 115.109C139.476 116.441 138.629 117.65 137.629 118.736C136.629 119.808 135.514 120.728 134.282 121.495C133.051 122.248 131.718 122.835 130.283 123.255C128.849 123.66 127.335 123.863 125.742 123.863C123.786 123.863 122.018 123.516 120.439 122.821C118.874 122.125 117.541 121.17 116.44 119.953C115.354 118.722 114.513 117.267 113.919 115.587C113.34 113.907 113.05 112.075 113.05 110.091C113.05 108.338 113.238 106.673 113.615 105.094C114.006 103.516 114.55 102.053 115.245 100.706C115.94 99.3594 116.788 98.1429 117.788 97.0567C118.787 95.9706 119.903 95.051 121.134 94.298C122.366 93.5304 123.699 92.9439 125.133 92.5383C126.567 92.1184 128.081 91.9084 129.675 91.9084C131.631 91.9084 133.391 92.256 134.956 92.9511C136.521 93.6463 137.853 94.6165 138.954 95.862C140.055 97.093 140.896 98.5557 141.476 100.25C142.069 101.93 142.366 103.762 142.366 105.746ZM137.325 105.855C137.325 104.363 137.136 103.016 136.76 101.814C136.383 100.598 135.84 99.5622 135.13 98.7078C134.42 97.8388 133.551 97.1726 132.522 96.7093C131.508 96.2458 130.363 96.014 129.088 96.014C127.451 96.014 125.952 96.3471 124.59 97.0133C123.242 97.6651 122.083 98.5991 121.113 99.8156C120.156 101.032 119.41 102.502 118.874 104.225C118.338 105.934 118.07 107.839 118.07 109.939C118.07 111.43 118.258 112.784 118.635 114.001C119.012 115.203 119.548 116.238 120.243 117.107C120.953 117.962 121.815 118.621 122.829 119.084C123.844 119.547 124.995 119.779 126.285 119.779C127.936 119.779 129.436 119.453 130.783 118.802C132.145 118.136 133.312 117.201 134.282 115.999C135.253 114.783 135.999 113.32 136.521 111.611C137.057 109.888 137.325 107.969 137.325 105.855ZM156.515 108.288C157.674 108.288 158.688 108.114 159.557 107.766C160.442 107.404 161.174 106.912 161.753 106.289C162.332 105.652 162.766 104.899 163.057 104.03C163.347 103.147 163.491 102.183 163.491 101.141C163.491 99.6056 163.041 98.3819 162.144 97.4695C161.246 96.5572 159.861 96.1011 157.992 96.1011H153.799L152.299 108.288H156.515ZM158.471 92.256C160.181 92.256 161.658 92.466 162.904 92.886C164.165 93.2915 165.201 93.8707 166.012 94.6237C166.838 95.3623 167.446 96.253 167.838 97.2958C168.229 98.324 168.424 99.4609 168.424 100.706C168.424 102.372 168.156 103.907 167.62 105.312C167.099 106.702 166.316 107.904 165.273 108.918C164.23 109.931 162.933 110.728 161.383 111.307C159.847 111.872 158.066 112.154 156.037 112.154H151.821L150.43 123.537H145.563L149.387 92.256H158.471ZM176.976 90.6267C177.454 91.684 177.708 92.7483 177.737 93.82C177.78 94.8772 177.62 95.9127 177.259 96.9265C176.911 97.9402 176.375 98.9177 175.651 99.8591C174.94 100.8 174.078 101.677 173.064 102.488L171.804 101.662C171.616 101.517 171.522 101.329 171.522 101.097C171.522 100.967 171.558 100.844 171.63 100.728C171.702 100.612 171.826 100.453 171.999 100.25C172.276 99.9315 172.571 99.526 172.891 99.0336C173.209 98.5267 173.463 97.9619 173.652 97.3392C173.855 96.7019 173.949 96.0214 173.934 95.2972C173.934 94.5586 173.753 93.7838 173.391 92.9728C173.274 92.7121 173.282 92.466 173.413 92.2342C173.557 92.0025 173.789 91.8287 174.107 91.713L176.976 90.6267ZM197.947 97.5348C197.758 97.7809 197.578 97.9691 197.404 98.0996C197.229 98.2153 197.02 98.2732 196.774 98.2732C196.513 98.2732 196.231 98.1575 195.925 97.9258C195.637 97.6795 195.281 97.4117 194.862 97.122C194.441 96.8323 193.934 96.5716 193.34 96.3399C192.745 96.0937 192.022 95.9706 191.167 95.9706C190.313 95.9706 189.552 96.1009 188.885 96.3616C188.218 96.6223 187.653 96.9772 187.189 97.4261C186.741 97.8606 186.401 98.3819 186.169 98.9902C185.937 99.584 185.82 100.228 185.82 100.924C185.82 101.633 185.987 102.227 186.32 102.705C186.669 103.168 187.124 103.574 187.689 103.921C188.255 104.269 188.892 104.58 189.602 104.855C190.313 105.131 191.043 105.413 191.797 105.703C192.551 105.992 193.281 106.325 193.992 106.702C194.702 107.064 195.339 107.52 195.905 108.07C196.47 108.606 196.918 109.258 197.251 110.026C197.6 110.793 197.774 111.72 197.774 112.806C197.774 114.312 197.513 115.739 196.99 117.085C196.47 118.432 195.723 119.613 194.752 120.626C193.797 121.626 192.623 122.422 191.232 123.016C189.856 123.595 188.306 123.885 186.581 123.885C185.669 123.885 184.777 123.784 183.908 123.581C183.053 123.393 182.249 123.124 181.496 122.777C180.742 122.415 180.048 121.98 179.409 121.474C178.772 120.967 178.215 120.402 177.736 119.779L179.453 117.433C179.598 117.259 179.771 117.114 179.974 116.999C180.192 116.868 180.417 116.803 180.649 116.803C180.967 116.803 181.293 116.962 181.627 117.281C181.96 117.585 182.365 117.933 182.843 118.324C183.336 118.7 183.93 119.048 184.625 119.366C185.32 119.671 186.183 119.823 187.212 119.823C188.11 119.823 188.921 119.685 189.646 119.41C190.369 119.135 190.978 118.751 191.471 118.259C191.977 117.752 192.362 117.143 192.623 116.434C192.898 115.71 193.036 114.913 193.036 114.044C193.036 113.291 192.862 112.669 192.513 112.176C192.18 111.684 191.732 111.264 191.167 110.916C190.617 110.569 189.986 110.272 189.277 110.026C188.566 109.779 187.842 109.519 187.103 109.243C186.363 108.968 185.64 108.657 184.93 108.309C184.219 107.947 183.582 107.498 183.017 106.963C182.467 106.412 182.017 105.739 181.67 104.942C181.336 104.131 181.17 103.147 181.17 101.988C181.17 100.67 181.409 99.4102 181.888 98.2081C182.365 96.9916 183.053 95.9199 183.951 94.9931C184.865 94.0663 185.966 93.3277 187.255 92.7773C188.545 92.2125 190 91.9301 191.623 91.9301C192.448 91.9301 193.238 92.017 193.992 92.1907C194.745 92.3501 195.455 92.5891 196.121 92.9077C196.788 93.2118 197.389 93.581 197.925 94.0155C198.476 94.4499 198.961 94.9279 199.382 95.4492L197.947 97.5348ZM222.626 119.671C223.698 119.671 224.632 119.526 225.429 119.236C226.227 118.946 226.886 118.541 227.407 118.02C227.929 117.484 228.312 116.847 228.559 116.108C228.819 115.369 228.95 114.544 228.95 113.632C228.95 112.372 228.537 111.372 227.711 110.634C226.9 109.895 225.618 109.526 223.864 109.526H218.171L216.932 119.671H222.626ZM219.822 96.1011L218.606 106.094H223.169C225.314 106.094 226.936 105.58 228.037 104.551C229.138 103.523 229.688 102.06 229.688 100.163C229.688 98.7585 229.276 97.7302 228.45 97.0785C227.625 96.4268 226.357 96.1011 224.648 96.1011H219.822ZM225.082 92.256C226.763 92.256 228.204 92.4225 229.406 92.7555C230.623 93.0887 231.616 93.5666 232.384 94.1893C233.166 94.7975 233.739 95.5361 234.1 96.405C234.462 97.274 234.644 98.2444 234.644 99.3161C234.644 100.228 234.514 101.097 234.253 101.923C234.007 102.748 233.622 103.516 233.102 104.225C232.593 104.921 231.949 105.543 231.167 106.094C230.384 106.644 229.458 107.093 228.384 107.44C230.197 107.875 231.544 108.606 232.427 109.634C233.325 110.663 233.775 111.966 233.775 113.545C233.775 114.993 233.507 116.325 232.971 117.542C232.449 118.758 231.688 119.815 230.688 120.713C229.704 121.597 228.494 122.292 227.06 122.799C225.639 123.291 224.031 123.537 222.236 123.537H211.564L215.411 92.256H225.082ZM242.919 123.537H238.008L241.833 92.256H246.745L242.919 123.537ZM266.147 108.222H275.513L273.992 120.518C273.195 121.083 272.378 121.575 271.536 121.995C270.696 122.415 269.813 122.77 268.885 123.059C267.958 123.335 266.973 123.537 265.93 123.668C264.901 123.812 263.793 123.885 262.604 123.885C260.707 123.885 258.976 123.545 257.411 122.864C255.861 122.169 254.535 121.213 253.434 119.996C252.333 118.765 251.479 117.303 250.869 115.608C250.276 113.914 249.979 112.067 249.979 110.069C249.979 107.404 250.398 104.964 251.238 102.748C252.094 100.518 253.26 98.5991 254.738 96.9916C256.231 95.3841 257.998 94.1386 260.041 93.2552C262.084 92.3573 264.3 91.9084 266.691 91.9084C267.937 91.9084 269.067 92.017 270.081 92.2342C271.094 92.4514 272.008 92.7483 272.819 93.1249C273.645 93.5015 274.384 93.9432 275.035 94.45C275.688 94.9569 276.281 95.5 276.817 96.0793L275.253 98.1212C274.992 98.4978 274.681 98.7295 274.319 98.8164C273.956 98.8888 273.587 98.8019 273.211 98.5557C272.833 98.324 272.443 98.0706 272.036 97.7953C271.646 97.5058 271.182 97.2379 270.646 96.9916C270.124 96.7454 269.516 96.5427 268.82 96.3834C268.124 96.224 267.299 96.1444 266.343 96.1444C264.662 96.1444 263.126 96.4703 261.735 97.122C260.345 97.7737 259.149 98.7005 258.15 99.9025C257.15 101.105 256.375 102.553 255.825 104.247C255.274 105.942 254.999 107.824 254.999 109.895C254.999 111.459 255.195 112.864 255.585 114.109C255.992 115.34 256.564 116.39 257.303 117.259C258.041 118.114 258.925 118.773 259.953 119.236C260.996 119.7 262.156 119.931 263.431 119.931C264.778 119.931 265.951 119.794 266.951 119.519C267.951 119.243 268.914 118.867 269.842 118.389L270.624 111.937H266.734C266.43 111.937 266.191 111.85 266.016 111.676C265.858 111.503 265.793 111.285 265.822 111.025L266.147 108.222ZM295.647 108.222H305.013L303.492 120.518C302.695 121.083 301.876 121.575 301.036 121.995C300.196 122.415 299.313 122.77 298.385 123.059C297.457 123.335 296.473 123.537 295.429 123.668C294.401 123.812 293.293 123.885 292.104 123.885C290.206 123.885 288.474 123.545 286.911 122.864C285.36 122.169 284.035 121.213 282.934 119.996C281.833 118.765 280.977 117.303 280.369 115.608C279.775 113.914 279.478 112.067 279.478 110.069C279.478 107.404 279.898 104.964 280.738 102.748C281.594 100.518 282.759 98.5991 284.238 96.9916C285.729 95.3841 287.497 94.1386 289.54 93.2552C291.582 92.3573 293.8 91.9084 296.19 91.9084C297.435 91.9084 298.566 92.017 299.581 92.2342C300.594 92.4514 301.507 92.7483 302.318 93.1249C303.144 93.5015 303.883 93.9432 304.535 94.45C305.187 94.9569 305.781 95.5 306.317 96.0793L304.752 98.1212C304.491 98.4978 304.18 98.7295 303.817 98.8164C303.456 98.8888 303.086 98.8019 302.709 98.5557C302.333 98.324 301.941 98.0706 301.536 97.7953C301.144 97.5058 300.682 97.2379 300.144 96.9916C299.624 96.7454 299.016 96.5427 298.32 96.3834C297.624 96.224 296.798 96.1444 295.843 96.1444C294.162 96.1444 292.626 96.4703 291.235 97.122C289.844 97.7737 288.649 98.7005 287.65 99.9025C286.65 101.105 285.875 102.553 285.324 104.247C284.774 105.942 284.497 107.824 284.497 109.895C284.497 111.459 284.693 112.864 285.085 114.109C285.49 115.34 286.062 116.39 286.801 117.259C287.54 118.114 288.424 118.773 289.453 119.236C290.496 119.7 291.656 119.931 292.931 119.931C294.278 119.931 295.451 119.794 296.451 119.519C297.451 119.243 298.414 118.867 299.34 118.389L300.124 111.937H296.233C295.929 111.937 295.69 111.85 295.516 111.676C295.356 111.503 295.291 111.285 295.32 111.025L295.647 108.222ZM317.213 96.2313L316.04 105.855H326.494L325.994 109.678H315.562L314.346 119.562H327.493L326.994 123.537H308.934L312.781 92.256H330.818L330.318 96.2313H317.213ZM350.707 97.5348C350.52 97.7809 350.338 97.9691 350.164 98.0996C349.991 98.2153 349.781 98.2732 349.534 98.2732C349.274 98.2732 348.991 98.1575 348.687 97.9258C348.396 97.6795 348.042 97.4117 347.622 97.122C347.202 96.8323 346.694 96.5716 346.101 96.3399C345.507 96.0937 344.782 95.9706 343.928 95.9706C343.072 95.9706 342.311 96.1009 341.645 96.3616C340.978 96.6223 340.415 96.9772 339.951 97.4261C339.501 97.8606 339.161 98.3819 338.929 98.9902C338.697 99.584 338.582 100.228 338.582 100.924C338.582 101.633 338.748 102.227 339.082 102.705C339.429 103.168 339.886 103.574 340.451 103.921C341.016 104.269 341.653 104.58 342.363 104.855C343.072 105.131 343.804 105.413 344.557 105.703C345.311 105.992 346.043 106.325 346.752 106.702C347.462 107.064 348.099 107.52 348.664 108.07C349.23 108.606 349.68 109.258 350.013 110.026C350.36 110.793 350.534 111.72 350.534 112.806C350.534 114.312 350.272 115.739 349.752 117.085C349.23 118.432 348.484 119.613 347.513 120.626C346.557 121.626 345.383 122.422 343.993 123.016C342.616 123.595 341.066 123.885 339.341 123.885C338.429 123.885 337.539 123.784 336.669 123.581C335.814 123.393 335.01 123.124 334.256 122.777C333.503 122.415 332.808 121.98 332.17 121.474C331.533 120.967 330.975 120.402 330.497 119.779L332.213 117.433C332.359 117.259 332.533 117.114 332.736 116.999C332.952 116.868 333.177 116.803 333.409 116.803C333.728 116.803 334.053 116.962 334.387 117.281C334.72 117.585 335.125 117.933 335.604 118.324C336.096 118.7 336.69 119.048 337.386 119.366C338.082 119.671 338.944 119.823 339.972 119.823C340.87 119.823 341.681 119.685 342.406 119.41C343.131 119.135 343.739 118.751 344.232 118.259C344.739 117.752 345.122 117.143 345.383 116.434C345.658 115.71 345.797 114.913 345.797 114.044C345.797 113.291 345.622 112.669 345.275 112.176C344.942 111.684 344.493 111.264 343.928 110.916C343.377 110.569 342.746 110.272 342.037 110.026C341.327 109.779 340.602 109.519 339.863 109.243C339.125 108.968 338.4 108.657 337.69 108.309C336.981 107.947 336.343 107.498 335.778 106.963C335.227 106.412 334.778 105.739 334.431 104.942C334.098 104.131 333.931 103.147 333.931 101.988C333.931 100.67 334.17 99.4102 334.648 98.2081C335.125 96.9916 335.814 95.9199 336.713 94.9931C337.625 94.0663 338.726 93.3277 340.016 92.7773C341.305 92.2125 342.761 91.9301 344.383 91.9301C345.21 91.9301 346 92.017 346.752 92.1907C347.506 92.3501 348.216 92.5891 348.882 92.9077C349.549 93.2118 350.15 93.581 350.686 94.0155C351.236 94.4499 351.722 94.9279 352.142 95.4492L350.707 97.5348ZM377.644 96.3399H368.776L365.429 123.537H360.562L363.887 96.3399H354.977L355.455 92.256H378.164L377.644 96.3399ZM398.265 119.671C399.337 119.671 400.271 119.526 401.068 119.236C401.865 118.946 402.524 118.541 403.046 118.02C403.568 117.484 403.951 116.847 404.197 116.108C404.458 115.369 404.589 114.544 404.589 113.632C404.589 112.372 404.176 111.372 403.35 110.634C402.539 109.895 401.256 109.526 399.503 109.526H393.81L392.571 119.671H398.265ZM395.461 96.1011L394.245 106.094H398.808C400.952 106.094 402.575 105.58 403.676 104.551C404.777 103.523 405.327 102.06 405.327 100.163C405.327 98.7585 404.915 97.7302 404.089 97.0785C403.264 96.4268 401.996 96.1011 400.285 96.1011H395.461ZM400.72 92.256C402.401 92.256 403.843 92.4225 405.045 92.7555C406.262 93.0887 407.255 93.5666 408.023 94.1893C408.804 94.7975 409.377 95.5361 409.739 96.405C410.101 97.274 410.282 98.2444 410.282 99.3161C410.282 100.228 410.153 101.097 409.892 101.923C409.645 102.748 409.261 103.516 408.739 104.225C408.232 104.921 407.588 105.543 406.805 106.094C406.023 106.644 405.095 107.093 404.023 107.44C405.834 107.875 407.183 108.606 408.066 109.634C408.964 110.663 409.413 111.966 409.413 113.545C409.413 114.993 409.145 116.325 408.609 117.542C408.088 118.758 407.327 119.815 406.327 120.713C405.343 121.597 404.133 122.292 402.699 122.799C401.278 123.291 399.67 123.537 397.873 123.537H387.203L391.049 92.256H400.72ZM443.006 105.746C443.006 107.484 442.819 109.142 442.441 110.721C442.065 112.299 441.522 113.762 440.811 115.109C440.117 116.441 439.268 117.65 438.268 118.736C437.27 119.808 436.153 120.728 434.922 121.495C433.691 122.248 432.358 122.835 430.924 123.255C429.489 123.66 427.976 123.863 426.382 123.863C424.425 123.863 422.659 123.516 421.078 122.821C419.514 122.125 418.182 121.17 417.081 119.953C415.993 118.722 415.153 117.267 414.559 115.587C413.98 113.907 413.69 112.075 413.69 110.091C413.69 108.338 413.878 106.673 414.255 105.094C414.646 103.516 415.189 102.053 415.885 100.706C416.581 99.3594 417.428 98.1429 418.428 97.0567C419.427 95.9706 420.542 95.051 421.774 94.298C423.006 93.5304 424.339 92.9439 425.773 92.5383C427.208 92.1184 428.721 91.9084 430.316 91.9084C432.271 91.9084 434.032 92.256 435.595 92.9511C437.16 93.6463 438.493 94.6165 439.594 95.862C440.696 97.093 441.536 98.5557 442.115 100.25C442.709 101.93 443.006 103.762 443.006 105.746ZM437.964 105.855C437.964 104.363 437.777 103.016 437.399 101.814C437.023 100.598 436.48 99.5622 435.77 98.7078C435.059 97.8388 434.19 97.1726 433.162 96.7093C432.147 96.2458 431.003 96.014 429.728 96.014C428.091 96.014 426.591 96.3471 425.229 97.0133C423.882 97.6651 422.723 98.5991 421.752 99.8156C420.797 101.032 420.051 102.502 419.513 104.225C418.977 105.934 418.71 107.839 418.71 109.939C418.71 111.43 418.898 112.784 419.275 114.001C419.652 115.203 420.188 116.238 420.883 117.107C421.594 117.962 422.455 118.621 423.47 119.084C424.483 119.547 425.636 119.779 426.925 119.779C428.577 119.779 430.075 119.453 431.424 118.802C432.785 118.136 433.951 117.201 434.922 115.999C435.892 114.783 436.639 113.32 437.16 111.611C437.696 109.888 437.964 107.969 437.964 105.855ZM457.594 111.22L456.051 123.537H451.162L452.704 111.22L444.512 92.256H448.858C449.277 92.256 449.604 92.3645 449.836 92.5818C450.083 92.7846 450.263 93.0525 450.379 93.3856L454.965 104.964C455.283 105.891 455.529 106.796 455.704 107.679C455.907 107.245 456.123 106.81 456.355 106.376C456.602 105.927 456.87 105.456 457.159 104.964L464.636 93.3856C464.809 93.0959 465.034 92.8352 465.309 92.6036C465.599 92.3719 465.953 92.256 466.374 92.256H470.437L457.594 111.22ZM481.16 119.671C482.232 119.671 483.167 119.526 483.964 119.236C484.761 118.946 485.42 118.541 485.941 118.02C486.463 117.484 486.847 116.847 487.094 116.108C487.353 115.369 487.484 114.544 487.484 113.632C487.484 112.372 487.072 111.372 486.245 110.634C485.434 109.895 484.153 109.526 482.399 109.526H476.705L475.467 119.671H481.16ZM478.357 96.1011L477.14 106.094H481.703C483.849 106.094 485.47 105.58 486.572 104.551C487.673 103.523 488.223 102.06 488.223 100.163C488.223 98.7585 487.81 97.7302 486.984 97.0785C486.159 96.4268 484.891 96.1011 483.182 96.1011H478.357ZM483.617 92.256C485.297 92.256 486.738 92.4225 487.941 92.7555C489.157 93.0887 490.15 93.5666 490.918 94.1893C491.7 94.7975 492.273 95.5361 492.634 96.405C492.997 97.274 493.179 98.2444 493.179 99.3161C493.179 100.228 493.048 101.097 492.787 101.923C492.541 102.748 492.157 103.516 491.635 104.225C491.128 104.921 490.483 105.543 489.702 106.094C488.918 106.644 487.991 107.093 486.919 107.44C488.731 107.875 490.078 108.606 490.961 109.634C491.859 110.663 492.309 111.966 492.309 113.545C492.309 114.993 492.041 116.325 491.505 117.542C490.983 118.758 490.222 119.815 489.223 120.713C488.238 121.597 487.028 122.292 485.594 122.799C484.173 123.291 482.565 123.537 480.769 123.537H470.098L473.945 92.256H483.617ZM512.853 111.85L510.375 100.142C510.303 99.6925 510.209 99.1784 510.092 98.5991C509.991 98.0199 509.889 97.3826 509.788 96.6875C509.542 97.3826 509.295 98.0271 509.049 98.6208C508.804 99.2002 508.579 99.7215 508.376 100.185L503.03 111.85H512.853ZM520.372 123.537H516.591C516.156 123.537 515.815 123.436 515.569 123.233C515.337 123.016 515.17 122.733 515.069 122.386L513.591 115.369H501.399L498.183 122.386C498.039 122.69 497.807 122.958 497.488 123.19C497.184 123.421 496.829 123.537 496.423 123.537H492.598L507.833 92.256H512.808L520.372 123.537ZM551.78 92.256L547.911 123.537H545.434C545.042 123.537 544.724 123.472 544.477 123.342C544.232 123.197 544 122.965 543.783 122.647L531.026 100.142C530.997 100.475 530.967 100.793 530.94 101.097C530.924 101.387 530.902 101.662 530.874 101.923L528.222 123.537H523.92L527.767 92.256H530.309C530.744 92.256 531.055 92.2994 531.244 92.3863C531.446 92.4732 531.649 92.6977 531.852 93.0597L544.652 115.565C544.695 114.768 544.761 114.059 544.848 113.436L547.456 92.256H551.78ZM582.438 105.746C582.438 107.498 582.249 109.157 581.873 110.721C581.497 112.27 580.961 113.704 580.265 115.022C579.569 116.34 578.722 117.527 577.722 118.584C576.736 119.642 575.628 120.54 574.397 121.278C573.18 122.002 571.847 122.56 570.399 122.951C568.964 123.342 567.451 123.537 565.857 123.537H554.948L558.794 92.256H569.725C571.68 92.256 573.441 92.5891 575.006 93.2552C576.585 93.9214 577.918 94.8555 579.004 96.0575C580.105 97.2451 580.952 98.6642 581.547 100.315C582.141 101.966 582.438 103.776 582.438 105.746ZM577.418 105.876C577.418 104.399 577.229 103.067 576.853 101.879C576.491 100.677 575.955 99.6563 575.245 98.8164C574.549 97.9765 573.694 97.332 572.68 96.8829C571.667 96.434 570.521 96.2096 569.246 96.2096H563.249L560.337 119.584H566.334C567.987 119.584 569.493 119.272 570.854 118.65C572.216 118.012 573.383 117.107 574.354 115.934C575.324 114.747 576.078 113.306 576.614 111.611C577.15 109.917 577.418 108.005 577.418 105.876Z" fill="white"/>
</svg>
