<svg width="268" height="101" viewBox="0 0 268 101" fill="none" xmlns="http://www.w3.org/2000/svg">
<path d="M14 0H259V46H14V0Z" fill="black"/>
<path d="M56.1703 10.2L41.9103 39H37.8303L30.6103 10.2H34.2303C34.617 10.2 34.9236 10.3 35.1503 10.5C35.3903 10.7 35.537 10.9533 35.5903 11.26L39.9103 30.36C40.0436 30.8667 40.1636 31.42 40.2703 32.02C40.377 32.6067 40.4703 33.22 40.5503 33.86C40.7636 33.22 40.9836 32.6067 41.2103 32.02C41.4503 31.42 41.697 30.8667 41.9503 30.36L50.9103 11.26C51.017 10.9933 51.217 10.7533 51.5103 10.54C51.817 10.3133 52.1636 10.2 52.5503 10.2H56.1703ZM60.4163 39H55.8963L59.4163 10.2H63.9363L60.4163 39ZM77.0528 35.44C78.0395 35.44 78.8995 35.3067 79.6328 35.04C80.3661 34.7733 80.9728 34.4 81.4528 33.92C81.9328 33.4267 82.2861 32.84 82.5128 32.16C82.7528 31.48 82.8728 30.72 82.8728 29.88C82.8728 28.72 82.4928 27.8 81.7328 27.12C80.9861 26.44 79.8061 26.1 78.1928 26.1H72.9528L71.8128 35.44H77.0528ZM74.4728 13.74L73.3528 22.94H77.5528C79.5261 22.94 81.0195 22.4667 82.0328 21.52C83.0461 20.5733 83.5528 19.2267 83.5528 17.48C83.5528 16.1867 83.1728 15.24 82.4128 14.64C81.6528 14.04 80.4861 13.74 78.9128 13.74H74.4728ZM79.3128 10.2C80.8595 10.2 82.1861 10.3533 83.2928 10.66C84.4128 10.9667 85.3261 11.4067 86.0328 11.98C86.7528 12.54 87.2795 13.22 87.6128 14.02C87.9461 14.82 88.1128 15.7133 88.1128 16.7C88.1128 17.54 87.9928 18.34 87.7528 19.1C87.5261 19.86 87.1728 20.5667 86.6928 21.22C86.2261 21.86 85.6328 22.4333 84.9128 22.94C84.1928 23.4467 83.3395 23.86 82.3528 24.18C84.0195 24.58 85.2595 25.2533 86.0728 26.2C86.8995 27.1467 87.3128 28.3467 87.3128 29.8C87.3128 31.1333 87.0661 32.36 86.5728 33.48C86.0928 34.6 85.3928 35.5733 84.4728 36.4C83.5661 37.2133 82.4528 37.8533 81.1328 38.32C79.8261 38.7733 78.3461 39 76.6928 39H66.8728L70.4128 10.2H79.3128ZM98.8288 13.86L97.7488 22.72H107.369L106.909 26.24H97.3088L96.1888 35.34H108.289L107.829 39H91.2088L94.7487 10.2H111.349L110.889 13.86H98.8288ZM133.597 35.44C134.437 35.44 135.177 35.3733 135.817 35.24C136.47 35.1067 137.037 34.94 137.517 34.74C137.997 34.5267 138.403 34.3 138.737 34.06C139.083 33.82 139.383 33.6 139.637 33.4C139.89 33.1867 140.11 33.0133 140.297 32.88C140.483 32.7467 140.663 32.68 140.837 32.68C140.983 32.68 141.103 32.7133 141.197 32.78C141.29 32.8333 141.363 32.8933 141.417 32.96L142.997 34.94C141.757 36.3267 140.297 37.4067 138.617 38.18C136.937 38.94 135.01 39.32 132.837 39.32C131.09 39.32 129.53 39.0067 128.157 38.38C126.783 37.7533 125.623 36.8867 124.677 35.78C123.73 34.6733 123.003 33.3533 122.497 31.82C122.003 30.2867 121.757 28.6133 121.757 26.8C121.757 24.3067 122.15 22.0267 122.937 19.96C123.723 17.88 124.803 16.0933 126.177 14.6C127.55 13.1067 129.157 11.9467 130.997 11.12C132.85 10.2933 134.837 9.88 136.957 9.88C137.997 9.88 138.937 9.97333 139.777 10.16C140.63 10.3467 141.397 10.6133 142.077 10.96C142.77 11.2933 143.397 11.7 143.957 12.18C144.517 12.66 145.03 13.1933 145.497 13.78L143.957 15.66C143.837 15.8067 143.697 15.9333 143.537 16.04C143.377 16.1467 143.177 16.2 142.937 16.2C142.763 16.2 142.59 16.14 142.417 16.02C142.243 15.9 142.05 15.7533 141.837 15.58C141.623 15.3933 141.37 15.2 141.077 15C140.797 14.7867 140.457 14.5933 140.057 14.42C139.657 14.2333 139.183 14.08 138.637 13.96C138.103 13.84 137.47 13.78 136.737 13.78C135.27 13.78 133.903 14.08 132.637 14.68C131.37 15.2667 130.27 16.1067 129.337 17.2C128.417 18.2933 127.69 19.62 127.157 21.18C126.623 22.74 126.357 24.4867 126.357 26.42C126.357 27.82 126.537 29.08 126.897 30.2C127.257 31.32 127.757 32.2667 128.397 33.04C129.037 33.8133 129.797 34.4067 130.677 34.82C131.57 35.2333 132.543 35.44 133.597 35.44ZM172.239 10.2L168.679 39H164.159L165.739 26.12H152.719L151.119 39H146.599L150.139 10.2H154.679L153.119 22.88H166.139L167.699 10.2H172.239ZM182.774 13.86L181.694 22.72H191.314L190.854 26.24H181.254L180.134 35.34H192.234L191.774 39H175.154L178.694 10.2H195.294L194.834 13.86H182.774ZM207.933 35.44C208.773 35.44 209.513 35.3733 210.153 35.24C210.806 35.1067 211.373 34.94 211.853 34.74C212.333 34.5267 212.739 34.3 213.073 34.06C213.419 33.82 213.719 33.6 213.973 33.4C214.226 33.1867 214.446 33.0133 214.633 32.88C214.819 32.7467 214.999 32.68 215.173 32.68C215.319 32.68 215.439 32.7133 215.533 32.78C215.626 32.8333 215.699 32.8933 215.753 32.96L217.333 34.94C216.093 36.3267 214.633 37.4067 212.953 38.18C211.273 38.94 209.346 39.32 207.173 39.32C205.426 39.32 203.866 39.0067 202.493 38.38C201.119 37.7533 199.959 36.8867 199.013 35.78C198.066 34.6733 197.339 33.3533 196.833 31.82C196.339 30.2867 196.093 28.6133 196.093 26.8C196.093 24.3067 196.486 22.0267 197.273 19.96C198.059 17.88 199.139 16.0933 200.513 14.6C201.886 13.1067 203.493 11.9467 205.332 11.12C207.186 10.2933 209.173 9.88 211.293 9.88C212.333 9.88 213.273 9.97333 214.113 10.16C214.966 10.3467 215.733 10.6133 216.413 10.96C217.106 11.2933 217.733 11.7 218.293 12.18C218.853 12.66 219.366 13.1933 219.833 13.78L218.293 15.66C218.173 15.8067 218.033 15.9333 217.873 16.04C217.713 16.1467 217.513 16.2 217.273 16.2C217.099 16.2 216.926 16.14 216.753 16.02C216.579 15.9 216.386 15.7533 216.173 15.58C215.959 15.3933 215.706 15.2 215.413 15C215.133 14.7867 214.793 14.5933 214.393 14.42C213.993 14.2333 213.519 14.08 212.973 13.96C212.439 13.84 211.806 13.78 211.073 13.78C209.606 13.78 208.239 14.08 206.973 14.68C205.706 15.2667 204.606 16.1067 203.673 17.2C202.753 18.2933 202.026 19.62 201.493 21.18C200.959 22.74 200.693 24.4867 200.693 26.42C200.693 27.82 200.873 29.08 201.233 30.2C201.593 31.32 202.093 32.2667 202.733 33.04C203.373 33.8133 204.133 34.4067 205.013 34.82C205.906 35.2333 206.879 35.44 207.933 35.44ZM227.415 22.6H228.635C229.102 22.6 229.489 22.5333 229.795 22.4C230.115 22.2533 230.409 22.0267 230.675 21.72L239.775 11.22C240.082 10.82 240.409 10.5533 240.755 10.42C241.115 10.2733 241.529 10.2 241.995 10.2H245.835L235.035 22.44C234.489 23.1067 233.935 23.5733 233.375 23.84C233.735 23.9867 234.049 24.1867 234.315 24.44C234.582 24.68 234.822 25.0133 235.035 25.44L242.995 39H239.055C238.495 39 238.095 38.92 237.855 38.76C237.629 38.6 237.435 38.3733 237.275 38.08L230.575 27C230.389 26.6533 230.155 26.4067 229.875 26.26C229.595 26.1133 229.169 26.04 228.595 26.04H226.995L225.415 39H220.935L224.455 10.18H228.955L227.415 22.6Z" fill="white"/>
<path d="M30.9539 57.987C30.8659 58.141 30.7706 58.2547 30.6679 58.328C30.5726 58.394 30.4516 58.427 30.3049 58.427C30.1509 58.427 29.9822 58.372 29.7989 58.262C29.6229 58.1447 29.4102 58.0163 29.1609 57.877C28.9116 57.7377 28.6182 57.613 28.2809 57.503C27.9509 57.3857 27.5586 57.327 27.1039 57.327C26.6932 57.327 26.3339 57.3783 26.0259 57.481C25.7179 57.5763 25.4576 57.712 25.2449 57.888C25.0396 58.064 24.8856 58.2767 24.7829 58.526C24.6802 58.768 24.6289 59.0357 24.6289 59.329C24.6289 59.703 24.7316 60.0147 24.9369 60.264C25.1496 60.5133 25.4282 60.726 25.7729 60.902C26.1176 61.078 26.5099 61.2357 26.9499 61.375C27.3899 61.5143 27.8409 61.6647 28.3029 61.826C28.7649 61.98 29.2159 62.1633 29.6559 62.376C30.0959 62.5813 30.4882 62.8453 30.8329 63.168C31.1776 63.4833 31.4526 63.872 31.6579 64.334C31.8706 64.796 31.9769 65.357 31.9769 66.017C31.9769 66.7357 31.8522 67.4103 31.6029 68.041C31.3609 68.6643 31.0016 69.2107 30.5249 69.68C30.0556 70.142 29.4799 70.5087 28.7979 70.78C28.1159 71.044 27.3349 71.176 26.4549 71.176C25.9489 71.176 25.4502 71.1247 24.9589 71.022C24.4676 70.9267 23.9946 70.7873 23.5399 70.604C23.0926 70.4207 22.6709 70.2007 22.2749 69.944C21.8789 69.6873 21.5269 69.4013 21.2189 69.086L22.0879 67.667C22.1612 67.5643 22.2566 67.48 22.3739 67.414C22.4912 67.3407 22.6159 67.304 22.7479 67.304C22.9312 67.304 23.1292 67.381 23.3419 67.535C23.5546 67.6817 23.8076 67.8467 24.1009 68.03C24.3942 68.2133 24.7352 68.382 25.1239 68.536C25.5199 68.6827 25.9929 68.756 26.5429 68.756C27.3862 68.756 28.0389 68.558 28.5009 68.162C28.9629 67.7587 29.1939 67.183 29.1939 66.435C29.1939 66.017 29.0876 65.676 28.8749 65.412C28.6696 65.148 28.3946 64.928 28.0499 64.752C27.7052 64.5687 27.3129 64.4147 26.8729 64.29C26.4329 64.1653 25.9856 64.0297 25.5309 63.883C25.0762 63.7363 24.6289 63.5603 24.1889 63.355C23.7489 63.1497 23.3566 62.882 23.0119 62.552C22.6672 62.222 22.3886 61.8113 22.1759 61.32C21.9706 60.8213 21.8679 60.209 21.8679 59.483C21.8679 58.9037 21.9816 58.339 22.2089 57.789C22.4436 57.239 22.7809 56.7513 23.2209 56.326C23.6609 55.9007 24.2036 55.5597 24.8489 55.303C25.4942 55.0463 26.2349 54.918 27.0709 54.918C28.0096 54.918 28.8749 55.0647 29.6669 55.358C30.4589 55.6513 31.1336 56.062 31.6909 56.59L30.9539 57.987ZM41.3571 64.059C41.3571 63.707 41.3058 63.377 41.2031 63.069C41.1078 62.7537 40.9611 62.4787 40.7631 62.244C40.5651 62.0093 40.3121 61.826 40.0041 61.694C39.7035 61.5547 39.3515 61.485 38.9481 61.485C38.1635 61.485 37.5438 61.7087 37.0891 62.156C36.6418 62.6033 36.3558 63.2377 36.2311 64.059H41.3571ZM36.1761 65.698C36.2201 66.2773 36.3228 66.7797 36.4841 67.205C36.6455 67.623 36.8581 67.9713 37.1221 68.25C37.3861 68.5213 37.6978 68.7267 38.0571 68.866C38.4238 68.998 38.8271 69.064 39.2671 69.064C39.7071 69.064 40.0848 69.0127 40.4001 68.91C40.7228 68.8073 41.0015 68.6937 41.2361 68.569C41.4781 68.4443 41.6871 68.3307 41.8631 68.228C42.0465 68.1253 42.2225 68.074 42.3911 68.074C42.6185 68.074 42.7871 68.1583 42.8971 68.327L43.6781 69.317C43.3775 69.669 43.0401 69.966 42.6661 70.208C42.2921 70.4427 41.8998 70.6333 41.4891 70.78C41.0858 70.9193 40.6715 71.0183 40.2461 71.077C39.8281 71.1357 39.4211 71.165 39.0251 71.165C38.2405 71.165 37.5108 71.0367 36.8361 70.78C36.1615 70.516 35.5748 70.131 35.0761 69.625C34.5775 69.1117 34.1851 68.481 33.8991 67.733C33.6131 66.9777 33.4701 66.105 33.4701 65.115C33.4701 64.345 33.5948 63.6227 33.8441 62.948C34.0935 62.266 34.4491 61.6757 34.9111 61.177C35.3805 60.671 35.9488 60.2713 36.6161 59.978C37.2908 59.6847 38.0498 59.538 38.8931 59.538C39.6045 59.538 40.2608 59.6517 40.8621 59.879C41.4635 60.1063 41.9805 60.44 42.4131 60.88C42.8458 61.3127 43.1831 61.848 43.4251 62.486C43.6745 63.1167 43.7991 63.839 43.7991 64.653C43.7991 65.0637 43.7551 65.3423 43.6671 65.489C43.5791 65.6283 43.4105 65.698 43.1611 65.698H36.1761ZM48.3791 61.1C48.6064 60.8727 48.8448 60.6637 49.0941 60.473C49.3508 60.275 49.6184 60.11 49.8971 59.978C50.1831 59.8387 50.4874 59.7323 50.8101 59.659C51.1328 59.5783 51.4848 59.538 51.8661 59.538C52.4821 59.538 53.0284 59.6443 53.5051 59.857C53.9818 60.0623 54.3778 60.3557 54.6931 60.737C55.0158 61.111 55.2578 61.562 55.4191 62.09C55.5878 62.6107 55.6721 63.1863 55.6721 63.817V71H52.9551V63.817C52.9551 63.1277 52.7974 62.596 52.4821 62.222C52.1668 61.8407 51.6864 61.65 51.0411 61.65C50.5718 61.65 50.1318 61.7563 49.7211 61.969C49.3104 62.1817 48.9218 62.4713 48.5551 62.838V71H45.8381V59.714H47.4991C47.8511 59.714 48.0821 59.879 48.1921 60.209L48.3791 61.1ZM69.4907 71H66.7737V61.749H61.5377V67.865C61.5377 68.217 61.622 68.492 61.7907 68.69C61.9667 68.888 62.205 68.987 62.5057 68.987C62.6743 68.987 62.8137 68.9687 62.9237 68.932C63.041 68.888 63.14 68.844 63.2207 68.8C63.3087 68.756 63.3857 68.7157 63.4517 68.679C63.5177 68.635 63.5837 68.613 63.6497 68.613C63.7303 68.613 63.7963 68.635 63.8477 68.679C63.899 68.7157 63.954 68.7743 64.0127 68.855L64.8267 70.175C64.4307 70.505 63.976 70.7543 63.4627 70.923C62.9493 71.0917 62.4177 71.176 61.8677 71.176C60.885 71.176 60.1297 70.901 59.6017 70.351C59.081 69.7937 58.8207 69.0273 58.8207 68.052V61.749H57.6657C57.519 61.749 57.3943 61.7013 57.2917 61.606C57.189 61.5107 57.1377 61.3677 57.1377 61.177V60.099L58.9527 59.791L59.5247 56.722C59.5613 56.5753 59.631 56.4617 59.7337 56.381C59.8363 56.3003 59.9683 56.26 60.1297 56.26H61.5377V59.813H69.4907V71ZM69.9637 56.381C69.9637 56.6157 69.916 56.8393 69.8207 57.052C69.7253 57.2573 69.597 57.437 69.4357 57.591C69.2817 57.745 69.0947 57.8697 68.8747 57.965C68.662 58.053 68.4347 58.097 68.1927 58.097C67.958 58.097 67.738 58.053 67.5327 57.965C67.3273 57.8697 67.1477 57.745 66.9937 57.591C66.8397 57.437 66.715 57.2573 66.6197 57.052C66.5317 56.8393 66.4877 56.6157 66.4877 56.381C66.4877 56.139 66.5317 55.9153 66.6197 55.71C66.715 55.4973 66.8397 55.314 66.9937 55.16C67.1477 54.9987 67.3273 54.874 67.5327 54.786C67.738 54.6907 67.958 54.643 68.1927 54.643C68.4347 54.643 68.662 54.6907 68.8747 54.786C69.0947 54.874 69.2817 54.9987 69.4357 55.16C69.597 55.314 69.7253 55.4973 69.8207 55.71C69.916 55.9153 69.9637 56.139 69.9637 56.381ZM72.2639 71V59.714H73.9249C74.2769 59.714 74.5079 59.879 74.6179 60.209L74.7939 61.045C74.9919 60.825 75.1972 60.6233 75.4099 60.44C75.6299 60.2567 75.8609 60.099 76.1029 59.967C76.3522 59.835 76.6162 59.7323 76.8949 59.659C77.1809 59.5783 77.4925 59.538 77.8299 59.538C78.5412 59.538 79.1242 59.7323 79.5789 60.121C80.0409 60.5023 80.3855 61.012 80.6129 61.65C80.7889 61.276 81.0089 60.957 81.2729 60.693C81.5369 60.4217 81.8265 60.2017 82.1419 60.033C82.4572 59.8643 82.7909 59.7397 83.1429 59.659C83.5022 59.5783 83.8615 59.538 84.2209 59.538C84.8442 59.538 85.3979 59.6333 85.8819 59.824C86.3659 60.0147 86.7729 60.2933 87.1029 60.66C87.4329 61.0267 87.6822 61.474 87.8509 62.002C88.0269 62.53 88.1149 63.135 88.1149 63.817V71H85.3979V63.817C85.3979 63.0983 85.2402 62.5593 84.9249 62.2C84.6095 61.8333 84.1475 61.65 83.5389 61.65C83.2602 61.65 82.9999 61.6977 82.7579 61.793C82.5232 61.8883 82.3142 62.0277 82.1309 62.211C81.9549 62.387 81.8155 62.6107 81.7129 62.882C81.6102 63.1533 81.5589 63.465 81.5589 63.817V71H78.8309V63.817C78.8309 63.0617 78.6769 62.5117 78.3689 62.167C78.0682 61.8223 77.6245 61.65 77.0379 61.65C76.6419 61.65 76.2715 61.749 75.9269 61.947C75.5895 62.1377 75.2742 62.4017 74.9809 62.739V71H72.2639ZM97.9685 64.059C97.9685 63.707 97.9171 63.377 97.8145 63.069C97.7191 62.7537 97.5725 62.4787 97.3745 62.244C97.1765 62.0093 96.9235 61.826 96.6155 61.694C96.3148 61.5547 95.9628 61.485 95.5595 61.485C94.7748 61.485 94.1551 61.7087 93.7005 62.156C93.2531 62.6033 92.9671 63.2377 92.8425 64.059H97.9685ZM92.7875 65.698C92.8315 66.2773 92.9341 66.7797 93.0955 67.205C93.2568 67.623 93.4695 67.9713 93.7335 68.25C93.9975 68.5213 94.3091 68.7267 94.6685 68.866C95.0351 68.998 95.4385 69.064 95.8785 69.064C96.3185 69.064 96.6961 69.0127 97.0115 68.91C97.3341 68.8073 97.6128 68.6937 97.8475 68.569C98.0895 68.4443 98.2985 68.3307 98.4745 68.228C98.6578 68.1253 98.8338 68.074 99.0025 68.074C99.2298 68.074 99.3985 68.1583 99.5085 68.327L100.289 69.317C99.9888 69.669 99.6515 69.966 99.2775 70.208C98.9035 70.4427 98.5111 70.6333 98.1005 70.78C97.6971 70.9193 97.2828 71.0183 96.8575 71.077C96.4395 71.1357 96.0325 71.165 95.6365 71.165C94.8518 71.165 94.1221 71.0367 93.4475 70.78C92.7728 70.516 92.1861 70.131 91.6875 69.625C91.1888 69.1117 90.7965 68.481 90.5105 67.733C90.2245 66.9777 90.0815 66.105 90.0815 65.115C90.0815 64.345 90.2061 63.6227 90.4555 62.948C90.7048 62.266 91.0605 61.6757 91.5225 61.177C91.9918 60.671 92.5601 60.2713 93.2275 59.978C93.9021 59.6847 94.6611 59.538 95.5045 59.538C96.2158 59.538 96.8721 59.6517 97.4735 59.879C98.0748 60.1063 98.5918 60.44 99.0245 60.88C99.4571 61.3127 99.7945 61.848 100.036 62.486C100.286 63.1167 100.41 63.839 100.41 64.653C100.41 65.0637 100.366 65.3423 100.278 65.489C100.19 65.6283 100.022 65.698 99.7725 65.698H92.7875ZM104.99 61.1C105.218 60.8727 105.456 60.6637 105.705 60.473C105.962 60.275 106.23 60.11 106.508 59.978C106.794 59.8387 107.099 59.7323 107.421 59.659C107.744 59.5783 108.096 59.538 108.477 59.538C109.093 59.538 109.64 59.6443 110.116 59.857C110.593 60.0623 110.989 60.3557 111.304 60.737C111.627 61.111 111.869 61.562 112.03 62.09C112.199 62.6107 112.283 63.1863 112.283 63.817V71H109.566V63.817C109.566 63.1277 109.409 62.596 109.093 62.222C108.778 61.8407 108.298 61.65 107.652 61.65C107.183 61.65 106.743 61.7563 106.332 61.969C105.922 62.1817 105.533 62.4713 105.166 62.838V71H102.449V59.714H104.11C104.462 59.714 104.693 59.879 104.803 60.209L104.99 61.1ZM118.479 71.176C117.496 71.176 116.741 70.901 116.213 70.351C115.692 69.7937 115.432 69.0273 115.432 68.052V61.749H114.277C114.13 61.749 114.006 61.7013 113.903 61.606C113.8 61.5107 113.749 61.3677 113.749 61.177V60.099L115.564 59.802L116.136 56.722C116.173 56.5753 116.242 56.4617 116.345 56.381C116.448 56.3003 116.58 56.26 116.741 56.26H118.149V59.813H121.163V61.749H118.149V67.865C118.149 68.217 118.233 68.492 118.402 68.69C118.578 68.888 118.816 68.987 119.117 68.987C119.286 68.987 119.425 68.9687 119.535 68.932C119.652 68.888 119.751 68.844 119.832 68.8C119.92 68.756 119.997 68.7157 120.063 68.679C120.129 68.635 120.195 68.613 120.261 68.613C120.342 68.613 120.408 68.635 120.459 68.679C120.51 68.7157 120.565 68.7743 120.624 68.855L121.438 70.175C121.042 70.505 120.587 70.7543 120.074 70.923C119.561 71.0917 119.029 71.176 118.479 71.176ZM132.168 63.564C131.581 63.9453 131.152 64.378 130.881 64.862C130.617 65.3387 130.485 65.852 130.485 66.402C130.485 66.8053 130.555 67.1683 130.694 67.491C130.833 67.8137 131.02 68.0887 131.255 68.316C131.497 68.536 131.776 68.7083 132.091 68.833C132.414 68.9503 132.755 69.009 133.114 69.009C133.759 69.009 134.35 68.91 134.885 68.712C135.42 68.5067 135.904 68.2243 136.337 67.865L132.168 63.564ZM142.761 71H140.099C139.82 71 139.593 70.967 139.417 70.901C139.248 70.835 139.069 70.6957 138.878 70.483L137.778 69.35C137.081 69.922 136.3 70.3693 135.435 70.692C134.57 71.0147 133.635 71.176 132.63 71.176C132.021 71.176 131.42 71.0733 130.826 70.868C130.239 70.6553 129.715 70.351 129.253 69.955C128.791 69.559 128.417 69.0823 128.131 68.525C127.852 67.9603 127.713 67.326 127.713 66.622C127.713 66.1233 127.794 65.654 127.955 65.214C128.116 64.7667 128.34 64.3523 128.626 63.971C128.912 63.5897 129.253 63.2487 129.649 62.948C130.045 62.64 130.478 62.376 130.947 62.156C130.551 61.606 130.265 61.0707 130.089 60.55C129.913 60.022 129.825 59.4977 129.825 58.977C129.825 58.427 129.924 57.9063 130.122 57.415C130.327 56.9163 130.621 56.4837 131.002 56.117C131.383 55.7503 131.853 55.4607 132.41 55.248C132.967 55.028 133.598 54.918 134.302 54.918C134.947 54.918 135.523 55.017 136.029 55.215C136.542 55.413 136.979 55.677 137.338 56.007C137.705 56.337 137.991 56.7147 138.196 57.14C138.409 57.5653 138.533 58.0053 138.57 58.46L136.843 58.823C136.52 58.889 136.286 58.7497 136.139 58.405C136.073 58.2143 135.985 58.0347 135.875 57.866C135.772 57.69 135.648 57.5397 135.501 57.415C135.354 57.283 135.182 57.1803 134.984 57.107C134.786 57.0263 134.559 56.986 134.302 56.986C133.994 56.986 133.719 57.041 133.477 57.151C133.235 57.2537 133.03 57.3967 132.861 57.58C132.7 57.756 132.575 57.965 132.487 58.207C132.399 58.4417 132.355 58.691 132.355 58.955C132.355 59.175 132.377 59.3877 132.421 59.593C132.465 59.7983 132.538 60.0037 132.641 60.209C132.744 60.4143 132.876 60.627 133.037 60.847C133.206 61.0597 133.411 61.2907 133.653 61.54L137.877 65.929C138.119 65.467 138.313 64.9793 138.46 64.466C138.607 63.9527 138.702 63.432 138.746 62.904C138.768 62.7353 138.827 62.5997 138.922 62.497C139.017 62.3943 139.149 62.343 139.318 62.343H141.012C141.005 63.311 140.865 64.235 140.594 65.115C140.323 65.995 139.934 66.8053 139.428 67.546L142.761 71ZM152.921 57.448V61.859H158.487V64.136H152.921V68.635H159.983V71H149.951V55.094H159.983V57.448H152.921ZM161.94 71V59.714H163.601C163.953 59.714 164.184 59.879 164.294 60.209L164.47 61.045C164.668 60.825 164.873 60.6233 165.086 60.44C165.306 60.2567 165.537 60.099 165.779 59.967C166.028 59.835 166.292 59.7323 166.571 59.659C166.857 59.5783 167.168 59.538 167.506 59.538C168.217 59.538 168.8 59.7323 169.255 60.121C169.717 60.5023 170.061 61.012 170.289 61.65C170.465 61.276 170.685 60.957 170.949 60.693C171.213 60.4217 171.502 60.2017 171.818 60.033C172.133 59.8643 172.467 59.7397 172.819 59.659C173.178 59.5783 173.537 59.538 173.897 59.538C174.52 59.538 175.074 59.6333 175.558 59.824C176.042 60.0147 176.449 60.2933 176.779 60.66C177.109 61.0267 177.358 61.474 177.527 62.002C177.703 62.53 177.791 63.135 177.791 63.817V71H175.074V63.817C175.074 63.0983 174.916 62.5593 174.601 62.2C174.285 61.8333 173.823 61.65 173.215 61.65C172.936 61.65 172.676 61.6977 172.434 61.793C172.199 61.8883 171.99 62.0277 171.807 62.211C171.631 62.387 171.491 62.6107 171.389 62.882C171.286 63.1533 171.235 63.465 171.235 63.817V71H168.507V63.817C168.507 63.0617 168.353 62.5117 168.045 62.167C167.744 61.8223 167.3 61.65 166.714 61.65C166.318 61.65 165.947 61.749 165.603 61.947C165.265 62.1377 164.95 62.4017 164.657 62.739V71H161.94ZM185.367 59.538C186.203 59.538 186.962 59.6737 187.644 59.945C188.334 60.2163 188.92 60.6013 189.404 61.1C189.896 61.5987 190.273 62.2073 190.537 62.926C190.801 63.6447 190.933 64.4477 190.933 65.335C190.933 66.2297 190.801 67.0363 190.537 67.755C190.273 68.4737 189.896 69.086 189.404 69.592C188.92 70.098 188.334 70.4867 187.644 70.758C186.962 71.0293 186.203 71.165 185.367 71.165C184.524 71.165 183.758 71.0293 183.068 70.758C182.379 70.4867 181.789 70.098 181.297 69.592C180.813 69.086 180.436 68.4737 180.164 67.755C179.9 67.0363 179.768 66.2297 179.768 65.335C179.768 64.4477 179.9 63.6447 180.164 62.926C180.436 62.2073 180.813 61.5987 181.297 61.1C181.789 60.6013 182.379 60.2163 183.068 59.945C183.758 59.6737 184.524 59.538 185.367 59.538ZM185.367 69.075C186.306 69.075 186.999 68.7597 187.446 68.129C187.901 67.4983 188.128 66.5743 188.128 65.357C188.128 64.1397 187.901 63.212 187.446 62.574C186.999 61.936 186.306 61.617 185.367 61.617C184.414 61.617 183.706 61.9397 183.244 62.585C182.79 63.223 182.562 64.147 182.562 65.357C182.562 66.567 182.79 67.491 183.244 68.129C183.706 68.7597 184.414 69.075 185.367 69.075ZM204.176 71H201.459V61.749H196.223V67.865C196.223 68.217 196.308 68.492 196.476 68.69C196.652 68.888 196.891 68.987 197.191 68.987C197.36 68.987 197.499 68.9687 197.609 68.932C197.727 68.888 197.826 68.844 197.906 68.8C197.994 68.756 198.071 68.7157 198.137 68.679C198.203 68.635 198.269 68.613 198.335 68.613C198.416 68.613 198.482 68.635 198.533 68.679C198.585 68.7157 198.64 68.7743 198.698 68.855L199.512 70.175C199.116 70.505 198.662 70.7543 198.148 70.923C197.635 71.0917 197.103 71.176 196.553 71.176C195.571 71.176 194.815 70.901 194.287 70.351C193.767 69.7937 193.506 69.0273 193.506 68.052V61.749H192.351C192.205 61.749 192.08 61.7013 191.977 61.606C191.875 61.5107 191.823 61.3677 191.823 61.177V60.099L193.638 59.791L194.21 56.722C194.247 56.5753 194.317 56.4617 194.419 56.381C194.522 56.3003 194.654 56.26 194.815 56.26H196.223V59.813H204.176V71ZM204.649 56.381C204.649 56.6157 204.602 56.8393 204.506 57.052C204.411 57.2573 204.283 57.437 204.121 57.591C203.967 57.745 203.78 57.8697 203.56 57.965C203.348 58.053 203.12 58.097 202.878 58.097C202.644 58.097 202.424 58.053 202.218 57.965C202.013 57.8697 201.833 57.745 201.679 57.591C201.525 57.437 201.401 57.2573 201.305 57.052C201.217 56.8393 201.173 56.6157 201.173 56.381C201.173 56.139 201.217 55.9153 201.305 55.71C201.401 55.4973 201.525 55.314 201.679 55.16C201.833 54.9987 202.013 54.874 202.218 54.786C202.424 54.6907 202.644 54.643 202.878 54.643C203.12 54.643 203.348 54.6907 203.56 54.786C203.78 54.874 203.967 54.9987 204.121 55.16C204.283 55.314 204.411 55.4973 204.506 55.71C204.602 55.9153 204.649 56.139 204.649 56.381ZM211.943 59.538C212.779 59.538 213.538 59.6737 214.22 59.945C214.91 60.2163 215.496 60.6013 215.98 61.1C216.472 61.5987 216.849 62.2073 217.113 62.926C217.377 63.6447 217.509 64.4477 217.509 65.335C217.509 66.2297 217.377 67.0363 217.113 67.755C216.849 68.4737 216.472 69.086 215.98 69.592C215.496 70.098 214.91 70.4867 214.22 70.758C213.538 71.0293 212.779 71.165 211.943 71.165C211.1 71.165 210.334 71.0293 209.644 70.758C208.955 70.4867 208.365 70.098 207.873 69.592C207.389 69.086 207.012 68.4737 206.74 67.755C206.476 67.0363 206.344 66.2297 206.344 65.335C206.344 64.4477 206.476 63.6447 206.74 62.926C207.012 62.2073 207.389 61.5987 207.873 61.1C208.365 60.6013 208.955 60.2163 209.644 59.945C210.334 59.6737 211.1 59.538 211.943 59.538ZM211.943 69.075C212.882 69.075 213.575 68.7597 214.022 68.129C214.477 67.4983 214.704 66.5743 214.704 65.357C214.704 64.1397 214.477 63.212 214.022 62.574C213.575 61.936 212.882 61.617 211.943 61.617C210.99 61.617 210.282 61.9397 209.82 62.585C209.366 63.223 209.138 64.147 209.138 65.357C209.138 66.567 209.366 67.491 209.82 68.129C210.282 68.7597 210.99 69.075 211.943 69.075ZM222.123 61.1C222.351 60.8727 222.589 60.6637 222.838 60.473C223.095 60.275 223.363 60.11 223.641 59.978C223.927 59.8387 224.232 59.7323 224.554 59.659C224.877 59.5783 225.229 59.538 225.61 59.538C226.226 59.538 226.773 59.6443 227.249 59.857C227.726 60.0623 228.122 60.3557 228.437 60.737C228.76 61.111 229.002 61.562 229.163 62.09C229.332 62.6107 229.416 63.1863 229.416 63.817V71H226.699V63.817C226.699 63.1277 226.542 62.596 226.226 62.222C225.911 61.8407 225.431 61.65 224.785 61.65C224.316 61.65 223.876 61.7563 223.465 61.969C223.055 62.1817 222.666 62.4713 222.299 62.838V71H219.582V59.714H221.243C221.595 59.714 221.826 59.879 221.936 60.209L222.123 61.1ZM237.962 66.182C237.178 66.2187 236.518 66.2883 235.982 66.391C235.447 66.4863 235.018 66.611 234.695 66.765C234.373 66.919 234.142 67.0987 234.002 67.304C233.863 67.5093 233.793 67.733 233.793 67.975C233.793 68.4517 233.933 68.7927 234.211 68.998C234.497 69.2033 234.868 69.306 235.322 69.306C235.88 69.306 236.36 69.207 236.763 69.009C237.174 68.8037 237.574 68.4957 237.962 68.085V66.182ZM231.736 61.287C233.034 60.099 234.596 59.505 236.422 59.505C237.082 59.505 237.673 59.615 238.193 59.835C238.714 60.0477 239.154 60.3483 239.513 60.737C239.873 61.1183 240.144 61.5767 240.327 62.112C240.518 62.6473 240.613 63.234 240.613 63.872V71H239.381C239.125 71 238.927 70.9633 238.787 70.89C238.648 70.8093 238.538 70.6517 238.457 70.417L238.215 69.603C237.929 69.8597 237.651 70.087 237.379 70.285C237.108 70.4757 236.826 70.637 236.532 70.769C236.239 70.901 235.924 71 235.586 71.066C235.256 71.1393 234.89 71.176 234.486 71.176C234.01 71.176 233.57 71.1137 233.166 70.989C232.763 70.857 232.415 70.6627 232.121 70.406C231.828 70.1493 231.601 69.8303 231.439 69.449C231.278 69.0677 231.197 68.624 231.197 68.118C231.197 67.832 231.245 67.5497 231.34 67.271C231.436 66.985 231.59 66.7137 231.802 66.457C232.022 66.2003 232.305 65.9583 232.649 65.731C232.994 65.5037 233.416 65.3057 233.914 65.137C234.42 64.9683 235.007 64.8327 235.674 64.73C236.342 64.62 237.104 64.554 237.962 64.532V63.872C237.962 63.1167 237.801 62.5593 237.478 62.2C237.156 61.8333 236.69 61.65 236.081 61.65C235.641 61.65 235.275 61.7013 234.981 61.804C234.695 61.9067 234.442 62.024 234.222 62.156C234.002 62.2807 233.801 62.3943 233.617 62.497C233.441 62.5997 233.243 62.651 233.023 62.651C232.833 62.651 232.671 62.6033 232.539 62.508C232.407 62.4053 232.301 62.288 232.22 62.156L231.736 61.287ZM245.922 54.654V71H243.205V54.654H245.922ZM29.1369 90.994L27.2009 85.703C27.1056 85.4683 27.0066 85.1897 26.9039 84.867C26.8012 84.5443 26.6986 84.196 26.5959 83.822C26.5006 84.196 26.4016 84.548 26.2989 84.878C26.1962 85.2007 26.0972 85.483 26.0019 85.725L24.0769 90.994H29.1369ZM34.3619 97H32.0739C31.8172 97 31.6082 96.9377 31.4469 96.813C31.2856 96.681 31.1646 96.5197 31.0839 96.329L29.8959 93.084H23.3069L22.1189 96.329C22.0602 96.4977 21.9466 96.6517 21.7779 96.791C21.6092 96.9303 21.4002 97 21.1509 97H18.8409L25.0999 81.094H28.1139L34.3619 97ZM38.0988 87.1C38.3262 86.8727 38.5645 86.6637 38.8138 86.473C39.0705 86.275 39.3382 86.11 39.6168 85.978C39.9028 85.8387 40.2072 85.7323 40.5298 85.659C40.8525 85.5783 41.2045 85.538 41.5858 85.538C42.2018 85.538 42.7482 85.6443 43.2248 85.857C43.7015 86.0623 44.0975 86.3557 44.4128 86.737C44.7355 87.111 44.9775 87.562 45.1388 88.09C45.3075 88.6107 45.3918 89.1863 45.3918 89.817V97H42.6748V89.817C42.6748 89.1277 42.5172 88.596 42.2018 88.222C41.8865 87.8407 41.4062 87.65 40.7608 87.65C40.2915 87.65 39.8515 87.7563 39.4408 87.969C39.0302 88.1817 38.6415 88.4713 38.2748 88.838V97H35.5578V85.714H37.2188C37.5708 85.714 37.8018 85.879 37.9118 86.209L38.0988 87.1ZM53.9378 92.182C53.1531 92.2187 52.4931 92.2883 51.9578 92.391C51.4225 92.4863 50.9935 92.611 50.6708 92.765C50.3481 92.919 50.1171 93.0987 49.9778 93.304C49.8385 93.5093 49.7688 93.733 49.7688 93.975C49.7688 94.4517 49.9081 94.7927 50.1868 94.998C50.4728 95.2033 50.8431 95.306 51.2978 95.306C51.8551 95.306 52.3355 95.207 52.7388 95.009C53.1495 94.8037 53.5491 94.4957 53.9378 94.085V92.182ZM47.7118 87.287C49.0098 86.099 50.5718 85.505 52.3978 85.505C53.0578 85.505 53.6481 85.615 54.1688 85.835C54.6895 86.0477 55.1295 86.3483 55.4888 86.737C55.8481 87.1183 56.1195 87.5767 56.3028 88.112C56.4935 88.6473 56.5888 89.234 56.5888 89.872V97H55.3568C55.1001 97 54.9021 96.9633 54.7628 96.89C54.6235 96.8093 54.5135 96.6517 54.4328 96.417L54.1908 95.603C53.9048 95.8597 53.6261 96.087 53.3548 96.285C53.0835 96.4757 52.8011 96.637 52.5078 96.769C52.2145 96.901 51.8991 97 51.5618 97.066C51.2318 97.1393 50.8651 97.176 50.4618 97.176C49.9851 97.176 49.5451 97.1137 49.1418 96.989C48.7385 96.857 48.3901 96.6627 48.0968 96.406C47.8035 96.1493 47.5761 95.8303 47.4148 95.449C47.2535 95.0677 47.1728 94.624 47.1728 94.118C47.1728 93.832 47.2205 93.5497 47.3158 93.271C47.4111 92.985 47.5651 92.7137 47.7778 92.457C47.9978 92.2003 48.2801 91.9583 48.6248 91.731C48.9695 91.5037 49.3911 91.3057 49.8898 91.137C50.3958 90.9683 50.9825 90.8327 51.6498 90.73C52.3171 90.62 53.0798 90.554 53.9378 90.532V89.872C53.9378 89.1167 53.7765 88.5593 53.4538 88.2C53.1311 87.8333 52.6655 87.65 52.0568 87.65C51.6168 87.65 51.2501 87.7013 50.9568 87.804C50.6708 87.9067 50.4178 88.024 50.1978 88.156C49.9778 88.2807 49.7761 88.3943 49.5928 88.497C49.4168 88.5997 49.2188 88.651 48.9988 88.651C48.8081 88.651 48.6468 88.6033 48.5148 88.508C48.3828 88.4053 48.2765 88.288 48.1958 88.156L47.7118 87.287ZM61.8977 80.654V97H59.1807V80.654H61.8977ZM74.8567 85.714L68.7077 100.102C68.627 100.293 68.5207 100.436 68.3887 100.531C68.264 100.634 68.0697 100.685 67.8057 100.685H65.7817L67.8937 96.153L63.3287 85.714H65.7157C65.9284 85.714 66.0934 85.7653 66.2107 85.868C66.3354 85.9707 66.427 86.088 66.4857 86.22L68.8837 92.072C68.9644 92.27 69.0304 92.468 69.0817 92.666C69.1404 92.864 69.1954 93.0657 69.2467 93.271C69.3127 93.0657 69.3787 92.864 69.4447 92.666C69.5107 92.4607 69.584 92.259 69.6647 92.061L71.9307 86.22C71.9894 86.0733 72.0847 85.9523 72.2167 85.857C72.356 85.7617 72.51 85.714 72.6787 85.714H74.8567ZM82.8559 87.914C82.7826 88.0313 82.7056 88.1157 82.6249 88.167C82.5443 88.211 82.4416 88.233 82.3169 88.233C82.1849 88.233 82.0419 88.1963 81.8879 88.123C81.7413 88.0497 81.5689 87.969 81.3709 87.881C81.1729 87.7857 80.9456 87.7013 80.6889 87.628C80.4396 87.5547 80.1426 87.518 79.7979 87.518C79.2626 87.518 78.8409 87.6317 78.5329 87.859C78.2323 88.0863 78.0819 88.3833 78.0819 88.75C78.0819 88.992 78.1589 89.1973 78.3129 89.366C78.4743 89.5273 78.6833 89.6703 78.9399 89.795C79.2039 89.9197 79.5009 90.0333 79.8309 90.136C80.1609 90.2313 80.4946 90.3377 80.8319 90.455C81.1766 90.5723 81.5139 90.708 81.8439 90.862C82.1739 91.0087 82.4673 91.1993 82.7239 91.434C82.9879 91.6613 83.1969 91.9363 83.3509 92.259C83.5123 92.5817 83.5929 92.9703 83.5929 93.425C83.5929 93.9677 83.4939 94.47 83.2959 94.932C83.1053 95.3867 82.8193 95.7827 82.4379 96.12C82.0566 96.45 81.5836 96.7103 81.0189 96.901C80.4616 97.0843 79.8163 97.176 79.0829 97.176C78.6943 97.176 78.3129 97.1393 77.9389 97.066C77.5723 97 77.2166 96.9047 76.8719 96.78C76.5346 96.6553 76.2193 96.5087 75.9259 96.34C75.6399 96.1713 75.3869 95.988 75.1669 95.79L75.7939 94.756C75.8746 94.6313 75.9699 94.536 76.0799 94.47C76.1899 94.404 76.3293 94.371 76.4979 94.371C76.6666 94.371 76.8243 94.4187 76.9709 94.514C77.1249 94.6093 77.3009 94.712 77.4989 94.822C77.6969 94.932 77.9279 95.0347 78.1919 95.13C78.4633 95.2253 78.8043 95.273 79.2149 95.273C79.5376 95.273 79.8126 95.2363 80.0399 95.163C80.2746 95.0823 80.4653 94.9797 80.6119 94.855C80.7659 94.7303 80.8759 94.5873 80.9419 94.426C81.0153 94.2573 81.0519 94.085 81.0519 93.909C81.0519 93.645 80.9713 93.4287 80.8099 93.26C80.6559 93.0913 80.4469 92.9447 80.1829 92.82C79.9263 92.6953 79.6293 92.5853 79.2919 92.49C78.9619 92.3873 78.6209 92.2773 78.2689 92.16C77.9243 92.0427 77.5833 91.907 77.2459 91.753C76.9159 91.5917 76.6189 91.39 76.3549 91.148C76.0983 90.906 75.8893 90.609 75.7279 90.257C75.5739 89.905 75.4969 89.4797 75.4969 88.981C75.4969 88.519 75.5886 88.079 75.7719 87.661C75.9553 87.243 76.2229 86.88 76.5749 86.572C76.9343 86.2567 77.3779 86.0073 77.9059 85.824C78.4413 85.6333 79.0573 85.538 79.7539 85.538C80.5313 85.538 81.2389 85.6663 81.8769 85.923C82.5149 86.1797 83.0466 86.517 83.4719 86.935L82.8559 87.914ZM88.4539 85.714V97H85.7259V85.714H88.4539ZM88.8279 82.425C88.8279 82.6597 88.7802 82.8797 88.6849 83.085C88.5896 83.2903 88.4612 83.47 88.2999 83.624C88.1459 83.778 87.9626 83.9027 87.7499 83.998C87.5372 84.086 87.3099 84.13 87.0679 84.13C86.8332 84.13 86.6096 84.086 86.3969 83.998C86.1916 83.9027 86.0119 83.778 85.8579 83.624C85.7039 83.47 85.5792 83.2903 85.4839 83.085C85.3959 82.8797 85.3519 82.6597 85.3519 82.425C85.3519 82.183 85.3959 81.9557 85.4839 81.743C85.5792 81.5303 85.7039 81.347 85.8579 81.193C86.0119 81.039 86.1916 80.918 86.3969 80.83C86.6096 80.7347 86.8332 80.687 87.0679 80.687C87.3099 80.687 87.5372 80.7347 87.7499 80.83C87.9626 80.918 88.1459 81.039 88.2999 81.193C88.4612 81.347 88.5896 81.5303 88.6849 81.743C88.7802 81.9557 88.8279 82.183 88.8279 82.425ZM98.1098 87.914C98.0365 88.0313 97.9595 88.1157 97.8788 88.167C97.7982 88.211 97.6955 88.233 97.5708 88.233C97.4388 88.233 97.2958 88.1963 97.1418 88.123C96.9952 88.0497 96.8228 87.969 96.6248 87.881C96.4268 87.7857 96.1995 87.7013 95.9428 87.628C95.6935 87.5547 95.3965 87.518 95.0518 87.518C94.5165 87.518 94.0948 87.6317 93.7868 87.859C93.4862 88.0863 93.3358 88.3833 93.3358 88.75C93.3358 88.992 93.4128 89.1973 93.5668 89.366C93.7282 89.5273 93.9372 89.6703 94.1938 89.795C94.4578 89.9197 94.7548 90.0333 95.0848 90.136C95.4148 90.2313 95.7485 90.3377 96.0858 90.455C96.4305 90.5723 96.7678 90.708 97.0978 90.862C97.4278 91.0087 97.7212 91.1993 97.9778 91.434C98.2418 91.6613 98.4508 91.9363 98.6048 92.259C98.7662 92.5817 98.8468 92.9703 98.8468 93.425C98.8468 93.9677 98.7478 94.47 98.5498 94.932C98.3592 95.3867 98.0732 95.7827 97.6918 96.12C97.3105 96.45 96.8375 96.7103 96.2728 96.901C95.7155 97.0843 95.0702 97.176 94.3368 97.176C93.9482 97.176 93.5668 97.1393 93.1928 97.066C92.8262 97 92.4705 96.9047 92.1258 96.78C91.7885 96.6553 91.4732 96.5087 91.1798 96.34C90.8938 96.1713 90.6408 95.988 90.4208 95.79L91.0478 94.756C91.1285 94.6313 91.2238 94.536 91.3338 94.47C91.4438 94.404 91.5832 94.371 91.7518 94.371C91.9205 94.371 92.0782 94.4187 92.2248 94.514C92.3788 94.6093 92.5548 94.712 92.7528 94.822C92.9508 94.932 93.1818 95.0347 93.4458 95.13C93.7172 95.2253 94.0582 95.273 94.4688 95.273C94.7915 95.273 95.0665 95.2363 95.2938 95.163C95.5285 95.0823 95.7192 94.9797 95.8658 94.855C96.0198 94.7303 96.1298 94.5873 96.1958 94.426C96.2692 94.2573 96.3058 94.085 96.3058 93.909C96.3058 93.645 96.2252 93.4287 96.0638 93.26C95.9098 93.0913 95.7008 92.9447 95.4368 92.82C95.1802 92.6953 94.8832 92.5853 94.5458 92.49C94.2158 92.3873 93.8748 92.2773 93.5228 92.16C93.1782 92.0427 92.8372 91.907 92.4998 91.753C92.1698 91.5917 91.8728 91.39 91.6088 91.148C91.3522 90.906 91.1432 90.609 90.9818 90.257C90.8278 89.905 90.7508 89.4797 90.7508 88.981C90.7508 88.519 90.8425 88.079 91.0258 87.661C91.2092 87.243 91.4768 86.88 91.8288 86.572C92.1882 86.2567 92.6318 86.0073 93.1598 85.824C93.6952 85.6333 94.3112 85.538 95.0078 85.538C95.7852 85.538 96.4928 85.6663 97.1308 85.923C97.7688 86.1797 98.3005 86.517 98.7258 86.935L98.1098 87.914ZM108.958 94.074C109.266 94.448 109.6 94.712 109.959 94.866C110.326 95.02 110.711 95.097 111.114 95.097C111.532 95.097 111.906 95.0237 112.236 94.877C112.574 94.723 112.86 94.4883 113.094 94.173C113.329 93.8503 113.509 93.4433 113.633 92.952C113.758 92.4533 113.82 91.8593 113.82 91.17C113.82 89.9307 113.615 89.036 113.204 88.486C112.794 87.9287 112.203 87.65 111.433 87.65C110.913 87.65 110.458 87.771 110.069 88.013C109.681 88.2477 109.31 88.5813 108.958 89.014V94.074ZM108.958 87.1C109.413 86.6233 109.915 86.2457 110.465 85.967C111.023 85.681 111.657 85.538 112.368 85.538C113.021 85.538 113.608 85.6663 114.128 85.923C114.656 86.1797 115.104 86.55 115.47 87.034C115.844 87.5107 116.13 88.09 116.328 88.772C116.526 89.454 116.625 90.2203 116.625 91.071C116.625 91.9877 116.512 92.82 116.284 93.568C116.057 94.316 115.731 94.9577 115.305 95.493C114.887 96.021 114.381 96.4317 113.787 96.725C113.193 97.0183 112.533 97.165 111.807 97.165C111.455 97.165 111.136 97.1283 110.85 97.055C110.564 96.989 110.3 96.8937 110.058 96.769C109.816 96.6443 109.593 96.494 109.387 96.318C109.189 96.1347 108.999 95.933 108.815 95.713L108.694 96.472C108.65 96.6627 108.573 96.7983 108.463 96.879C108.361 96.9597 108.218 97 108.034 97H106.241V80.654H108.958V87.1ZM128.654 85.714L122.505 100.102C122.424 100.293 122.318 100.436 122.186 100.531C122.061 100.634 121.867 100.685 121.603 100.685H119.579L121.691 96.153L117.126 85.714H119.513C119.725 85.714 119.89 85.7653 120.008 85.868C120.132 85.9707 120.224 86.088 120.283 86.22L122.681 92.072C122.761 92.27 122.827 92.468 122.879 92.666C122.937 92.864 122.992 93.0657 123.044 93.271C123.11 93.0657 123.176 92.864 123.242 92.666C123.308 92.4607 123.381 92.259 123.462 92.061L125.728 86.22C125.786 86.0733 125.882 85.9523 126.014 85.857C126.153 85.7617 126.307 85.714 126.476 85.714H128.654ZM156.237 81.094L151.298 97H148.625L145.149 86.132C145.053 85.868 144.965 85.5453 144.885 85.164C144.841 85.3473 144.797 85.5197 144.753 85.681C144.709 85.8423 144.661 85.9927 144.61 86.132L141.101 97H138.417L133.489 81.094H135.964C136.22 81.094 136.433 81.1563 136.602 81.281C136.778 81.3983 136.895 81.5597 136.954 81.765L139.66 91.28C139.718 91.5147 139.773 91.7713 139.825 92.05C139.883 92.3213 139.942 92.6073 140.001 92.908C140.059 92.6 140.122 92.3103 140.188 92.039C140.261 91.7677 140.338 91.5147 140.419 91.28L143.543 81.765C143.601 81.5963 143.715 81.4423 143.884 81.303C144.06 81.1637 144.272 81.094 144.522 81.094H145.391C145.647 81.094 145.856 81.1563 146.018 81.281C146.179 81.4057 146.3 81.567 146.381 81.765L149.494 91.28C149.648 91.7347 149.787 92.259 149.912 92.853C150.007 92.2737 150.113 91.7493 150.231 91.28L152.937 81.765C152.981 81.5817 153.091 81.424 153.267 81.292C153.45 81.16 153.666 81.094 153.916 81.094H156.237ZM162.369 92.182C161.585 92.2187 160.925 92.2883 160.389 92.391C159.854 92.4863 159.425 92.611 159.102 92.765C158.78 92.919 158.549 93.0987 158.409 93.304C158.27 93.5093 158.2 93.733 158.2 93.975C158.2 94.4517 158.34 94.7927 158.618 94.998C158.904 95.2033 159.275 95.306 159.729 95.306C160.287 95.306 160.767 95.207 161.17 95.009C161.581 94.8037 161.981 94.4957 162.369 94.085V92.182ZM156.143 87.287C157.441 86.099 159.003 85.505 160.829 85.505C161.489 85.505 162.08 85.615 162.6 85.835C163.121 86.0477 163.561 86.3483 163.92 86.737C164.28 87.1183 164.551 87.5767 164.734 88.112C164.925 88.6473 165.02 89.234 165.02 89.872V97H163.788C163.532 97 163.334 96.9633 163.194 96.89C163.055 96.8093 162.945 96.6517 162.864 96.417L162.622 95.603C162.336 95.8597 162.058 96.087 161.786 96.285C161.515 96.4757 161.233 96.637 160.939 96.769C160.646 96.901 160.331 97 159.993 97.066C159.663 97.1393 159.297 97.176 158.893 97.176C158.417 97.176 157.977 97.1137 157.573 96.989C157.17 96.857 156.822 96.6627 156.528 96.406C156.235 96.1493 156.008 95.8303 155.846 95.449C155.685 95.0677 155.604 94.624 155.604 94.118C155.604 93.832 155.652 93.5497 155.747 93.271C155.843 92.985 155.997 92.7137 156.209 92.457C156.429 92.2003 156.712 91.9583 157.056 91.731C157.401 91.5037 157.823 91.3057 158.321 91.137C158.827 90.9683 159.414 90.8327 160.081 90.73C160.749 90.62 161.511 90.554 162.369 90.532V89.872C162.369 89.1167 162.208 88.5593 161.885 88.2C161.563 87.8333 161.097 87.65 160.488 87.65C160.048 87.65 159.682 87.7013 159.388 87.804C159.102 87.9067 158.849 88.024 158.629 88.156C158.409 88.2807 158.208 88.3943 158.024 88.497C157.848 88.5997 157.65 88.651 157.43 88.651C157.24 88.651 157.078 88.6033 156.946 88.508C156.814 88.4053 156.708 88.288 156.627 88.156L156.143 87.287ZM171.191 97.176C170.208 97.176 169.453 96.901 168.925 96.351C168.404 95.7937 168.144 95.0273 168.144 94.052V87.749H166.989C166.842 87.749 166.718 87.7013 166.615 87.606C166.512 87.5107 166.461 87.3677 166.461 87.177V86.099L168.276 85.802L168.848 82.722C168.885 82.5753 168.954 82.4617 169.057 82.381C169.16 82.3003 169.292 82.26 169.453 82.26H170.861V85.813H173.875V87.749H170.861V93.865C170.861 94.217 170.945 94.492 171.114 94.69C171.29 94.888 171.528 94.987 171.829 94.987C171.998 94.987 172.137 94.9687 172.247 94.932C172.364 94.888 172.463 94.844 172.544 94.8C172.632 94.756 172.709 94.7157 172.775 94.679C172.841 94.635 172.907 94.613 172.973 94.613C173.054 94.613 173.12 94.635 173.171 94.679C173.222 94.7157 173.277 94.7743 173.336 94.855L174.15 96.175C173.754 96.505 173.299 96.7543 172.786 96.923C172.273 97.0917 171.741 97.176 171.191 97.176ZM182.5 87.914C182.427 88.0313 182.35 88.1157 182.269 88.167C182.189 88.211 182.086 88.233 181.961 88.233C181.829 88.233 181.686 88.1963 181.532 88.123C181.386 88.0497 181.213 87.969 181.015 87.881C180.817 87.7857 180.59 87.7013 180.333 87.628C180.084 87.5547 179.787 87.518 179.442 87.518C178.907 87.518 178.485 87.6317 178.177 87.859C177.877 88.0863 177.726 88.3833 177.726 88.75C177.726 88.992 177.803 89.1973 177.957 89.366C178.119 89.5273 178.328 89.6703 178.584 89.795C178.848 89.9197 179.145 90.0333 179.475 90.136C179.805 90.2313 180.139 90.3377 180.476 90.455C180.821 90.5723 181.158 90.708 181.488 90.862C181.818 91.0087 182.112 91.1993 182.368 91.434C182.632 91.6613 182.841 91.9363 182.995 92.259C183.157 92.5817 183.237 92.9703 183.237 93.425C183.237 93.9677 183.138 94.47 182.94 94.932C182.75 95.3867 182.464 95.7827 182.082 96.12C181.701 96.45 181.228 96.7103 180.663 96.901C180.106 97.0843 179.461 97.176 178.727 97.176C178.339 97.176 177.957 97.1393 177.583 97.066C177.217 97 176.861 96.9047 176.516 96.78C176.179 96.6553 175.864 96.5087 175.57 96.34C175.284 96.1713 175.031 95.988 174.811 95.79L175.438 94.756C175.519 94.6313 175.614 94.536 175.724 94.47C175.834 94.404 175.974 94.371 176.142 94.371C176.311 94.371 176.469 94.4187 176.615 94.514C176.769 94.6093 176.945 94.712 177.143 94.822C177.341 94.932 177.572 95.0347 177.836 95.13C178.108 95.2253 178.449 95.273 178.859 95.273C179.182 95.273 179.457 95.2363 179.684 95.163C179.919 95.0823 180.11 94.9797 180.256 94.855C180.41 94.7303 180.52 94.5873 180.586 94.426C180.66 94.2573 180.696 94.085 180.696 93.909C180.696 93.645 180.616 93.4287 180.454 93.26C180.3 93.0913 180.091 92.9447 179.827 92.82C179.571 92.6953 179.274 92.5853 178.936 92.49C178.606 92.3873 178.265 92.2773 177.913 92.16C177.569 92.0427 177.228 91.907 176.89 91.753C176.56 91.5917 176.263 91.39 175.999 91.148C175.743 90.906 175.534 90.609 175.372 90.257C175.218 89.905 175.141 89.4797 175.141 88.981C175.141 88.519 175.233 88.079 175.416 87.661C175.6 87.243 175.867 86.88 176.219 86.572C176.579 86.2567 177.022 86.0073 177.55 85.824C178.086 85.6333 178.702 85.538 179.398 85.538C180.176 85.538 180.883 85.6663 181.521 85.923C182.159 86.1797 182.691 86.517 183.116 86.935L182.5 87.914ZM190.276 85.538C191.112 85.538 191.871 85.6737 192.553 85.945C193.243 86.2163 193.829 86.6013 194.313 87.1C194.805 87.5987 195.182 88.2073 195.446 88.926C195.71 89.6447 195.842 90.4477 195.842 91.335C195.842 92.2297 195.71 93.0363 195.446 93.755C195.182 94.4737 194.805 95.086 194.313 95.592C193.829 96.098 193.243 96.4867 192.553 96.758C191.871 97.0293 191.112 97.165 190.276 97.165C189.433 97.165 188.667 97.0293 187.977 96.758C187.288 96.4867 186.698 96.098 186.206 95.592C185.722 95.086 185.345 94.4737 185.073 93.755C184.809 93.0363 184.677 92.2297 184.677 91.335C184.677 90.4477 184.809 89.6447 185.073 88.926C185.345 88.2073 185.722 87.5987 186.206 87.1C186.698 86.6013 187.288 86.2163 187.977 85.945C188.667 85.6737 189.433 85.538 190.276 85.538ZM190.276 95.075C191.215 95.075 191.908 94.7597 192.355 94.129C192.81 93.4983 193.037 92.5743 193.037 91.357C193.037 90.1397 192.81 89.212 192.355 88.574C191.908 87.936 191.215 87.617 190.276 87.617C189.323 87.617 188.615 87.9397 188.153 88.585C187.699 89.223 187.471 90.147 187.471 91.357C187.471 92.567 187.699 93.491 188.153 94.129C188.615 94.7597 189.323 95.075 190.276 95.075ZM200.456 87.1C200.684 86.8727 200.922 86.6637 201.171 86.473C201.428 86.275 201.696 86.11 201.974 85.978C202.26 85.8387 202.565 85.7323 202.887 85.659C203.21 85.5783 203.562 85.538 203.943 85.538C204.559 85.538 205.106 85.6443 205.582 85.857C206.059 86.0623 206.455 86.3557 206.77 86.737C207.093 87.111 207.335 87.562 207.496 88.09C207.665 88.6107 207.749 89.1863 207.749 89.817V97H205.032V89.817C205.032 89.1277 204.875 88.596 204.559 88.222C204.244 87.8407 203.764 87.65 203.118 87.65C202.649 87.65 202.209 87.7563 201.798 87.969C201.388 88.1817 200.999 88.4713 200.632 88.838V97H197.915V85.714H199.576C199.928 85.714 200.159 85.879 200.269 86.209L200.456 87.1ZM223.785 90.994L221.849 85.703C221.754 85.4683 221.655 85.1897 221.552 84.867C221.45 84.5443 221.347 84.196 221.244 83.822C221.149 84.196 221.05 84.548 220.947 84.878C220.845 85.2007 220.746 85.483 220.65 85.725L218.725 90.994H223.785ZM229.01 97H226.722C226.466 97 226.257 96.9377 226.095 96.813C225.934 96.681 225.813 96.5197 225.732 96.329L224.544 93.084H217.955L216.767 96.329C216.709 96.4977 216.595 96.6517 216.426 96.791C216.258 96.9303 216.049 97 215.799 97H213.489L219.748 81.094H222.762L229.01 97ZM235.827 89.091C236.369 89.091 236.842 89.025 237.246 88.893C237.649 88.7537 237.983 88.5593 238.247 88.31C238.518 88.0533 238.72 87.7453 238.852 87.386C238.984 87.0193 239.05 86.6123 239.05 86.165C239.05 85.7397 238.984 85.3547 238.852 85.01C238.72 84.6653 238.522 84.372 238.258 84.13C237.994 83.888 237.66 83.7047 237.257 83.58C236.853 83.448 236.377 83.382 235.827 83.382H233.616V89.091H235.827ZM235.827 81.094C236.89 81.094 237.81 81.2187 238.588 81.468C239.365 81.7173 240.007 82.0657 240.513 82.513C241.019 82.9603 241.393 83.4957 241.635 84.119C241.884 84.7423 242.009 85.4243 242.009 86.165C242.009 86.935 241.88 87.6427 241.624 88.288C241.367 88.926 240.982 89.476 240.469 89.938C239.955 90.4 239.31 90.7593 238.533 91.016C237.763 91.2727 236.861 91.401 235.827 91.401H233.616V97H230.657V81.094H235.827ZM247.248 97H244.278V81.094H247.248V97Z" fill="black"/>
</svg>
